<svg width="340" height="200" viewBox="0 0 340 200" fill="none" xmlns="http://www.w3.org/2000/svg">
<mask id="mask0_759_4814" style="mask-type:alpha" maskUnits="userSpaceOnUse" x="0" y="0" width="340" height="200">
<path d="M0 10C0 4.47716 4.47715 0 10 0H330C335.523 0 340 4.47715 340 10V200H0V10Z" fill="#B4B4B4"/>
</mask>
<g mask="url(#mask0_759_4814)">
<path d="M340 -20H0V206H340V-20Z" fill="#D7DBFD"/>
<path opacity="0.8" d="M340.209 206.353L0.698131 206.118L0.430664 192.042C9.45653 187.531 17.8568 181.832 25.4547 174.889C33.4107 167.616 40.3149 159.186 45.7685 149.889C54.7491 134.579 59.8536 117.349 67.5331 101.348C75.2125 85.3522 86.3736 69.8576 102.771 62.9782C117.023 56.9982 133.176 58.3226 148.408 55.6693C165.435 52.7042 181.519 44.5501 193.959 32.5766C204.032 22.8812 211.666 10.858 221.993 1.42932C235.706 -11.0911 253.998 -18.5129 272.585 -19.096L340.209 -20V206.353Z" fill="#D7DBFD"/>
<path d="M79.2064 -1.328V32.9426H112.785V140.03" stroke="white" stroke-width="2" stroke-miterlimit="10" stroke-linecap="round"/>
<path d="M33.184 -1.328V86.7532H79.2064V144.772" stroke="white" stroke-width="2" stroke-miterlimit="10" stroke-linecap="round"/>
<path d="M70.2712 113.209V48.3784H154.26V-1.328H244.841V17.6334H282.449" stroke="white" stroke-width="2" stroke-miterlimit="10" stroke-linecap="round"/>
<path d="M35.5051 86.0391C35.5051 87.3183 34.4669 88.3533 33.184 88.3533C31.9011 88.3533 30.8629 87.3183 30.8629 86.0391C30.8629 84.7599 31.9011 83.7249 33.184 83.7249C34.4669 83.7249 35.5051 84.7599 35.5051 86.0391Z" fill="white"/>
<path d="M82.883 86.0391C82.883 87.3183 81.8448 88.3533 80.5619 88.3533C79.279 88.3533 78.2408 87.3183 78.2408 86.0391C78.2408 84.7599 79.279 83.7249 80.5619 83.7249C81.8448 83.7249 82.883 84.7599 82.883 86.0391Z" fill="white"/>
<path d="M81.3552 -1.18332C81.3552 0.0958424 80.3171 1.13092 79.0341 1.13092C77.7512 1.13092 76.7131 0.0958424 76.7131 -1.18332C76.7131 -2.46248 77.7512 -3.49756 79.0341 -3.49756C80.3171 -3.49304 81.3552 -2.45796 81.3552 -1.18332Z" fill="white"/>
<path d="M35.5051 -1.18332C35.5051 0.0958424 34.4669 1.13092 33.184 1.13092C31.9011 1.13092 30.8629 0.0958424 30.8629 -1.18332C30.8629 -2.46248 31.9011 -3.49756 33.184 -3.49756C34.4669 -3.49304 35.5051 -2.45796 35.5051 -1.18332Z" fill="white"/>
<path d="M156.645 -0.844328C156.645 0.434832 155.607 1.46991 154.324 1.46991C153.041 1.46991 152.003 0.434832 152.003 -0.844328C152.003 -2.12349 153.041 -3.15857 154.324 -3.15857C155.607 -3.15405 156.645 -2.11897 156.645 -0.844328Z" fill="white"/>
<path d="M247.162 -0.844328C247.162 0.434832 246.124 1.46991 244.841 1.46991C243.558 1.46991 242.52 0.434832 242.52 -0.844328C242.52 -2.12349 243.558 -3.15857 244.841 -3.15857C246.124 -3.15405 247.162 -2.11897 247.162 -0.844328Z" fill="white"/>
<path d="M247.162 17.6786C247.162 18.9578 246.124 19.9929 244.841 19.9929C243.558 19.9929 242.52 18.9578 242.52 17.6786C242.52 16.3995 243.558 15.3644 244.841 15.3644C246.124 15.3644 247.162 16.3995 247.162 17.6786Z" fill="white"/>
<path d="M296.308 52.338C296.308 53.6172 295.27 54.6523 293.987 54.6523C292.704 54.6523 291.666 53.6172 291.666 52.338C291.666 51.0589 292.704 50.0238 293.987 50.0238C295.27 50.0238 296.308 51.0634 296.308 52.338Z" fill="white"/>
<path d="M244.841 73.2023C244.841 74.4815 243.803 75.5165 242.52 75.5165C241.237 75.5165 240.199 74.4815 240.199 73.2023C240.199 71.9231 241.237 70.8881 242.52 70.8881C243.803 70.8881 244.841 71.9231 244.841 73.2023Z" fill="white"/>
<path d="M311.685 73.2023C311.685 74.4815 310.647 75.5165 309.364 75.5165C308.081 75.5165 307.043 74.4815 307.043 73.2023C307.043 71.9231 308.081 70.8881 309.364 70.8881C310.647 70.8881 311.685 71.9231 311.685 73.2023Z" fill="white"/>
<path d="M288.062 108.097C288.062 109.376 287.023 110.411 285.74 110.411C284.458 110.411 283.419 109.376 283.419 108.097C283.419 106.818 284.458 105.782 285.74 105.782C287.023 105.787 288.062 106.822 288.062 108.097Z" fill="white"/>
<path d="M288.062 182.464C288.062 183.743 287.023 184.779 285.74 184.779C284.458 184.779 283.419 183.743 283.419 182.464C283.419 181.185 284.458 180.15 285.74 180.15C287.023 180.15 288.062 181.185 288.062 182.464Z" fill="white"/>
<path d="M311.685 182.464C311.685 183.743 310.647 184.779 309.364 184.779C308.081 184.779 307.043 183.743 307.043 182.464C307.043 181.185 308.081 180.15 309.364 180.15C310.647 180.15 311.685 181.185 311.685 182.464Z" fill="white"/>
<path d="M258.921 52.338C258.921 53.6172 257.883 54.6523 256.6 54.6523C255.317 54.6523 254.279 53.6172 254.279 52.338C254.279 51.0589 255.317 50.0238 256.6 50.0238C257.883 50.0238 258.921 51.0634 258.921 52.338Z" fill="white"/>
<path d="M81.3552 33.3676C81.3552 34.6467 80.3171 35.6818 79.0341 35.6818C77.7512 35.6818 76.7131 34.6467 76.7131 33.3676C76.7131 32.0884 77.7512 31.0533 79.0341 31.0533C80.3171 31.0579 81.3552 32.0929 81.3552 33.3676Z" fill="white"/>
<path d="M115.101 33.3676C115.101 34.6467 114.063 35.6818 112.78 35.6818C111.497 35.6818 110.459 34.6467 110.459 33.3676C110.459 32.0884 111.497 31.0533 112.78 31.0533C114.063 31.0533 115.101 32.0929 115.101 33.3676Z" fill="white"/>
<path d="M156.645 48.4689C156.645 49.7481 155.607 50.7831 154.324 50.7831C153.041 50.7831 152.003 49.7481 152.003 48.4689C152.003 47.1897 153.041 46.1547 154.324 46.1547C155.607 46.1547 156.645 47.1897 156.645 48.4689Z" fill="white"/>
<path d="M72.5923 48.3784C72.5923 49.6576 71.5541 50.6927 70.2712 50.6927C68.9883 50.6927 67.9501 49.6576 67.9501 48.3784C67.9501 47.0993 68.9883 46.0642 70.2712 46.0642C71.5541 46.0642 72.5923 47.0993 72.5923 48.3784Z" fill="white"/>
<path d="M242.429 113.81V73.2023H309.364V140.03" stroke="white" stroke-width="2" stroke-miterlimit="10" stroke-linecap="round"/>
<path d="M256.6 103.929V52.338H293.987V15.8074" stroke="white" stroke-width="2" stroke-miterlimit="10" stroke-linecap="round"/>
<path d="M264.139 108.097H285.741V182.464H309.364V205.62" stroke="white" stroke-width="2" stroke-miterlimit="10" stroke-linecap="round"/>
<path opacity="0.5" d="M301.952 29.4035H279.548C277.644 29.4035 276.103 27.8667 276.103 25.9683V11.8071C276.103 9.90875 277.644 8.37195 279.548 8.37195H301.952C303.856 8.37195 305.397 9.90875 305.397 11.8071V25.9638C305.397 27.8622 303.856 29.4035 301.952 29.4035Z" fill="#A5A9E8"/>
<path d="M304.998 26.8904H283.243C281.162 26.8904 279.475 25.209 279.475 23.1343V9.61952C279.475 7.54484 281.162 5.8634 283.243 5.8634H304.998C307.079 5.8634 308.765 7.54484 308.765 9.61952V23.1298C308.77 25.209 307.079 26.8904 304.998 26.8904Z" fill="white"/>
<path d="M308.77 9.77773C308.77 7.61265 307.011 5.85889 304.839 5.85889H283.406C281.234 5.85889 279.475 7.61265 279.475 9.77773V9.97661H308.77V9.77773Z" fill="#A5A9E8"/>
<path opacity="0.5" d="M42.4592 47.9536H20.0555C18.1515 47.9536 16.6101 46.4168 16.6101 44.5184V30.3617C16.6101 28.4633 18.1515 26.9265 20.0555 26.9265H42.4592C44.3632 26.9265 45.9045 28.4633 45.9045 30.3617V44.5184C45.9045 46.4168 44.3587 47.9536 42.4592 47.9536Z" fill="#A5A9E8"/>
<path d="M45.5056 45.445H23.7501C21.6693 45.445 19.9829 43.7636 19.9829 41.6889V28.1786C19.9829 26.1039 21.6693 24.4225 23.7501 24.4225H45.5056C47.5864 24.4225 49.2728 26.1039 49.2728 28.1786V41.6889C49.2728 43.759 47.5864 45.445 45.5056 45.445Z" fill="white"/>
<path d="M49.2728 28.3323C49.2728 26.1672 47.5139 24.4135 45.3424 24.4135H23.9088C21.7373 24.4135 19.9784 26.1672 19.9784 28.3323V28.5312H49.2728V28.3323Z" fill="#A5A9E8"/>
<path opacity="0.5" d="M318.285 163.105H295.882C293.978 163.105 292.436 161.568 292.436 159.67V145.513C292.436 143.615 293.978 142.078 295.882 142.078H318.285C320.189 142.078 321.731 143.615 321.731 145.513V159.67C321.731 161.568 320.185 163.105 318.285 163.105Z" fill="#A5A9E8"/>
<path d="M321.332 160.592H299.576C297.495 160.592 295.809 158.911 295.809 156.836V143.326C295.809 141.251 297.495 139.569 299.576 139.569H321.332C323.413 139.569 325.099 141.251 325.099 143.326V156.836C325.099 158.911 323.413 160.592 321.332 160.592Z" fill="white"/>
<path d="M325.099 143.479C325.099 141.314 323.34 139.56 321.169 139.56H299.735C297.563 139.56 295.805 141.314 295.805 143.479V143.678H325.099V143.479Z" fill="#A5A9E8"/>
<path d="M174.211 98.0352C171.541 99.0884 168.844 100.178 166.532 101.882C164.891 103.089 163.481 104.58 162.166 106.131C154.36 115.315 149.6 126.647 145.361 137.92C144.432 140.392 143.521 142.883 143.004 145.473C142.465 148.185 142.374 150.964 142.17 153.722C141.762 159.164 140.91 164.687 142.029 170.025C143.149 175.363 146.83 180.625 152.202 181.664C153.422 181.899 154.714 181.904 155.879 181.474C159.383 180.182 160.38 175.829 161.078 172.168C162.547 164.443 164.945 156.926 167.339 149.437C170.367 139.949 173.4 130.453 177.013 121.173C179.275 115.365 181.759 109.652 184.353 103.984C185.635 101.177 188.804 95.6894 190.128 92.9005C192.168 88.602 186.814 93.1853 184.135 94.2023C180.817 95.4634 177.507 96.7335 174.211 98.0352Z" fill="#E286B8"/>
<path opacity="0.5" d="M174.211 98.0352C171.541 99.0884 168.844 100.178 166.532 101.882C164.891 103.089 163.481 104.58 162.166 106.131C154.36 115.315 149.6 126.647 145.361 137.92C144.432 140.392 143.521 142.883 143.004 145.473C142.465 148.185 142.374 150.964 142.17 153.722C141.762 159.164 140.91 164.687 142.029 170.025C143.149 175.363 146.83 180.625 152.202 181.664C153.422 181.899 154.714 181.904 155.879 181.474C159.383 180.182 160.38 175.829 161.078 172.168C162.547 164.443 164.945 156.926 167.339 149.437C170.367 139.949 173.4 130.453 177.013 121.173C179.275 115.365 181.759 109.652 184.353 103.984C185.635 101.177 188.804 95.6894 190.128 92.9005C192.168 88.602 186.814 93.1853 184.135 94.2023C180.817 95.4634 177.507 96.7335 174.211 98.0352Z" fill="#E286B8"/>
<path d="M222.677 83.1012C224.695 82.5678 226.571 81.4559 228.652 81.2706C231.853 80.9768 234.781 82.8797 237.519 84.5521C239.963 86.0437 242.479 87.4178 245.058 88.6608C249.877 90.9841 254.909 92.8644 259.692 95.2555C264.479 97.6511 269.081 100.621 272.499 104.729C275.917 108.838 278.057 114.212 277.417 119.514C276.864 124.107 276.402 128.911 275.201 133.377C273.074 141.269 256.854 204.355 254.334 206C254.334 206 172.004 205.548 156.513 206.099C151.767 206.267 158.168 165.709 158.377 163.318C159.691 148.09 164.596 133.404 170.091 119.139C174.252 108.336 179.429 96.9143 189.521 91.2056C196.593 87.2054 205.043 86.6539 213.157 86.1929C213.493 86.1748 213.434 85.551 213.697 85.3431C214.363 84.8188 215.274 84.7736 216.113 84.6742C217.786 84.4708 221.059 83.5306 222.677 83.1012Z" fill="#E286B8"/>
<g opacity="0.5">
<path d="M228.086 184.684C204.159 182.496 179.747 184.697 156.092 181.217C155.23 188.901 154.532 197.24 154.859 202.294C161.686 203.808 168.939 203.252 175.893 202.108C184.23 200.739 192.481 198.583 200.926 198.325C213.148 197.954 225.139 201.575 237.347 202.248C243.821 202.605 250.335 202.099 256.686 200.793C257.842 197.285 259.298 192.399 260.88 186.84C250.118 187.545 238.952 185.678 228.086 184.684Z" fill="#E286B8"/>
</g>
<g opacity="0.5">
<path d="M269.253 101.434C253.323 108.395 240.212 121.842 234.178 138.15C230.787 147.326 229.541 157.125 228.321 166.825C219.472 164.05 210.111 163.295 201.158 160.881C192.322 158.499 183.908 154.517 174.878 153.044C169.95 152.239 164.941 152.198 159.936 152.32C159.238 155.959 158.703 159.625 158.381 163.322C158.173 165.713 158.095 168.271 159.319 170.337C160.213 171.842 161.709 172.904 163.273 173.7C167.502 175.856 172.366 176.349 177.099 176.746C190.459 177.881 203.855 178.595 217.242 179.309C223.697 179.653 230.175 179.996 236.626 179.576C240.158 179.345 243.816 178.835 246.777 176.905C249.297 175.259 251.088 172.733 252.81 170.269C256.41 165.13 260.009 159.991 263.604 154.852C268.296 148.153 273.074 141.273 275.196 133.382C276.397 128.916 276.864 124.111 277.413 119.519C278.047 114.217 275.912 108.842 272.494 104.734C271.51 103.541 270.418 102.447 269.253 101.434Z" fill="#E286B8"/>
</g>
<g opacity="0.5">
<path d="M195.713 97.3843C196.026 100.887 196.543 104.422 197.925 107.658C199.308 110.895 201.647 113.837 204.83 115.347C207.989 116.843 211.684 116.811 215.116 116.115C216.743 115.785 218.353 115.306 219.835 114.56C221.218 113.864 222.478 112.942 223.679 111.97C226.803 109.439 229.618 106.501 231.83 103.147C232.778 101.71 233.616 100.2 234.45 98.6951C235.357 97.0634 236.264 95.4272 237.17 93.7954C238.499 91.3998 239.854 88.9003 240.462 86.2606C239.469 85.7092 238.485 85.1396 237.519 84.5475C234.781 82.8751 231.853 80.9767 228.652 81.266C226.571 81.4558 224.695 82.5632 222.677 83.0966C221.059 83.526 217.79 84.4662 216.127 84.6696C215.283 84.7735 214.377 84.8187 213.71 85.3385C213.447 85.5464 213.502 86.1657 213.171 86.1883C207.355 86.5182 201.371 86.9024 195.84 88.5613C195.332 91.4722 195.45 94.4508 195.713 97.3843Z" fill="#E286B8"/>
</g>
<path d="M235.538 171.472C235.162 161.482 240.294 152.099 241.35 142.159C241.627 139.542 241.618 136.894 242.094 134.304C242.715 130.927 244.134 127.75 245.598 124.644C246.881 121.928 248.209 119.22 249.827 116.689C253.504 110.926 258.663 106.112 264.679 102.84C266.537 101.828 268.759 100.946 270.722 101.742C271.841 102.198 272.689 103.134 273.419 104.092C276.411 108.029 278.156 112.897 278.342 117.833C278.433 120.265 278.156 122.687 277.88 125.106C276.669 135.624 275.083 146.377 273.75 156.881C273.437 159.345 273.124 161.812 272.571 164.231C271.601 168.488 269.906 172.538 268.16 176.543C267.14 178.889 266.098 181.226 265.059 183.563C264.08 185.759 263.074 188.001 261.437 189.764C258.305 193.136 253.119 194.221 248.699 192.919C245.738 192.047 243.145 190.252 240.616 188.489C239.179 187.486 237.705 186.451 236.731 184.996C235.874 183.716 235.457 182.193 235.094 180.697C234.31 177.497 235.665 174.767 235.538 171.472Z" fill="#E286B8"/>
<path opacity="0.5" d="M248.059 174.491C251.328 175.409 254.678 176.941 256.419 179.847C257.688 181.972 257.924 184.535 258.069 187.007C258.16 188.508 258.001 190.392 256.605 190.962C255.725 191.319 254.737 190.967 253.858 190.605C249.696 188.883 245.584 186.921 242.03 184.159C240.353 182.858 238.811 181.38 237.488 179.721C236.586 178.586 234.129 175.698 234.296 174.152C234.595 171.381 246.001 173.913 248.059 174.491Z" fill="#E286B8"/>
<path d="M234.7 87.4178C234.119 84.9679 231.848 83.3272 229.654 82.0887C227.46 80.8502 225.048 79.675 223.734 77.528C223.239 76.7189 222.931 75.8059 222.709 74.8838C221.576 70.1514 222.691 65.2065 223.806 60.474C221.263 60.1305 218.579 60.6096 216.249 61.6809C213.919 62.7521 211.834 64.2889 209.857 65.9206C203.189 71.426 197.526 78.1382 193.229 85.6324C195.083 89.8586 196.194 94.4192 197.372 98.876C198.238 102.153 199.018 105.66 201.402 108.074C203.093 109.792 205.46 110.759 207.862 111.008C210.265 111.256 212.699 110.822 214.98 110.036C217.958 109.005 220.723 107.369 223.054 105.249C224.3 104.119 225.415 102.858 226.535 101.597C227.537 100.467 228.534 99.337 229.536 98.2115C230.488 97.1403 231.44 96.06 232.22 94.8622C233.689 92.5886 235.325 90.0394 234.7 87.4178Z" fill="#F0C49B"/>
<path d="M234.7 87.4178C234.119 84.9679 231.848 83.3272 229.654 82.0887C227.46 80.8502 225.048 79.675 223.734 77.528C223.239 76.7189 222.931 75.8059 222.709 74.8838C221.576 70.1514 222.691 65.2065 223.806 60.474C221.263 60.1305 218.579 60.6096 216.249 61.6809C213.919 62.7521 211.834 64.2889 209.857 65.9206C203.189 71.426 197.526 78.1382 193.229 85.6324C194.004 87.3997 194.643 89.2258 195.219 91.079C196.248 90.9298 197.268 90.7264 198.27 90.4281C200.119 89.8766 201.865 89.0224 203.583 88.141C205.664 87.0742 207.726 85.9623 209.648 84.638C213.139 82.2378 216.136 79.214 219.087 76.181C219.409 78.884 219.676 79.666 220.211 82.3373C221.095 86.7443 222.568 91.0699 224.654 94.9616C223.026 97.6194 221.435 100.39 219.1 102.46C216.516 104.752 213.23 106.153 209.852 106.908C207.826 107.36 205.736 107.595 203.674 107.383C202.49 107.261 201.339 106.994 200.224 106.623C200.568 107.143 200.958 107.631 201.402 108.083C203.093 109.801 205.46 110.768 207.862 111.017C210.265 111.265 212.699 110.831 214.98 110.045C217.958 109.014 220.723 107.378 223.054 105.258C224.3 104.128 225.415 102.867 226.535 101.606C227.537 100.476 228.534 99.346 229.536 98.2206C230.488 97.1493 231.44 96.069 232.22 94.8712C233.689 92.5886 235.325 90.0394 234.7 87.4178Z" fill="#E0A988"/>
<path d="M204.839 94.4192C203.542 95.2193 201.76 95.156 200.523 94.2655C199.82 93.7593 199.308 93.0316 198.886 92.2767C199.163 93.5197 199.272 94.6633 200.237 95.4995C200.967 96.1323 201.978 96.4261 202.935 96.286C203.891 96.1413 204.322 95.2328 204.839 94.4192Z" fill="#E0A988"/>
<path d="M226.349 92.7333C228.126 91.0429 229.396 88.9094 229.985 86.6178C230.067 86.2923 230.139 85.9488 230.044 85.6279C229.935 85.2527 229.613 84.9589 229.291 84.7058C228.19 83.8425 226.889 83.2187 225.71 82.4503C223.063 80.7282 221.199 78.3462 219.953 75.6161C219.975 78.3552 221.299 81.3655 222.256 83.9148C223.38 86.9432 224.749 89.8903 226.349 92.7333Z" fill="#F0C49B"/>
<path d="M194.621 87.7477C192.358 88.3127 189.965 88.8732 187.734 88.2043C185.839 87.6347 184.289 86.2155 183.206 84.5611C182.122 82.9068 181.46 81.0175 180.866 79.1371C177.784 69.4191 175.195 59.7554 172.144 49.852C171.355 47.2892 174.248 44.8123 176.161 42.9274C182.852 36.3192 191.411 30.7776 200.827 30.7144C203.216 30.6963 205.682 31.0669 207.726 32.3054C211.004 34.3033 212.613 38.1543 213.611 41.8562C214.445 44.9614 214.993 48.1299 215.537 51.2985C216.285 55.6241 217.033 59.9543 217.541 64.3115C217.754 66.1466 217.926 68.0179 217.541 69.8259C217.042 72.1718 215.646 74.2329 214.041 76.0229C208.891 81.7678 202.119 85.8765 194.621 87.7477Z" fill="#F0C49B"/>
<path d="M175.29 54.1867C176.528 56.3428 178.908 57.5361 181.152 58.6118C180.1 57.0886 179.837 55.0501 180.472 53.3144C181.129 51.5064 182.653 50.1278 184.325 49.1741C185.998 48.2203 187.852 47.6237 189.634 46.8915C191.415 46.1592 193.188 45.2552 194.48 43.8314C193.27 46.3897 191.57 48.7221 189.502 50.6611C193.569 50.9775 197.717 48.6045 199.494 44.9388C199.748 48.4011 201.897 51.5877 205.011 53.1426C204.866 51.6691 204.911 50.173 205.151 48.713C205.795 49.4407 206.688 49.8927 207.522 50.3945C209.363 51.5064 211.04 53.0161 211.92 54.9732C212.473 56.1981 212.69 57.5451 212.849 58.883C213.035 60.4469 213.153 62.0199 213.271 63.5883C213.343 64.5466 213.411 65.5048 213.484 66.4631C214.223 65.3285 214.785 64.081 215.143 62.7747C215.619 64.1036 215.619 65.5455 215.61 66.9557C215.605 67.6428 215.601 68.3253 215.596 69.0123C216.24 66.8473 216.802 64.6596 217.292 62.4538C216.802 58.7203 216.167 55.0094 215.528 51.2985C214.98 48.1299 214.436 44.9614 213.602 41.8562C212.609 38.1543 210.999 34.3033 207.717 32.3054C205.677 31.0624 203.211 30.6963 200.818 30.7144C191.402 30.7777 182.843 36.3192 176.152 42.9274C174.239 44.8168 171.346 47.2892 172.135 49.8521C172.933 52.4375 173.699 55.0094 174.447 57.5677C175.503 58.0423 176.628 58.3587 177.779 58.4853C176.673 57.2377 175.816 55.7687 175.29 54.1867Z" fill="#E0A988"/>
<path d="M187.059 70.0881C184.965 70.8701 182.639 71.0147 180.454 70.5221C180.454 70.5266 180.454 70.5311 180.454 70.5356C180.486 70.6803 180.599 70.7887 180.708 70.8882C181.723 71.8374 182.743 72.7866 183.759 73.7313C184.955 72.6148 186.021 71.4306 187.059 70.0881Z" fill="#E0A988"/>
<path d="M179.679 68.827C179.996 67.7648 178.749 66.4314 176.795 65.6042C177.217 67.0597 177.643 68.5151 178.074 69.966C178.913 69.7852 179.506 69.3965 179.679 68.827Z" fill="#E89F87"/>
<path d="M179.171 58.083C181.483 61.5815 182.004 66.1919 180.531 70.1107C180.481 70.2463 180.427 70.391 180.458 70.5311C180.49 70.6757 180.603 70.7842 180.712 70.8837C181.923 72.0137 183.133 73.1391 184.343 74.2691" stroke="#331810" stroke-width="1.5" stroke-miterlimit="10" stroke-linecap="round" stroke-linejoin="round"/>
<path d="M183.215 77.632C184.634 78.1247 186.184 78.0569 187.671 77.858C189.629 77.5959 191.556 77.1122 193.406 76.4207" stroke="#331810" stroke-width="1.5" stroke-miterlimit="10" stroke-linecap="round" stroke-linejoin="round"/>
<path d="M184.049 76.3212C184.869 76.1178 185.744 76.1269 186.565 76.3483" stroke="#BA7A5D" stroke-miterlimit="10" stroke-linecap="round" stroke-linejoin="round"/>
<path d="M184.33 80.5294C185.957 80.8865 187.716 80.6153 189.158 79.7791" stroke="#BA7A5D" stroke-miterlimit="10" stroke-linecap="round" stroke-linejoin="round"/>
<path d="M190.01 51.9674C191.27 50.9143 193.329 50.9776 194.521 52.1076" stroke="#331810" stroke-width="1.5" stroke-miterlimit="10" stroke-linecap="round" stroke-linejoin="round"/>
<path d="M207.037 64.0856C207.609 65.2382 206.171 67.1094 203.823 68.2666C201.475 69.4237 199.113 69.4237 198.542 68.2711C197.971 67.1185 199.408 65.2472 201.756 64.0901C204.104 62.933 206.466 62.933 207.037 64.0856Z" fill="#E89F87"/>
<path d="M193.705 58.4852C193.832 59.9407 193.437 61.1656 192.816 61.2198C192.195 61.2741 191.588 60.1395 191.461 58.6841C191.334 57.2287 191.728 56.0037 192.349 55.9495C192.966 55.8953 193.573 57.0298 193.705 58.4852Z" fill="#331810"/>
<path d="M178.994 61.1205C179.121 62.5759 178.727 63.8008 178.106 63.8551C177.485 63.9093 176.877 62.7748 176.75 61.3193C176.623 59.8639 177.018 58.639 177.639 58.5847C178.255 58.5305 178.863 59.6695 178.994 61.1205Z" fill="#331810"/>
<path d="M175.449 56.4016C175.825 56.1484 176.283 56.0535 176.727 55.9677" stroke="#331810" stroke-width="1.5" stroke-miterlimit="10" stroke-linecap="round" stroke-linejoin="round"/>
<path d="M222.646 66.0156C223.19 64.5194 221.385 61.2198 224.182 60.8447C225.765 60.6322 224.327 57.6129 223.666 56.1665C222.958 54.6297 221.272 53.3279 219.654 53.8161C218.774 54.0828 218.108 54.8195 217.713 55.6467C217.319 56.4738 217.169 57.3869 217.02 58.2909C216.662 60.4514 216.303 62.6075 215.945 64.768C215.995 62.847 215.746 60.917 215.211 59.0683C214.948 60.0492 214.549 60.8221 213.846 61.5588C214.041 59.891 213.982 58.1914 213.679 56.5416C213.334 54.6884 212.654 52.8488 211.394 51.4431C210.347 50.2724 208.964 49.4678 207.722 48.5096C206.475 47.5514 205.328 46.5344 204.997 45.0021C204.077 46.9276 203.755 49.1017 204.186 51.19C201.584 48.4282 200.618 44.2382 201.747 40.6222C199.594 44.0664 196.262 47.0632 192.707 49.0339C193.143 48.8305 193.451 48.4328 193.737 48.0486C195.718 45.4179 197.776 42.5974 198.061 39.3204C193.292 42.8777 187.73 44.9795 182.798 48.3062C181.333 49.2961 179.892 50.4125 179.008 51.9403C178.119 53.468 177.897 55.4885 178.867 56.962C176.832 55.4975 175.109 53.3822 174.447 50.964C174.366 50.6566 174.293 50.3402 174.32 50.0238C173.541 52.7494 174.343 55.8004 176.46 57.6988C173.373 56.5778 170.698 54.3811 169.175 51.4792C168.803 50.7741 168.49 50.0238 168.368 49.2328C167.443 49.8656 166.827 50.521 166.314 51.5109C165.408 53.2692 164.551 55.1902 164.782 57.1564C163.717 54.1054 163.653 50.869 164.555 47.7683C165.471 44.6269 167.679 41.5895 170.879 40.8527C168.481 40.7668 165.911 39.899 164.025 38.4255C166.41 39.117 169.152 38.8052 171.365 37.6887C169.27 37.1102 167.081 36.1067 165.331 34.814C168.536 34.3394 172.67 32.7393 175.091 30.5923C177.512 28.4453 178.704 25.7152 181.098 23.5366C184.207 20.7116 187.816 18.438 191.715 16.856C194.199 15.8481 196.824 15.1158 199.503 15.0119C205.791 14.7633 211.906 17.5069 217.142 20.9918C224.037 25.5796 226.485 31.4285 233.485 34.1948C231.749 34.3304 230.085 34.127 228.448 33.5258C229.373 36.048 229.636 38.5746 229.858 41.246C230.021 43.2302 229.994 45.2642 230.606 47.1581C231.218 49.0565 232.651 50.851 234.618 51.1945C233.458 51.4205 232.537 51.2306 231.395 50.9188C230.42 50.6521 229.359 50.3312 228.784 49.4995C228.462 55.1359 225.969 61.4504 222.646 66.0156Z" fill="#512E21"/>
<path opacity="0.2" d="M226.395 38.7735C224.926 36.6084 223.185 34.6332 221.222 32.902C224.491 38.7102 225.393 45.7976 223.684 52.2386C223.77 51.6103 223.679 50.9685 223.589 50.3402C223.04 46.67 222.337 43.0042 221.095 39.5058C219.858 36.0073 218.062 32.6625 215.524 29.9505C217.405 32.7845 218.239 36.1655 219.046 39.4696C219.849 42.7782 220.66 46.1908 220.175 49.5628C219.536 45.2778 218.035 41.1194 215.791 37.4085C217.16 41.3092 217.673 45.4676 217.804 49.6034C217.863 51.4431 217.858 53.346 218.606 55.0274C216.317 50.7967 214.603 46.1728 214.336 41.3725C213.896 44.9433 214.263 48.6136 215.401 52.0262C214.327 47.2485 210.347 43.6913 208.316 39.23C207.536 37.5215 207.046 35.6773 206.879 33.806C209.268 37.0876 211.698 40.4459 212.885 44.3241C212.74 41.0878 212.282 37.865 211.525 34.71C213.833 37.535 215.492 40.8889 216.331 44.4371C215.478 40.4233 214.59 36.3056 212.328 32.8749C214.331 34.2761 216.403 35.7451 217.609 37.8695C217.083 36.613 216.557 35.3564 216.031 34.0953C215.025 31.6907 213.991 29.2454 212.269 27.2882C214.345 28.373 216.449 29.4759 218.135 31.0986C220.003 32.8885 221.263 35.2298 222.142 37.6616C220.701 34.579 219.246 31.4737 217.278 28.6939C219.332 30.0138 221.263 31.5189 223.04 33.1868C221.907 32.1201 220.968 30.181 220.089 28.8792C222.836 31.7268 225.021 35.0671 226.395 38.7735Z" fill="white"/>
<g opacity="0.5">
<path d="M172.181 53.1562C171.532 52.1573 170.92 51.1222 170.512 50.0012C169.891 48.2882 169.773 46.4033 170.172 44.627C168.445 46.4937 166.904 48.5548 165.852 50.8646C165.081 52.555 164.592 54.3902 164.501 56.2388C164.587 56.5462 164.673 56.8536 164.782 57.1564C164.551 55.1902 165.403 53.2737 166.314 51.5109C166.827 50.5165 167.443 49.8611 168.368 49.2328C168.49 50.0238 168.799 50.7696 169.175 51.4793C170.68 54.3404 173.305 56.5146 176.333 57.6491C174.642 56.5643 173.291 54.8648 172.181 53.1562Z" fill="#512E21"/>
<path d="M222.646 28.6895C225.742 32.7891 228.199 37.3679 229.922 42.2043C229.903 41.8833 229.881 41.5669 229.854 41.246C229.631 38.5702 229.369 36.0435 228.444 33.5259C230.08 34.127 231.744 34.3304 233.48 34.1948C233.471 34.1903 233.462 34.1858 233.453 34.1813C231.622 33.9372 229.849 33.2727 228.208 32.4049C226.241 31.3608 224.441 30.0229 222.646 28.6895Z" fill="#512E21"/>
<path d="M168.794 39.5826C167.303 39.551 165.775 39.2075 164.46 38.5295C164.315 38.4933 164.17 38.4707 164.025 38.4255C165.811 39.8222 168.209 40.6629 170.494 40.8211C172.602 40.2109 174.624 39.3024 176.465 38.1136C173.967 38.882 171.41 39.6414 168.794 39.5826Z" fill="#512E21"/>
<path d="M179.107 33.8197C174.919 35.9712 169.85 36.3102 165.394 34.8005C165.376 34.8051 165.353 34.8096 165.331 34.8096C167.076 36.1023 169.266 37.1103 171.36 37.6843C171.215 37.7566 171.056 37.8199 170.907 37.8877C172.434 37.6572 173.881 37.0199 175.245 36.2831C176.596 35.5599 177.888 34.7373 179.107 33.8197Z" fill="#512E21"/>
<path d="M212.314 51.0634C211.498 50.1278 210.773 49.1153 209.921 48.2113C208.932 47.1672 207.781 46.2813 206.815 45.21C205.854 44.1388 205.07 42.8144 205.052 41.3771C203.51 44.3648 203.216 47.9537 204.181 51.1674C203.755 49.0837 204.077 46.9141 204.997 44.9931C205.328 46.5254 206.475 47.5424 207.722 48.5006C208.969 49.4588 210.347 50.2634 211.394 51.4341C212.654 52.8398 213.334 54.6794 213.679 56.5326C213.987 58.187 214.041 59.882 213.846 61.5498C214.549 60.8131 214.943 60.0402 215.211 59.0593C215.746 60.908 215.995 62.838 215.945 64.759C216.303 62.5985 216.662 60.4424 217.02 58.2819C217.169 57.3824 217.323 56.4648 217.713 55.6377C217.75 55.5608 217.79 55.4885 217.831 55.4162C215.746 54.3178 213.86 52.8398 212.314 51.0634Z" fill="#512E21"/>
<path d="M230.706 48.9255C228.924 46.9187 227.682 44.4959 226.463 42.1049C226.662 47.0181 225.733 51.9675 223.824 56.5011C224.527 58.0333 225.656 60.6459 224.187 60.8403C221.385 61.2109 223.194 64.515 222.65 66.0111C225.969 61.4459 228.466 55.1315 228.788 49.4996C229.364 50.3313 230.42 50.6522 231.399 50.9189C232.542 51.2307 233.462 51.4161 234.623 51.1946C234.391 51.1539 234.169 51.0906 233.952 51.0138C233.852 50.9957 233.752 50.9867 233.653 50.9595C232.474 50.6748 231.508 49.8341 230.706 48.9255Z" fill="#512E21"/>
<path d="M189.693 41.8065C188.156 42.5297 186.637 43.2936 185.137 44.0936C183.224 45.1196 181.32 46.227 179.751 47.7277C178.183 49.2283 177.249 51.4793 176.977 53.6308C175.635 51.294 175.227 48.4418 175.866 45.8248C175.059 47.3209 174.252 48.9436 174.18 50.6024C174.221 50.408 174.266 50.2137 174.32 50.0238C174.293 50.3402 174.366 50.6566 174.447 50.964C175.109 53.3777 176.832 55.4976 178.867 56.962C177.897 55.4885 178.119 53.4681 179.008 51.9403C179.896 50.4126 181.333 49.2961 182.798 48.3062C187.712 44.9886 193.256 42.8868 198.016 39.3521C198.583 38.1362 198.991 36.8661 199.14 35.5192C196.901 38.6154 193.156 40.1793 189.693 41.8065Z" fill="#512E21"/>
<path d="M197.522 44.3693C196.339 45.7751 195.033 47.0859 193.591 48.2249C193.342 48.5458 193.066 48.8577 192.698 49.0295C196.103 47.1401 199.299 44.3106 201.457 41.0517C201.815 39.542 202.318 38.0549 202.912 36.6356C201.235 39.2934 199.548 41.9602 197.522 44.3693Z" fill="#512E21"/>
</g>
<path opacity="0.5" d="M199.689 38.1045C199.947 36.4683 200.867 35.0173 201.874 33.6975C205.433 29.0193 210.283 25.331 215.75 23.1523" stroke="#512E21" stroke-miterlimit="10" stroke-linecap="round" stroke-linejoin="round"/>
<path opacity="0.2" d="M180.109 43.1579C182.222 41.273 184.761 39.8764 186.71 37.8243C184.303 39.239 181.873 40.6131 179.42 41.942C177.929 42.7511 176.415 43.5556 175.159 44.6902C173.903 45.8247 172.91 47.3479 172.774 49.0339C172.19 47.696 172.511 46.0959 173.287 44.8574C174.066 43.6234 175.245 42.6923 176.451 41.8652C179.339 39.8854 182.503 38.3441 185.527 36.5677C188.546 34.7914 191.479 32.7348 193.605 29.9595C191.542 33.4037 189.04 36.5813 186.175 39.3972C184.334 41.2052 182.344 42.8641 180.477 44.645C179.447 45.6258 178.446 46.6564 177.72 47.8722C176.995 49.0926 176.555 50.5255 176.741 51.9312C176.319 50.539 176.61 48.4598 177.149 47.1355C177.779 45.5987 178.876 44.2562 180.109 43.1579Z" fill="white"/>
<path opacity="0.2" d="M188.514 25.4214C186.012 30.9087 181.175 35.2931 175.454 37.2457C178.736 37.1689 181.859 35.9439 184.117 33.5664C186.175 31.3923 187.639 28.2825 188.514 25.4214Z" fill="white"/>
<path opacity="0.2" d="M192.526 19.776C189.629 20.2596 187.063 21.9275 184.86 23.8621C182.657 25.7966 180.73 28.0295 178.532 29.9686C176.333 31.9077 173.767 33.5801 170.875 34.0773C174.139 33.4535 177.439 32.9518 180.109 30.9811C181.868 29.6793 183.201 27.8984 184.679 26.2893C186.955 23.8033 189.589 21.4348 192.526 19.776Z" fill="white"/>
<path opacity="0.2" d="M193.111 24.4904C194.956 22.2213 197.223 20.1828 199.974 19.1884C202.731 18.194 206.035 18.3929 208.32 20.2235C205.519 19.7941 202.567 20.4133 200.174 21.9275C202.862 20.9105 205.99 21.1185 208.52 22.479C204.19 22.1083 199.612 24.1062 197.359 27.8126C198.374 25.191 200.645 23.0847 203.343 22.2665C200.5 22.5377 197.744 23.609 195.468 25.3266C196.987 22.592 199.825 20.8925 202.586 19.4144C199.204 20.4766 196.112 22.4473 193.727 25.0689C190.912 28.1606 188.922 32.2422 185.173 34.0954C186.714 33.327 188.333 31.3111 189.28 29.9099C190.522 28.0793 191.71 26.2125 193.111 24.4904Z" fill="white"/>
<path opacity="0.2" d="M194.766 35.7135C196.488 33.9055 197.907 31.8353 199.585 29.9911C201.266 28.147 203.288 26.4927 205.705 25.8599C203.334 27.5323 201.715 30.0363 199.888 32.2873C195.591 37.5757 189.856 41.6934 183.459 44.0709C184.343 43.741 185.078 42.8867 185.867 42.3805C186.927 41.707 188.006 41.0651 189.049 40.3645C191.094 38.9995 193.066 37.4989 194.766 35.7135Z" fill="white"/>
<path d="M196.098 60.3611C196.098 60.3611 214.993 53.7393 219.082 51.8363C223.171 49.9289 224.201 53.2421 224.201 53.2421C224.201 53.2421 226.549 55.0455 225.873 51.6646C225.538 49.9741 224.355 49.2645 223.258 48.9797C222.251 48.7175 221.186 48.817 220.211 49.1876L195.491 58.5847C195.201 59.2808 195.45 59.9588 196.098 60.3611Z" fill="#666EB2"/>
<g opacity="0.5">
<path d="M225.121 51.8951C224.64 50.9369 223.616 50.3357 222.559 50.1459C221.503 49.956 220.415 50.1278 219.377 50.3945C217.904 50.7742 216.489 51.3482 215.079 51.9222C208.574 54.5619 202.073 57.2016 195.568 59.8413C195.69 60.0402 195.867 60.2164 196.094 60.3566C196.094 60.3566 214.989 53.7348 219.078 51.8318C223.167 49.9244 224.196 53.2376 224.196 53.2376C224.196 53.2376 224.944 53.8116 225.474 53.7031C225.479 53.0748 225.402 52.4556 225.121 51.8951Z" fill="#666EB2"/>
</g>
<path d="M196.837 64.438C196.747 62.8606 196.416 61.3057 196.311 59.7372C196.289 59.3892 196.03 59.1587 195.79 58.9101C195.668 58.7835 196.076 57.5496 191.805 57.5496C190.554 57.5496 189.307 57.5812 188.056 57.5948C186.859 57.6083 185.649 57.6264 184.479 57.8569C183.895 57.9744 183.351 58.3044 183.042 58.8106C182.843 59.1361 182.557 59.4118 182.235 59.6152C181.973 59.7779 181.669 59.8774 181.361 59.8909C180.291 59.9361 179.683 59.118 179.153 58.3541C176.306 58.6027 173.287 58.779 170.449 59.0683C169.76 59.1406 168.917 59.335 168.749 60.0039C168.685 60.2525 168.74 60.5102 168.803 60.7588C169.089 61.8978 169.465 63.0142 169.968 64.0719C170.544 65.2833 171.201 66.4811 171.931 67.6292C173.191 69.6089 177.172 69.1253 178.5 68.619C179.339 68.2981 180.232 67.932 180.721 67.1817C181.188 66.4675 181.193 65.559 181.184 64.7092C181.17 63.5612 180.984 62.2684 180.821 61.1972C181.769 60.8672 182.39 61.2424 183.156 61.8888C183.922 62.5351 184.443 63.412 184.969 64.2663C185.495 65.116 186.062 65.9794 186.882 66.5489C187.884 67.245 189.149 67.4348 190.373 67.5252C191.388 67.5975 192.404 67.6156 193.419 67.5659C194.022 67.5388 194.625 67.471 195.183 67.263C195.817 67.028 196.407 66.5805 196.67 65.9522C196.865 65.4867 196.865 64.9533 196.837 64.438ZM180.023 66.4359C179.991 66.6122 179.946 66.7975 179.833 66.9376C179.692 67.1139 179.47 67.1952 179.253 67.263C177.702 67.7512 176.043 67.8732 174.438 67.6201C173.844 67.5252 173.232 67.367 172.779 66.9738C172.434 66.6709 172.208 66.2551 172.004 65.8483C171.469 64.7861 170.997 63.6968 170.589 62.5803C170.367 61.9792 169.642 60.6864 170.308 60.1712C171.034 59.6107 172.774 59.6604 173.658 59.57C174.823 59.4525 175.998 59.4028 177.172 59.4163C177.58 59.4208 178.006 59.4389 178.369 59.6242C179.003 59.9452 179.289 60.6819 179.493 61.3599C179.996 63.0007 180.341 64.7454 180.023 66.4359ZM195.106 66.0652C194.87 66.2054 194.593 66.2506 194.321 66.2958C193.22 66.472 192.109 66.6302 190.998 66.576C189.888 66.5172 188.759 66.2325 187.852 65.5861C186.85 64.8765 183.546 60.031 184.733 59.448C186.37 58.6434 188.297 58.7835 190.119 58.9417C190.989 59.0186 191.855 59.0909 192.721 59.1677C193.31 59.2174 193.945 59.2898 194.376 59.692C194.67 59.9678 194.825 60.3655 194.951 60.7452C195.287 61.7441 195.541 62.7702 195.704 63.8098C195.835 64.6234 195.822 65.6404 195.106 66.0652Z" fill="#666EB2"/>
<path opacity="0.5" d="M194.956 60.7452C194.825 60.361 194.675 59.9678 194.38 59.692C193.95 59.2898 193.315 59.2174 192.726 59.1677C191.86 59.0909 190.989 59.0186 190.123 58.9417C188.306 58.7835 186.379 58.6434 184.738 59.448C183.546 60.031 186.855 64.8765 187.857 65.5861C188.763 66.2325 189.888 66.5172 191.003 66.576C192.114 66.6348 193.229 66.4766 194.326 66.2958C194.598 66.2506 194.874 66.2054 195.11 66.0652C195.826 65.6404 195.84 64.6279 195.709 63.8098C195.545 62.7656 195.291 61.7441 194.956 60.7452Z" fill="white"/>
<path opacity="0.5" d="M178.369 59.6197C178.006 59.4344 177.58 59.4163 177.172 59.4118C175.998 59.3937 174.823 59.4434 173.658 59.5655C172.774 59.6559 171.034 59.6062 170.308 60.1666C169.642 60.6819 170.372 61.9746 170.589 62.5758C170.997 63.6922 171.473 64.7816 172.004 65.8438C172.212 66.2551 172.434 66.6709 172.779 66.9692C173.232 67.3625 173.844 67.5207 174.438 67.6156C176.043 67.8687 177.702 67.7467 179.253 67.2585C179.466 67.1907 179.692 67.1094 179.833 66.9331C179.946 66.793 179.991 66.6076 180.023 66.4314C180.34 64.7409 179.996 62.9962 179.493 61.3554C179.289 60.6774 178.999 59.9452 178.369 59.6197Z" fill="white"/>
<path opacity="0.5" d="M174.053 62.3588C173.305 61.4774 172.584 60.5689 171.831 59.6965C171.26 59.7643 170.721 59.8864 170.372 60.1259C172.434 62.7204 174.533 65.2878 176.777 67.7195C177.534 67.6698 178.282 67.5387 179.008 67.3308C177.226 65.8076 175.567 64.1442 174.053 62.3588Z" fill="white"/>
<path opacity="0.5" d="M180.127 64.5239C180.059 63.4526 179.806 62.3859 179.493 61.3554C179.284 60.6774 178.999 59.9451 178.369 59.6197C178.006 59.4344 177.58 59.4163 177.172 59.4118C176.451 59.4027 175.726 59.4253 175.005 59.466C176.673 61.1881 178.382 62.8741 180.127 64.5239Z" fill="white"/>
<path opacity="0.5" d="M185.518 59.1406C187.036 61.7441 188.768 64.2256 190.695 66.5489C190.794 66.5579 190.899 66.567 190.998 66.5715C191.642 66.6031 192.29 66.5625 192.93 66.4901C190.876 64.1081 189.09 61.491 187.381 58.8287C186.746 58.8604 186.121 58.9553 185.518 59.1406Z" fill="white"/>
<path opacity="0.5" d="M195.708 63.8053C195.636 63.3578 195.55 62.9148 195.446 62.4719C194.516 61.4097 193.632 60.3068 192.798 59.1678C192.775 59.1678 192.748 59.1632 192.726 59.1587C191.937 59.0909 191.153 59.0231 190.364 58.9553C191.896 61.3238 193.614 63.5748 195.5 65.6766C195.817 65.1748 195.804 64.4336 195.708 63.8053Z" fill="white"/>
<g opacity="0.5">
<path d="M178.722 59.1903C178.319 58.9824 177.847 58.9643 177.398 58.9598C176.097 58.9417 174.796 58.996 173.504 59.127C172.525 59.2265 170.594 59.1677 169.791 59.7915C169.053 60.3655 169.859 61.7938 170.104 62.4628C170.558 63.7013 171.083 64.9081 171.673 66.0878C171.899 66.5444 172.149 67.0009 172.534 67.3399C173.037 67.7783 173.713 67.9546 174.37 68.0586C176.147 68.3388 177.992 68.2032 179.706 67.6653C179.942 67.5885 180.191 67.4981 180.35 67.3037C180.477 67.1455 180.526 66.9421 180.563 66.7478C180.916 64.8765 180.531 62.9419 179.973 61.1158C179.742 60.361 179.425 59.5474 178.722 59.1903ZM180.023 66.4359C179.991 66.6122 179.946 66.7975 179.833 66.9376C179.692 67.1139 179.47 67.1952 179.253 67.263C177.702 67.7512 176.043 67.8732 174.438 67.6201C173.844 67.5252 173.232 67.367 172.779 66.9738C172.434 66.6709 172.208 66.2551 172.004 65.8483C171.469 64.7861 170.997 63.6968 170.589 62.5803C170.367 61.9792 169.642 60.6864 170.308 60.1712C171.034 59.6107 172.774 59.6604 173.658 59.57C174.823 59.4525 175.998 59.4028 177.172 59.4163C177.58 59.4208 178.006 59.4389 178.369 59.6242C179.003 59.9452 179.289 60.6819 179.493 61.3599C179.996 63.0007 180.341 64.7454 180.023 66.4359Z" fill="#666EB2"/>
<path opacity="0.25" d="M178.722 59.1903C178.319 58.9824 177.847 58.9643 177.398 58.9598C176.097 58.9417 174.796 58.996 173.504 59.127C172.525 59.2265 170.594 59.1677 169.791 59.7915C169.053 60.3655 169.859 61.7938 170.104 62.4628C170.558 63.7013 171.083 64.9081 171.673 66.0878C171.899 66.5444 172.149 67.0009 172.534 67.3399C173.037 67.7783 173.713 67.9546 174.37 68.0586C176.147 68.3388 177.992 68.2032 179.706 67.6653C179.942 67.5885 180.191 67.4981 180.35 67.3037C180.477 67.1455 180.526 66.9421 180.563 66.7478C180.916 64.8765 180.531 62.9419 179.973 61.1158C179.742 60.361 179.425 59.5474 178.722 59.1903ZM180.023 66.4359C179.991 66.6122 179.946 66.7975 179.833 66.9376C179.692 67.1139 179.47 67.1952 179.253 67.263C177.702 67.7512 176.043 67.8732 174.438 67.6201C173.844 67.5252 173.232 67.367 172.779 66.9738C172.434 66.6709 172.208 66.2551 172.004 65.8483C171.469 64.7861 170.997 63.6968 170.589 62.5803C170.367 61.9792 169.642 60.6864 170.308 60.1712C171.034 59.6107 172.774 59.6604 173.658 59.57C174.823 59.4525 175.998 59.4028 177.172 59.4163C177.58 59.4208 178.006 59.4389 178.369 59.6242C179.003 59.9452 179.289 60.6819 179.493 61.3599C179.996 63.0007 180.341 64.7454 180.023 66.4359Z" fill="#666EB2"/>
</g>
<path opacity="0.5" d="M195.677 60.4514C195.527 60.0129 195.355 59.5564 195.015 59.24C194.521 58.7745 193.791 58.6931 193.111 58.6343C192.114 58.5485 191.116 58.4626 190.119 58.3767C188.029 58.1959 185.817 58.0332 183.935 58.9598C182.566 59.6333 186.37 65.1929 187.517 66.011C188.559 66.7523 189.851 67.0822 191.13 67.15C192.408 67.2178 193.687 67.0325 194.947 66.8291C195.26 66.7794 195.577 66.7251 195.849 66.5624C196.67 66.0743 196.688 64.9126 196.538 63.9725C196.352 62.7792 196.062 61.5995 195.677 60.4514ZM195.106 66.0652C194.87 66.2053 194.593 66.2505 194.321 66.2957C193.22 66.472 192.109 66.6302 190.998 66.576C189.888 66.5172 188.759 66.2325 187.852 65.5861C186.85 64.8765 183.546 60.031 184.733 59.4479C186.37 58.6434 188.297 58.7835 190.119 58.9417C190.989 59.0185 191.855 59.0909 192.721 59.1677C193.31 59.2174 193.945 59.2897 194.376 59.692C194.67 59.9677 194.825 60.3655 194.951 60.7452C195.287 61.7441 195.541 62.7701 195.704 63.8097C195.835 64.6233 195.822 65.6403 195.106 66.0652Z" fill="#666EB2"/>
<path opacity="0.5" d="M195.677 60.4514C195.527 60.0129 195.355 59.5564 195.015 59.24C194.521 58.7745 193.791 58.6931 193.111 58.6343C192.114 58.5485 191.116 58.4626 190.119 58.3767C188.029 58.1959 185.817 58.0332 183.935 58.9598C182.566 59.6333 186.37 65.1929 187.517 66.011C188.559 66.7523 189.851 67.0822 191.13 67.15C192.408 67.2178 193.687 67.0325 194.947 66.8291C195.26 66.7794 195.577 66.7251 195.849 66.5624C196.67 66.0743 196.688 64.9126 196.538 63.9725C196.352 62.7792 196.062 61.5995 195.677 60.4514ZM195.106 66.0652C194.87 66.2053 194.593 66.2505 194.321 66.2957C193.22 66.472 192.109 66.6302 190.998 66.576C189.888 66.5172 188.759 66.2325 187.852 65.5861C186.85 64.8765 183.546 60.031 184.733 59.4479C186.37 58.6434 188.297 58.7835 190.119 58.9417C190.989 59.0185 191.855 59.0909 192.721 59.1677C193.31 59.2174 193.945 59.2897 194.376 59.692C194.67 59.9677 194.825 60.3655 194.951 60.7452C195.287 61.7441 195.541 62.7701 195.704 63.8097C195.835 64.6233 195.822 65.6403 195.106 66.0652Z" fill="white"/>
<path d="M216.702 55.5925C216.802 54.6659 216.983 53.6986 217.568 52.9664C217.967 52.4692 218.52 52.1211 219.082 51.8318C220.139 51.2849 221.345 50.8917 222.505 51.1312C224.142 51.4702 225.311 53.0251 225.687 54.6478C226.064 56.275 225.801 57.97 225.511 59.6108C225.338 60.5916 225.143 61.5905 224.622 62.4403C223.933 63.5612 222.709 64.3071 221.417 64.5692C220.569 64.741 218.924 64.8856 218.13 64.402C217.414 63.9635 217.378 63.2629 217.174 62.4312C216.625 60.2029 216.462 57.8796 216.702 55.5925Z" fill="#F0C49B"/>
<path d="M218.28 58.4175C218.085 57.2288 217.963 55.9812 218.362 54.8467C218.765 53.7122 219.83 52.7313 221.036 52.7901C222.21 52.8489 223.14 53.8433 223.638 54.9055C223.874 55.4072 224.046 55.9406 224.133 56.4875C224.318 57.6582 224.11 58.856 223.765 59.9905C223.453 61.0075 222.981 62.0516 222.093 62.6392C219.164 64.5873 218.575 60.2074 218.28 58.4175Z" fill="#E0A988"/>
<path opacity="0.5" d="M93.0331 70.974H172.008L183.391 140.776L107.354 133.951L93.0331 70.974Z" fill="#FAFDF8"/>
<path d="M136.381 114.285C139.173 117.218 142.247 119.93 145.783 121.914C149.319 123.899 153.345 125.128 157.397 124.965C158.603 124.916 159.814 124.744 160.938 124.31C163.377 123.37 165.222 121.273 166.378 118.936C167.534 116.599 167.992 114.14 168.395 111.568C169.048 107.419 166.958 103.274 164.166 100.132C160.757 96.2995 156.11 93.4384 151.023 92.7378C146.019 92.0462 140.882 93.2304 136.861 96.2814C133.892 98.5324 133.013 102.551 129.626 107.55C126.24 112.549 120.201 114.737 114.362 111.446C108.528 108.155 109.815 95.6667 118.642 97.2578C127.473 98.8488 130.596 106.831 130.596 106.831C130.95 105.954 134.101 99.6443 134.101 99.6443C130.51 95.3142 126.367 91.3592 120.94 89.8495C115.514 88.3398 109.226 89.2754 105.087 93.0813C104.167 93.9265 103.36 94.9074 102.798 96.0193C101.474 98.6544 101.651 101.809 102.413 104.657C103.197 107.59 104.294 110.221 106.13 112.639C110.913 118.949 119.449 122.19 127.233 120.649C128.96 120.305 130.664 119.74 132.129 118.768C133.955 117.553 135.325 115.772 136.589 113.977C138.253 111.622 139.803 109.195 141.241 106.696C142.224 104.982 143.208 103.183 144.804 102.017C146.023 101.127 147.519 100.679 149.015 100.462C153.281 99.8432 158.186 101.371 160.167 105.19C161.346 107.464 161.799 110.271 161.019 112.712C160.244 115.152 158.15 117.241 155.611 117.602C152.995 117.977 150.461 116.563 148.362 114.963C145.497 112.779 142.981 110.14 140.937 107.175C139.495 109.679 138.135 111.988 136.381 114.285Z" fill="white"/>
<path d="M129.626 107.545C129.898 107.143 130.147 106.75 130.392 106.361C132.002 103.78 133.003 101.493 134.096 99.6262C134.885 98.2747 135.719 97.1402 136.861 96.2723C140.143 93.7818 144.165 92.5343 148.254 92.5388C150.167 95.0113 151.808 97.6916 153.131 100.526C151.771 100.291 150.362 100.268 149.015 100.467C147.519 100.684 146.023 101.131 144.804 102.022C143.208 103.188 142.229 104.987 141.241 106.7C141.145 106.867 141.046 107.03 140.946 107.197C140.629 107.74 140.311 108.277 139.98 108.815C138.906 110.574 137.773 112.3 136.585 113.982C135.32 115.772 133.955 117.557 132.124 118.773C130.66 119.745 128.955 120.314 127.228 120.653C125.945 120.906 124.639 121.028 123.334 121.028C122.794 118.262 121.947 115.555 120.809 112.974C124.327 112.712 127.5 110.682 129.626 107.545Z" fill="#666EB2"/>
<path d="M98.6136 73.6544C98.6136 74.2374 98.1421 74.7075 97.5573 74.7075C96.9725 74.7075 96.5011 74.2374 96.5011 73.6544C96.5011 73.0713 96.9725 72.6012 97.5573 72.6012C98.1421 72.6012 98.6136 73.0713 98.6136 73.6544Z" fill="white"/>
<path d="M102.834 74.7075C103.417 74.7075 103.89 74.236 103.89 73.6544C103.89 73.0727 103.417 72.6012 102.834 72.6012C102.251 72.6012 101.778 73.0727 101.778 73.6544C101.778 74.236 102.251 74.7075 102.834 74.7075Z" fill="white"/>
<path d="M108.496 74.7075C109.08 74.7075 109.553 74.236 109.553 73.6544C109.553 73.0727 109.08 72.6012 108.496 72.6012C107.913 72.6012 107.44 73.0727 107.44 73.6544C107.44 74.236 107.913 74.7075 108.496 74.7075Z" fill="white"/>
<path d="M158.263 199.939V206.086H220.574V179.454L158.263 199.939Z" fill="#666EB2"/>
<path opacity="0.25" d="M158.263 199.939V206.086H220.574V179.454L158.263 199.939Z" fill="#666EB2"/>
<path opacity="0.25" d="M220.574 179.454L158.794 199.762C158.807 199.912 158.816 200.061 158.83 200.205C168.073 199.17 177.358 198.456 186.651 198.054C189.693 197.923 192.825 197.837 195.695 198.863C197.023 199.337 198.27 200.043 199.648 200.354C202.486 201.001 205.623 199.925 208.284 201.1C211.326 202.443 212.482 200.282 212.672 203.591C212.722 204.422 212.727 205.254 212.713 206.086H220.574V179.454Z" fill="#666EB2"/>
<path d="M19.516 182.916C19.516 183.106 19.516 206.086 19.516 206.086H158.259V194.926L19.516 182.916Z" fill="#666EB2"/>
<path opacity="0.5" d="M19.516 182.916C19.516 183.106 19.516 206.086 19.516 206.086H158.259V194.926L19.516 182.916Z" fill="#666EB2"/>
<path d="M5.74826 176.941L114.893 159.806L239.414 179.454L158.263 194.058L5.74826 176.941Z" fill="#666EB2"/>
<g opacity="0.5">
<path d="M122.522 161.008C123.901 163.553 125.047 166.21 125.261 169.067C125.347 170.211 125.297 171.435 125.922 172.403C126.543 173.366 128.189 173.736 128.787 172.755C129.037 174.459 130.696 175.698 132.405 175.969C134.114 176.24 135.846 175.739 137.455 175.115C140.066 174.107 142.546 172.76 144.813 171.128C145.729 173.623 149.006 174.735 151.481 173.754C152.909 173.189 154.106 172.082 155.607 171.734C157.624 171.264 159.65 172.272 161.559 173.076C165.793 174.857 170.399 175.748 174.991 175.671C176.365 175.648 177.779 175.544 179.085 175.974C180.214 176.344 181.179 177.09 182.118 177.818C185.531 180.471 188.999 183.183 191.447 186.74C191.719 187.133 191.973 187.54 192.222 187.947L239.423 179.454L122.522 161.008Z" fill="#666EB2"/>
</g>
<path d="M158.263 199.939V194.058L5.74826 176.941V182.916L158.263 199.939Z" fill="#666EB2"/>
<path d="M158.263 194.058L239.414 179.454V185.149L158.263 199.939V194.058Z" fill="#666EB2"/>
<path opacity="0.5" d="M158.263 199.939V194.058L5.74826 176.941V182.916L158.263 199.939Z" fill="white"/>
<path opacity="0.2" d="M158.263 194.058L239.414 179.454V185.149L158.263 199.939V194.058Z" fill="white"/>
<path opacity="0.5" d="M35.0381 175.924L138.344 188.729L193.297 178.116L99.3797 160.764L35.0381 175.924Z" fill="#666EB2"/>
<path d="M135.184 178.726L185.291 171.942L182.004 174.504C179.316 176.602 176.125 177.971 172.747 178.469L135.302 184.006" fill="#717171"/>
<path d="M185.295 171.942L104.793 162.82L51.1949 171.481L135.184 178.726L185.295 171.942Z" fill="#434343"/>
<path opacity="0.5" d="M185.295 171.942L104.793 162.82L51.1949 171.481L135.184 178.726L185.295 171.942Z" fill="#434343"/>
<path d="M135.17 176.941L171.727 171.481L104.942 165.252L71.6266 170.061L135.17 176.941Z" fill="#434343"/>
<path opacity="0.5" d="M135.17 176.941L171.727 171.481L104.942 165.252L71.6266 170.061L135.17 176.941Z" fill="white"/>
<path d="M128.588 153.383C130.809 152.659 133.207 152.506 135.338 151.556C136.059 151.236 136.753 150.829 137.532 150.716C138.806 150.53 140.039 151.168 141.132 151.846C142.931 152.962 144.745 154.413 145.239 156.47C145.683 158.314 144.949 160.253 143.929 161.858C143.394 162.698 142.773 163.494 142.034 164.163C140.869 165.216 139.441 165.93 138.022 166.604C136.481 167.336 134.812 168.05 133.13 167.788C130.759 167.417 129.123 165.257 127.949 163.168C126.97 161.424 125.614 159.24 125.279 157.243C124.948 155.263 126.965 153.911 128.588 153.383Z" fill="#F0C49B"/>
<path d="M143.503 153.636C143.258 153.699 143.018 153.776 142.782 153.866C141.508 154.368 140.429 155.245 139.368 156.113C135.887 158.956 132.41 161.799 128.928 164.642C128.914 164.651 128.901 164.66 128.887 164.673C129.957 166.197 131.331 167.503 133.126 167.783C134.812 168.045 136.481 167.331 138.017 166.599C139.436 165.925 140.864 165.211 142.029 164.158C142.768 163.489 143.389 162.694 143.924 161.853C144.944 160.248 145.679 158.314 145.234 156.465C144.976 155.362 144.323 154.436 143.503 153.636Z" fill="#E0A988"/>
<path d="M137.99 154.987C138.938 158.391 139.781 161.821 140.538 165.27C141.064 164.94 141.567 164.579 142.029 164.158C142.066 164.122 142.102 164.086 142.138 164.05C140.551 161.234 139.491 158.124 139.06 154.924C138.897 155.326 138.298 155.299 137.99 154.987Z" fill="#E0A988"/>
<path d="M131.245 157.591C132.867 160.809 134.11 164.222 134.953 167.725C135.56 167.607 136.163 167.404 136.753 167.164C135.03 163.873 134.169 160.14 133.348 156.492C133.13 157.324 132.092 157.753 131.245 157.591Z" fill="#E0A988"/>
<path d="M127.523 153.835C126.213 154.522 125.02 155.683 125.279 157.238C125.614 159.236 126.97 161.419 127.949 163.164C129.046 165.121 130.551 167.141 132.686 167.693C131.943 163.783 130.759 159.95 129.159 156.303C128.765 155.412 128.239 154.454 127.523 153.835Z" fill="#E0A988"/>
<path d="M130.225 163.548C130.433 164.1 130.646 164.719 130.429 165.266C130.134 166.007 129.141 166.265 128.379 166.011C127.618 165.758 127.051 165.135 126.534 164.524C124.676 162.323 123.044 159.891 122.042 157.188C121.833 156.632 121.652 156.049 121.675 155.457C121.697 154.865 121.956 154.25 122.463 153.939C124.009 152.985 126.444 155.249 127.341 156.402C128.008 157.256 128.284 158.459 128.665 159.453C129.182 160.823 129.703 162.183 130.225 163.548Z" fill="#F0C49B"/>
<path d="M129.572 163.132C129.245 162.73 128.887 162.319 128.393 162.156C127.899 161.993 127.255 162.188 127.101 162.68C127.038 162.884 127.065 163.101 127.101 163.309C127.237 164.14 127.477 164.954 127.804 165.731C127.985 165.844 128.175 165.944 128.379 166.011C129.141 166.265 130.129 166.011 130.429 165.266C130.551 164.963 130.537 164.642 130.469 164.316C130.179 163.914 129.885 163.516 129.572 163.132Z" fill="#FAFDF8"/>
<g opacity="0.5">
<path opacity="0.5" d="M185.295 171.942L124.367 165.04C124.83 166.341 125.156 167.684 125.26 169.072C125.347 170.215 125.297 171.44 125.922 172.407C126.543 173.37 128.189 173.741 128.787 172.76C129.037 174.464 130.696 175.702 132.405 175.974C134.114 176.245 135.846 175.743 137.455 175.119C140.066 174.111 142.546 172.764 144.813 171.133C145.729 173.628 149.006 174.74 151.481 173.759C152.909 173.194 154.106 172.086 155.607 171.738C157.624 171.268 159.65 172.276 161.559 173.081C165.793 174.862 170.399 175.752 174.991 175.675C176.365 175.653 177.779 175.549 179.085 175.978C179.239 176.028 179.389 176.087 179.538 176.15C180.399 175.666 181.234 175.124 182.018 174.509L185.295 171.942Z" fill="#434343"/>
</g>
<path d="M197.93 188.729C197.399 187.807 197.195 186.754 197.046 185.719C196.135 179.513 196.874 173.099 199.186 167.223C199.458 166.527 199.847 165.758 200.605 165.559C201.561 165.311 202.436 166.12 202.998 166.884C207.196 172.611 207.291 180.439 204.394 186.84C203.211 189.452 200.061 192.44 197.93 188.729Z" fill="#E286B8"/>
<path d="M197.93 188.729C197.399 187.807 197.195 186.754 197.046 185.719C196.135 179.513 196.874 173.099 199.186 167.223C199.458 166.527 199.847 165.758 200.605 165.559C201.561 165.311 202.436 166.12 202.998 166.884C207.196 172.611 207.291 180.439 204.394 186.84C203.211 189.452 200.061 192.44 197.93 188.729Z" fill="#E286B8"/>
<path d="M224.899 171.133C226.934 171.345 228.979 171.435 231.01 171.684C240.552 172.855 249.605 177.659 255.902 184.901C257.162 186.351 258.337 187.924 258.98 189.732C259.175 190.284 259.316 190.912 259.048 191.432C258.849 191.816 258.459 192.065 258.083 192.282C251.364 196.155 243.25 196.693 235.493 196.485C227.546 196.268 219.445 195.315 212.26 191.92C211.426 191.522 210.569 191.07 210.038 190.315C209.494 189.543 209.363 188.566 209.281 187.626C208.828 182.424 209.132 175.883 211.471 171.092C212.477 169.031 213.833 169.139 215.891 169.555C218.887 170.156 221.852 170.812 224.899 171.133Z" fill="#E286B8"/>
<path d="M208.075 184.968C209.141 184.72 209.979 183.852 210.415 182.853C210.85 181.854 210.922 180.738 210.873 179.648C210.764 177.226 210.075 174.848 209.046 172.647C208.275 171.002 207.3 169.433 205.999 168.163C204.39 166.599 202.341 165.564 200.26 164.719C196.13 163.046 191.756 162.052 187.558 160.56C185.758 159.923 183.99 159.191 182.14 158.725C180.409 158.291 178.622 158.092 176.85 157.898C167.987 156.922 159.129 155.945 150.266 154.965C149.781 155.34 149.101 155.656 148.988 156.257C148.87 156.89 149.233 157.5 149.582 158.038C151.091 160.371 152.615 162.725 154.591 164.683C157.243 167.309 160.593 169.108 163.962 170.717C165.204 171.309 166.464 171.883 167.788 172.249C170.086 172.882 172.502 172.877 174.887 172.864C177.403 172.85 179.914 172.837 182.43 172.823C188.374 177.605 194.131 180.647 200.568 183.698C202.744 184.738 205.732 185.515 208.075 184.968Z" fill="#F0C49B"/>
<path d="M210.877 179.653C210.768 177.23 210.079 174.853 209.05 172.651C208.279 171.006 207.305 169.438 206.004 168.167C204.394 166.604 202.345 165.568 200.265 164.723C199.752 164.515 199.235 164.321 198.719 164.131C199.39 165.266 199.87 166.518 200.192 167.801C201.149 171.616 200.736 175.707 199.317 179.373C198.914 180.417 198.424 181.425 197.871 182.396C198.759 182.835 199.662 183.269 200.577 183.703C202.753 184.733 205.736 185.511 208.085 184.968C209.15 184.72 209.989 183.852 210.424 182.853C210.85 181.859 210.922 180.738 210.877 179.653Z" fill="#E0A988"/>
<path d="M179.488 171.228C176.406 170.324 173.019 170.581 170.064 169.32C168.599 168.692 167.312 167.72 165.961 166.875C164.152 165.745 162.212 164.836 160.344 163.81C156.337 161.604 152.669 158.856 149.083 156.009C149.042 156.09 149.006 156.176 148.988 156.271C148.87 156.904 149.233 157.514 149.582 158.052C151.091 160.384 152.615 162.739 154.591 164.696C157.243 167.322 160.593 169.121 163.962 170.73C165.204 171.322 166.464 171.896 167.788 172.263C170.086 172.895 172.502 172.891 174.887 172.877C177.403 172.864 179.914 172.85 182.43 172.837C182.444 172.846 182.458 172.859 182.471 172.868C182.358 172.755 182.245 172.638 182.118 172.534C181.361 171.896 180.436 171.503 179.488 171.228Z" fill="#E0A988"/>
<path d="M145.298 155.204C144.319 153.374 143.888 151.208 144.378 149.193C144.509 148.65 144.781 148.049 145.325 147.909C145.874 147.769 146.404 148.171 146.821 148.555C149.641 151.163 152.053 154.246 155.239 156.388C156.885 157.496 158.78 158.395 159.859 160.054C159.945 160.185 160.027 160.325 160.031 160.483C160.036 160.669 159.931 160.841 159.809 160.981C159.279 161.6 158.422 161.835 157.61 161.916C152.782 162.409 147.542 159.408 145.298 155.204Z" fill="#F0C49B"/>
<path d="M159.859 160.059C158.775 158.4 156.885 157.5 155.239 156.393C153.825 155.444 152.569 154.305 151.359 153.107C150.307 153.821 148.934 154.106 147.669 153.862C146.322 153.6 145.139 152.822 144.233 151.787C144.359 152.976 144.736 154.146 145.302 155.204C147.551 159.403 152.791 162.409 157.615 161.921C158.426 161.839 159.283 161.6 159.814 160.985C159.936 160.845 160.04 160.673 160.036 160.488C160.027 160.33 159.945 160.19 159.859 160.059Z" fill="#E0A988"/>
<path d="M126.874 169.541C127.119 170.459 128.139 171.001 129.091 170.983C130.043 170.961 130.927 170.5 131.725 169.984C133.96 168.547 135.841 166.635 137.859 164.908C139.903 163.155 142.102 161.586 144.264 159.982C144.604 159.729 144.949 159.466 145.157 159.105C146.005 157.627 144.332 156.212 142.954 156.144C141.648 156.076 140.814 157.347 139.894 158.11C137.038 160.465 134.1 162.716 131.331 165.171C129.771 166.549 128.266 167.991 126.874 169.541Z" fill="#F0C49B"/>
<path d="M142.954 156.14C141.649 156.072 140.814 157.342 139.894 158.106C138.475 159.277 137.038 160.42 135.61 161.573C134.554 162.857 133.525 164.167 132.718 165.618C131.915 167.056 131.344 168.647 131.235 170.283C131.403 170.188 131.566 170.089 131.725 169.985C133.96 168.547 135.841 166.635 137.859 164.909C139.903 163.155 142.102 161.586 144.264 159.982C144.604 159.729 144.949 159.467 145.157 159.105C146.01 157.627 144.332 156.212 142.954 156.14Z" fill="#E0A988"/>
<path d="M130.261 167.666C130.243 167.241 130.093 166.834 129.948 166.436C129.948 166.436 129.948 166.432 129.943 166.432C128.878 167.426 127.845 168.461 126.87 169.546C127.006 170.057 127.387 170.446 127.863 170.694C128.298 170.491 128.719 170.256 129.091 169.953C129.78 169.388 130.302 168.552 130.261 167.666Z" fill="#FAFDF8"/>
<path d="M148.53 160.375C145.656 161.971 142.9 163.788 140.302 165.799C139.468 166.445 138.634 167.123 138.022 167.982C136.703 169.84 136.535 172.349 134.454 173.813C133.942 174.175 133.303 174.292 132.673 174.242C132.518 174.229 132.342 174.202 132.237 174.084C132.101 173.935 132.129 173.7 132.165 173.501L133.362 166.983C133.484 166.314 133.761 165.682 134.173 165.139C136.077 162.631 138.457 159.516 140.765 156.895C141.245 156.348 141.753 155.792 142.424 155.512C143.022 155.263 143.693 155.263 144.341 155.267C147.737 155.286 158.639 156.312 161.858 157.405C162.434 157.6 161.654 160.741 161.849 161.315C162.112 162.088 155.407 159.019 154.718 159.467C152.959 160.606 150.566 160.908 148.53 160.375Z" fill="#F0C49B"/>
<path d="M159.274 157.885C157.474 157.188 155.561 156.849 153.657 156.542C152.302 156.325 150.942 156.117 149.582 155.923C148.544 155.774 147.261 155.579 146.368 156.135C144.042 157.591 142.038 159.507 140.162 161.505C139.264 162.459 138.385 163.435 137.65 164.52C135.733 167.331 134.853 170.694 134.082 174.021C134.214 173.962 134.341 173.894 134.459 173.809C136.539 172.349 136.707 169.835 138.026 167.978C138.638 167.119 139.468 166.441 140.307 165.795C142.909 163.783 145.661 161.971 148.535 160.371C150.57 160.899 152.964 160.601 154.727 159.453C155.416 159.006 162.121 162.079 161.858 161.302C161.763 161.017 161.903 160.108 161.999 159.236C161.124 158.716 160.222 158.255 159.274 157.885Z" fill="#E0A988"/>
<path d="M134.087 170.364C134.055 170.093 133.983 169.799 133.77 169.623C133.534 169.424 133.212 169.429 132.899 169.501L132.165 173.501C132.129 173.7 132.101 173.935 132.237 174.084C132.342 174.202 132.518 174.229 132.673 174.242C132.867 174.261 133.067 174.251 133.262 174.229C133.303 174.116 133.343 174.003 133.389 173.885C133.806 172.751 134.227 171.567 134.087 170.364Z" fill="#FAFDF8"/>
<path d="M137.877 168.226C137.646 167.141 136.911 166.174 135.932 165.659" stroke="#BA7A5D" stroke-miterlimit="10" stroke-linecap="round" stroke-linejoin="round"/>
<path d="M169.057 166.043C169.651 165.6 169.85 164.787 169.533 164.118C168.862 162.703 167.615 161.564 166.228 160.795C164.51 159.846 162.574 159.39 160.661 158.942C157.27 158.147 153.802 157.374 150.389 156.587C148.929 156.248 147.383 156.628 146.273 157.631C145.919 157.952 145.574 158.287 145.239 158.621C144.001 159.837 142.759 161.053 141.522 162.273C140.751 163.033 139.976 163.792 139.318 164.655C138.629 165.559 138.081 166.563 137.537 167.562C136.748 169.008 135.959 170.459 135.166 171.906C135.202 172.163 135.343 172.145 135.574 172.272C136.122 172.57 136.703 172.877 137.328 172.868C138.194 172.855 138.919 172.24 139.55 171.652C140.642 170.64 141.726 169.596 142.564 168.362C142.873 167.91 143.271 167.521 143.738 167.227C145.933 165.844 148.109 164.624 150.353 163.331C150.615 163.177 150.919 163.096 151.223 163.114C155.879 163.349 160.063 165.569 164.637 166.608C165.517 166.807 166.428 166.961 167.325 166.834C167.865 166.753 168.518 166.445 169.057 166.043Z" fill="#F0C49B"/>
<path d="M158.318 160C156.781 160.416 155.298 161.026 153.73 161.302C152.202 161.573 150.602 161.473 149.133 161.966C147.886 162.382 146.821 163.196 145.783 163.996C143.702 165.596 141.594 167.214 139.949 169.257C138.96 170.486 138.085 171.892 136.843 172.814C137.002 172.85 137.165 172.873 137.333 172.868C138.199 172.855 138.919 172.24 139.554 171.652C140.647 170.64 141.73 169.596 142.569 168.362C142.877 167.91 143.276 167.521 143.743 167.227C145.937 165.844 148.113 164.624 150.357 163.331C150.62 163.177 150.924 163.096 151.227 163.114C155.883 163.349 160.067 165.569 164.642 166.608C165.521 166.807 166.432 166.961 167.33 166.834C167.869 166.757 168.522 166.45 169.057 166.048C169.597 165.645 169.805 164.94 169.601 164.312C167.09 162.066 162.67 158.82 158.318 160Z" fill="#E0A988"/>
<path d="M149.627 163.557C150.303 163.196 150.606 162.364 150.588 161.595C150.57 160.832 150.303 160.095 150.112 159.354" stroke="#BA7A5D" stroke-miterlimit="10" stroke-linecap="round" stroke-linejoin="round"/>
<path d="M142.936 167.847C143.167 166.608 142.777 165.27 141.916 164.348" stroke="#BA7A5D" stroke-miterlimit="10" stroke-linecap="round" stroke-linejoin="round"/>
<path d="M138.307 170.066C138.416 169.519 138.276 168.882 137.818 168.561C137.605 168.416 137.36 168.357 137.106 168.348C136.462 169.533 135.814 170.717 135.17 171.901C135.207 172.159 135.347 172.141 135.578 172.267C135.955 172.47 136.345 172.678 136.757 172.787C137.029 172.376 137.301 171.964 137.578 171.557C137.881 171.092 138.199 170.613 138.307 170.066Z" fill="#FAFDF8"/>
<path d="M168.391 168.886C165.879 168.14 163.458 167.101 161.183 165.799C159.764 166.504 158.127 167.205 156.636 167.738C155.443 168.163 154.763 169.537 153.743 170.278C153.027 170.798 152.257 171.291 151.386 171.435C150.516 171.585 149.518 171.313 149.029 170.581C150.91 168.303 151.907 165.311 154.156 163.394C155.19 162.517 156.423 161.921 157.647 161.333C158.571 160.886 159.546 160.434 160.571 160.456C164.234 160.547 167.43 162.956 170.403 165.089C170.997 165.514 171.618 166.034 171.714 166.757C171.804 167.453 171.342 168.131 170.739 168.497C170.145 168.868 169.066 169.085 168.391 168.886Z" fill="#F0C49B"/>
<path d="M155.82 168.127C155.919 167.322 155.779 166.486 155.412 165.758" stroke="#BA7A5D" stroke-miterlimit="10" stroke-linecap="round" stroke-linejoin="round"/>
<path d="M161.169 165.79C161.31 165.492 161.391 165.157 161.414 164.827C161.464 164.199 161.337 163.571 161.201 162.956" stroke="#BA7A5D" stroke-miterlimit="10" stroke-linecap="round" stroke-linejoin="round"/>
<path d="M151.463 168.818C151.581 168.308 151.477 167.734 151.178 167.318C150.511 168.443 149.854 169.582 149.029 170.586C149.206 170.852 149.45 171.056 149.731 171.2C149.913 171.033 150.094 170.866 150.266 170.69C150.797 170.156 151.295 169.546 151.463 168.818Z" fill="#FAFDF8"/>
<path d="M198.633 189.782C201.983 186.668 204.172 182.338 204.689 177.804C205.206 173.266 204.05 168.556 201.484 164.773C203.782 166.188 206.398 167.173 209.064 167.616C211.176 167.969 213.416 167.679 215.415 168.452C217.496 169.257 219.028 171.142 219.799 173.23C220.569 175.318 220.66 177.596 220.51 179.816C220.243 183.874 219.209 187.879 217.478 191.558C217.283 191.974 217.07 192.399 216.725 192.702C216.381 193.009 215.936 193.177 215.497 193.317C209.698 195.193 203.247 193.764 198.633 189.782Z" fill="#E286B8"/>
<path opacity="0.5" d="M198.633 189.782C201.983 186.668 204.172 182.338 204.689 177.804C205.206 173.266 204.05 168.556 201.484 164.773C203.782 166.188 206.398 167.173 209.064 167.616C211.176 167.969 213.416 167.679 215.415 168.452C217.496 169.257 219.028 171.142 219.799 173.23C220.569 175.318 220.66 177.596 220.51 179.816C220.243 183.874 219.209 187.879 217.478 191.558C217.283 191.974 217.07 192.399 216.725 192.702C216.381 193.009 215.936 193.177 215.497 193.317C209.698 195.193 203.247 193.764 198.633 189.782Z" fill="white"/>
<path opacity="0.5" d="M219.803 173.234C219.032 171.146 217.5 169.261 215.419 168.457C214.499 168.1 213.524 167.973 212.536 167.901C214.3 174.794 213.52 182.329 210.279 188.67C211.648 181.456 210.564 173.804 207.282 167.236C205.247 166.707 203.27 165.871 201.488 164.777C204.05 168.561 205.21 173.27 204.694 177.809C204.177 182.347 201.987 186.677 198.637 189.787C203.252 193.764 209.703 195.197 215.51 193.326C215.95 193.186 216.394 193.018 216.739 192.711C217.083 192.404 217.292 191.983 217.491 191.567C219.223 187.888 220.256 183.879 220.524 179.824C220.66 177.601 220.574 175.318 219.803 173.234Z" fill="white"/>
<path d="M31.1168 102.623L37.3728 100.449C37.3955 100.44 37.4181 100.435 37.4453 100.435H109.503C112.019 100.435 114.181 102.212 114.662 104.675C117.45 119.012 127.899 165.921 128.565 168.556C129.359 171.684 128.96 180.082 122.25 180.042C116.516 180.005 52.2376 169.307 48.8467 168.769C48.7605 168.755 48.6925 168.692 48.6699 168.61L30.9763 102.885C30.9491 102.772 31.008 102.659 31.1168 102.623Z" fill="#434343"/>
<path d="M30.9264 102.691H105.468C108.61 102.691 111.339 104.847 112.055 107.893C115.831 123.962 126.961 171.878 126.14 174.518C125.152 177.691 124.39 178.627 120.927 178.161C117.463 177.696 52.3373 172.457 50.3789 172.443C48.4205 172.43 46.4576 169.569 44.8029 163.562C43.1347 157.55 30.9264 102.691 30.9264 102.691Z" fill="#717171"/>
<path d="M51.1949 171.481C51.1949 171.481 49.9211 172.877 51.7299 175.287C53.5387 177.696 54.8941 177.095 54.8941 177.095L135.306 184.01L135.184 178.731L51.1949 171.481Z" fill="#434343"/>
<path d="M58.7928 178.166C57.5552 177.076 56.6939 175.576 56.372 173.962C56.1317 172.755 56.2813 171.318 57.2787 170.595C58.2307 170.766 59.0557 170.983 60.0077 171.155C58.8155 173.546 59.8717 176.796 62.2427 178.039C60.9779 178.464 59.8672 178.618 58.7928 178.166Z" fill="#717171"/>
<path d="M122.577 176.638C121.543 177.569 121.076 179.038 121.239 180.417C121.403 181.795 122.146 183.07 123.166 184.015C121.657 183.929 119.925 184.525 118.678 183.676C117.327 182.754 116.661 181.099 116.389 179.486C116.171 178.216 116.307 176.634 117.454 176.037C119.145 176.313 120.868 176.688 122.577 176.638Z" fill="#717171"/>
<path opacity="0.2" d="M40.3512 106.262H104.647C106.479 106.262 108.07 107.518 108.492 109.295C111.438 121.801 122.414 168.809 121.638 171.3C120.741 174.175 120.056 175.02 116.919 174.595C113.782 174.175 54.817 169.429 53.04 169.42C51.2674 169.411 49.4904 166.821 47.9898 161.378C46.7749 156.976 39.3085 123.636 36.4978 111.053C35.9448 108.594 37.8216 106.262 40.3512 106.262Z" fill="#FAFDF8"/>
<g opacity="0.5">
<path d="M75.7579 147.705C78.6306 147.147 80.347 143.562 79.5917 139.698C78.8364 135.834 75.8954 133.154 73.0227 133.712C70.15 134.271 68.4336 137.856 69.1889 141.719C69.9442 145.583 72.8853 148.263 75.7579 147.705Z" stroke="#FAFDF8" stroke-width="3" stroke-miterlimit="10" stroke-linecap="round" stroke-linejoin="round"/>
</g>
<path d="M285.795 17.8053L292.105 14.5645V15.5001L286.788 18.1579V18.185L292.105 20.8427V21.7784L285.795 18.5511V17.8053Z" fill="#A5A9E8"/>
<path d="M303.108 18.5647L296.797 21.7784V20.8427L302.156 18.185V18.1579L296.797 15.5001V14.5645L303.108 17.7917V18.5647Z" fill="#A5A9E8"/>
<path d="M29.6571 36.7124C30.6363 36.7124 30.7995 36.1836 30.7995 35.6954C30.7995 35.3293 30.7451 34.8818 30.6907 34.5021C30.6227 34.1224 30.5819 33.4987 30.5819 33.1326C30.5819 31.885 31.3979 31.3562 32.5539 31.3562H32.8395V32.102H32.5947C31.7923 32.1156 31.5203 32.5224 31.5203 33.2682C31.5203 33.58 31.5611 34.1496 31.6155 34.475C31.6563 34.8004 31.7107 35.2072 31.7107 35.5598C31.7243 36.4412 31.3435 36.8751 30.7315 37.0378V37.065C31.3435 37.2141 31.7243 37.6752 31.7107 38.543C31.7107 38.9091 31.6563 39.3159 31.6155 39.6414C31.5611 39.9804 31.5203 40.5228 31.5203 40.8482C31.5203 41.6211 31.8331 42.0144 32.5947 42.0415H32.8395V42.7873H32.5539C31.4387 42.7873 30.5819 42.2856 30.5819 40.916C30.5819 40.5634 30.6227 39.9532 30.6907 39.5871C30.7451 39.2074 30.7995 38.7735 30.7995 38.4074C30.7995 37.9735 30.6363 37.404 29.6571 37.404V36.7124Z" fill="#A5A9E8"/>
<path d="M39.5851 37.404C38.6195 37.404 38.4563 37.9735 38.4563 38.4074C38.4563 38.7735 38.5107 39.2074 38.5651 39.5871C38.6195 39.9532 38.6739 40.5634 38.6739 40.916C38.6739 42.2856 37.8171 42.5703 36.7019 42.5703H36.4163V42.0415H36.6611C37.4091 42.0144 37.7355 41.6211 37.7355 40.8482C37.7355 40.5228 37.6811 39.9804 37.6403 39.6414C37.5859 39.3159 37.5315 38.9091 37.5315 38.543C37.5179 37.6752 37.9123 37.2141 38.5243 37.065V37.0378C37.9123 36.8751 37.5179 36.4412 37.5315 35.5598C37.5315 35.2072 37.5859 34.8004 37.6403 34.475C37.6811 34.1496 37.7355 33.58 37.7355 33.2682C37.7355 32.5224 37.4499 32.1156 36.6611 32.102H36.4163V31.3562H36.6883C37.8579 31.3562 38.6739 31.885 38.6739 33.1326C38.6739 33.4987 38.6195 34.1224 38.5651 34.5021C38.5107 34.8818 38.4563 35.3293 38.4563 35.6954C38.4563 36.1836 38.6195 36.7124 39.5851 36.7124V37.404Z" fill="#A5A9E8"/>
<path d="M307.242 155.819C306.807 156.022 305.937 156.253 304.808 156.253C302.237 156.253 300.293 154.612 300.293 151.615C300.293 148.754 302.237 146.829 305.08 146.829C306.209 146.829 306.943 147.059 307.256 147.222L306.97 148.185C306.521 147.968 305.882 147.805 305.121 147.805C302.972 147.805 301.544 149.175 301.544 151.575C301.544 153.812 302.836 155.249 305.066 155.249C305.787 155.249 306.521 155.1 306.997 154.87L307.242 155.819Z" fill="#A5A9E8"/>
<path d="M308.561 154.666C309.092 154.992 309.867 155.263 310.683 155.263C311.893 155.263 312.601 154.626 312.601 153.704C312.601 152.849 312.111 152.361 310.86 151.887C309.377 151.371 308.453 150.571 308.453 149.297C308.453 147.886 309.636 146.829 311.417 146.829C312.342 146.829 313.036 147.046 313.444 147.263L313.117 148.225C312.818 148.063 312.206 147.791 311.377 147.791C310.125 147.791 309.649 148.537 309.649 149.161C309.649 150.015 310.207 150.436 311.472 150.924C313.022 151.534 313.811 152.266 313.811 153.609C313.811 155.019 312.764 156.253 310.601 156.253C309.704 156.253 308.738 155.982 308.249 155.656L308.561 154.666Z" fill="#A5A9E8"/>
<path d="M315.266 154.666C315.797 154.992 316.572 155.263 317.388 155.263C318.598 155.263 319.305 154.626 319.305 153.704C319.305 152.849 318.816 152.361 317.565 151.887C316.082 151.371 315.157 150.571 315.157 149.297C315.157 147.886 316.341 146.829 318.122 146.829C319.047 146.829 319.741 147.046 320.149 147.263L319.822 148.225C319.523 148.063 318.911 147.791 318.081 147.791C316.83 147.791 316.354 148.537 316.354 149.161C316.354 150.015 316.912 150.436 318.177 150.924C319.727 151.534 320.516 152.266 320.516 153.609C320.516 155.019 319.469 156.253 317.306 156.253C316.409 156.253 315.443 155.982 314.953 155.656L315.266 154.666Z" fill="#A5A9E8"/>
<path d="M0 10C0 4.47716 4.47715 0 10 0H330C335.523 0 340 4.47715 340 10V200H0V10Z" fill="url(#paint0_linear_759_4814)" fill-opacity="0.25"/>
</g>
<defs>
<linearGradient id="paint0_linear_759_4814" x1="0" y1="0" x2="340" y2="200" gradientUnits="userSpaceOnUse">
<stop stop-color="#D274F0"/>
<stop offset="1" stop-color="#7F60BC"/>
</linearGradient>
</defs>
</svg>
