<svg width="44" height="45" viewBox="0 0 44 45" fill="none" xmlns="http://www.w3.org/2000/svg">
<g clip-path="url(#clip0_116_1134)">
<path d="M21.0502 15.2817V3.29173C21.0719 3.22099 21.083 3.14732 21.083 3.07323C21.0831 2.41203 20.8727 1.76844 20.483 1.23806C20.0934 0.707678 19.5454 0.318793 18.9203 0.129168C18.2952 -0.0604568 17.6264 -0.0407058 17.0132 0.185487C16.4001 0.411681 15.8753 0.83225 15.5169 1.38473C15.4139 1.33035 15.2996 1.30196 15.1835 1.30198C13.3936 1.30198 11.8435 2.36098 11.1103 3.89298C10.9041 3.86423 10.6962 3.84987 10.4881 3.84998C7.99379 3.84998 5.96358 5.90548 5.96358 8.43323C5.96358 8.48623 5.96556 8.53898 5.96728 8.59198C5.39535 8.75697 4.86114 9.03465 4.39525 9.40912C3.92935 9.78358 3.54091 10.2475 3.25217 10.7743C2.96343 11.301 2.78004 11.8803 2.71252 12.479C2.64501 13.0777 2.69467 13.684 2.85868 14.2632C1.3895 15.4222 0.440885 17.2297 0.440885 19.2582C0.440725 20.2833 0.686971 21.293 1.15833 22.2C0.692524 22.7977 0.355415 23.4876 0.168711 24.2253C-0.0179924 24.963 -0.0501505 25.7321 0.074308 26.4832C0.198766 27.2343 0.477082 27.9506 0.891331 28.586C1.30558 29.2215 1.84658 29.762 2.47948 30.1727C2.22305 30.8511 2.09168 31.5713 2.0919 32.2977C2.0919 35.0202 3.93831 37.388 6.48341 38.066C6.48341 38.071 6.48341 38.0762 6.48341 38.0812C6.48341 40.8202 8.68237 43.0485 11.3854 43.0485C11.7619 43.0486 12.1371 43.0047 12.5037 42.9177C12.932 43.5589 13.5088 44.084 14.1836 44.447C14.8585 44.81 15.6109 44.9998 16.3749 45C18.9533 45 21.0509 42.875 21.0509 40.2615V34.9027C21.0492 34.0528 20.7737 33.2267 20.2663 32.55C20.7781 31.7868 21.0513 30.8852 21.0502 29.9625V21.9037C21.0562 21.8668 21.0593 21.8294 21.0595 21.792C21.0601 20.5918 20.5982 19.4389 19.7722 18.5787C20.5978 17.7297 21.0603 16.5854 21.0595 15.3935C21.0593 15.356 21.0562 15.3187 21.0502 15.2817ZM16.3749 43.5302C14.5961 43.5302 13.1489 42.064 13.1489 40.2615C13.1463 39.5505 13.375 38.8585 13.7997 38.2925C14.0938 38.4202 14.411 38.484 14.7309 38.4796C15.0509 38.4752 15.3663 38.4027 15.6568 38.267C15.9474 38.1312 16.2065 37.9351 16.4175 37.6914C16.6285 37.4477 16.7866 37.1618 16.8817 36.8522C16.9388 36.6661 16.9206 36.4647 16.8312 36.2922C16.7417 36.1197 16.5883 35.9902 16.4047 35.9324C16.221 35.8745 16.0222 35.8929 15.852 35.9835C15.6817 36.0742 15.554 36.2296 15.4969 36.4157C15.4555 36.55 15.3817 36.6717 15.2823 36.7698C15.1828 36.868 15.0608 36.9394 14.9272 36.9777C14.7937 37.0161 14.6528 37.0201 14.5173 36.9893C14.3819 36.9586 14.2561 36.8942 14.1514 36.8018C14.0467 36.7095 13.9664 36.5921 13.9177 36.4604C13.8689 36.3287 13.8534 36.1868 13.8725 36.0474C13.8915 35.9081 13.9445 35.7758 14.0267 35.6624C14.1089 35.5491 14.2177 35.4583 14.3432 35.3982C14.5171 35.315 14.6512 35.1651 14.7161 34.9817C14.781 34.7982 14.7713 34.5962 14.6891 34.42C14.607 34.2438 14.4591 34.1079 14.2781 34.0421C14.097 33.9764 13.8976 33.9862 13.7237 34.0695C13.3327 34.2579 13.0023 34.5546 12.7705 34.9252C12.5388 35.2958 12.4152 35.7252 12.4139 36.164C12.4135 36.5676 12.5178 36.9641 12.7164 37.314C12.2547 37.9007 11.9374 38.5905 11.7909 39.3261C11.6444 40.0618 11.6728 40.8222 11.8739 41.5445C11.7122 41.5677 11.5491 41.5794 11.3859 41.5795C9.48271 41.5795 7.93434 40.0105 7.93434 38.082C7.93214 37.5359 8.05715 36.997 8.29919 36.5092C8.54123 36.0213 8.89347 35.5982 9.32728 35.2742C9.40367 35.2166 9.4681 35.1443 9.51691 35.0615C9.56571 34.9786 9.59794 34.8868 9.61174 34.7914C9.62554 34.6959 9.62065 34.5986 9.59735 34.505C9.57405 34.4115 9.53279 34.3235 9.47593 34.2461C9.41907 34.1687 9.34772 34.1034 9.26596 34.054C9.1842 34.0045 9.09363 33.9718 8.99941 33.9579C8.90519 33.9439 8.80918 33.9488 8.71686 33.9724C8.62453 33.996 8.5377 34.0379 8.46132 34.0955C7.63145 34.7245 7.0185 35.6028 6.70965 36.6052C4.8662 36.0457 3.54381 34.2992 3.54381 32.2985C3.54381 29.852 5.48323 27.857 7.88598 27.8062C8.10802 30.1455 10.059 31.9812 12.4255 31.9812C14.9403 31.9812 16.986 29.9082 16.986 27.36C16.9875 26.5313 16.7678 25.7177 16.3503 25.0052C16.9075 24.7959 17.4002 24.4409 17.7782 23.9762C18.1562 23.5115 18.4061 22.9537 18.5026 22.3595C18.5183 22.2643 18.5153 22.1669 18.4938 22.0728C18.4724 21.9788 18.4328 21.8899 18.3775 21.8114C18.3221 21.7328 18.252 21.6661 18.1712 21.615C18.0904 21.5639 18.0005 21.5294 17.9065 21.5135C17.8126 21.4976 17.7164 21.5006 17.6236 21.5224C17.5308 21.5441 17.4432 21.5842 17.3656 21.6403C17.2881 21.6964 17.2222 21.7674 17.1718 21.8492C17.1214 21.9311 17.0873 22.0223 17.0716 22.1175C16.9908 22.6013 16.7336 23.0367 16.3509 23.3375C15.9683 23.6383 15.4882 23.7825 15.0056 23.7417C14.523 23.7008 14.0731 23.4778 13.7451 23.1168C13.4171 22.7558 13.2347 22.2832 13.2343 21.7925C13.2341 21.6479 13.2497 21.5037 13.2806 21.3625C13.3024 21.2679 13.3055 21.17 13.2897 21.0742C13.274 20.9785 13.2396 20.8869 13.1887 20.8046C13.1377 20.7224 13.0712 20.6513 12.993 20.5952C12.9147 20.5392 12.8263 20.4995 12.7328 20.4783C12.6393 20.4571 12.5426 20.4549 12.4483 20.4718C12.354 20.4887 12.2639 20.5244 12.1832 20.5768C12.1026 20.6291 12.033 20.6972 11.9784 20.777C11.9239 20.8568 11.8855 20.9468 11.8655 21.0417C11.8112 21.2879 11.7838 21.5394 11.7838 21.7917C11.7838 23.5112 13.0403 24.9387 14.6716 25.182C15.1153 25.6534 15.4039 26.2525 15.4975 26.897C15.5912 27.5415 15.4854 28.1995 15.1947 28.7805C14.904 29.3615 14.4427 29.8369 13.8743 30.1412C13.3059 30.4455 12.6584 30.5638 12.021 30.4797C11.3835 30.3957 10.7874 30.1134 10.3148 29.6718C9.84221 29.2302 9.51635 28.651 9.38208 28.014C9.24782 27.3769 9.31176 26.7134 9.56511 26.1147C9.81846 25.516 10.2487 25.0116 10.7967 24.671C10.9605 24.5689 11.0776 24.405 11.1222 24.2154C11.1668 24.0259 11.1352 23.8261 11.0344 23.6601C10.9337 23.4941 10.7719 23.3755 10.5849 23.3303C10.3978 23.2851 10.2006 23.3171 10.0368 23.4192C9.51807 23.7401 9.0683 24.1634 8.71431 24.664C8.36031 25.1646 8.10932 25.7323 7.97628 26.3332C5.99023 26.3332 4.23214 27.3372 3.16535 28.869C2.69677 28.5455 2.30287 28.1231 2.01074 27.6307C1.71861 27.1383 1.53518 26.5877 1.47305 26.0166C1.41093 25.4456 1.47159 24.8676 1.65086 24.3226C1.83013 23.7776 2.12376 23.2783 2.51156 22.8592C2.55115 22.8262 2.58705 22.7889 2.61863 22.748C2.99938 22.3693 3.45284 22.0738 3.95089 21.88C4.18255 23.075 5.00781 24.1 6.15207 24.5442C6.2416 24.5817 6.33763 24.6007 6.4345 24.5999C6.53137 24.5992 6.62711 24.5788 6.71608 24.54C6.80505 24.5011 6.88543 24.4446 6.9525 24.3738C7.01956 24.3029 7.07194 24.2192 7.10655 24.1275C7.14116 24.0358 7.1573 23.9381 7.154 23.84C7.15071 23.7419 7.12806 23.6454 7.08739 23.5563C7.04671 23.4672 6.98884 23.3873 6.91718 23.3212C6.84552 23.2552 6.76154 23.2044 6.67017 23.1717C6.27778 23.0175 5.94035 22.7471 5.7019 22.3957C5.46345 22.0443 5.33506 21.6282 5.33347 21.2017C5.33347 20.1017 6.1797 19.1785 7.26007 19.0985C7.35504 19.0914 7.44773 19.0655 7.53282 19.0222C7.61792 18.9789 7.69376 18.919 7.75601 18.846C7.81827 18.773 7.86572 18.6882 7.89566 18.5966C7.9256 18.505 7.93745 18.4083 7.93051 18.3121C7.92358 18.2159 7.89801 18.1219 7.85525 18.0357C7.8125 17.9495 7.75341 17.8726 7.68135 17.8095C7.60928 17.7465 7.52567 17.6984 7.43526 17.668C7.34486 17.6377 7.24945 17.6257 7.15447 17.6327C5.61818 17.7465 4.35994 18.8662 3.99332 20.325C3.37429 20.4896 2.78937 20.7653 2.26632 21.139C2.01955 20.5435 1.89256 19.9041 1.8928 19.2582C1.8928 16.5782 4.04415 14.3982 6.68892 14.3982C7.50988 14.3961 8.31738 14.6095 9.03271 15.0177C8.63534 15.8469 8.56906 16.7994 8.84768 17.6769C9.1263 18.5543 9.72832 19.289 10.5283 19.7277C10.6972 19.8185 10.8947 19.838 11.0777 19.782C11.2607 19.726 11.4145 19.599 11.5056 19.4287C11.5967 19.2583 11.6177 19.0584 11.564 18.8724C11.5104 18.6865 11.3864 18.5295 11.2191 18.4357C10.9336 18.2787 10.6883 18.0561 10.5029 17.7858C10.3175 17.5154 10.1971 17.2049 10.1513 16.879C10.1056 16.5531 10.1358 16.2208 10.2395 15.9088C10.3431 15.5969 10.5174 15.3138 10.7484 15.0823C10.9794 14.8508 11.2606 14.6773 11.5696 14.5757C11.8787 14.4741 12.2068 14.4472 12.528 14.4972C12.8491 14.5471 13.1542 14.6725 13.4189 14.8634C13.6836 15.0542 13.9005 15.3052 14.0524 15.5962C14.0969 15.6816 14.1575 15.7572 14.2309 15.8188C14.3043 15.8804 14.3889 15.9268 14.4799 15.9552C14.571 15.9837 14.6667 15.9937 14.7615 15.9847C14.8564 15.9757 14.9486 15.9478 15.0328 15.9027C15.117 15.8576 15.1917 15.7961 15.2525 15.7218C15.3133 15.6475 15.359 15.5617 15.3871 15.4695C15.4152 15.3772 15.4251 15.2802 15.4162 15.1841C15.4073 15.088 15.3798 14.9946 15.3353 14.9092C15.089 14.4359 14.7411 14.0246 14.3171 13.7057C13.8932 13.3868 13.404 13.1684 12.8856 13.0666C12.3672 12.9648 11.8329 12.9822 11.3221 13.1175C10.8112 13.2529 10.3368 13.5026 9.93396 13.8485C9.07466 13.319 8.10178 13.008 7.09823 12.9418C6.09468 12.8756 5.09022 13.0563 4.17046 13.4685C4.14752 13.3136 4.13598 13.1571 4.13592 13.0005C4.13575 12.3441 4.34025 11.7044 4.72023 11.1728C5.1002 10.6411 5.63622 10.2448 6.25174 10.0402C6.4714 10.6358 6.8114 11.1783 7.24995 11.633C7.31564 11.7051 7.39494 11.7632 7.48314 11.8038C7.57135 11.8443 7.66669 11.8666 7.76352 11.8692C7.86036 11.8718 7.95673 11.8547 8.04694 11.819C8.13716 11.7832 8.21939 11.7295 8.28877 11.661C8.35816 11.5925 8.41331 11.5106 8.45094 11.4202C8.48858 11.3297 8.50796 11.2326 8.50792 11.1344C8.50788 11.0362 8.48843 10.9391 8.45073 10.8487C8.41302 10.7583 8.35781 10.6764 8.28837 10.608C7.86635 10.1694 7.58137 9.61435 7.46908 9.01242C7.3568 8.41049 7.42219 7.78837 7.65709 7.22392C7.89199 6.65946 8.28595 6.17774 8.78968 5.83904C9.2934 5.50034 9.88452 5.3197 10.4891 5.31973C10.5581 5.31973 10.6272 5.32248 10.6958 5.32723C10.6729 5.51291 10.6612 5.69984 10.6608 5.88698C10.6608 8.21873 12.3878 10.148 14.6144 10.4332C14.8168 10.992 15.1835 11.4744 15.665 11.8154C16.1465 12.1564 16.7196 12.3396 17.307 12.3402C17.719 12.3405 18.1261 12.25 18.5001 12.075C18.6749 11.9937 18.8107 11.8454 18.8776 11.6627C18.9445 11.48 18.9371 11.2779 18.8569 11.1007C18.7767 10.9236 18.6303 10.786 18.45 10.7182C18.2697 10.6504 18.0702 10.658 17.8954 10.7392C17.7193 10.8221 17.5282 10.8673 17.334 10.8722C17.1399 10.8771 16.9468 10.8415 16.7668 10.7676C16.5868 10.6938 16.4237 10.5832 16.2877 10.4428C16.1516 10.3023 16.0455 10.1351 15.9759 9.95136C15.9063 9.76764 15.8747 9.57139 15.883 9.37478C15.8914 9.17817 15.9396 8.9854 16.0245 8.80844C16.1095 8.63148 16.2294 8.47411 16.3769 8.34608C16.5244 8.21806 16.6963 8.12212 16.8819 8.06423C16.9728 8.03542 17.0572 7.98875 17.1303 7.92689C17.2034 7.86502 17.2638 7.78918 17.3079 7.70368C17.3521 7.61818 17.3792 7.5247 17.3877 7.42858C17.3963 7.33246 17.386 7.23558 17.3576 7.14348C17.3292 7.05137 17.2831 6.96584 17.222 6.89177C17.161 6.8177 17.0862 6.75654 17.0018 6.71178C16.9174 6.66702 16.8251 6.63955 16.7303 6.63091C16.6354 6.62228 16.5398 6.63267 16.4489 6.66148C15.9487 6.81862 15.5008 7.11235 15.1545 7.51045C14.8082 7.90854 14.5767 8.39562 14.4856 8.91823C13.1264 8.59673 12.1107 7.35973 12.1107 5.88598C12.1115 5.08696 12.415 4.31875 12.9585 3.73986C13.502 3.16097 14.2441 2.81559 15.0316 2.77498C15.0224 2.87348 15.017 2.97273 15.017 3.07273C15.0168 3.71444 15.2148 4.34012 15.5833 4.86197C15.9519 5.38383 16.4724 5.77566 17.0719 5.98248C17.162 6.01366 17.2574 6.02656 17.3524 6.02041C17.4475 6.01427 17.5404 5.98921 17.626 5.94667C17.7115 5.90413 17.7879 5.84494 17.8508 5.77248C17.9137 5.70001 17.962 5.6157 17.9928 5.52435C18.0235 5.433 18.0363 5.3364 18.0302 5.24007C18.0241 5.14373 17.9994 5.04956 17.9574 4.96291C17.9154 4.87626 17.857 4.79884 17.7855 4.73506C17.714 4.67129 17.6308 4.62241 17.5406 4.59123C17.2723 4.49868 17.0334 4.3348 16.8489 4.11671C16.6644 3.89861 16.5411 3.6343 16.4919 3.35141C16.4427 3.06852 16.4693 2.77743 16.5691 2.50855C16.6689 2.23967 16.8381 2.00288 17.059 1.82293C17.28 1.64298 17.5446 1.52646 17.8252 1.48556C18.1058 1.44467 18.3921 1.48089 18.6541 1.59044C18.9162 1.69999 19.1444 1.87886 19.3149 2.10834C19.4854 2.33782 19.5919 2.6095 19.6234 2.89498C19.6088 2.95308 19.6014 3.01278 19.6012 3.07273V15.3935C19.6013 15.4245 19.6035 15.4555 19.6076 15.4862C19.5956 15.9039 19.4996 16.3147 19.3253 16.6934C19.1511 17.0722 18.9024 17.4109 18.5944 17.6887C17.696 17.2166 16.668 17.061 15.6727 17.2466C14.6774 17.4322 13.7715 17.9484 13.0978 18.7137C13.0343 18.7857 12.9854 18.8696 12.9539 18.9607C12.9224 19.0518 12.9089 19.1483 12.9142 19.2446C12.9196 19.341 12.9435 19.4354 12.9848 19.5224C13.0261 19.6094 13.0839 19.6873 13.1549 19.7516C13.2259 19.8159 13.3087 19.8655 13.3986 19.8974C13.4885 19.9293 13.5838 19.943 13.6789 19.9376C13.774 19.9322 13.8671 19.9079 13.953 19.8661C14.0388 19.8242 14.1157 19.7657 14.1792 19.6937C14.471 19.3629 14.8283 19.098 15.2279 18.9165C15.6275 18.7351 16.0604 18.641 16.4983 18.6405C18.1816 18.6405 19.5558 20.0027 19.6069 21.696C19.6024 21.7278 19.6001 21.7599 19.6 21.792V29.9622C19.5995 30.434 19.4945 30.8997 19.2929 31.325C19.0912 31.7503 18.798 32.1243 18.4349 32.4196C18.0717 32.7149 17.6478 32.9238 17.1944 33.0311C16.7409 33.1384 16.2695 33.1412 15.8149 33.0395C15.627 32.9974 15.4304 33.0327 15.2682 33.1376C15.106 33.2425 14.9916 33.4084 14.9501 33.5987C14.9087 33.7891 14.9435 33.9883 15.047 34.1527C15.1505 34.317 15.3142 34.4329 15.502 34.475C15.8261 34.5473 16.157 34.5838 16.4889 34.5837C17.4854 34.5846 18.4545 34.2529 19.2464 33.64C19.4763 34.0201 19.5983 34.4571 19.599 34.903V40.2617C19.6 42.064 18.1527 43.5302 16.3749 43.5302Z" fill="white"/>
<path d="M25.2566 43.0435V41.9935C35.8406 41.9935 41.1531 29.496 41.1531 22.4997C41.1531 14.5325 35.4923 3.00599 25.2566 3.00599V1.95599C31.6662 1.95599 35.7146 5.93099 37.9819 9.26399C40.5775 13.0805 42.1888 18.1517 42.1888 22.5C42.1888 26.725 40.5773 31.7452 37.9831 35.6015C35.699 38.9965 31.6371 43.0435 25.2566 43.0435Z" fill="white"/>
<path d="M25.2567 4.7205C26.5431 4.7205 27.5859 3.66378 27.5859 2.36025C27.5859 1.05672 26.5431 0 25.2567 0C23.9703 0 22.9275 1.05672 22.9275 2.36025C22.9275 3.66378 23.9703 4.7205 25.2567 4.7205Z" fill="white"/>
<path d="M25.2567 45C26.5431 45 27.5859 43.9433 27.5859 42.6398C27.5859 41.3362 26.5431 40.2795 25.2567 40.2795C23.9703 40.2795 22.9275 41.3362 22.9275 42.6398C22.9275 43.9433 23.9703 45 25.2567 45Z" fill="white"/>
<path d="M41.6708 24.8602C42.9572 24.8602 44 23.8035 44 22.5C44 21.1965 42.9572 20.1397 41.6708 20.1397C40.3844 20.1397 39.3416 21.1965 39.3416 22.5C39.3416 23.8035 40.3844 24.8602 41.6708 24.8602Z" fill="white"/>
<path d="M36.4506 10.5443C37.737 10.5443 38.7798 9.48754 38.7798 8.18401C38.7798 6.88048 37.737 5.82376 36.4506 5.82376C35.1642 5.82376 34.1213 6.88048 34.1213 8.18401C34.1213 9.48754 35.1642 10.5443 36.4506 10.5443Z" fill="white"/>
<path d="M37.4179 37.6592C38.7043 37.6592 39.7471 36.6025 39.7471 35.299C39.7471 33.9955 38.7043 32.9388 37.4179 32.9388C36.1315 32.9388 35.0886 33.9955 35.0886 35.299C35.0886 36.6025 36.1315 37.6592 37.4179 37.6592Z" fill="white"/>
<path d="M25.2567 32.991C26.5431 32.991 27.5859 31.9343 27.5859 30.6308C27.5859 29.3272 26.5431 28.2705 25.2567 28.2705C23.9703 28.2705 22.9275 29.3272 22.9275 30.6308C22.9275 31.9343 23.9703 32.991 25.2567 32.991Z" fill="white"/>
<path d="M32.2992 27.2205C33.5856 27.2205 34.6284 26.1638 34.6284 24.8602C34.6284 23.5567 33.5856 22.5 32.2992 22.5C31.0128 22.5 29.97 23.5567 29.97 24.8602C29.97 26.1638 31.0128 27.2205 32.2992 27.2205Z" fill="white"/>
<path d="M25.2567 15.4262C26.5431 15.4262 27.5859 14.3695 27.5859 13.066C27.5859 11.7625 26.5431 10.7057 25.2567 10.7057C23.9703 10.7057 22.9275 11.7625 22.9275 13.066C22.9275 14.3695 23.9703 15.4262 25.2567 15.4262Z" fill="white"/>
<path d="M25.7745 2.36026H24.7385V42.6398H25.7745V2.36026Z" fill="white"/>
<path d="M31.5853 25.5807L31.744 24.9442L24.5054 12.822L37.2094 7.28149L33.0126 24.1397L41.5459 21.9897L41.7958 23.0087L31.5853 25.5807ZM26.0076 13.3097L32.1015 23.5132L35.6926 9.08649L26.0076 13.3097Z" fill="white"/>
<path d="M38.4694 36.264L24.229 30.7975L32.4754 24.0405L38.4694 36.264ZM26.2839 30.464L36.3661 34.3345L32.1226 25.68L26.2839 30.464Z" fill="white"/>
</g>
<defs>
<clipPath id="clip0_116_1134">
<rect width="44" height="45" fill="white"/>
</clipPath>
</defs>
</svg>
