<svg width="695" height="657" viewBox="0 0 695 657" fill="none" xmlns="http://www.w3.org/2000/svg">
<path d="M607.767 361.211C613.122 339.841 615.408 318.156 614.887 296.651C613.091 222.197 577.668 149.91 519.566 100.396C415.332 11.5665 244.978 38.9911 161.623 142.724C155.695 150.103 150.229 157.838 145.242 165.859C97.5541 242.54 90.4981 355.34 145.794 429.836C216.429 524.996 330.579 585.402 449.83 540.991C527.23 512.165 588.149 439.508 607.767 361.211Z" stroke="black"/>
<path d="M396.582 247.839H509.884C529.094 247.839 544.083 264.454 542.1 283.561C538.903 314.403 528.759 359.693 524.476 396.671C520.727 429.033 493.327 453.44 460.749 453.44H358.392L396.582 247.839Z" fill="#4476E0"/>
<path d="M382.464 247.839H490.41C509.618 247.839 524.607 264.454 522.626 283.561C519.429 314.403 514.641 342.341 510.356 379.317C506.609 411.677 479.209 436.086 446.631 436.086H344.274L382.464 247.839Z" fill="#4476E0"/>
<path d="M435.408 621.099H422.173V454.654H435.408V621.099Z" fill="#CFCFCF"/>
<path d="M459.327 458.601H390.313C387.897 458.601 385.939 456.642 385.939 454.227V453.341H463.701V454.227C463.701 456.642 461.743 458.601 459.327 458.601Z" fill="#CFCFCF"/>
<path d="M376.507 636.762C376.509 632.552 378.209 628.76 380.965 625.999C383.726 623.241 387.519 621.543 391.729 621.541H471.146C475.356 621.543 479.149 623.241 481.91 625.999C484.668 628.76 486.367 632.552 486.368 636.762V637.437C486.368 638.533 487.257 639.423 488.354 639.423C489.45 639.423 490.339 638.533 490.339 637.437V636.762C490.338 626.162 481.747 617.571 471.146 617.57H391.729C381.128 617.571 372.537 626.162 372.537 636.762C372.537 637.858 373.426 638.746 374.523 638.746C375.618 638.746 376.507 637.858 376.507 636.762Z" fill="#CFCFCF"/>
<path d="M454.767 636.596H458.737V619.39H454.767V636.596Z" fill="#CFCFCF"/>
<path d="M403.145 636.596H407.116V619.39H403.145V636.596Z" fill="#CFCFCF"/>
<path d="M383.986 637.034C383.986 641.508 380.361 645.135 375.888 645.135C371.412 645.135 367.788 641.508 367.788 637.034C367.788 632.561 371.412 628.935 375.888 628.935C380.361 628.935 383.986 632.561 383.986 637.034Z" fill="#CFCFCF"/>
<path d="M378.503 637.034H377.89C377.889 638.141 376.992 639.036 375.888 639.037C374.781 639.036 373.886 638.141 373.885 637.034C373.886 635.928 374.781 635.033 375.888 635.03C376.992 635.033 377.889 635.93 377.89 637.034H378.503H379.114C379.112 635.253 377.669 633.808 375.888 633.808C374.105 633.808 372.663 635.253 372.661 637.034C372.663 638.816 374.106 640.259 375.888 640.259C377.669 640.259 379.112 638.816 379.114 637.034H378.503Z" fill="#121526"/>
<path d="M413.866 637.034C413.866 641.508 410.241 645.135 405.768 645.135C401.292 645.135 397.668 641.508 397.668 637.034C397.668 632.561 401.292 628.935 405.768 628.935C410.241 628.935 413.866 632.561 413.866 637.034Z" fill="#CFCFCF"/>
<path d="M408.383 637.034H407.771C407.769 638.141 406.873 639.036 405.769 639.037C404.661 639.036 403.767 638.141 403.765 637.034C403.767 635.928 404.661 635.033 405.769 635.03C406.873 635.033 407.769 635.93 407.771 637.034H408.383H408.994C408.993 635.253 407.549 633.808 405.769 633.808C403.985 633.808 402.543 635.253 402.542 637.034C402.542 638.816 403.986 640.259 405.769 640.259C407.548 640.259 408.993 638.816 408.994 637.034H408.383Z" fill="#121526"/>
<path d="M466.343 637.034C466.343 641.508 462.718 645.135 458.245 645.135C453.769 645.135 450.145 641.508 450.145 637.034C450.145 632.561 453.769 628.935 458.245 628.935C462.718 628.935 466.343 632.561 466.343 637.034Z" fill="#CFCFCF"/>
<path d="M460.86 637.034H460.247C460.246 638.141 459.349 639.036 458.245 639.037C457.138 639.036 456.243 638.141 456.242 637.034C456.243 635.928 457.138 635.033 458.245 635.03C459.349 635.033 460.246 635.93 460.247 637.034H460.86H461.471C461.469 635.253 460.026 633.808 458.245 633.808C456.461 633.808 455.02 635.253 455.018 637.034C455.018 638.816 456.463 640.259 458.245 640.259C460.025 640.259 461.469 638.816 461.471 637.034H460.86Z" fill="#121526"/>
<path d="M496.223 637.034C496.223 641.508 492.598 645.135 488.125 645.135C483.649 645.135 480.025 641.508 480.025 637.034C480.025 632.561 483.649 628.935 488.125 628.935C492.598 628.935 496.223 632.561 496.223 637.034Z" fill="#CFCFCF"/>
<path d="M490.74 637.034H490.127C490.126 638.141 489.229 639.036 488.125 639.037C487.018 639.036 486.123 638.141 486.122 637.034C486.123 635.928 487.018 635.033 488.125 635.03C489.229 635.033 490.126 635.93 490.127 637.034H490.74H491.351C491.349 635.253 489.906 633.808 488.125 633.808C486.341 633.808 484.9 635.253 484.898 637.034C484.898 638.816 486.343 640.259 488.125 640.259C489.905 640.259 491.349 638.816 491.351 637.034H490.74Z" fill="#121526"/>
<path d="M224.954 378.105L240.241 643.001C240.262 646.947 234.919 647.148 234.692 643.21L205.595 378.132" fill="white"/>
<path d="M205.595 378.05L224.965 378.124L206.644 387.397L205.595 378.05Z" fill="#242C50"/>
<path d="M694.184 650.798C694.184 654.036 538.838 656.659 347.208 656.659C155.579 656.659 0.232178 654.036 0.232178 650.798C0.232178 647.561 155.579 644.936 347.208 644.936C538.838 644.936 694.184 647.561 694.184 650.798Z" fill="#91B3D2"/>
<path d="M203.854 211.7H127.524C118.685 211.7 111.984 203.725 113.508 195.016L120.342 155.976C121.533 149.167 127.447 144.199 134.359 144.199H210.688C219.528 144.199 226.23 152.176 224.705 160.883L217.871 199.924C216.68 206.734 210.767 211.7 203.854 211.7Z" fill="#7F56BC"/>
<path d="M182.698 206.587H198.249C204.44 206.587 209.824 202.417 211.451 196.45C212.829 191.391 213.34 186.449 214.551 181.813C214.622 181.547 214.462 181.277 214.197 181.208C213.931 181.138 213.661 181.298 213.592 181.562C212.357 186.3 211.847 191.232 210.494 196.189C208.982 201.73 203.987 205.593 198.249 205.593H182.698C182.424 205.593 182.202 205.816 182.202 206.089C182.202 206.364 182.424 206.587 182.698 206.587Z" fill="#D2DEEC"/>
<path d="M151.394 207.602L158.869 222.3C160.337 225.186 163.708 225.531 165.557 222.982L177.204 206.94" fill="#4476E0"/>
<path d="M151.261 176.497H150.764C150.761 178.439 149.19 180.007 147.25 180.012C145.309 180.007 143.737 178.439 143.734 176.497C143.737 174.556 145.309 172.986 147.25 172.983C149.19 172.986 150.761 174.556 150.764 176.497H151.261H151.757C151.757 174.008 149.739 171.989 147.25 171.989C144.759 171.989 142.742 174.008 142.742 176.497C142.742 178.987 144.761 181.004 147.25 181.004C149.739 181.004 151.757 178.987 151.757 176.497H151.261Z" fill="#D2DEEC"/>
<path d="M173.117 176.497H172.621C172.618 178.439 171.048 180.007 169.107 180.012C167.165 180.007 165.594 178.439 165.592 176.497C165.594 174.556 167.166 172.986 169.107 172.983C171.048 172.986 172.618 174.556 172.621 176.497H173.117H173.614C173.613 174.008 171.596 171.989 169.107 171.989C166.616 171.989 164.599 174.008 164.599 176.497C164.599 178.987 166.616 181.004 169.107 181.004C171.596 181.004 173.613 178.987 173.614 176.497H173.117Z" fill="#D2DEEC"/>
<path d="M194.976 176.497H194.48C194.475 178.439 192.905 180.007 190.964 180.012C189.022 180.007 187.453 178.439 187.449 176.497C187.453 174.556 189.022 172.986 190.964 172.983C192.905 172.986 194.475 174.556 194.48 176.497H194.976H195.472C195.472 174.008 193.453 171.989 190.964 171.989C188.474 171.989 186.457 174.008 186.457 176.497C186.457 178.987 188.474 181.004 190.964 181.004C193.453 181.004 195.472 178.987 195.472 176.497H194.976Z" fill="#D2DEEC"/>
<path d="M215.851 175.825C216.259 173.915 216.667 172.005 217.075 170.094C217.132 169.825 216.961 169.563 216.692 169.504C216.425 169.447 216.16 169.619 216.104 169.887C215.696 171.798 215.288 173.708 214.88 175.618C214.823 175.887 214.994 176.15 215.263 176.208C215.53 176.265 215.794 176.094 215.851 175.825Z" fill="#D2DEEC"/>
<path d="M314.518 150.281C293.028 150.281 275.607 132.86 275.607 111.37C275.607 89.8803 293.028 72.4588 314.518 72.4588C336.008 72.4588 353.429 89.8803 353.429 111.37C353.429 132.86 336.008 150.281 314.518 150.281Z" fill="#F1F1F0"/>
<path d="M314.487 121.247C309.192 121.247 304.9 116.955 304.9 111.66C304.9 106.367 309.192 102.074 314.487 102.074C319.781 102.074 324.072 106.367 324.072 111.66C324.072 116.955 319.781 121.247 314.487 121.247ZM339.169 113.956V109.852C339.169 108.793 338.31 107.932 337.249 107.932H335.534C334.082 107.932 332.846 106.97 332.377 105.597C332.256 105.242 332.125 104.893 331.984 104.548C331.414 103.157 331.878 101.554 333.044 100.604L334.231 99.6391C335.047 98.9758 335.17 97.7776 334.506 96.9633L331.893 93.7527C331.23 92.94 330.032 92.8175 329.217 93.4793L327.722 94.6984C326.497 95.6949 324.809 95.7801 323.419 95.0286C322.648 94.6118 321.846 94.2473 321.017 93.938C319.508 93.3793 318.458 92.0062 318.458 90.3972V88.7628C318.458 87.8126 317.687 87.0431 316.738 87.0431H312.235C311.285 87.0431 310.516 87.8126 310.516 88.7628V90.4809C310.516 92.0391 309.501 93.3733 308.038 93.9081C307.118 94.2458 306.234 94.6506 305.388 95.1198C304.064 95.8533 302.443 95.7681 301.271 94.8135L300.017 93.7931C298.989 92.9564 297.48 93.1118 296.644 94.1382L294.657 96.5779C293.822 97.6058 293.975 99.1162 295.003 99.9513L296.242 100.96C297.259 101.789 297.561 103.181 297.053 104.39C296.85 104.874 296.666 105.37 296.503 105.875C296.11 107.088 295.012 107.932 293.736 107.932H291.782C290.725 107.932 289.867 108.79 289.867 109.848V113.961C289.867 115.018 290.725 115.874 291.782 115.874H294.047C295.212 115.874 296.233 116.624 296.608 117.727C296.85 118.441 297.135 119.136 297.458 119.81C297.96 120.851 297.766 122.089 296.947 122.907L295.378 124.475C294.618 125.236 294.618 126.47 295.378 127.229L298.239 130.091C299.001 130.852 300.234 130.852 300.994 130.091L301.77 129.316C302.901 128.185 304.632 127.856 306.063 128.569C306.724 128.899 307.408 129.192 308.11 129.443C309.579 129.969 310.516 131.412 310.516 132.972V133.931C310.516 134.906 311.306 135.697 312.281 135.697H316.692C317.667 135.697 318.458 134.906 318.458 133.931V132.645C318.458 131.197 319.406 129.957 320.77 129.474C321.582 129.187 322.367 128.848 323.125 128.458C324.452 127.773 326.084 128.125 327.1 129.219L328.092 130.286C328.841 131.091 330.102 131.137 330.909 130.387L333.805 127.693C334.612 126.943 334.657 125.684 333.907 124.877L332.328 123.179C331.355 122.133 331.164 120.615 331.745 119.311C331.901 118.961 332.046 118.607 332.18 118.247C332.721 116.798 334.154 115.874 335.701 115.874H337.249C338.31 115.874 339.169 115.015 339.169 113.956Z" fill="#7F56BC"/>
<path d="M562.84 319.51C560.932 319.51 559.486 321.231 559.813 323.11L564.976 352.72C565.9 356.467 569.261 359.101 573.12 359.101H586.832C590.758 359.101 594.159 356.379 595.016 352.546L599.049 322.997C599.3 321.153 597.867 319.51 596.004 319.51H562.84Z" fill="#242C50"/>
<path d="M568.647 338.06H567.153C567.152 339.853 566.432 341.462 565.257 342.638C564.082 343.812 562.473 344.534 560.68 344.534C558.887 344.534 557.278 343.812 556.102 342.638C554.928 341.462 554.206 339.853 554.206 338.06C554.206 336.268 554.928 334.659 556.102 333.483C557.278 332.309 558.887 331.587 560.68 331.585C562.473 331.587 564.082 332.309 565.257 333.483C566.432 334.659 567.152 336.268 567.153 338.06H568.647H570.141C570.14 332.834 565.906 328.599 560.68 328.597C555.454 328.599 551.22 332.834 551.218 338.06C551.22 343.286 555.454 347.52 560.68 347.522C565.906 347.52 570.14 343.286 570.141 338.06H568.647Z" fill="#242C50"/>
<path d="M587.385 319.423C586.888 316.123 587.675 312.761 589.604 310.414C591.337 308.304 593.578 306.622 594.774 304.112C596.147 301.235 596.566 297.951 596.002 294.815C595.382 291.386 593.543 287.935 590.744 285.802C586.962 282.921 582.413 283.48 577.938 283.243C577.35 283.211 576.764 283.171 576.18 283.093C569.264 282.165 566.843 277.117 562.771 269.762C562.048 273.327 561.322 276.947 561.588 280.574C561.857 284.203 563.249 287.905 566.087 290.182C570.84 293.999 577.956 290.868 582.996 294.298C584.337 295.211 586.072 297.464 586.357 299.06C586.88 301.968 584.024 306.063 581.185 306.787C578.322 307.516 575.409 307.238 572.886 308.771C570.359 310.305 569.52 313.629 569.52 316.583C569.52 318.264 569.581 319.423 569.581 319.423" fill="#F1F1F0"/>
<path d="M561.675 332.446L597.655 332.572C597.992 332.572 598.266 332.3 598.267 331.962C598.269 331.625 597.995 331.35 597.658 331.348L561.678 331.224C561.34 331.223 561.067 331.496 561.065 331.834C561.064 332.171 561.337 332.445 561.675 332.446Z" fill="#D2DEEC"/>
<path d="M563.792 343.775H595.913C596.25 343.775 596.524 343.501 596.524 343.164C596.524 342.826 596.25 342.553 595.913 342.553H563.792C563.454 342.553 563.181 342.826 563.181 343.164C563.181 343.501 563.454 343.775 563.792 343.775Z" fill="#D2DEEC"/>
<path d="M593.785 347.594C594.374 341.528 594.961 335.461 595.55 329.394C595.583 329.058 595.336 328.759 595 328.726C594.664 328.695 594.365 328.94 594.332 329.276C593.745 335.343 593.156 341.41 592.569 347.476C592.536 347.812 592.781 348.111 593.117 348.144C593.454 348.176 593.752 347.93 593.785 347.594Z" fill="#D2DEEC"/>
<path d="M199.248 87.5556L199.369 87.4674C199.963 87.0357 200.093 86.205 199.661 85.6119L192.868 76.2878C192.436 75.6947 191.605 75.5647 191.012 75.9965C187.104 78.8425 181.627 77.9835 178.779 74.0752L171.496 64.0788C168.648 60.1705 169.509 54.6935 173.417 51.846C174.01 51.4142 174.14 50.5821 173.708 49.9904L168.236 42.4771C167.804 41.884 166.974 41.7525 166.38 42.1857L166.259 42.2739C158.249 48.1095 156.486 59.3324 162.321 67.3418L174.179 83.6188C180.015 91.6282 191.238 93.3911 199.248 87.5556Z" fill="white"/>
<path d="M201.373 56.1918H200.626C200.623 57.8427 199.289 59.1768 197.638 59.1798C195.987 59.1768 194.653 57.8427 194.65 56.1918C194.653 54.541 195.987 53.2068 197.638 53.2038C199.289 53.2068 200.623 54.541 200.626 56.1918H201.373H202.12C202.12 53.7163 200.113 51.7098 197.638 51.7098C195.162 51.7098 193.156 53.7163 193.156 56.1918C193.156 58.6674 195.162 60.6738 197.638 60.6738C200.113 60.6738 202.12 58.6674 202.12 56.1918H201.373Z" fill="#7F56BC"/>
<path d="M229.759 56.1918H229.012C229.009 57.8427 227.675 59.1768 226.024 59.1798C224.373 59.1768 223.039 57.8427 223.036 56.1918C223.039 54.541 224.373 53.2068 226.024 53.2038C227.675 53.2068 229.009 54.541 229.012 56.1918H229.759H230.506C230.506 53.7163 228.499 51.7098 226.024 51.7098C223.548 51.7098 221.542 53.7163 221.542 56.1918C221.542 58.6674 223.548 60.6738 226.024 60.6738C228.499 60.6738 230.506 58.6674 230.506 56.1918H229.759Z" fill="#7F56BC"/>
<path d="M214.819 56.1918H214.072C214.069 57.8427 212.735 59.1768 211.084 59.1798C209.433 59.1768 208.099 57.8427 208.096 56.1918C208.099 54.541 209.433 53.2068 211.084 53.2038C212.735 53.2068 214.069 54.541 214.072 56.1918H214.819H215.566C215.566 53.7163 213.559 51.7098 211.084 51.7098C208.608 51.7098 206.602 53.7163 206.602 56.1918C206.602 58.6674 208.608 60.6738 211.084 60.6738C213.559 60.6738 215.566 58.6674 215.566 56.1918H214.819Z" fill="#F070FF"/>
<path d="M521.265 188.643L523.443 204.252C523.871 207.318 526.288 208.238 528.242 206.079L540.538 192.488" fill="white"/>
<path d="M585.068 196.129H478.985C472.892 196.129 468.394 190.449 469.788 184.518L477.295 152.618C478.298 148.351 482.106 145.334 486.491 145.334H592.575C598.668 145.334 603.166 151.016 601.772 156.946L594.265 188.846C593.262 193.114 589.454 196.129 585.068 196.129Z" fill="white"/>
<path d="M572.943 191.584H580.154C584.785 191.584 588.824 188.44 589.961 183.952L592.348 174.527C592.415 174.262 592.254 173.991 591.99 173.924C591.724 173.857 591.453 174.018 591.386 174.282L588.999 183.708C587.974 187.757 584.331 190.591 580.154 190.591H572.943C572.668 190.591 572.447 190.814 572.447 191.087C572.447 191.362 572.668 191.584 572.943 191.584Z" fill="#242C50"/>
<path d="M593.512 169.853C593.761 168.732 594.011 167.612 594.26 166.491C594.319 166.224 594.151 165.958 593.884 165.9C593.615 165.84 593.351 166.009 593.291 166.276C593.041 167.397 592.792 168.517 592.542 169.638C592.483 169.905 592.651 170.169 592.919 170.229C593.186 170.289 593.452 170.12 593.512 169.853Z" fill="#242C50"/>
<path d="M494.197 156.039H585.482C585.755 156.039 585.978 155.816 585.978 155.543C585.978 155.268 585.755 155.047 585.482 155.047H494.197C493.922 155.047 493.701 155.268 493.701 155.543C493.701 155.816 493.922 156.039 494.197 156.039Z" fill="#242C50"/>
<path d="M490.462 167.991H550.241C550.515 167.991 550.737 167.769 550.737 167.495C550.737 167.22 550.515 166.999 550.241 166.999H490.462C490.187 166.999 489.966 167.22 489.966 167.495C489.966 167.769 490.187 167.991 490.462 167.991Z" fill="#242C50"/>
<path d="M487.474 178.449H565.226C565.499 178.449 565.722 178.227 565.722 177.953C565.722 177.678 565.499 177.457 565.226 177.457H487.474C487.199 177.457 486.978 177.678 486.978 177.953C486.978 178.227 487.199 178.449 487.474 178.449Z" fill="#242C50"/>
<path d="M421.738 27.8062H316.161C308.736 27.8062 302.715 21.7868 302.715 14.3602C302.715 6.93348 308.736 0.914154 316.161 0.914154H421.738C429.165 0.914154 435.184 6.93348 435.184 14.3602C435.184 21.7868 429.165 27.8062 421.738 27.8062Z" fill="#7F56BC"/>
<path d="M328.294 8.38091L329.958 11.7544C330.026 11.8888 330.154 11.9815 330.302 12.0039L334.025 12.5447C334.399 12.5985 334.548 13.0586 334.276 13.3231L331.584 15.9481C331.476 16.0527 331.427 16.2035 331.452 16.3514L332.089 20.0596C332.153 20.4316 331.76 20.7154 331.427 20.5391L328.097 18.7897H327.673L324.344 20.5391C324.009 20.7154 323.618 20.4316 323.682 20.0596L324.317 16.3514C324.342 16.2035 324.293 16.0527 324.187 15.9481L321.493 13.3231C321.223 13.0586 321.371 12.5985 321.746 12.5447L325.469 12.0039C325.617 11.9815 325.745 11.8888 325.811 11.7544L327.475 8.38091C327.644 8.04178 328.127 8.04178 328.294 8.38091Z" fill="#F1F1F0"/>
<path d="M348.826 8.38091L350.492 11.7544C350.556 11.8888 350.685 11.9815 350.834 12.0039L354.556 12.5447C354.931 12.5985 355.08 13.0586 354.81 13.3231L352.116 15.9481C352.008 16.0527 351.959 16.2035 351.986 16.3514L352.621 20.0596C352.684 20.4316 352.294 20.7154 351.959 20.5391L348.629 18.7897H348.205L344.876 20.5391C344.541 20.7154 344.15 20.4316 344.214 20.0596L344.851 16.3514C344.876 16.2035 344.827 16.0527 344.719 15.9481L342.025 13.3231C341.755 13.0586 341.904 12.5985 342.278 12.5447L346.001 12.0039C346.149 11.9815 346.277 11.8888 346.345 11.7544L348.007 8.38091C348.176 8.04178 348.659 8.04178 348.826 8.38091Z" fill="#F1F1F0"/>
<path d="M369.358 8.38091L371.024 11.7544C371.09 11.8888 371.22 11.9815 371.366 12.0039L375.089 12.5447C375.463 12.5985 375.612 13.0586 375.342 13.3231L372.649 15.9481C372.54 16.0527 372.491 16.2035 372.518 16.3514L373.153 20.0596C373.216 20.4316 372.826 20.7154 372.491 20.5391L369.162 18.7897H368.737L365.408 20.5391C365.073 20.7154 364.683 20.4316 364.748 20.0596L365.381 16.3514C365.408 16.2035 365.359 16.0527 365.251 15.9481L362.559 13.3231C362.287 13.0586 362.436 12.5985 362.811 12.5447L366.533 12.0039C366.681 11.9815 366.809 11.8888 366.875 11.7544L368.541 8.38091C368.708 8.04178 369.191 8.04178 369.358 8.38091Z" fill="#F1F1F0"/>
<path d="M389.892 8.38091L391.556 11.7544C391.623 11.8888 391.752 11.9815 391.898 12.0039L395.623 12.5447C395.996 12.5985 396.144 13.0586 395.874 13.3231L393.182 15.9481C393.073 16.0527 393.025 16.2035 393.05 16.3514L393.687 20.0596C393.751 20.4316 393.358 20.7154 393.023 20.5391L389.695 18.7897H389.27L385.94 20.5391C385.605 20.7154 385.216 20.4316 385.28 20.0596L385.915 16.3514C385.94 16.2035 385.891 16.0527 385.785 15.9481L383.091 13.3231C382.819 13.0586 382.969 12.5985 383.344 12.5447L387.065 12.0039C387.215 11.9815 387.343 11.8888 387.407 11.7544L389.073 8.38091C389.24 8.04178 389.723 8.04178 389.892 8.38091Z" fill="#F1F1F0"/>
<path d="M410.424 8.38091L412.088 11.7544C412.155 11.8888 412.284 11.9815 412.432 12.0039L416.155 12.5447C416.528 12.5985 416.678 13.0586 416.407 13.3231L413.714 15.9481C413.606 16.0527 413.557 16.2035 413.582 16.3514L414.219 20.0596C414.283 20.4316 413.891 20.7154 413.555 20.5391L410.227 18.7897H409.802L406.474 20.5391C406.139 20.7154 405.748 20.4316 405.812 20.0596L406.448 16.3514C406.472 16.2035 406.423 16.0527 406.317 15.9481L403.623 13.3231C403.351 13.0586 403.502 12.5985 403.876 12.5447L407.597 12.0039C407.747 11.9815 407.875 11.8888 407.942 11.7544L409.605 8.38091C409.772 8.04178 410.256 8.04178 410.424 8.38091Z" fill="#F1F1F0"/>
<path d="M106.076 376.05L74.8213 642.811C74.5785 646.747 79.8991 647.311 80.3473 643.397L125.409 377.365" fill="white"/>
<path d="M105.828 378.05L125.693 378.124L104.725 387.149L105.828 378.05Z" fill="#242C50"/>
<path d="M633.137 376.05L664.39 645.325C664.634 649.263 659.314 649.827 658.865 645.911L613.803 377.365" fill="white"/>
<path d="M613.817 378.05H633.506L615.528 387.702L613.817 378.05Z" fill="#242C50"/>
<path d="M513.559 378.05L499.48 642.378C499.459 646.325 504.803 646.525 505.028 642.587L533.248 378.05" fill="white"/>
<path d="M513.559 378.05H533.248L513.117 387.702L513.559 378.05Z" fill="#242C50"/>
<path d="M653.351 378.119H73.6565V359.235H653.351V378.119Z" fill="#7F56BC"/>
<path d="M426.342 378.119H58.116V359.235H426.342V378.119Z" fill="#F070FF"/>
<path d="M305.206 237.464H304.595C304.59 239.876 302.639 241.828 300.226 241.832C297.813 241.828 295.862 239.876 295.858 237.464C295.862 235.051 297.813 233.1 300.226 233.095C302.639 233.1 304.59 235.051 304.595 237.464H305.206H305.817C305.817 234.375 303.314 231.873 300.226 231.873C297.138 231.873 294.636 234.375 294.634 237.464C294.636 240.552 297.138 243.054 300.226 243.056C303.314 243.054 305.817 240.552 305.817 237.464H305.206Z" fill="#D2DEEC"/>
<path d="M442.156 126.907H441.545C441.541 129.32 439.588 131.271 437.175 131.276C434.762 131.271 432.811 129.32 432.807 126.907C432.811 124.495 434.762 122.543 437.175 122.539C439.588 122.543 441.541 124.495 441.545 126.907H442.156H442.767C442.767 123.819 440.263 121.317 437.175 121.317C434.087 121.317 431.585 123.819 431.585 126.907C431.585 129.996 434.087 132.498 437.175 132.5C440.263 132.498 442.767 129.997 442.767 126.907H442.156Z" fill="#D2DEEC"/>
<path d="M563.668 230.99H563.057C563.052 233.403 561.101 235.354 558.688 235.358C556.275 235.354 554.323 233.403 554.318 230.99C554.323 228.577 556.275 226.626 558.688 226.622C561.101 226.626 563.052 228.577 563.057 230.99H563.668H564.279C564.279 227.902 561.776 225.399 558.688 225.398C555.6 225.399 553.096 227.902 553.096 230.99C553.096 234.078 555.6 236.581 558.688 236.582C561.776 236.581 564.279 234.078 564.279 230.99H563.668Z" fill="#D2DEEC"/>
<path d="M210.087 247.424H209.476C209.472 249.837 207.521 251.788 205.108 251.793C202.695 251.788 200.744 249.837 200.739 247.424C200.744 245.011 202.695 243.06 205.108 243.056C207.521 243.06 209.472 245.011 209.476 247.424H210.087H210.7C210.698 244.336 208.196 241.834 205.108 241.832C202.02 241.834 199.517 244.336 199.516 247.424C199.517 250.512 202.02 253.015 205.108 253.016C208.196 253.015 210.698 250.512 210.7 247.424H210.087Z" fill="#D2DEEC"/>
<path d="M250.515 225.095H249.902C249.899 226.637 248.652 227.886 247.109 227.889C245.565 227.886 244.318 226.637 244.315 225.095C244.318 223.552 245.565 222.303 247.109 222.3C248.652 222.303 249.899 223.552 249.902 225.095H250.515H251.126C251.126 222.876 249.327 221.078 247.109 221.078C244.89 221.078 243.093 222.876 243.091 225.095C243.093 227.314 244.89 229.111 247.109 229.112C249.327 229.111 251.126 227.314 251.126 225.095H250.515Z" fill="#D2DEEC"/>
<path d="M332.595 194.635H331.984C331.981 196.18 330.732 197.427 329.19 197.43C327.647 197.427 326.398 196.18 326.395 194.635C326.398 193.093 327.647 191.844 329.19 191.841C330.732 191.844 331.981 193.093 331.984 194.635H332.595H333.208C333.206 192.416 331.409 190.619 329.19 190.619C326.972 190.619 325.173 192.416 325.173 194.635C325.173 196.855 326.972 198.652 329.19 198.652C331.409 198.652 333.206 196.855 333.208 194.635H332.595Z" fill="#D2DEEC"/>
<path d="M244.948 113.462H244.336C244.333 115.005 243.085 116.254 241.542 116.257C239.999 116.254 238.75 115.005 238.748 113.462C238.75 111.918 239.999 110.671 241.542 110.668C243.085 110.671 244.333 111.918 244.336 113.462H244.948H245.559C245.558 111.243 243.761 109.446 241.542 109.446C239.323 109.446 237.525 111.243 237.525 113.462C237.525 115.68 239.323 117.479 241.542 117.479C243.761 117.479 245.558 115.68 245.559 113.462H244.948Z" fill="#D2DEEC"/>
<path d="M518.848 228.5H518.237C518.234 230.043 516.985 231.292 515.443 231.295C513.898 231.292 512.649 230.043 512.648 228.5C512.649 226.956 513.898 225.709 515.443 225.706C516.985 225.709 518.234 226.956 518.237 228.5H518.848H519.459C519.459 226.281 517.662 224.484 515.443 224.482C513.223 224.484 511.424 226.281 511.424 228.5C511.424 230.718 513.223 232.517 515.443 232.517C517.662 232.517 519.459 230.718 519.459 228.5H518.848Z" fill="#D2DEEC"/>
<path d="M128.416 278.299H127.804C127.801 279.844 126.553 281.091 125.01 281.094C123.467 281.091 122.218 279.844 122.216 278.299C122.218 276.757 123.467 275.508 125.01 275.505C126.553 275.508 127.801 276.757 127.804 278.299H128.416H129.027C129.026 276.082 127.229 274.283 125.01 274.283C122.791 274.283 120.994 276.082 120.993 278.299C120.994 280.519 122.791 282.316 125.01 282.316C127.229 282.316 129.026 280.519 129.027 278.299H128.416Z" fill="#D2DEEC"/>
<path d="M264.182 172.031V161.465C264.182 161.128 263.907 160.854 263.57 160.854C263.232 160.854 262.958 161.128 262.958 161.465V172.031C262.958 172.369 263.232 172.642 263.57 172.642C263.907 172.642 264.182 172.369 264.182 172.031Z" fill="#D2DEEC"/>
<path d="M258.288 167.359H268.852C269.19 167.359 269.463 167.086 269.463 166.748C269.463 166.41 269.19 166.137 268.852 166.137H258.288C257.951 166.137 257.676 166.41 257.676 166.748C257.676 167.086 257.951 167.359 258.288 167.359Z" fill="#D2DEEC"/>
<path d="M381.709 83.386V72.8219C381.709 72.4843 381.436 72.2109 381.098 72.2109C380.76 72.2109 380.487 72.4843 380.487 72.8219V83.386C380.487 83.7236 380.76 83.9971 381.098 83.9971C381.436 83.9971 381.709 83.7236 381.709 83.386Z" fill="#D2DEEC"/>
<path d="M375.817 78.7158H386.379C386.717 78.7158 386.99 78.4424 386.99 78.1033C386.99 77.7656 386.717 77.4922 386.379 77.4922H375.817C375.479 77.4922 375.206 77.7656 375.206 78.1033C375.206 78.4424 375.479 78.7158 375.817 78.7158Z" fill="#D2DEEC"/>
<path d="M477.325 224.818V214.254C477.325 213.916 477.052 213.643 476.714 213.643C476.376 213.643 476.103 213.916 476.103 214.254V224.818C476.103 225.156 476.376 225.429 476.714 225.429C477.052 225.429 477.325 225.156 477.325 224.818Z" fill="#D2DEEC"/>
<path d="M471.433 220.148H481.995C482.333 220.148 482.606 219.875 482.606 219.535C482.606 219.198 482.333 218.924 481.995 218.924H471.433C471.095 218.924 470.82 219.198 470.82 219.535C470.82 219.875 471.095 220.148 471.433 220.148Z" fill="#D2DEEC"/>
<path d="M137.69 327.407V316.841C137.69 316.504 137.415 316.23 137.077 316.23C136.739 316.23 136.466 316.504 136.466 316.841V327.407C136.466 327.745 136.739 328.018 137.077 328.018C137.415 328.018 137.69 327.745 137.69 327.407Z" fill="#D2DEEC"/>
<path d="M131.796 322.735H142.36C142.697 322.735 142.971 322.461 142.971 322.124C142.971 321.786 142.697 321.513 142.36 321.513H131.796C131.458 321.513 131.185 321.786 131.185 322.124C131.185 322.461 131.458 322.735 131.796 322.735Z" fill="#D2DEEC"/>
<path d="M184.501 409.078V398.514C184.501 398.176 184.228 397.903 183.89 397.903C183.552 397.903 183.279 398.176 183.279 398.514V409.078C183.279 409.416 183.552 409.689 183.89 409.689C184.228 409.689 184.501 409.416 184.501 409.078Z" fill="#D2DEEC"/>
<path d="M178.607 404.408H189.171C189.509 404.408 189.784 404.134 189.784 403.797C189.784 403.459 189.509 403.186 189.171 403.186H178.607C178.27 403.186 177.996 403.459 177.996 403.797C177.996 404.134 178.27 404.408 178.607 404.408Z" fill="#D2DEEC"/>
<path d="M317.951 593.779C317.077 588.195 314.174 580.798 312.93 575.284C313.625 574.85 339.988 564.985 346.537 562.925L353.68 593.025" fill="#FAD2BB"/>
<path d="M321.332 418.835H310.683C310.683 418.835 325.375 449.114 337.327 484.223C355.598 537.892 359.613 566.62 359.613 566.62L286.245 583.45L238.415 410.469C238.415 410.469 230.047 390.689 242.219 377.757H347.957L321.332 418.835Z" fill="#242C50"/>
<path d="M354.231 592.553L363.573 645.007H338.241L334.378 626.211L321.697 645.007H275.961L275.873 641.97C275.734 635.686 279.864 630.057 285.939 628.445C297.885 625.271 313.554 617.165 317.77 593.706" fill="#89A9CB"/>
<path d="M317.628 610.801C316.405 609.41 315.183 608.021 313.961 606.631L313.399 607.126L313.538 607.859C316.542 607.282 318.686 606.033 321.393 605.532C321.703 605.473 321.945 605.224 321.992 604.912C322.04 604.599 321.885 604.288 321.607 604.139C319.511 603.014 317.028 601.595 314.905 600.455L314.551 601.112L314.818 601.81C317.522 600.775 322.683 598.417 322.692 598.413C323.067 598.242 323.232 597.798 323.061 597.424C322.889 597.048 322.447 596.883 322.07 597.055C322.067 597.056 320.782 597.642 319.161 598.357C317.542 599.073 315.588 599.916 314.285 600.415C314.01 600.519 313.825 600.773 313.805 601.065C313.787 601.357 313.94 601.632 314.198 601.771C316.296 602.898 318.777 604.317 320.9 605.457L321.254 604.798L321.115 604.064C318.109 604.643 315.967 605.892 313.261 606.391C312.997 606.441 312.78 606.628 312.694 606.882C312.606 607.136 312.661 607.417 312.839 607.618C314.061 609.008 315.284 610.396 316.506 611.787C316.778 612.096 317.25 612.127 317.561 611.854C317.87 611.582 317.9 611.11 317.628 610.801Z" fill="#121526"/>
<path d="M227.044 584.781C227.044 584.781 239.111 565.697 242.534 561.199C243.312 561.452 267.815 575.309 273.603 579.001L255.134 603.821" fill="#FAD2BB"/>
<path d="M259.988 598.496L239.074 647.502L217.88 633.627L224.942 615.786L204.037 624.564L165.771 599.515L167.362 596.925C170.687 591.592 177.225 589.145 183.191 591.123C194.923 595.011 212.475 596.812 228.85 579.493" fill="#89A9CB"/>
<path d="M221.174 593.929C220.008 591.849 218.962 589.701 218.044 587.5L217.354 587.787L217.244 588.526C220.38 589 223.475 589.602 226.653 590.082C226.922 590.122 227.189 590.014 227.355 589.799C227.522 589.584 227.558 589.297 227.451 589.048C226.345 586.475 225.05 583.601 223.952 581.046L223.266 581.342L222.982 582.033C225.846 583.203 228.695 584.089 231.48 585.231C231.862 585.388 232.299 585.205 232.454 584.823C232.611 584.441 232.429 584.004 232.046 583.849C229.182 582.676 226.333 581.79 223.548 580.65C223.267 580.535 222.946 580.6 222.733 580.818C222.519 581.035 222.459 581.357 222.58 581.636C223.686 584.207 224.98 587.083 226.078 589.638L226.765 589.342L226.875 588.604C223.74 588.132 220.644 587.528 217.466 587.049C217.2 587.008 216.931 587.116 216.766 587.328C216.6 587.541 216.561 587.825 216.665 588.075C217.605 590.33 218.676 592.529 219.872 594.659C220.073 595.019 220.529 595.148 220.887 594.946C221.248 594.744 221.376 594.289 221.174 593.929Z" fill="#121526"/>
<path d="M410.168 425.465H434.544C451.867 425.465 469.601 417.074 471.04 399.812C472.036 387.86 465.908 377.757 465.908 377.757H344.913C344.913 377.757 301.82 416.676 267.856 461.813C224.643 519.238 210.7 546.161 210.7 546.161L282.371 589.262L390.066 435.911C394.665 429.362 402.165 425.465 410.168 425.465Z" fill="#22EBE5"/>
<path d="M276.606 584.329C313.865 534.399 349.748 480.189 386.39 429.041C390.879 422.766 398.584 419.495 406.387 419.283L453.336 418.007C453.7 417.997 453.989 417.694 453.978 417.328C453.969 416.963 453.665 416.675 453.3 416.685L406.351 417.96C398.216 418.182 390.108 421.583 385.313 428.27C348.653 479.445 312.774 533.649 275.545 583.537C275.327 583.83 275.387 584.245 275.68 584.463C275.974 584.682 276.388 584.621 276.606 584.329Z" fill="#242C50"/>
<path d="M225.612 530.503L293.893 571.909C294.206 572.098 294.613 571.999 294.802 571.686C294.991 571.374 294.893 570.967 294.579 570.778L226.297 529.372C225.985 529.182 225.579 529.282 225.389 529.594C225.199 529.907 225.299 530.315 225.612 530.503Z" fill="#242C50"/>
<path d="M338.131 400.329C341.734 396.465 345.338 392.603 348.941 388.74C349.191 388.472 349.176 388.054 348.908 387.805C348.641 387.555 348.223 387.57 347.973 387.838C344.37 391.701 340.766 395.563 337.162 399.426C336.913 399.694 336.928 400.112 337.195 400.362C337.463 400.611 337.881 400.596 338.131 400.329Z" fill="#242C50"/>
<path d="M346.493 395.042C344.211 399.365 342.342 403.905 340.921 408.582C340.815 408.931 341.013 409.302 341.362 409.408C341.712 409.514 342.081 409.317 342.187 408.967C343.585 404.37 345.421 399.909 347.662 395.659C347.833 395.336 347.709 394.935 347.386 394.765C347.063 394.595 346.663 394.719 346.493 395.042Z" fill="#242C50"/>
<path d="M224.209 542.789C230.709 533.597 237.211 524.401 243.711 515.208C243.922 514.91 243.852 514.497 243.553 514.287C243.256 514.074 242.842 514.146 242.631 514.445C236.129 523.637 229.629 532.832 223.127 542.026C222.916 542.323 222.987 542.737 223.285 542.947C223.584 543.158 223.997 543.088 224.209 542.789Z" fill="#242C50"/>
<path d="M473.384 266.982C472.961 256.017 470.984 247.947 462.255 239.453C458.962 236.249 454.924 232.651 450.593 230.48C444.288 227.318 436.085 226.07 430.073 223.215L421.175 212.319L404.212 213.893L392.421 211.534C384.748 226.345 358.914 227.047 346.167 239.453C337.437 247.947 335.461 256.017 335.036 266.982C333.931 295.616 337.82 359.235 337.82 359.235H395.956H412.466H466.393C466.393 359.235 474.491 295.616 473.384 266.982Z" fill="#F1F1F0"/>
<mask id="mask0_473_6746" style="mask-type:luminance" maskUnits="userSpaceOnUse" x="334" y="211" width="172" height="148">
<path d="M505.064 329.926C500.622 312.421 495.057 294.724 488.636 279.137C483.769 267.32 478.218 255.599 470.039 245.778C462.146 236.301 451.515 228.67 439.449 226.26C436.126 225.276 432.862 224.297 430.073 222.973L421.175 212.078L404.212 213.651L392.421 211.29C384.748 226.102 358.914 226.806 346.167 239.21C337.437 247.705 335.461 255.776 335.036 266.74C333.931 295.374 337.82 358.993 337.82 358.993H395.956H412.466H466.393C466.393 358.993 466.552 357.741 466.824 355.512C472.286 355.911 477.622 356.301 482.597 356.663C497.239 357.728 508.675 344.155 505.064 329.926Z" fill="white"/>
</mask>
<g mask="url(#mask0_473_6746)">
<path d="M470.994 355.817C470.511 355.781 470.025 355.745 469.54 355.711V350.76H470.994V355.817ZM470.994 349.306H469.54V331.489C469.713 329.806 469.888 328.085 470.061 326.325L470.994 326.333V349.306Z" fill="#22EBE5"/>
<path d="M469.54 331.489V326.321L470.061 326.325C469.888 328.085 469.713 329.807 469.54 331.489Z" fill="#CCD9E2"/>
<path d="M470.994 324.879L470.205 324.873C470.471 322.142 470.737 319.329 470.994 316.482V324.879Z" fill="#22EBE5"/>
<path d="M470.205 324.873L469.54 324.867V299.427H470.994V316.481C470.737 319.329 470.471 322.142 470.205 324.873ZM470.994 297.975H469.54V273.762H470.994V297.975Z" fill="#CCD9E2"/>
<path d="M470.994 252.45C470.58 251.31 470.099 250.188 469.54 249.083V249.065H470.994V252.45Z" fill="#22EBE5"/>
<path d="M470.994 272.308H469.54V249.082C470.099 250.188 470.58 251.31 470.994 252.45V272.308Z" fill="#CCD9E2"/>
<path d="M470.994 247.611H469.54V245.186C469.707 245.383 469.873 245.58 470.039 245.778C470.362 246.165 470.678 246.555 470.994 246.948V247.611Z" fill="#5073BE"/>
<path d="M443.486 358.993H442.034V350.76H443.486V358.993ZM443.486 349.306H442.034V326.103L443.486 326.113V349.306ZM443.486 324.661L442.034 324.649V299.427H443.486V324.661ZM443.486 297.975H442.034V273.762H443.486V297.975ZM443.486 272.308H442.034V249.065H443.486V272.308Z" fill="#CCD9E2"/>
<path d="M443.486 227.724C443.005 227.57 442.519 227.421 442.034 227.274V226.861C442.521 226.991 443.005 227.128 443.486 227.273V227.724Z" fill="#5073BE"/>
<path d="M443.486 247.611H442.034V227.274C442.519 227.421 443.005 227.57 443.486 227.724V247.611Z" fill="#CCD9E2"/>
<path d="M415.98 358.993H414.528V350.76H415.98V358.993ZM415.98 349.306H414.528V325.883L415.98 325.895V349.306ZM415.98 324.441L414.528 324.431V299.427H415.98V324.441ZM415.98 297.975H414.528V273.762H415.98V297.975ZM415.98 272.308H414.528V249.065H415.98V272.308Z" fill="#CCD9E2"/>
<path d="M414.528 212.937V212.695L415.98 212.56V212.802L414.528 212.937Z" fill="#5073BE"/>
<path d="M415.98 247.611H414.528V212.937L415.98 212.802V247.611Z" fill="#CCD9E2"/>
<path d="M388.389 358.993H386.937L386.945 350.76H388.399L388.389 358.993ZM388.401 349.306H386.948L386.977 325.664L388.431 325.675L388.401 349.306ZM388.432 324.223L386.978 324.211L387.01 299.427H388.462L388.432 324.223ZM388.463 297.975H387.011L387.041 273.762H388.493L388.463 297.975ZM388.496 272.308H387.043L387.071 249.065H388.525L388.496 272.308Z" fill="#CCD9E2"/>
<path d="M387.11 217.972V217.73C387.615 217.308 388.1 216.872 388.565 216.421L388.564 216.663C388.1 217.116 387.615 217.55 387.11 217.972Z" fill="#5073BE"/>
<path d="M388.526 247.611H387.074L387.11 217.971C387.615 217.55 388.1 217.115 388.564 216.663L388.526 247.611Z" fill="#CCD9E2"/>
<path d="M360.968 358.993H359.516V350.76H360.968V358.993ZM360.968 349.306H359.516V325.445L360.968 325.457V349.306ZM360.968 324.004L359.516 323.993V299.427H360.968V324.004ZM360.968 297.975H359.516V273.762H360.968V297.975ZM360.968 272.308H359.516V249.065H360.968V272.308Z" fill="#CCD9E2"/>
<path d="M359.516 231.107V230.866C359.997 230.653 360.481 230.442 360.968 230.234V230.476C360.481 230.684 359.997 230.895 359.516 231.107Z" fill="#5073BE"/>
<path d="M360.968 247.611H359.516V231.107C359.997 230.894 360.481 230.684 360.968 230.476V247.611Z" fill="#CCD9E2"/>
<path d="M471.696 247.839H468.877C468.833 247.763 468.79 247.687 468.745 247.611H469.54H470.994H471.518C471.578 247.687 471.638 247.763 471.696 247.839Z" fill="#5073BE"/>
<path d="M472.629 249.064H469.531C469.323 248.654 469.105 248.246 468.877 247.839H471.696C472.011 248.244 472.322 248.654 472.629 249.064Z" fill="#22EBE5"/>
<path d="M338.891 249.064H338.77C339.011 248.577 339.266 248.093 339.538 247.611H339.675C339.399 248.093 339.138 248.577 338.891 249.064Z" fill="#5073BE"/>
<path d="M469.531 249.064H338.891C339.138 248.577 339.399 248.093 339.675 247.611H359.516H360.968H387.074H388.526H414.528H415.98H442.034H443.486H468.745C468.79 247.687 468.833 247.763 468.877 247.839C469.105 248.246 469.323 248.654 469.531 249.064Z" fill="#CCD9E2"/>
<path d="M486.362 273.762H473.487C473.488 273.271 473.488 272.787 473.487 272.309H485.723C485.938 272.793 486.15 273.277 486.362 273.762Z" fill="#22EBE5"/>
<path d="M334.871 273.762H334.868C334.874 273.271 334.881 272.787 334.889 272.309H334.893C334.884 272.787 334.878 273.271 334.871 273.762Z" fill="#5073BE"/>
<path d="M473.487 273.762H334.871C334.878 273.271 334.884 272.787 334.893 272.309H359.516H360.968H387.043H388.496H414.528H415.98H442.034H443.486H469.54H470.994H473.487C473.489 272.787 473.489 273.271 473.487 273.762Z" fill="#CCD9E2"/>
<path d="M496.155 299.427H472.37C472.404 298.942 472.438 298.458 472.47 297.975H495.665C495.83 298.458 495.993 298.942 496.155 299.427Z" fill="#22EBE5"/>
<path d="M472.369 299.427H335.153C335.141 298.942 335.128 298.458 335.116 297.975H359.516H360.968H387.011H388.463H414.528H415.98H442.034H443.486H469.54H470.994H472.47C472.438 298.458 472.404 298.942 472.369 299.427Z" fill="#CCD9E2"/>
<path d="M497.871 326.546C497.869 326.546 497.866 326.546 497.865 326.546L470.994 326.333L470.061 326.325C470.109 325.843 470.157 325.36 470.205 324.873L470.994 324.879L497.877 325.093C498.277 325.096 498.6 325.424 498.597 325.826C498.594 326.225 498.269 326.546 497.871 326.546Z" fill="#22EBE5"/>
<path d="M470.061 326.325L469.54 326.321L443.486 326.113L442.034 326.103L415.98 325.895L414.528 325.883L388.431 325.675L386.977 325.663L360.968 325.457L359.516 325.445L336.085 325.258C336.064 324.777 336.043 324.293 336.023 323.806L359.516 323.993L360.968 324.004L386.978 324.211L388.432 324.223L414.528 324.431L415.98 324.441L442.034 324.649L443.486 324.661L469.54 324.867L470.205 324.873C470.157 325.36 470.109 325.843 470.061 326.325Z" fill="#CCD9E2"/>
<path d="M497.871 350.76H467.418C467.474 350.292 467.53 349.807 467.587 349.306H469.54H470.993H497.871C498.271 349.306 498.597 349.632 498.597 350.034C498.597 350.434 498.271 350.76 497.871 350.76Z" fill="#22EBE5"/>
<path d="M467.418 350.76H337.348C337.321 350.292 337.295 349.807 337.267 349.306H359.516H360.968H386.949H388.401H414.528H415.98H442.034H443.486H467.587C467.53 349.807 467.474 350.292 467.418 350.76Z" fill="#CCD9E2"/>
</g>
<path d="M352.727 303.506C353.903 318.138 356.066 335.673 358.368 350.168C358.425 350.528 358.764 350.774 359.126 350.717C359.487 350.659 359.732 350.32 359.675 349.96C357.379 335.501 355.217 317.987 354.048 303.399C354.018 303.036 353.698 302.765 353.335 302.793C352.97 302.823 352.699 303.143 352.727 303.506Z" fill="#242C50"/>
<path d="M397.789 228.032L404.005 238.795C404.188 239.11 404.593 239.219 404.909 239.037C405.226 238.853 405.335 238.448 405.151 238.131L398.935 227.37C398.753 227.053 398.348 226.944 398.031 227.128C397.714 227.31 397.607 227.715 397.789 228.032Z" fill="#242C50"/>
<path d="M397.789 227.328L390.693 235.698L384.116 222.319C383.955 221.99 383.559 221.856 383.23 222.017C382.903 222.179 382.767 222.574 382.928 222.903L389.951 237.189C390.05 237.389 390.241 237.526 390.464 237.553C390.685 237.582 390.905 237.495 391.05 237.325L398.797 228.184C399.035 227.905 399.001 227.488 398.721 227.252C398.442 227.015 398.025 227.049 397.789 227.328Z" fill="#242C50"/>
<path d="M405.002 238.877L428.54 224.63C428.852 224.44 428.952 224.034 428.763 223.72C428.573 223.408 428.167 223.308 427.854 223.497L404.316 237.744C404.004 237.934 403.904 238.34 404.092 238.653C404.282 238.966 404.688 239.066 405.002 238.877Z" fill="#242C50"/>
<path d="M397.741 228.434L397.743 228.79C397.746 235.559 395.309 242.331 392.438 249.112C389.569 255.895 386.273 262.676 384.652 269.525C383.629 273.852 383.254 278.25 383.254 282.662C383.254 288.635 383.941 294.633 384.655 300.525C385.611 308.402 386.615 316.274 387.669 324.138C387.716 324.5 388.05 324.755 388.411 324.706C388.774 324.658 389.028 324.325 388.98 323.962C387.929 316.103 386.925 308.237 385.97 300.366C385.256 294.481 384.578 288.533 384.578 282.662C384.578 278.325 384.947 274.031 385.94 269.828C387.509 263.181 390.767 256.449 393.657 249.628C396.54 242.805 399.063 235.882 399.066 228.79L399.065 228.418C399.06 228.053 398.76 227.76 398.394 227.765C398.03 227.769 397.737 228.069 397.741 228.434Z" fill="#242C50"/>
<path d="M360.29 230.464C359.121 234.801 358.436 239.268 358.25 243.756C358.235 244.122 358.518 244.43 358.884 244.445C359.248 244.46 359.558 244.176 359.573 243.811C359.755 239.42 360.426 235.05 361.569 230.809C361.663 230.456 361.453 230.093 361.101 229.998C360.748 229.902 360.385 230.111 360.29 230.464Z" fill="#242C50"/>
<path d="M329.903 283.084C330.551 272.578 331.18 265.167 335.086 255.391C338.991 245.618 350.226 233.465 359.487 230.74C351.678 250.171 347.238 316.24 356.535 358.238H333.837" fill="#F1F1F0"/>
<path d="M379.225 340.166C381.888 342.526 384.34 344.041 387.216 345.796C389.853 347.407 396.902 348.864 399.99 348.943H404.527L401.561 327.635C401.382 327.695 401.751 327.635 401.561 327.635L399.211 327.58C390.802 326.055 381.972 323.696 373.673 321.659C364.419 325.663 357.436 330.517 350.121 336.962C348.527 338.367 348.807 340.914 350.655 341.961L350.983 342.138C350.983 342.138 350.58 343.006 351.214 344.069C352.076 345.523 353.668 345.481 355.028 345.614C356.26 345.735 359.157 343.98 359.157 343.98C359.157 343.98 360.439 345.708 361.329 345.623C365.09 345.256 368.629 344.252 372.415 342.889C374.366 342.19 379.225 340.166 379.225 340.166Z" fill="#FAD2BB"/>
<path d="M350.816 342.421C356.828 338.352 362.72 334.103 368.481 329.684C368.771 329.463 368.825 329.046 368.602 328.756C368.381 328.466 367.964 328.412 367.674 328.635C361.936 333.038 356.065 337.27 350.074 341.325C349.77 341.53 349.691 341.94 349.896 342.244C350.102 342.547 350.513 342.626 350.816 342.421Z" fill="#242C50"/>
<path d="M361.362 344.563C360.771 344.415 360.43 344.198 360.221 343.978C360.013 343.757 359.91 343.517 359.862 343.221L359.84 342.925C359.834 342.181 360.294 341.412 360.995 340.947C366.443 337.323 371.756 333.449 376.727 329.17C377.003 328.931 377.034 328.513 376.797 328.236C376.558 327.958 376.139 327.928 375.863 328.166C370.948 332.4 365.678 336.242 360.261 339.846C359.244 340.524 358.521 341.651 358.516 342.925C358.516 343.091 358.528 343.258 358.555 343.426C358.631 343.925 358.843 344.455 359.262 344.891C359.677 345.329 360.27 345.656 361.041 345.847C361.397 345.936 361.755 345.72 361.843 345.365C361.932 345.011 361.716 344.652 361.362 344.563Z" fill="#242C50"/>
<path d="M397.517 342.57C393.689 342.189 389.972 340.695 386.923 338.345C386.001 337.635 384.887 337.272 383.766 337.272C382.951 337.272 382.132 337.465 381.38 337.855C377.633 339.803 373.876 341.555 369.989 343.287C369.763 343.387 369.524 343.435 369.286 343.435C368.904 343.435 368.526 343.308 368.242 343.092C367.958 342.876 367.766 342.589 367.701 342.22L367.05 342.332L367.709 342.277L367.676 341.902L367.017 341.957L367.679 341.968L367.252 341.962L367.621 342.202C367.613 342.198 367.661 342.193 367.679 341.968L367.252 341.962L367.621 342.202C367.628 342.187 367.733 342.06 367.89 341.908C368.487 341.315 369.85 340.188 371.517 338.875C374.025 336.898 377.252 334.463 379.851 332.524C381.149 331.554 382.292 330.709 383.109 330.107C383.925 329.503 384.416 329.143 384.418 329.143C384.712 328.926 384.776 328.513 384.56 328.218C384.343 327.922 383.929 327.858 383.635 328.075C383.633 328.076 379.383 331.191 375.127 334.42C372.998 336.036 370.869 337.678 369.264 338.981C368.46 339.632 367.789 340.197 367.305 340.639C367.062 340.86 366.868 341.05 366.717 341.219L366.514 341.479C366.458 341.581 366.375 341.666 366.355 341.948L366.358 342.014L366.39 342.389L366.397 342.444C366.52 343.163 366.921 343.757 367.446 344.15C367.972 344.545 368.619 344.757 369.286 344.758C369.702 344.758 370.126 344.675 370.526 344.495C374.427 342.758 378.21 340.993 381.991 339.029C382.549 338.739 383.158 338.596 383.766 338.596C384.601 338.596 385.431 338.866 386.115 339.393C389.361 341.893 393.303 343.479 397.386 343.887C397.75 343.923 398.074 343.657 398.11 343.294C398.146 342.93 397.88 342.605 397.517 342.57Z" fill="#242C50"/>
<path d="M438.134 226.244C450.742 228.343 461.858 236.2 470.039 246.021C478.218 255.841 483.769 267.562 488.636 279.379C495.057 294.966 500.623 312.662 505.064 330.168C508.675 344.395 496.795 358.342 482.131 358.993C451.398 360.354 406.124 359.446 406.124 359.235L400.075 308.428L424.726 309.922L443.874 312.382C443.874 312.382 427.893 271.34 429.71 245.917C430.028 241.454 438.134 226.244 438.134 226.244Z" fill="#F1F1F0"/>
<path d="M445.15 312.156C445.15 312.155 444.931 311.63 444.542 310.652C441.822 303.812 430.933 274.927 430.944 253.095C430.944 250.951 431.048 248.876 431.274 246.898C431.99 240.641 433.924 236.008 435.672 232.941C436.546 231.408 437.372 230.268 437.978 229.515C438.279 229.139 438.526 228.86 438.695 228.676L438.887 228.474L438.946 228.414C439.209 228.162 439.218 227.742 438.964 227.479C438.71 227.216 438.291 227.207 438.028 227.461C437.958 227.527 431.437 233.836 429.959 246.749C429.728 248.784 429.62 250.908 429.62 253.095C429.623 265.806 433.206 280.673 436.778 292.389C440.353 304.102 443.924 312.654 443.93 312.667C444.07 313.005 444.458 313.163 444.795 313.023C445.132 312.882 445.292 312.494 445.15 312.156Z" fill="#242C50"/>
<path d="M458.148 312.024L400.123 307.77C399.927 307.755 399.734 307.828 399.598 307.97C399.462 308.11 399.395 308.306 399.417 308.502L404.969 359.205C405.01 359.568 405.337 359.829 405.7 359.791C406.063 359.75 406.326 359.423 406.285 359.06L400.819 309.147L458.051 313.344C458.416 313.371 458.734 313.097 458.761 312.733C458.788 312.368 458.513 312.051 458.148 312.024Z" fill="#242C50"/>
<path d="M423.318 310.203L425.682 359.266C425.698 359.632 426.009 359.913 426.374 359.895C426.74 359.879 427.021 359.568 427.003 359.203L424.639 310.14C424.623 309.774 424.312 309.494 423.947 309.511C423.581 309.528 423.301 309.839 423.318 310.203Z" fill="#242C50"/>
<path d="M431.655 260.785C431.57 259.808 431.527 258.828 431.527 257.846C431.524 247.812 436.007 237.789 443.586 231.202C443.861 230.963 443.891 230.545 443.65 230.268C443.411 229.993 442.993 229.964 442.717 230.204C434.836 237.062 430.206 247.421 430.203 257.846C430.203 258.865 430.248 259.885 430.337 260.903C430.37 261.266 430.691 261.535 431.054 261.503C431.419 261.471 431.688 261.149 431.657 260.785" fill="#242C50"/>
<path d="M444.494 312.216C448.001 310.006 451.507 307.797 455.012 305.588C455.321 305.394 455.414 304.985 455.22 304.676C455.024 304.366 454.616 304.274 454.307 304.468C450.801 306.678 447.296 308.887 443.789 311.095C443.48 311.291 443.387 311.699 443.582 312.008C443.777 312.317 444.185 312.41 444.494 312.216Z" fill="#242C50"/>
<path d="M486.943 355.675C493.575 353.565 499.082 348.284 501.467 341.745C501.592 341.401 501.416 341.022 501.072 340.896C500.729 340.771 500.349 340.949 500.224 341.292C497.992 347.431 492.769 352.442 486.543 354.414C486.193 354.524 486.001 354.896 486.111 355.245C486.223 355.593 486.595 355.785 486.943 355.675Z" fill="#242C50"/>
<path d="M421.901 213.591L390.12 215.892L390.25 181.993H421.349L421.901 213.591Z" fill="#EDC3A5"/>
<path d="M421.901 213.591L398.294 227.755L390.12 215.892C390.12 215.892 397.135 201.12 405.788 201.12C414.44 201.12 421.901 213.591 421.901 213.591Z" fill="#EDC3A5"/>
<path d="M419.525 189.49L390.131 213.382V202.275" fill="#242C50"/>
<path d="M396.993 142.1C393.7 152.228 384.539 159.818 375.019 164.589C376.894 153.845 384.038 143.07 396.993 142.1Z" fill="#242C50"/>
<path d="M423.777 172.793C423.628 180.825 422.146 189.376 415.877 194.967C412.802 197.71 409.049 199.61 405.157 200.968C399.358 202.994 391.807 204.732 385.767 203.063C378.796 201.139 375.633 194.514 374.432 187.882C373.562 183.081 373.525 178.137 373.776 173.277C374.638 156.716 383.184 142.768 397.626 142.768C417.723 142.768 424.088 156.212 423.777 172.793Z" fill="#FAD2BB"/>
<path d="M431.008 177.179C430.726 182.242 426.795 186.139 422.226 185.885C417.659 185.629 414.186 181.319 414.468 176.257C414.75 171.194 418.681 167.296 423.25 167.552C427.815 167.806 431.29 172.116 431.008 177.179Z" fill="#FAD2BB"/>
<path d="M378.982 175.274C378.982 177.481 377.194 179.269 374.988 179.269C374.601 179.269 374.227 179.214 373.875 179.111L373.644 179.027C373.644 179.027 373.55 176.9 373.652 174.814C373.743 172.97 373.909 171.43 373.909 171.43L374.227 171.351C374.474 171.303 374.728 171.278 374.988 171.278C377.194 171.278 378.982 173.066 378.982 175.274Z" fill="#FFAF82"/>
<path d="M409.371 175.274C409.371 177.481 407.581 179.269 405.376 179.269C403.169 179.269 401.381 177.481 401.381 175.274C401.381 173.066 403.169 171.278 405.376 171.278C407.581 171.278 409.371 173.066 409.371 175.274Z" fill="#FFAF82"/>
<path d="M390.491 167.051C389.464 168.536 388.293 170.145 387.365 171.653C386.901 172.409 386.496 173.138 386.199 173.829C385.904 174.523 385.706 175.176 385.703 175.823C385.703 175.961 385.713 176.102 385.735 176.241V176.239C385.909 177.309 386.503 178.232 387.297 178.893C388.093 179.552 389.104 179.962 390.17 179.964C390.34 179.964 390.512 179.953 390.684 179.931C391.081 179.88 391.362 179.516 391.311 179.118C391.259 178.721 390.894 178.44 390.497 178.491L390.17 178.512C389.488 178.513 388.782 178.237 388.226 177.775C387.667 177.312 387.276 176.68 387.17 176.008L387.156 175.823C387.152 175.497 387.279 174.992 387.534 174.402C388.295 172.613 390.128 170.124 391.686 167.879C391.915 167.549 391.832 167.096 391.502 166.867C391.172 166.639 390.719 166.721 390.492 167.051" fill="#242C50"/>
<path d="M384.551 171.097C384.551 171.765 384.01 172.307 383.342 172.307C382.673 172.307 382.13 171.765 382.13 171.097C382.13 170.428 382.673 169.887 383.342 169.887C384.01 169.887 384.551 170.428 384.551 171.097Z" fill="#242C50"/>
<path d="M398.838 171.097C398.838 171.765 398.297 172.307 397.626 172.307C396.958 172.307 396.416 171.765 396.416 171.097C396.416 170.428 396.958 169.887 397.626 169.887C398.297 169.887 398.838 170.428 398.838 171.097Z" fill="#242C50"/>
<path d="M383.961 185.52C385.671 187.068 387.951 187.882 390.229 187.884C391.387 187.884 392.547 187.672 393.631 187.231C394.003 187.079 394.181 186.656 394.03 186.284C393.879 185.912 393.455 185.734 393.084 185.885C392.185 186.251 391.209 186.43 390.229 186.43C388.296 186.432 386.351 185.729 384.938 184.445C384.64 184.174 384.18 184.197 383.911 184.494C383.641 184.791 383.663 185.25 383.961 185.52Z" fill="#242C50"/>
<path d="M441.084 201.948C434.462 205.771 425.994 203.502 422.171 196.879C418.346 190.258 427.239 180.606 427.239 177.966C427.239 174.547 442.328 176.413 446.151 183.034C449.974 189.657 447.707 198.124 441.084 201.948Z" fill="#242C50"/>
<path d="M432.424 179.804C432.051 172.248 430.821 164.601 427.469 157.819C424.118 151.037 418.426 145.166 411.228 142.838C405.981 141.141 400.26 141.401 394.886 142.633C400.067 146.339 404.772 150.715 409.061 155.424C416.573 163.673 422.455 174.793 432.424 179.804Z" fill="#242C50"/>
<path d="M423.898 168.372C410.247 167.722 395.246 156.692 390.939 143.721C399.837 140.043 408.84 142.175 415.27 148.09C420.538 152.936 423.535 157.659 423.898 168.372Z" fill="#242C50"/>
<path d="M393.531 148.621C389.399 153.941 383.605 159.459 378.056 163.279C376.476 164.367 374.244 165.36 372.796 164.102C371.91 163.333 371.759 162.021 371.819 160.85C371.949 158.286 373.627 154.96 374.786 152.67C376.257 149.767 378.298 147.091 381.005 145.285C382.719 144.144 384.66 143.374 386.651 142.853C389.813 142.024 393.289 141.834 396.25 143.217" fill="#242C50"/>
<path d="M421.835 195.257C422.421 198.381 423.961 201.204 426 203.332C428.041 205.456 430.593 206.898 433.246 207.186C433.664 207.231 434.083 207.253 434.5 207.253C439.331 207.244 443.936 204.345 446.378 200.188C447.896 197.596 448.598 194.622 448.598 191.643C448.598 189.443 448.216 187.237 447.493 185.168C447.373 184.823 446.995 184.64 446.65 184.76C446.305 184.881 446.123 185.259 446.244 185.604C446.918 187.534 447.275 189.596 447.275 191.643C447.275 194.417 446.62 197.157 445.235 199.519C443.033 203.288 438.787 205.939 434.5 205.93C434.129 205.93 433.759 205.91 433.387 205.87C431.126 205.629 428.821 204.363 426.955 202.416C425.089 200.472 423.668 197.864 423.135 195.012C423.067 194.653 422.722 194.417 422.362 194.484C422.004 194.551 421.768 194.897 421.835 195.257Z" fill="#242C50"/>
<path d="M391.671 147.783C391.65 148.127 391.64 148.466 391.64 148.802C391.634 153.998 394.221 158.143 397.959 160.92C401.7 163.705 406.587 165.184 411.35 165.186C413.209 165.186 415.048 164.96 416.796 164.492C417.148 164.398 417.357 164.035 417.263 163.681C417.169 163.328 416.806 163.119 416.454 163.213C414.828 163.65 413.101 163.862 411.35 163.862C406.861 163.865 402.222 162.452 398.751 159.859C395.278 157.26 392.968 153.544 392.962 148.802C392.962 148.495 392.972 148.184 392.992 147.867C393.016 147.503 392.738 147.187 392.373 147.165C392.009 147.141 391.695 147.419 391.671 147.783Z" fill="#242C50"/>
<path d="M373.901 162.997C372.688 161.988 372.192 160.207 372.195 158.424L372.203 158.037C372.33 154.597 374.117 150.819 376.791 147.94C379.462 145.054 382.988 143.094 386.499 143.1C388.498 143.101 390.509 143.717 392.454 145.185C392.745 145.406 393.159 145.35 393.38 145.058C393.601 144.767 393.543 144.352 393.252 144.131C391.099 142.496 388.774 141.773 386.499 141.776C382.487 141.782 378.675 143.963 375.82 147.041C372.966 150.126 371.034 154.134 370.881 157.986C370.875 158.131 370.872 158.277 370.872 158.424C370.875 160.421 371.396 162.605 373.05 164.01C373.329 164.244 373.748 164.208 373.982 163.929C374.218 163.648 374.182 163.231 373.901 162.997Z" fill="#242C50"/>
<path d="M400.048 189.192H405.618L405.734 189.182C409.13 188.571 413.165 187.235 416.924 185.395C420.682 183.55 424.161 181.21 426.43 178.518C426.665 178.238 426.629 177.82 426.35 177.586C426.07 177.349 425.652 177.385 425.418 177.666C423.341 180.139 419.99 182.42 416.342 184.205C412.693 185.994 408.748 187.296 405.501 187.879L405.618 188.531V187.869H400.048C399.683 187.869 399.386 188.165 399.386 188.531C399.386 188.897 399.683 189.192 400.048 189.192Z" fill="#242C50"/>
<path d="M404.527 190.225H400.412C399.413 190.225 398.596 189.407 398.596 188.409C398.596 187.411 399.413 186.593 400.412 186.593H404.527C405.526 186.593 406.344 187.411 406.344 188.409C406.344 189.407 405.526 190.225 404.527 190.225Z" fill="#F1F1F0"/>
<path d="M427.712 174.547C427.712 178.158 426.278 181.94 423.671 183.264C423.671 183.264 421.451 183.264 420.449 183.264C416.436 183.264 413.183 179.362 413.183 174.547C413.183 169.733 416.436 165.831 420.449 165.831H423.308C426.135 167.023 427.712 170.746 427.712 174.547Z" fill="#89A9CB"/>
<path d="M417.909 171.3C418.781 164.541 416.963 157.472 412.937 151.974C409.644 147.474 404.646 143.666 399.34 141.797C399.163 141.734 398.808 141.616 398.808 141.616L398.805 140.86L404.164 140.951C410.839 140.951 418.701 150.048 420.77 156.395C422.839 162.741 423.154 169.5 423.699 176.153" fill="#89A9CB"/>
<path d="M430.375 174.547C430.375 179.362 427.122 183.264 423.112 183.264C419.099 183.264 415.849 179.362 415.849 174.547C415.849 169.733 419.099 165.831 423.112 165.831C427.122 165.831 430.375 169.733 430.375 174.547Z" fill="#F1F1F0"/>
<path d="M419.967 171.3C420.838 164.541 419.022 157.472 414.995 151.974C410.971 146.475 405.511 142.072 398.805 140.86H406.223C407.418 140.887 411.942 142.505 414.613 144.776C418.406 148.001 421.614 152.672 422.827 156.395C424.896 162.741 425.213 169.5 425.757 176.153" fill="#F1F1F0"/>
<path d="M425.957 174.608H425.295C425.297 175.371 425.052 176.05 424.69 176.513C424.324 176.977 423.877 177.213 423.414 177.215C422.951 177.213 422.504 176.977 422.138 176.513C421.777 176.05 421.532 175.371 421.533 174.608C421.532 173.844 421.777 173.165 422.138 172.703C422.504 172.237 422.951 172.001 423.414 172.001C423.877 172.001 424.324 172.237 424.69 172.703C425.052 173.165 425.297 173.844 425.295 174.608H425.957H426.619C426.617 173.565 426.293 172.61 425.734 171.89C425.18 171.172 424.354 170.676 423.414 170.677C422.474 170.676 421.648 171.172 421.094 171.89C420.535 172.61 420.211 173.565 420.209 174.608C420.211 175.649 420.535 176.605 421.094 177.325C421.648 178.043 422.474 178.539 423.414 178.539C424.354 178.539 425.18 178.043 425.734 177.325C426.293 176.605 426.617 175.649 426.619 174.608H425.957Z" fill="#242C50"/>
<path d="M326.649 359.235H404.993L404.023 350.882H326.649V359.235Z" fill="#242C50"/>
<path d="M341.177 359.235L298.345 276.276C296.397 272.501 292.504 270.13 288.253 270.13H179.819C175.072 270.13 171.977 275.117 174.085 279.37L209.889 351.596C212.618 356.323 217.662 359.235 223.121 359.235H341.177Z" fill="#242C50"/>
<path d="M331.975 359.235L289.145 276.276C287.196 272.501 283.302 270.13 279.053 270.13H170.619C165.871 270.13 162.777 275.117 164.885 279.37L200.687 351.596C203.417 356.323 208.462 359.235 213.919 359.235H331.975Z" fill="#242C50"/>
<path d="M289.988 290.139L285.478 281.402C283.443 277.461 279.379 274.987 274.945 274.987H243.952C243.677 274.987 243.456 275.208 243.456 275.483C243.456 275.756 243.677 275.979 243.952 275.979H274.945C279.009 275.979 282.732 278.247 284.595 281.858L289.105 290.594C289.232 290.838 289.531 290.934 289.774 290.807C290.018 290.681 290.113 290.382 289.988 290.139Z" fill="#D2DEEC"/>
<path d="M242.606 320.975L242.271 321.487C244.089 322.671 246.087 323.255 247.951 323.256C250.267 323.259 252.415 322.336 253.627 320.478C254.262 319.505 254.559 318.389 254.559 317.25C254.55 314.479 252.844 311.567 249.958 309.683C248.141 308.502 246.142 307.916 244.277 307.914C241.963 307.911 239.813 308.835 238.602 310.693C237.968 311.666 237.67 312.782 237.671 313.92C237.678 316.693 239.385 319.604 242.271 321.487L242.606 320.975L242.939 320.463C240.345 318.779 238.886 316.176 238.893 313.92C238.895 312.991 239.132 312.123 239.627 311.361C240.565 309.918 242.268 309.141 244.277 309.138C245.885 309.137 247.664 309.649 249.291 310.708C251.883 312.392 253.343 314.995 253.336 317.25C253.336 318.18 253.098 319.049 252.602 319.811C251.664 321.253 249.961 322.03 247.951 322.033C246.344 322.034 244.566 321.523 242.939 320.463L242.606 320.975Z" fill="#D2DEEC"/>
<path d="M512.887 105.494H454.298C450.572 105.494 447.759 102.115 448.433 98.4514L450.726 86.0004L453.207 72.529C453.729 69.6994 456.195 67.6451 459.073 67.6451H517.662C521.388 67.6451 524.201 71.0245 523.527 74.6893L521.386 86.3037L518.752 100.61C518.231 103.44 515.764 105.494 512.887 105.494Z" fill="#7F56BC"/>
<path d="M453.812 68.0438L482.944 89.6426L525.049 68.0871L524.598 67.2041L483.04 88.4772L454.404 67.2475L453.812 68.0438Z" fill="#D2DEEC"/>
<path d="M456.1 102.255H488.255C488.53 102.255 488.753 102.034 488.753 101.759C488.753 101.484 488.53 101.263 488.255 101.263H456.1C455.825 101.263 455.604 101.484 455.604 101.759C455.604 102.034 455.825 102.255 456.1 102.255Z" fill="#D2DEEC"/>
<path d="M492.703 102.255C492.952 102.255 493.2 102.255 493.45 102.255H497.993C498.266 102.255 498.489 102.034 498.489 101.759C498.489 101.484 498.266 101.263 497.993 101.263H493.45C493.2 101.263 492.952 101.263 492.703 101.263C492.428 101.263 492.207 101.484 492.207 101.759C492.207 102.034 492.428 102.255 492.703 102.255Z" fill="#D2DEEC"/>
</svg>
