<svg width="63" height="65" viewBox="0 0 63 65" fill="none" xmlns="http://www.w3.org/2000/svg">
<path d="M32.1734 9.28665C32.5378 8.39925 33.8215 8.48435 34.0655 9.41208L37.9166 24.051C38.25 25.3182 39.3673 26.2224 40.6761 26.2844L54.8392 26.9544C55.7965 26.9997 56.148 28.2355 55.3578 28.7778L42.6498 37.4985C41.6539 38.1819 41.165 39.396 41.4093 40.5789L44.5271 55.6735C44.723 56.6222 43.5905 57.2674 42.8744 56.615L31.8769 46.5977C30.7114 45.5361 28.9231 45.5577 27.7836 46.6471L18.6783 55.3522C17.9756 56.024 16.8244 55.3994 17.0046 54.444L20.1448 37.7943C20.3317 36.8033 20.0082 35.7846 19.2837 35.0831L8.85549 24.9851C8.17839 24.3295 8.7013 23.1869 9.64011 23.2707L23.6348 24.5208C24.9444 24.6378 26.1775 23.8885 26.6769 22.6723L32.1734 9.28665Z" stroke="white" stroke-width="2"/>
<path d="M19.0003 7.31628C18.473 6.70892 18.0396 6.04835 17.7207 5.15304C17.1624 5.97038 16.7181 6.63265 16.0684 7.16539C16.7751 7.86579 17.2227 8.59679 17.7504 9.40995C18.1034 8.60979 18.5451 7.98231 19.0003 7.31628ZM17.6159 12.4777C17.0861 12.3985 16.9528 12.0309 16.8928 11.5946C16.6803 10.0487 15.9317 8.81224 14.7246 7.83813C14.5653 7.70987 14.401 7.57405 14.2819 7.41059C13.9512 6.95539 14.0196 6.49181 14.5523 6.31241C16.0172 5.81949 16.451 4.59473 16.8312 3.30961C16.9008 3.07404 16.9058 2.81961 16.9725 2.58279C17.1016 2.12382 17.3912 1.90335 17.8934 1.97796C18.3494 2.04586 18.6747 2.22777 18.7254 2.72992C18.7631 3.09877 18.7828 3.47097 18.8436 3.83605C19.0309 4.96232 19.3524 6.00936 20.4883 6.57648C20.6623 6.66366 20.8123 6.83384 20.9272 6.99773C21.1862 7.36742 21.1368 7.80627 20.7344 7.93453C19.7221 8.25685 19.443 9.1375 19.0372 9.93137C18.7371 10.5194 18.5183 11.1415 18.354 11.7828C18.2551 12.1709 18.0396 12.4522 17.6159 12.4777Z" fill="white"/>
<path d="M8.03018 47.3629C7.49576 48.0445 6.80373 48.4741 6.21943 49.0232C6.86618 49.8116 7.45469 50.5292 8.06665 51.2753C8.70208 50.5552 9.29266 49.8858 9.94528 49.1456C9.15686 48.6958 8.57088 48.0923 8.03018 47.3629ZM11.8675 49.0773C11.8126 49.4398 11.6143 49.6347 11.38 49.8217C10.1662 50.7891 9.13632 51.8982 8.64507 53.4193C8.53735 53.7521 8.32442 54.0031 7.92371 53.9767C7.52174 53.9507 7.32894 53.6628 7.2757 53.3287C7.02254 51.741 5.90926 50.7379 4.85551 49.6905C4.76791 49.6033 4.65516 49.5408 4.57133 49.4511C3.97069 48.8069 4.08134 48.2939 4.91294 47.9686C5.30023 47.8173 5.67831 47.6601 6.01741 47.4183C6.75805 46.8876 7.21073 46.1591 7.39977 45.2823C7.49366 44.8447 7.60221 44.4398 8.11442 44.4217C8.64213 44.4033 8.8295 44.8308 8.85716 45.2542C8.95231 46.7174 9.80152 47.5813 11.0602 48.1363C11.507 48.3333 11.8231 48.6133 11.8675 49.0773Z" fill="white"/>
<path d="M51.2206 38.2824C50.8027 38.8282 50.3835 39.376 49.9497 39.9431C50.4485 40.4758 50.946 41.0073 51.5186 41.6185C51.9046 40.9507 52.4709 40.3744 52.5296 39.7503C52.5816 39.2025 51.7173 38.9158 51.3744 38.4073C51.3522 38.3751 51.3111 38.3549 51.2206 38.2824ZM50.8513 35.2893C51.2596 35.2796 51.4637 35.4112 51.5819 35.6485C51.6913 35.8685 51.7713 36.1041 51.8581 36.3355C52.2634 37.4169 52.8884 38.2778 54.0012 38.7586C54.6794 39.0516 54.785 39.4359 54.3483 39.8848C53.409 40.8514 52.8632 42.0481 52.2626 43.2171C52.1876 43.363 52.1394 43.5277 52.045 43.6589C51.623 44.2457 51.0093 44.1971 50.6979 43.5512C50.6094 43.3676 50.5851 43.1538 50.5038 42.966C50.0474 41.9089 49.4631 40.988 48.1712 40.8485C47.8359 40.8124 47.6485 40.6125 47.6138 40.2885C47.5714 39.8966 47.6381 39.503 48.0547 39.3638C49.5603 38.8608 50.0562 37.6684 50.2565 36.252C50.2846 36.0509 50.3315 35.8484 50.399 35.6569C50.4929 35.3903 50.7159 35.2951 50.8513 35.2893Z" fill="white"/>
<path d="M60.9325 35.1522C60.5008 34.6291 60.1357 34.1873 59.743 33.7116C59.3888 34.1316 59.0535 34.5289 58.7345 34.907C59.1117 35.3672 59.4458 35.7759 59.7895 36.1959C60.2388 35.9561 60.5377 35.5588 60.9325 35.1522ZM62.9948 34.7209C62.929 35.0994 62.843 35.4121 62.5622 35.6372C61.5583 36.4394 60.5809 37.2618 60.0913 38.5126C59.9756 38.8072 59.6923 38.9212 59.3725 38.8697C59.0413 38.8173 58.8795 38.5951 58.8305 38.2795C58.8049 38.1169 58.7898 37.9517 58.7668 37.7883C58.6373 36.8716 58.2076 36.2106 57.3471 35.7591C56.3399 35.231 56.3407 34.8014 57.2788 34.1961C58.1251 33.6495 58.6972 32.9517 58.8187 31.9277C58.838 31.7642 58.8582 31.5957 58.9168 31.4444C59.0451 31.1112 59.2891 30.8974 59.6592 30.8848C59.9781 30.8739 60.2284 31.0407 60.3554 31.3165C60.5452 31.7273 60.6811 32.1628 60.8521 32.5824C61.1518 33.3193 61.4443 34.0503 62.4423 34.0658C62.8514 34.0716 62.9499 34.4216 62.9948 34.7209Z" fill="white"/>
<path d="M21.5373 60.5754C21.8948 60.1253 22.1962 59.7459 22.4925 59.3733C22.2452 58.986 22.0377 58.6465 21.6869 58.4344C20.6524 59.4282 20.6524 59.4282 21.5373 60.5754ZM24.027 59.5209C23.9449 59.6898 23.8971 59.9123 23.7617 60.0473C23.0806 60.7259 22.5789 61.5269 22.1086 62.3547C21.9179 62.6909 21.663 62.9763 21.2271 62.8992C20.8549 62.8326 20.6956 62.5337 20.6168 62.1963C20.4119 61.3199 19.9931 60.5989 19.2189 60.0917C18.8551 59.8532 18.799 59.4991 19.071 59.1277C19.2642 58.864 19.4067 58.5677 19.698 58.3741C20.4253 57.8912 20.8088 57.1744 21.0066 56.3441C21.0259 56.264 21.0456 56.1836 21.0624 56.1027C21.1395 55.7388 21.3545 55.4865 21.7288 55.4832C22.1044 55.4798 22.3529 55.7208 22.3886 56.0947C22.4804 57.0533 22.9615 57.8027 23.6108 58.4663C23.8933 58.7551 23.9059 59.1357 24.027 59.5209Z" fill="white"/>
</svg>
