<svg width="63" height="65" viewBox="0 0 63 65" fill="none" xmlns="http://www.w3.org/2000/svg">
<path d="M24.3065 5.74572C21.0937 6.44864 18.1211 7.98232 15.3333 9.7285C11.8254 11.9257 8.50447 14.5253 6.02477 17.8395C2.45569 22.6086 0.833552 28.5979 0.340629 34.5343C0.0526717 38.0003 0.169201 41.6692 1.89653 44.6875C4.12809 48.5877 8.54469 50.6084 12.7241 52.2599C18.7762 54.6511 25.1695 56.8152 31.6509 56.2322C34.9526 55.935 38.1461 54.932 41.2838 53.8631C47.5824 51.7183 54.1908 48.9641 57.8257 43.391C61.3415 38.0003 61.3218 30.9598 59.6679 24.7396C58.936 21.9879 57.9288 18.8027 56.1855 16.5033C54.3115 14.0311 51.3469 12.0091 49.0281 9.9234C48.1362 9.12115 47.2371 8.31386 46.2089 7.69519C45.1945 7.08533 44.075 6.67204 42.9437 6.32247C37.1024 4.51676 30.2735 4.44006 24.3065 5.74572Z" fill="#1C2545"/>
<path d="M34.0655 9.42087L37.9166 24.0598C38.25 25.327 39.3673 26.2312 40.6761 26.2931L54.8392 26.9632C55.7965 27.0085 56.148 28.2443 55.3578 28.7866L42.6498 37.5073C41.6539 38.1907 41.165 39.4048 41.4093 40.5877L44.5271 55.6823C44.723 56.631 43.5905 57.2761 42.8744 56.6238L31.8769 46.6065C30.7114 45.5449 28.9231 45.5665 27.7836 46.6559L18.6783 55.3609C17.9756 56.0328 16.8244 55.4082 17.0046 54.4528L20.1448 37.8031C20.3317 36.812 20.0082 35.7934 19.2837 35.0919L8.85549 24.9939C8.17839 24.3383 8.7013 23.1957 9.64011 23.2795L23.6348 24.5296C24.9444 24.6466 26.1775 23.8973 26.6769 22.6811L32.1734 9.29544C32.5378 8.40804 33.8215 8.49314 34.0655 9.42087Z" fill="#4476E0" stroke="black" stroke-width="2"/>
<path d="M19.0001 7.32507C18.4728 6.71771 18.0394 6.05714 17.7204 5.16183C17.1621 5.97917 16.7178 6.64143 16.0681 7.17418C16.7748 7.87458 17.2225 8.60558 17.7502 9.41874C18.1031 8.61858 18.5449 7.9911 19.0001 7.32507ZM17.6156 12.4865C17.0858 12.4073 16.9525 12.0397 16.8926 11.6034C16.6801 10.0575 15.9315 8.82103 14.7243 7.84692C14.565 7.71866 14.4007 7.58284 14.2817 7.41937C13.951 6.96417 14.0193 6.50059 14.5521 6.3212C16.017 5.82827 16.4508 4.60352 16.831 3.3184C16.9006 3.08283 16.9056 2.8284 16.9722 2.59158C17.1013 2.13261 17.391 1.91214 17.8931 1.98675C18.3492 2.05465 18.6744 2.23656 18.7251 2.7387C18.7629 3.10756 18.7826 3.47976 18.8433 3.84484C19.0307 4.9711 19.3522 6.01815 20.4881 6.58527C20.662 6.67245 20.8121 6.84263 20.9269 7.00652C21.186 7.37621 21.1365 7.81505 20.7341 7.94331C19.7219 8.26564 19.4427 9.14629 19.037 9.94016C18.7369 10.5282 18.5181 11.1503 18.3538 11.7916C18.2548 12.1797 18.0394 12.4609 17.6156 12.4865Z" fill="#0D1117"/>
<path d="M8.02993 47.3717C7.49551 48.0533 6.80349 48.4829 6.21919 49.032C6.86594 49.8204 7.45444 50.538 8.0664 51.2841C8.70184 50.564 9.29242 49.8946 9.94504 49.1544C9.15661 48.7046 8.57064 48.101 8.02993 47.3717ZM11.8673 49.0861C11.8124 49.4486 11.6141 49.6435 11.3798 49.8305C10.1659 50.7979 9.13607 51.9069 8.64483 53.428C8.5371 53.7609 8.32418 54.0119 7.92347 53.9855C7.5215 53.9595 7.32869 53.6716 7.27546 53.3375C7.02229 51.7498 5.90901 50.7467 4.85526 49.6993C4.76766 49.6121 4.65492 49.5496 4.57109 49.4599C3.97044 48.8157 4.08109 48.3027 4.91269 47.9774C5.29999 47.8261 5.67807 47.6689 6.01716 47.427C6.75781 46.8964 7.21049 46.1679 7.39953 45.291C7.49342 44.8534 7.60197 44.4486 8.11417 44.4305C8.64189 44.4121 8.82926 44.8396 8.85692 45.263C8.95207 46.7262 9.80127 47.5901 11.06 48.1451C11.5068 48.3421 11.8228 48.622 11.8673 49.0861Z" fill="#0D1117"/>
<path d="M51.2203 38.2912C50.8024 38.8369 50.3833 39.3848 49.9494 39.9519C50.4482 40.4846 50.9458 41.0161 51.5183 41.6272C51.9044 40.9595 52.4707 40.3832 52.5293 39.7591C52.5813 39.2112 51.717 38.9245 51.3742 38.4161C51.3519 38.3838 51.3109 38.3637 51.2203 38.2912ZM50.8511 35.298C51.2593 35.2884 51.4634 35.42 51.5816 35.6573C51.691 35.8773 51.7711 36.1129 51.8579 36.3442C52.2632 37.4257 52.8881 38.2866 54.001 38.7674C54.6792 39.0604 54.7848 39.4447 54.348 39.8936C53.4087 40.8602 52.863 42.0569 52.2623 43.2259C52.1873 43.3718 52.1391 43.5365 52.0448 43.6677C51.6227 44.2545 51.0091 44.2059 50.6976 43.56C50.6092 43.3764 50.5849 43.1626 50.5036 42.9748C50.0471 41.9177 49.4628 40.9968 48.171 40.8573C47.8357 40.8212 47.6483 40.6213 47.6135 40.2973C47.5712 39.9054 47.6378 39.5118 48.0545 39.3726C49.5601 38.8696 50.0559 37.6772 50.2563 36.2608C50.2844 36.0596 50.3313 35.8572 50.3988 35.6656C50.4927 35.3991 50.7157 35.3039 50.8511 35.298Z" fill="#0D1117"/>
<path d="M60.9323 35.1609C60.5006 34.6378 60.1355 34.196 59.7427 33.7203C59.3886 34.1403 59.0532 34.5377 58.7343 34.9157C59.1115 35.376 59.4456 35.7846 59.7893 36.2046C60.2386 35.9649 60.5375 35.5675 60.9323 35.1609ZM62.9945 34.7296C62.9287 35.1081 62.8428 35.4208 62.562 35.6459C61.5581 36.4482 60.5806 37.2705 60.0911 38.5213C59.9754 38.8159 59.692 38.93 59.3722 38.8784C59.0411 38.826 58.8793 38.6039 58.8303 38.2882C58.8047 38.1256 58.7896 37.9605 58.7665 37.797C58.637 36.8803 58.2074 36.2193 57.3469 35.7679C56.3396 35.2397 56.3405 34.8101 57.2786 34.2048C58.1248 33.6583 58.697 32.9604 58.8185 31.9364C58.8378 31.7729 58.8579 31.6044 58.9166 31.4531C59.0449 31.1199 59.2888 30.9061 59.6589 30.8935C59.9779 30.8826 60.2281 31.0495 60.3551 31.3253C60.545 31.736 60.6808 32.1715 60.8518 32.5911C61.1515 33.328 61.4441 34.059 62.4421 34.0745C62.8512 34.0804 62.9497 34.4304 62.9945 34.7296Z" fill="#0D1117"/>
<path d="M21.537 60.5842C21.8946 60.1341 22.1959 59.7547 22.4923 59.3821C22.245 58.9948 22.0375 58.6553 21.6867 58.4432C20.6522 59.437 20.6522 59.437 21.537 60.5842ZM24.0268 59.5296C23.9446 59.6986 23.8969 59.9211 23.7615 60.0561C23.0803 60.7347 22.5786 61.5357 22.1083 62.3635C21.9176 62.6997 21.6628 62.9851 21.2269 62.908C20.8547 62.8414 20.6954 62.5425 20.6166 62.2051C20.4116 61.3286 19.9929 60.6077 19.2187 60.1005C18.8549 59.862 18.7987 59.5078 19.0707 59.1365C19.264 58.8728 19.4065 58.5765 19.6978 58.3828C20.425 57.9 20.8085 57.1832 21.0064 56.3529C21.0257 56.2728 21.0454 56.1924 21.0621 56.1115C21.1393 55.7476 21.3543 55.4953 21.7286 55.4919C22.1041 55.4886 22.3527 55.7296 22.3883 56.1035C22.4801 57.0621 22.9613 57.8115 23.6106 58.4751C23.8931 58.7638 23.9057 59.1444 24.0268 59.5296Z" fill="#0D1117"/>
<path d="M26.1582 30.2041C26.0764 30.293 25.9679 30.3604 25.8677 30.2745C25.7566 30.1802 25.8543 30.0796 25.9167 29.992C25.9968 30.0624 26.0777 30.1333 26.1582 30.2041Z" fill="#4476E0"/>
<path d="M18.9998 7.32503C18.5446 7.99106 18.1029 8.61854 17.7499 9.4187C17.2222 8.60555 16.7746 7.87454 16.0679 7.17414C16.7176 6.6414 17.1619 5.97914 17.7202 5.16179C18.0391 6.0571 18.4725 6.71768 18.9998 7.32503Z" fill="#F6F6AE"/>
<path d="M8.02998 47.3717C8.57069 48.1011 9.15666 48.7047 9.94509 49.1544C9.29247 49.8946 8.70189 50.564 8.06646 51.2841C7.45449 50.538 6.86599 49.8204 6.21924 49.032C6.80354 48.4829 7.49556 48.0533 8.02998 47.3717Z" fill="#F6F6AE"/>
<path d="M51.2206 38.2912C51.3111 38.3637 51.3522 38.3839 51.3744 38.4161C51.7173 38.9246 52.5816 39.2113 52.5296 39.7591C52.4709 40.3832 51.9046 40.9595 51.5186 41.6273C50.946 41.0161 50.4485 40.4846 49.9497 39.9519C50.3835 39.3848 50.8027 38.837 51.2206 38.2912Z" fill="#F6F6AE"/>
<path d="M60.9329 35.161C60.5381 35.5675 60.2392 35.9649 59.7899 36.2047C59.4462 35.7847 59.1121 35.376 58.7349 34.9158C59.0538 34.5377 59.3892 34.1403 59.7433 33.7203C60.1361 34.1961 60.5012 34.6379 60.9329 35.161Z" fill="#F6F6AE"/>
<path d="M21.5374 60.5842C20.6525 59.437 20.6525 59.437 21.687 58.4432C22.0378 58.6553 22.2453 58.9948 22.4926 59.3821C22.1963 59.7547 21.8949 60.1341 21.5374 60.5842Z" fill="#F6F6AE"/>
</svg>
