<svg width="63" height="50" viewBox="0 0 63 50" fill="none" xmlns="http://www.w3.org/2000/svg">
<path d="M19.8676 12.7261C19.7321 12.0614 19.3069 11.9909 18.9227 11.9217C17.6564 11.6945 16.3787 11.7695 15.1079 11.8653C14.5544 11.9069 14.5143 12.0349 14.5257 12.8105C16.2701 12.4388 18.0206 12.3903 19.8676 12.7261ZM45.0323 11.1854C44.4588 10.5759 43.9102 10.5592 43.3681 10.5857C42.2801 10.6376 41.2122 10.8477 40.1507 11.0779C39.4242 11.2353 39.3406 11.417 39.492 12.3638C41.1774 11.5026 42.9593 11.0956 45.0323 11.1854ZM34.0827 22.5177C34.1823 22.0873 33.8537 22.0327 33.5357 21.9953C32.169 21.8348 30.8138 22.082 29.4532 22.1289C28.9823 22.1448 29.0694 22.5169 29.0928 22.8243C29.1205 23.1862 29.3268 23.1912 29.6122 23.1071C30.8982 22.7278 32.1884 22.8614 33.4789 23.0908C34.0577 23.1938 34.0944 23.1552 34.0827 22.5177ZM28.9679 30.1064C30.8781 29.0343 32.7187 28.9014 34.3905 30.5849C34.9163 29.3334 34.7251 28.5085 33.7125 28.0402C32.2985 27.3868 30.8713 27.4485 29.5301 28.2654C28.7816 28.7216 28.6794 29.1596 28.9679 30.1064ZM34.7641 27.3716C34.8667 26.6202 34.9409 25.9505 35.0548 25.2876C35.1347 24.8213 34.9276 24.6176 34.5158 24.4669C33.1745 23.9748 31.7909 23.7866 30.3879 24.0009C29.3752 24.1554 28.383 24.4567 27.5691 25.1423C27.3832 25.2986 27.1705 25.4527 27.3283 25.7631C27.6759 26.4449 28.0101 27.1339 28.3539 27.8286C30.394 26.2795 32.5037 26.2246 34.7641 27.3716ZM54.697 20.4897C54.5634 20.3197 54.4294 20.1501 54.2958 19.9802C52.4976 17.6891 50.2406 15.8311 48.322 13.6528C48.1426 13.4492 47.8761 13.3144 47.6345 13.1747C44.9759 11.6366 42.3653 12.0155 39.8126 13.4291C38.3109 14.2604 37.408 15.5324 37.1275 17.2621C36.6486 20.2187 36.3003 23.19 35.9975 26.1678C35.988 26.2606 36.019 26.2908 36.1591 26.2329C38.0728 23.1775 40.7848 21.0481 44.2911 19.9567C47.803 18.863 51.2385 19.1265 54.697 20.4897ZM16.2054 44.8129C18.9253 44.7716 22.4358 43.1941 25.1365 39.9676C30.2895 33.8103 28.4985 24.2053 20.1568 21.1583C14.9512 19.2567 10.1366 20.3637 6.15692 24.2118C2.76331 27.4928 1.54763 31.5813 2.81257 36.199C4.23453 41.3903 9.09984 44.8424 16.2054 44.8129ZM49.2222 44.811C51.8616 44.7686 55.3452 43.207 58.0439 40.0263C63.1315 34.0302 61.6066 24.571 53.3709 21.2177C48.3727 19.1825 42.2173 20.6317 38.6258 24.674C35.667 28.0046 34.5521 31.8637 35.7692 36.2164C37.2187 41.4005 42.0719 44.8492 49.2222 44.811ZM7.73716 21.4199C7.7135 21.4721 7.68969 21.524 7.66603 21.5762C7.817 21.6205 7.91993 21.5421 8.01367 21.4403C14.0017 18.1256 19.6961 18.6052 25.2186 22.9436C24.4194 20.3031 23.5658 17.906 22.4483 15.6066C22.29 15.2814 21.9963 15.1012 21.7203 14.8987C19.7389 13.4454 17.5402 13.325 15.2075 13.7342C13.4436 14.0439 12.0788 14.8616 11.1 16.3622C9.99436 18.0578 8.85938 19.7349 7.73716 21.4199ZM35.3986 21.7125C35.7151 19.8719 35.9925 18.0249 36.3219 16.1862C36.5127 15.119 37.0779 14.3509 37.8218 13.6846C38.2825 13.2716 38.4665 12.8821 38.4021 12.2465C38.2598 10.834 38.6663 10.3635 40.0905 10.0648C41.2807 9.81534 42.4721 9.54087 43.6952 9.56699C44.7896 9.59046 45.7436 9.90165 46.0593 11.1248C46.1154 11.3421 46.2433 11.4326 46.4209 11.5034C46.6817 11.6059 46.9486 11.6953 47.203 11.8119C48.1104 12.2287 49 12.6565 49.6012 13.5238C49.8639 13.9027 50.23 14.215 50.5692 14.5364C53.36 17.1833 55.8494 20.0979 58.2147 23.1226C58.2911 23.2207 58.382 23.3078 58.4679 23.3982C62.8797 28.0114 63.2492 35.052 59.1459 40.3401C54.9007 45.8119 47.058 47.5283 41.0456 44.2129C36.6751 41.8029 34.3844 38.0347 34.3026 33.024C34.2883 32.1605 33.9195 31.6316 33.3945 31.0922C32.8857 30.5694 32.255 30.3154 31.541 30.3566C30.6537 30.4085 29.8159 30.5906 29.2976 31.4548C29.128 31.7384 29.0572 32.0053 29.0519 32.3259C28.9482 38.9258 23.9046 44.5857 17.1097 45.6824C12.6974 46.3945 8.72347 45.3387 5.40467 42.3053C0.453918 37.7795 -0.0713385 30.3653 4.1291 24.9333C4.93238 23.8945 5.65445 22.8065 6.33765 21.6966C7.4334 19.9166 8.62543 18.2021 9.77354 16.458C10.4078 15.4946 11.0557 14.4887 12.0447 13.8762C12.8726 13.3636 13.4761 12.8473 13.5814 11.8051C13.6402 11.2255 14.2035 10.9514 14.757 10.8923C16.2178 10.7383 17.6833 10.7171 19.1441 10.9071C19.3274 10.9313 19.5049 11.0063 19.6817 11.0669C20.3945 11.3103 20.8712 11.7479 20.8625 12.5584C20.8568 13.0339 21.018 13.3451 21.489 13.5631C22.6304 14.092 23.3886 14.9479 23.8732 16.1567C24.8245 18.5303 25.7096 20.9224 26.4345 23.3744C26.5292 23.6946 26.6318 24.0123 26.7495 24.3927C27.1765 24.1425 27.543 23.9241 27.9136 23.7124C28.1063 23.6023 28.1392 23.4372 28.1161 23.2362C28.0836 22.9572 28.0491 22.6778 28.0381 22.3981C28.0101 21.6905 28.2445 21.3033 28.9414 21.2026C30.6415 20.9557 32.3545 20.8471 34.0702 21.0458C34.5112 21.0966 34.9307 21.2332 35.1298 21.7004C35.1911 22.269 34.939 22.8478 35.1949 23.5697C35.3653 22.8576 35.4497 22.2936 35.3986 21.7125Z" fill="white"/>
<path d="M13.6128 5.73861C13.0454 5.2302 12.645 4.69264 12.2198 4.16C11.9411 4.58891 11.6928 4.97921 11.4361 5.36345C11.3339 5.51639 11.186 5.66251 11.3796 5.83665C11.804 6.21825 12.0644 6.74711 12.4998 7.2347C12.8139 6.62559 13.1799 6.21182 13.6128 5.73861ZM15.0171 5.65419C14.9955 5.93433 14.8513 6.08273 14.6699 6.2209C13.987 6.74294 13.4721 7.38839 13.2176 8.22502C13.1226 8.53734 12.9456 8.81066 12.5925 8.84057C12.276 8.86782 12.1052 8.6229 11.9467 8.38137C11.422 7.58147 10.9975 6.71001 10.1076 6.19894C9.76271 6.00058 9.77334 5.64359 10.0833 5.33014C10.8882 4.51736 11.488 3.59555 11.5803 2.41254C11.6017 2.13694 11.7635 1.94047 12.0424 1.90186C12.3313 1.86211 12.5066 2.04496 12.6092 2.29292C12.7157 2.55072 12.7932 2.82139 12.9064 3.07579C13.2796 3.91506 13.7935 4.64835 14.5931 5.13367C14.8225 5.27336 14.9887 5.42251 15.0171 5.65419Z" fill="white"/>
<path d="M59.5614 19.2423C59.9139 18.8107 60.1508 18.4731 60.4367 18.1831C60.7914 17.8234 60.6846 17.6077 60.3413 17.2957C59.413 16.453 59.4274 16.4303 58.5806 17.4032C58.4314 17.5743 58.1812 17.6766 58.1619 18.0002C58.7225 18.2433 59.1166 18.715 59.5614 19.2423ZM62.9999 17.1466C62.9806 17.4116 62.8243 17.5986 62.6463 17.7746C61.7662 18.6442 61.0003 19.6046 60.2845 20.6142C59.6402 21.5228 59 21.4845 58.5552 20.4969C58.2505 19.8204 57.9037 19.3426 57.1223 19.1333C56.4042 18.941 56.2986 17.7515 56.9724 17.0921C57.6913 16.3887 58.255 15.6175 58.6866 14.7128C59.0538 13.9428 59.6239 13.9424 60.0218 14.6825C60.2546 15.1159 60.4117 15.5884 60.8069 15.917C61.2377 16.2747 61.5837 16.7472 62.2962 16.5197C62.716 16.3857 62.9836 16.6896 62.9999 17.1466Z" fill="white"/>
<path d="M3.53111 17.2818C4.30524 16.0019 4.30524 16.0019 2.84054 14.8454C2.54537 15.2183 2.25035 15.5908 1.93224 15.9924C2.48059 16.4346 2.97879 16.8366 3.53111 17.2818ZM5.84982 16.1741C5.11946 16.9827 4.83493 18.2104 4.1958 19.2492C3.94693 19.6535 3.30132 19.6058 3.05007 19.1296C2.45765 18.0056 1.48421 17.381 0.434113 16.7901C-0.0710054 16.5061 -0.14407 16.0878 0.260957 15.6793C1.04735 14.8859 1.76178 14.0682 2.2351 13.0339C2.43237 12.6031 3.04534 12.6073 3.38427 13.0339C4.07382 13.9016 4.6949 14.8211 5.6521 15.4371C5.83029 15.5518 5.87405 15.774 5.84982 16.1741Z" fill="white"/>
<path d="M58.2979 8.01301C57.989 8.34842 57.6873 8.67588 57.3875 9.00144C57.6063 9.25584 57.7055 9.52954 57.972 9.65144C58.8688 8.77582 58.8688 8.77581 58.2979 8.01301ZM57.9818 11.2857C57.6858 11.2687 57.4575 11.1581 57.3553 10.9102C57.1009 10.295 56.7042 9.7915 56.2522 9.31073C55.8838 8.91853 55.9353 8.49417 56.4358 8.24318C57.1024 7.90853 57.4613 7.39974 57.7006 6.72173C57.8774 6.21937 58.2949 6.15728 58.6243 6.56689C59.1069 7.16805 59.4155 7.89906 60.014 8.42034C60.1639 8.55095 60.1476 8.78263 60.0125 8.93406C59.3928 9.62986 58.8117 10.3537 58.2843 11.1229C58.223 11.2119 58.0716 11.2395 57.9818 11.2857Z" fill="white"/>
<path d="M50.7121 7.25283C50.1446 6.74442 49.7441 6.20686 49.319 5.67422C49.0403 6.10313 48.792 6.49343 48.5353 6.87767C48.4331 7.03061 48.2851 7.17674 48.4785 7.35088C48.9029 7.73247 49.1634 8.26133 49.5987 8.74892C49.9129 8.13981 50.279 7.72604 50.7121 7.25283ZM52.1162 7.16841C52.0946 7.44855 51.9504 7.59695 51.769 7.73512C51.0861 8.25716 50.5712 8.90261 50.3165 9.73886C50.2218 10.0516 50.0447 10.3245 49.6915 10.3548C49.375 10.382 49.2043 10.1371 49.0456 9.8956C48.5213 9.09569 48.0966 8.22423 47.2066 7.71316C46.8617 7.5148 46.8727 7.15781 47.1823 6.84436C47.9872 6.03158 48.5872 5.10978 48.6796 3.92676C48.7008 3.65117 48.8624 3.45469 49.1414 3.41608C49.4303 3.37633 49.6055 3.55918 49.7081 3.80714C49.8149 4.06494 49.8921 4.33561 50.0057 4.59001C50.3786 5.42928 50.8926 6.16257 51.6922 6.64789C51.9216 6.78758 52.0878 6.93673 52.1162 7.16841Z" fill="white"/>
<path d="M48.9971 27.9289C48.3744 27.8331 47.7679 27.8767 47.1618 27.9963C44.0129 28.619 41.4974 30.3283 39.2714 32.5538C38.9413 32.8836 38.9981 33.0937 39.2722 33.4049C41.9059 36.3951 45.2088 37.8522 49.1906 37.7705C49.331 37.7678 49.5089 37.8132 49.5877 37.6217C44.7996 35.5763 45.2721 29.9024 48.9971 27.9289ZM38.6354 34.3407C39.0958 39.1859 43.366 42.7524 48.3297 42.5381C52.9334 42.3397 57.6204 38.249 57.6602 34.3937C53.217 40.3277 44.1401 40.2084 38.6354 34.3407ZM38.7884 31.4492C39.1427 31.4295 39.2885 31.1145 39.5092 30.9188C40.9644 29.6237 42.549 28.5282 44.3502 27.7722C46.5293 26.8576 48.7859 26.5074 51.1213 27.0098C53.5933 27.5413 55.5834 28.8693 57.1991 30.7928C57.3967 31.0282 57.5375 31.3394 57.9297 31.5204C57.9013 31.205 57.9013 30.9862 57.8601 30.7761C57.1722 27.2967 55.2503 24.7823 51.8954 23.561C46.1075 21.4547 40.1391 25.1627 38.7944 30.8424C38.7482 31.0377 38.6101 31.2554 38.7963 31.459C38.7282 31.3935 38.682 31.406 38.6706 31.4988C38.6672 31.5241 38.6945 31.5775 38.7062 31.5771C38.7869 31.5749 38.8141 31.5272 38.7884 31.4492ZM56.0956 31.3564C56.3383 32.3683 56.2622 33.3655 55.9604 34.3524C55.8124 34.441 55.778 34.6087 55.859 34.7105C55.9544 34.8305 56.0358 34.6973 56.0873 34.6015C56.1906 34.4879 56.3072 34.3846 56.3947 34.2604C57.6439 32.4872 57.5996 33.0055 56.3557 31.3712C56.3341 31.2414 56.2247 31.1683 56.1263 31.1706C56.0354 31.1728 56.0384 31.2804 56.0956 31.3564ZM59.0155 32.4081C59.0215 37.9018 54.7918 42.6948 49.3583 43.4769C43.2233 44.3598 37.1666 39.6538 37.5032 32.4857C37.7473 27.2766 41.8464 22.8925 47.0066 22.043C52.7177 21.1038 58.9606 25.2892 59.0155 32.4081Z" fill="white"/>
<path d="M22.5632 30.5694C23.0136 32.3816 22.754 33.9087 21.7886 35.3533C22.6798 35.0561 24.356 33.7081 24.7963 33.024C24.9723 32.7507 24.805 32.6254 24.6642 32.4758C24.0698 31.8463 23.4596 31.2326 22.5632 30.5694ZM15.2432 27.8767C14.5429 27.8468 13.994 27.9115 13.4415 28.0296C10.3977 28.6773 8.12659 30.4937 6.15632 32.7859C5.81103 33.1875 6.08234 33.3867 6.32917 33.6286C8.06701 35.3321 10.1485 36.3849 12.5175 36.8888C13.5364 37.1057 14.5641 37.2064 15.7585 37.178C12.1052 34.8419 12.0625 30.552 15.2432 27.8767ZM5.52161 34.313C5.94958 37.962 9.69763 42.3583 15.5419 42.1554C19.9995 42.0009 24.4885 38.3951 24.8554 34.511C22.1024 37.0353 18.8733 38.2365 15.2012 38.202C11.5103 38.1676 8.28249 36.8971 5.52161 34.313ZM5.37904 31.9428C5.48716 31.9262 5.52722 31.9322 5.5438 31.9156C5.76045 31.6918 5.97411 31.4651 6.18808 31.2387C7.77494 29.5635 9.58747 28.2185 11.779 27.4311C14.089 26.6005 16.4281 26.5532 18.7529 27.3028C20.9868 28.0232 22.8925 29.3107 24.5786 30.9332C24.7176 31.0664 24.8061 31.3155 25.0806 31.2482C24.8436 27.6374 21.4638 22.9731 15.4567 22.9266C9.3154 22.8785 5.51408 27.7828 5.37904 31.9428ZM4.29836 32.642C4.28995 27.913 7.50256 23.7299 12.2154 22.3337C17.8269 20.6714 23.8052 23.6447 25.6579 29.0188C27.7025 34.9505 24.0308 41.4596 17.7539 42.8493C13.1265 43.8737 9.24177 42.5188 6.29487 38.7593C4.9415 37.0326 4.30252 34.8858 4.29836 32.642Z" fill="white"/>
</svg>
