<svg width="63" height="79" viewBox="0 0 63 79" fill="none" xmlns="http://www.w3.org/2000/svg">
<path d="M42.195 52.1829C42.0727 52.3393 41.9781 52.4141 41.9448 52.5104C41.298 54.3584 42.3289 57.929 43.8519 59.1384C44.1328 59.3613 44.6189 59.1673 44.6962 58.7668C44.7372 58.5559 44.6971 58.3179 44.6487 58.1023C44.2693 56.4159 43.6411 54.8121 42.974 53.2246C42.8184 52.8556 42.6296 52.4741 42.195 52.1829ZM16.7521 52.2447C15.7821 53.0272 15.4515 53.9522 15.3483 54.9819C15.2428 56.0296 15.3776 57.0968 15.2497 58.1295C15.0933 59.3946 15.6148 60.1779 16.603 60.7893C16.6574 60.823 16.7391 60.8126 16.8082 60.8226C17.9934 59.2313 18.2116 56.45 18.1528 54.8885C18.1368 54.4634 17.9869 54.1147 17.6356 53.8204C17.1997 53.4553 16.9283 52.9533 16.7521 52.2447ZM40.369 51.7154C40.7246 51.8277 40.8542 51.667 40.9955 51.5594C41.9184 50.8534 42.0878 49.816 42.217 48.7605C42.5605 45.9559 42.4192 43.1427 42.3738 40.3312C42.3712 40.1761 42.3432 40.037 42.1288 39.973C41.6747 40.2483 41.2098 40.5654 40.7121 40.8195C40.2869 41.0364 40.1586 41.3125 40.1768 41.7981C40.2675 44.2337 40.315 46.671 40.3664 49.1079C40.3846 49.9914 40.369 50.8759 40.369 51.7154ZM20.8883 54.3134C20.6753 52.9727 20.4558 51.7262 20.2825 50.4728C19.9788 48.2809 19.7299 46.0821 19.6409 43.8694C19.6279 43.5523 19.6046 43.274 19.265 43.1315C18.5127 42.8156 17.7635 42.4933 16.9875 42.1632C16.9331 42.3196 16.8674 42.4181 16.8696 42.5149C16.9266 45.3229 16.8454 48.1297 17.5531 50.9014C18.0154 52.7113 19.1155 53.7094 20.8883 54.3134ZM25.7871 44.3676C26.0623 47.4085 26.3483 50.2451 26.7666 53.0652C27.0543 55.0026 27.0734 54.9719 29.0146 54.6924C29.6282 54.6038 29.839 54.3843 29.7837 53.7695C29.6424 52.1989 29.5629 50.6249 29.5755 49.0452C29.5858 47.7309 29.5478 46.4161 29.5055 45.1021C29.4821 44.3776 29.4316 44.3611 28.7157 44.3659C27.7811 44.3724 26.8465 44.3676 25.7871 44.3676ZM35.8262 53.6355C36.826 53.4692 37.5493 53.2985 38.2713 53.0911C38.9354 52.9001 39.1376 52.5471 39.1221 51.8753C39.0598 49.2457 39.0495 46.6144 39.0188 43.9844C39.0123 43.4205 39.0037 42.8567 38.995 42.2932C38.989 41.9269 38.7989 41.8357 38.4813 41.9666C37.6137 42.3244 36.7539 42.7007 35.8802 43.0416C35.5186 43.1829 35.4616 43.4356 35.5056 43.7575C35.8414 46.2221 35.7817 48.7034 35.8241 51.1809C35.8375 51.9651 35.8262 52.7502 35.8262 53.6355ZM34.1736 43.6028C33.2774 43.7407 32.4263 43.8699 31.5755 44.0029C30.7144 44.1378 30.7032 44.1395 30.7252 45.0862C30.7792 47.415 30.8427 49.7434 30.9084 52.0719C30.9231 52.5977 30.9771 53.1227 30.9879 53.6485C31.0009 54.2426 31.2917 54.4288 31.8525 54.3281C32.5913 54.1946 33.3319 54.0611 34.0776 53.979C34.6454 53.9168 34.7314 53.5936 34.6761 53.1244C34.4354 51.1014 34.5819 49.0681 34.514 47.0404C34.476 45.917 34.5378 44.7876 34.1736 43.6028ZM20.9224 43.7644C20.9742 45.2032 21.0075 46.5029 21.1877 47.8065C21.4698 49.851 21.723 51.8986 22.1093 53.9276C22.2152 54.482 22.439 54.8034 23.0672 54.7848C23.7041 54.7663 24.3427 54.8423 24.9813 54.8527C25.74 54.8652 25.7918 54.8237 25.6756 54.1086C25.1869 51.1058 24.907 48.0782 24.6015 45.0542C24.5496 44.5396 24.3453 44.311 23.8557 44.2743C22.9199 44.2047 22.0056 43.9965 20.9224 43.7644ZM22.1858 15.3416C27.0807 12.9418 32.0737 12.68 37.132 14.3106C37.2974 14.162 37.265 14.0436 37.2318 13.9451C36.5309 11.8781 35.761 9.84174 34.578 7.98903C34.1291 7.28691 33.6209 6.62973 32.9551 6.12724C31.5695 5.08162 30.9084 4.91355 29.2691 5.88225C28.691 6.22402 28.1419 6.64227 27.6541 7.10371C25.2155 9.41183 23.5153 12.2242 22.1858 15.3416ZM15.6438 44.9928C15.6218 44.5042 15.6161 44.0142 15.5738 43.5277C15.509 42.7862 15.8987 41.8655 15.4152 41.3479C14.9469 40.8471 14.0093 40.9404 13.2843 40.7486C11.6191 40.3088 9.953 40.2513 8.25799 40.574C7.37787 40.7417 6.87407 41.1591 6.70945 42.0785C6.50119 43.2391 6.46403 44.3966 6.54786 45.5614C6.71723 47.9261 7.04387 50.2693 7.52001 52.5934C7.96677 54.7749 8.72809 56.8575 9.47859 58.9435C9.60389 59.2918 9.71277 59.7191 10.249 59.4862C11.2825 59.0386 12.3596 58.9707 13.458 59.1086C13.8572 59.1587 14.0058 58.9979 14.0015 58.6177C13.9933 57.8655 13.9816 57.1128 13.998 56.361C14.0417 54.3986 14.3251 52.5199 15.9795 51.174C16.263 50.9433 16.2815 50.6599 16.1938 50.3617C15.6745 48.6049 15.7242 46.7928 15.6438 44.9928ZM43.696 45.6038C43.5378 46.9436 43.6791 48.3198 43.3265 49.6337C43.0777 50.56 43.0595 51.3637 43.769 52.1146C44.0412 52.4033 44.2028 52.8198 44.3449 53.2035C44.8245 54.5061 45.3465 55.795 45.7068 57.1396C45.9471 58.0349 45.9544 58.0383 46.7727 57.7121C47.6498 57.3621 48.549 57.0899 49.4952 57.0528C50.6259 57.0078 50.4643 57.0199 50.7223 55.9881C51.9234 51.1904 52.4195 46.3076 52.4104 41.3673C52.4078 40.0015 52.1447 38.6798 51.7666 37.378C51.4084 36.1445 50.9293 35.842 49.7004 36.0952C49.2628 36.1851 48.8346 36.3432 48.4194 36.5126C46.8324 37.1581 45.4886 38.1717 44.2132 39.2951C43.756 39.6978 43.562 40.1307 43.5841 40.7611C43.6411 42.3736 43.8066 43.9857 43.696 45.6038ZM25.495 43.1742C27.7668 43.3186 29.5928 43.0286 31.4217 42.8065C35.0036 42.3719 38.2082 40.9435 41.2427 39.057C42.007 38.5822 42.2861 38.0123 42.1578 37.1002C41.8177 34.6797 41.5788 32.2459 41.269 29.8207C40.7 25.3652 39.5325 21.0505 38.1672 16.7821C38.0164 16.3111 37.7654 16.0458 37.3177 15.8311C35.6214 15.0154 33.8132 14.738 31.967 14.5958C28.6007 14.337 25.4902 15.2029 22.4973 16.6702C21.6431 17.0893 20.973 17.5784 20.7405 18.5614C20.6113 19.1058 20.3439 19.6165 20.1732 20.1531C18.1321 26.581 17.1655 33.1839 16.9668 39.9117C16.953 40.3818 17.1249 40.7171 17.5108 40.9448C17.8655 41.1552 18.2319 41.3483 18.6035 41.5272C20.9133 42.6359 23.355 43.1742 25.495 43.1742ZM19.44 55.1897C19.4123 55.6779 19.3937 56.0512 19.37 56.425C19.2442 58.4108 18.7456 60.2747 17.6123 61.9442C17.0688 62.7449 16.6229 62.7799 15.9795 62.0155C14.5874 60.3637 12.5385 59.8578 10.5959 60.6865C8.23379 61.6936 7.37916 63.9944 8.55051 66.22C8.70043 66.5056 8.82011 66.7657 8.55785 67.0392C8.30984 67.298 8.01473 67.2842 7.73345 67.1261C6.99245 66.7082 6.25059 66.5959 5.49489 67.0721C5.00363 67.3814 4.65971 67.8213 4.40867 68.3402C3.61237 69.9881 3.91957 72.1247 5.15616 73.5116C6.41089 74.9189 8.59371 75.5151 10.2948 74.9146C11.1019 74.6298 11.1935 74.6359 11.4657 75.3859C11.7275 76.1084 12.2378 76.5806 12.8461 76.9665C13.9 77.634 15.0631 77.8513 16.3014 77.7412C18.2038 77.5727 19.6953 76.6299 21.0166 75.3246C21.7611 74.5888 22.1491 74.613 22.712 75.4763C23.2858 76.3568 24.0817 76.8623 25.0724 77.074C26.1453 77.303 27.2324 77.3661 28.3233 77.1631C28.7723 77.0792 29.1832 76.9008 29.5915 76.7072C29.8974 76.5625 30.1164 76.4056 29.8602 76.0293C29.7803 75.9118 29.7543 75.7472 29.7358 75.6003C29.6891 75.2317 29.7811 74.9072 30.1761 74.7966C30.5247 74.6985 30.7416 74.9081 30.8799 75.2097C31.5021 76.5668 32.6803 77.0507 34.0513 77.1998C35.6672 77.3748 37.1008 76.8826 38.3707 75.9044C39.4617 75.0636 40.2912 74.0046 40.8728 72.7538C40.9994 72.4811 41.1061 72.1934 41.2729 71.9471C41.657 71.3794 42.1288 71.3768 42.5298 71.9432C42.7463 72.2483 42.8858 72.6064 43.095 72.9167C44.2395 74.6125 45.8239 74.9889 47.595 73.9938C48.2958 73.5998 48.8968 73.1046 49.2386 72.3459C49.4161 71.9519 49.6443 71.5829 50.1714 71.7661C50.5568 71.9009 50.5987 72.3049 50.3373 72.9404C50.2366 73.1858 50.0051 73.3945 50.0936 74.0448C51.3363 72.6527 53.0222 72.5706 54.3214 71.6866C54.82 71.3474 55.285 70.9607 55.682 70.5048C56.5652 69.4921 56.3699 68.5739 55.1497 67.9703C55.0162 67.9042 54.8706 67.8576 54.7263 67.8174C53.602 67.5002 53.5165 66.6612 54.0531 65.7966C54.35 65.3183 54.6528 64.8361 54.8823 64.3241C55.9728 61.8933 54.4938 58.9751 51.8975 58.4302C50.3918 58.1144 48.9115 58.2462 47.4718 58.7932C46.3394 59.2235 45.2812 59.7433 44.472 60.7115C43.9314 61.3583 43.6355 61.2827 43.2829 60.5093C43.1364 60.1883 42.901 59.9554 42.6949 59.6919C41.3904 58.0219 40.455 56.2141 40.5436 54.0166C40.5496 53.8628 40.519 53.7206 40.2861 53.6074C39.1515 54.1592 37.8924 54.5066 36.61 54.8121C34.4103 55.3362 32.1679 55.5634 29.9367 55.8391C26.4615 56.2677 22.9726 56.4976 19.44 55.1897ZM55.0914 66.5354C55.4669 66.7376 55.803 66.8893 56.1093 67.0876C57.6817 68.1056 57.9383 69.6835 56.7713 71.1331C56.3202 71.6926 55.7862 72.1709 55.1994 72.5831C53.8133 73.5579 52.1503 73.9839 50.6933 74.8277C50.3598 75.0208 49.8607 75.1042 49.4905 75.017C48.8099 74.8567 48.275 75.0329 47.6801 75.328C45.9285 76.1956 44.3298 75.8694 42.8984 74.5728C42.5683 74.2738 42.214 74.002 41.8389 73.6918C41.695 73.9152 41.5075 74.2232 41.304 74.5196C39.981 76.4475 38.2925 77.8583 35.9364 78.3435C34.3157 78.6775 32.7901 78.4601 31.3854 77.5817C31.0303 77.3596 30.8034 77.2637 30.44 77.6025C30.0283 77.987 29.464 78.1585 28.914 78.2946C27.3002 78.6939 25.7058 78.5751 24.1297 78.0847C23.1631 77.7844 22.4398 77.1337 21.7706 76.3931C21.2119 76.823 20.6973 77.265 20.1378 77.6401C18.3356 78.8486 16.3597 79.2681 14.2244 78.8321C12.8103 78.5431 11.6165 77.8591 10.7584 76.6856C10.4905 76.3192 10.2446 76.2427 9.81992 76.3248C5.97061 77.071 1.27271 73.2481 3.12543 68.2058C3.6491 66.7808 4.61563 65.7646 6.20004 65.5425C6.67575 65.476 6.80364 65.3101 6.78074 64.8322C6.70426 63.2651 7.09874 61.8345 8.28651 60.7366C8.69611 60.3581 8.5518 60.0466 8.40446 59.6409C7.64661 57.5579 6.86975 55.4796 6.3975 53.305C5.78136 50.4685 5.38084 47.6025 5.26591 44.702C5.22227 43.6115 5.34627 42.5279 5.58563 41.4546C5.83796 40.3243 6.53835 39.6987 7.62976 39.4632C9.26428 39.1098 10.9083 39.0207 12.5588 39.3478C13.585 39.5509 14.6077 39.77 15.6619 39.9877C15.8322 39.4373 15.7829 38.9499 15.8006 38.4725C16.0422 31.9331 17.0783 25.5285 19.1643 19.3188C20.5487 15.1981 22.3854 11.2974 25.1835 7.91125C26.0277 6.88984 26.961 5.96694 28.0524 5.21427C28.4534 4.93732 28.8669 4.66553 29.3067 4.4603C30.6587 3.83121 31.9497 3.78411 33.2209 4.76232C34.3166 5.60529 35.1872 6.60683 35.8958 7.77947C36.9535 9.52935 37.6971 11.4192 38.3409 13.3437C39.832 17.7996 41.2496 22.278 42.064 26.9215C42.643 30.2216 43.0055 33.5481 43.3499 36.8777C43.3883 37.2467 43.3283 37.6355 43.5447 37.9777C43.8753 38.1143 44.0079 37.8084 44.195 37.6675C45.3387 36.8072 46.4962 35.9725 47.827 35.4143C48.4522 35.1511 49.0912 34.9455 49.7674 34.8431C51.3548 34.6028 52.3663 35.193 52.874 36.7468C53.415 38.4016 53.7248 40.107 53.6889 41.8495C53.5921 46.5975 53.1829 51.3127 52.0185 55.9363C51.9818 56.0823 51.971 56.2379 51.9139 56.3744C51.6901 56.9132 51.8392 57.1647 52.4355 57.2934C55.8454 58.0301 57.5685 62.461 55.7222 65.4384C55.5088 65.7823 55.3178 66.1396 55.0914 66.5354Z" fill="white"/>
<path d="M59.0511 10.2604C57.4836 9.17892 56.5624 7.85377 56.3278 6.1324C56.0854 4.35573 56.7612 2.85427 58.0185 1.48936C55.4503 1.44486 53.3383 2.7657 52.4392 4.85174C51.3098 7.47311 52.6457 10.1316 55.4252 10.7724C56.5996 11.0433 57.7269 10.87 59.0511 10.2604ZM57.7368 0.225126C58.2021 0.258828 58.7284 0.253649 59.2365 0.42518C60.0635 0.704298 60.2048 1.16272 59.637 1.82984C59.4932 1.99921 59.3091 2.13748 59.132 2.27444C56.6441 4.19802 57.1626 7.79457 59.9248 9.29515C60.2208 9.45588 60.5548 9.55266 60.833 9.73629C61.2582 10.0176 61.2776 10.498 60.8568 10.7387C58.9185 11.8474 56.9038 12.559 54.6341 11.84C51.6917 10.9081 50.157 8.00413 51.0578 5.05049C51.9311 2.18587 54.6708 0.188832 57.7368 0.225126Z" fill="white"/>
<path d="M53.6711 28.9924C54.0427 28.0997 54.3589 27.5108 55.217 27.5423C54.2116 26.5443 55.4097 25.5643 55.0628 24.6181C54.0453 25.6244 53.2381 24.4954 52.3113 24.2763C52.3714 24.8808 52.6272 25.3012 52.7862 25.7544C53.045 26.4954 52.9608 26.6653 52.2211 26.8912C52.0366 26.9474 51.7998 26.8722 51.582 27.2027C52.5499 27.3764 53.5475 27.4823 53.6711 28.9924ZM51.353 25.694C51.1508 24.9257 50.9171 24.1765 50.7624 23.4113C50.5986 22.5999 51.1167 22.1963 51.8901 22.5252C52.336 22.7144 52.7361 23.0065 53.1681 23.2312C54.0876 23.709 53.9614 23.9238 54.7417 23.0497C54.8165 22.9663 54.8964 22.8864 54.9798 22.8103C55.2965 22.5208 55.6413 22.2767 56.0864 22.5066C56.5068 22.7239 56.6113 23.1266 56.5819 23.5617C56.5534 23.9722 56.5011 24.3818 56.4411 24.7892C56.391 25.1223 56.3348 25.458 56.2428 25.7812C56.1481 26.1126 56.171 26.3632 56.5197 26.5222C56.655 26.5832 56.7777 26.6769 56.8939 26.7707C57.2482 27.0545 57.6375 27.3423 57.491 27.8759C57.3609 28.349 56.9276 28.4877 56.5184 28.5089C55.4577 28.5642 54.8044 29.0965 54.432 30.0652C54.3274 30.3378 54.1217 30.5776 53.9355 30.8105C53.7164 31.084 53.4416 31.2953 53.0614 31.1648C52.7115 31.0438 52.5153 30.7665 52.4699 30.4078C52.4181 29.9987 52.3883 29.586 52.3736 29.1738C52.3593 28.7772 52.2033 28.5754 51.7829 28.5119C51.2299 28.4285 50.6699 28.3158 50.148 28.1209C49.3452 27.8206 49.2367 27.0978 49.9151 26.5689C50.3523 26.2289 50.8652 25.9856 51.353 25.694Z" fill="white"/>
<path d="M7.72624 29.4258C7.0211 29.2141 6.76834 28.7293 6.58169 28.07C5.65835 29.0443 4.83483 28.4904 3.95989 28.0034C3.9197 28.922 4.96099 29.6012 4.10981 30.452C5.19906 30.5397 5.19085 30.5198 5.91932 31.5697C5.8934 30.3202 6.80982 29.9568 7.72624 29.4258ZM3.12858 26.1269C3.69805 26.1308 4.09642 26.4942 4.52849 26.7893C5.39868 27.3834 5.39911 27.3817 6.21659 26.7418C6.36479 26.6264 6.50867 26.5033 6.6681 26.406C7.38663 25.9688 7.8874 26.2406 7.94141 27.0952C7.95092 27.2438 7.94142 27.3963 7.925 27.5454C7.88309 27.917 8.02826 28.1041 8.41755 28.1136C8.75457 28.1218 9.09806 28.1339 9.42686 28.2022C10.1307 28.3478 10.3372 28.9505 9.80536 29.4318C9.30848 29.8816 8.73988 30.2722 8.15054 30.5924C7.53829 30.9255 7.19263 31.3658 7.07511 32.0528C7.00079 32.49 6.81759 32.9126 6.65297 33.3295C6.5078 33.6977 6.26281 33.9884 5.82081 33.9707C5.38701 33.9534 5.16968 33.6437 5.0016 33.2911C4.96963 33.2232 4.93074 33.152 4.92513 33.0798C4.83353 31.8998 4.11413 31.6535 3.09099 31.8186C2.91514 31.8475 2.71466 31.7944 2.53923 31.7374C1.81379 31.5019 1.63189 30.9497 2.08383 30.3483C2.21777 30.1702 2.37764 29.9948 2.56257 29.8756C2.9497 29.6276 2.98038 29.3325 2.85292 28.9146C2.66799 28.3059 2.51547 27.6798 2.42905 27.0507C2.34523 26.4419 2.61485 26.1429 3.12858 26.1269Z" fill="white"/>
<path d="M12.731 4.48058C11.9896 5.55082 11.1937 4.74501 10.4453 4.5899C10.3036 5.14295 10.5953 5.55558 10.5927 6.00061C10.5896 6.53206 10.0539 6.58736 9.69914 6.84142C11.0882 7.40225 11.0882 7.40224 11.4525 8.37959C11.8586 7.26873 12.8969 7.09721 13.86 6.58304C12.9237 6.16264 12.5897 5.48644 12.731 4.48058ZM14.2259 3.41986C14.2143 3.5875 14.2272 3.70675 14.1948 3.81131C13.9105 4.71736 14.0173 5.37583 14.9752 5.91852C15.7784 6.37349 15.6418 7.41348 14.7362 7.63729C13.2568 8.00239 12.4471 8.9011 11.9437 10.2379C11.8063 10.6022 11.5112 10.8636 11.0753 10.832C10.6151 10.7987 10.4674 10.4293 10.3507 10.0703C10.247 9.75012 10.1139 9.40835 10.1355 9.08559C10.1831 8.37138 9.77692 8.18646 9.19794 8.11776C9.01302 8.09616 8.82376 8.06159 8.6505 7.99591C8.17695 7.81704 7.73625 7.56168 7.6965 6.99912C7.65891 6.47459 8.02617 6.14492 8.4712 6.00969C9.18584 5.79279 9.24677 5.30714 9.1556 4.70008C9.10548 4.36695 9.03894 4.02734 9.05666 3.69465C9.08776 3.11697 9.57427 2.71255 10.053 2.99254C11.1677 3.64453 12.0077 3.53522 12.7681 2.46801C12.9811 2.16945 13.4085 2.0692 13.796 2.28135C14.2869 2.54967 14.2182 3.02754 14.2259 3.41986Z" fill="white"/>
<path d="M21.5029 64.7302C22.0762 64.9622 22.456 64.6978 22.8678 64.1197C23.6947 62.9587 25.5583 62.5534 26.8523 63.1061C27.1945 63.2521 27.4602 63.447 27.3743 63.854C27.2852 64.2744 26.9534 64.3336 26.5853 64.2869C26.2137 64.2389 25.8421 64.1508 25.471 64.1521C24.9387 64.1543 24.431 64.2826 24.0201 64.6654C23.5249 65.1268 23.5198 65.3386 24.0551 65.8151C24.3938 66.1163 24.7365 66.4161 24.9516 66.8162C25.1392 67.1649 25.2191 67.5555 24.8112 67.8122C24.4496 68.039 24.1938 67.807 23.9471 67.5387C22.2819 65.7261 20.7912 65.4669 18.646 66.6317C17.4198 67.2967 16.4701 68.2235 16.0164 69.5845C15.9693 69.7254 15.9287 69.8744 15.8509 69.998C15.7222 70.2002 15.5217 70.313 15.278 70.2663C14.9855 70.2097 14.8278 70.0075 14.7975 69.7159C14.7574 69.3279 14.9025 68.9831 15.0572 68.637C16.0994 66.3068 18.8465 64.611 21.5029 64.7302Z" fill="white"/>
<path d="M37.9535 63.1329C39.763 63.2011 41.4645 64.1962 42.6553 66.0748C42.7551 66.2312 42.8463 66.4002 42.9007 66.5765C42.9945 66.8789 42.9953 67.1935 42.6859 67.3741C42.3273 67.5836 42.0197 67.435 41.8274 67.1088C41.541 66.6218 41.2251 66.1608 40.8298 65.7568C39.4968 64.3954 37.4384 63.9819 35.762 64.7363C35.2781 64.954 34.843 65.231 34.5177 65.6674C34.2969 65.9647 33.9953 66.1366 33.6501 65.8817C33.2672 65.5996 33.3524 65.2353 33.5693 64.8862C33.7702 64.5622 34.0562 64.3189 34.3625 64.1003C35.2517 63.4651 36.3725 63.1234 37.9535 63.1329Z" fill="white"/>
<path d="M29.1357 21.1533C27.6032 21.1754 25.8053 21.8343 24.3043 23.2178C21.1342 26.1381 21.7119 30.9268 25.4726 33.0206C28.5736 34.7463 32.5841 34.0856 34.9587 31.4586C37.4734 28.6757 37.037 24.6622 33.9754 22.5018C32.6791 21.5871 31.2291 21.1408 29.1357 21.1533ZM29.1258 35.2129C27.1841 35.2094 25.4195 34.6542 23.8753 33.4708C20.7091 31.0434 20.0821 26.7659 22.4032 23.5263C25.2017 19.6195 31.1539 18.748 34.9605 21.6869C38.3937 24.3377 38.7999 29.1121 35.8657 32.3366C34.1767 34.1923 31.7377 35.2336 29.1258 35.2129Z" fill="white"/>
<path d="M29.574 23.6299C27.9736 23.6338 26.6298 24.119 25.5872 25.2766C24.3593 26.6397 24.3692 28.5249 25.5756 29.8816C27.5052 32.0514 31.4699 31.9512 33.2816 29.6863C34.4015 28.2868 34.3531 26.4846 33.1381 25.1685C32.1651 24.1147 30.9203 23.6749 29.574 23.6299ZM29.3095 32.6883C27.723 32.6529 26.2837 32.2026 25.0835 31.1177C22.9702 29.2071 22.8738 26.2543 24.8514 24.208C27.1207 21.8602 31.3843 21.7655 33.7586 24.0097C35.8792 26.015 35.8373 29.1319 33.6557 31.0724C32.4209 32.1707 30.9492 32.6442 29.3095 32.6883Z" fill="white"/>
</svg>
