<svg width="63" height="50" viewBox="0 0 63 50" fill="none" xmlns="http://www.w3.org/2000/svg">
<path d="M11.5908 9.57819C9.52041 13.3063 7.90858 17.4111 7.85212 21.6752C7.78742 26.5655 9.7774 31.2816 12.4209 35.3967C15.4314 40.0826 19.4082 44.2511 24.3393 46.841C29.2703 49.4313 35.2123 50.3267 40.5133 48.6168C48.3537 46.0871 51.4604 39.5941 55.8208 33.3698C57.9639 30.3106 58.8481 27.7749 58.4077 23.8725C57.9782 20.0654 56.4185 16.3964 54.2667 13.2495C49.8374 6.77075 42.9266 1.92253 35.2168 0.457645C30.6697 -0.406532 25.8885 -0.0395546 21.5232 1.49609C16.9508 3.10476 13.9153 5.39242 11.5908 9.57819Z" fill="#1C2545"/>
<path d="M19.7529 12.4346C19.6181 11.7736 19.1954 11.7036 18.8134 11.6347C17.5544 11.4089 16.2841 11.4834 15.0206 11.5787C14.4703 11.6201 14.4304 11.7473 14.4417 12.5185C16.1761 12.1489 17.9165 12.1007 19.7529 12.4346ZM44.7726 10.9027C44.2024 10.2967 43.657 10.2801 43.118 10.3065C42.0363 10.3581 40.9745 10.5669 39.9192 10.7958C39.1969 10.9524 39.1137 11.133 39.2642 12.0744C40.9399 11.2181 42.7115 10.8135 44.7726 10.9027ZM33.8861 22.1697C33.9851 21.7418 33.6584 21.6876 33.3422 21.6503C31.9835 21.4907 30.636 21.7365 29.2833 21.7832C28.8151 21.799 28.9016 22.169 28.925 22.4746C28.9524 22.8344 29.1576 22.8393 29.4414 22.7558C30.7199 22.3786 32.0027 22.5115 33.2858 22.7396C33.8612 22.842 33.8978 22.8036 33.8861 22.1697ZM28.8008 29.7147C30.7 28.6488 32.53 28.5167 34.1921 30.1905C34.7149 28.9462 34.5248 28.126 33.518 27.6604C32.1122 27.0108 30.6932 27.0722 29.3597 27.8844C28.6156 28.3379 28.514 28.7734 28.8008 29.7147ZM34.5636 26.9957C34.6656 26.2486 34.7394 25.5828 34.8526 24.9237C34.9321 24.46 34.7262 24.2576 34.3167 24.1078C32.9831 23.6185 31.6075 23.4314 30.2126 23.6444C29.2057 23.798 28.2192 24.0976 27.41 24.7792C27.2252 24.9347 27.0137 25.0879 27.1706 25.3965C27.5162 26.0744 27.8485 26.7594 28.1903 27.45C30.2186 25.9099 32.3162 25.8553 34.5636 26.9957ZM54.3817 20.1535C54.2489 19.9845 54.1156 19.8158 53.9828 19.6468C52.1949 17.369 49.9509 15.5217 48.0434 13.356C47.865 13.1535 47.6 13.0195 47.3599 12.8806C44.7165 11.3513 42.121 11.7281 39.583 13.1335C38.0899 13.96 37.1922 15.2247 36.9133 16.9444C36.4372 19.884 36.0909 22.8382 35.7898 25.7988C35.7804 25.8911 35.8113 25.9212 35.9506 25.8636C37.8532 22.8258 40.5496 20.7086 44.0357 19.6235C47.5274 18.5361 50.9431 18.7981 54.3817 20.1535ZM16.1117 44.3365C18.816 44.2955 22.3062 42.7271 24.9914 39.5192C30.1147 33.3973 28.334 23.8477 20.0404 20.8182C14.8647 18.9276 10.0779 20.0281 6.12115 23.8541C2.74709 27.1162 1.5384 31.1811 2.79605 35.7723C4.20983 40.9336 9.04712 44.3659 16.1117 44.3365ZM48.9385 44.3347C51.5626 44.2925 55.0261 42.7399 57.7093 39.5775C62.7676 33.616 61.2515 24.2113 53.0633 20.8772C48.0938 18.8538 41.9738 20.2946 38.4031 24.3136C35.4613 27.6251 34.3528 31.4619 35.5629 35.7896C37.0041 40.9438 41.8293 44.3727 48.9385 44.3347ZM7.69229 21.0782C7.66876 21.1302 7.64509 21.1817 7.62157 21.2337C7.77167 21.2777 7.87401 21.1998 7.9672 21.0986C13.9208 17.8029 19.5823 18.2798 25.073 22.5932C24.2785 19.9679 23.4298 17.5846 22.3187 15.2985C22.1613 14.9752 21.8693 14.796 21.5949 14.5946C19.6249 13.1497 17.4388 13.03 15.1196 13.4369C13.3658 13.7448 12.0089 14.5577 11.0358 16.0497C9.93648 17.7356 8.80804 19.4029 7.69229 21.0782ZM35.1944 21.3692C35.5091 19.5392 35.7849 17.7028 36.1124 15.8747C36.3021 14.8137 36.864 14.05 37.6036 13.3876C38.0617 12.9769 38.2446 12.5896 38.1806 11.9577C38.0391 10.5534 38.4433 10.0856 39.8593 9.78859C41.0427 9.54055 42.2271 9.26766 43.4432 9.29363C44.5314 9.31697 45.4799 9.62636 45.7938 10.8425C45.8495 11.0585 45.9767 11.1485 46.1532 11.2188C46.4125 11.3208 46.6779 11.4097 46.9308 11.5256C47.833 11.94 48.7175 12.3653 49.3152 13.2276C49.5764 13.6044 49.9404 13.9149 50.2776 14.2344C53.0523 16.8661 55.5274 19.7639 57.8791 22.7712C57.9551 22.8687 58.0455 22.9553 58.1309 23.0452C62.5173 27.6318 62.8846 34.6318 58.805 39.8895C54.5842 45.3298 46.7867 47.0363 40.8089 43.74C36.4636 41.3439 34.1861 37.5974 34.1048 32.6155C34.0905 31.757 33.7239 31.2312 33.2018 30.6949C32.696 30.1751 32.0689 29.9225 31.359 29.9635C30.4768 30.0151 29.6439 30.1961 29.1286 31.0554C28.96 31.3373 28.8896 31.6027 28.8843 31.9215C28.7812 38.4834 23.7666 44.1107 17.0109 45.2011C12.6239 45.9091 8.67292 44.8593 5.37323 41.8434C0.45099 37.3437 -0.0712416 29.9722 4.10501 24.5715C4.90366 23.5387 5.62157 22.4569 6.30083 21.3534C7.39028 19.5836 8.57544 17.879 9.71694 16.145C10.3475 15.1871 10.9917 14.187 11.975 13.578C12.7982 13.0684 13.3982 12.555 13.5028 11.5188C13.5614 10.9426 14.1214 10.6701 14.6717 10.6114C16.1241 10.4582 17.5811 10.4371 19.0336 10.626C19.2158 10.6501 19.3923 10.7247 19.568 10.7849C20.2768 11.0269 20.7506 11.462 20.742 12.2678C20.7363 12.7406 20.8967 13.05 21.3649 13.2668C22.4997 13.7926 23.2536 14.6436 23.7354 15.8454C24.6812 18.2053 25.5612 20.5837 26.282 23.0215C26.3761 23.3399 26.4781 23.6557 26.5951 24.034C27.0197 23.7852 27.384 23.568 27.7525 23.3576C27.9441 23.2481 27.9769 23.084 27.9539 22.8841C27.9215 22.6067 27.8873 22.329 27.8764 22.0508C27.8485 21.3474 28.0815 20.9623 28.7744 20.8622C30.4648 20.6168 32.1679 20.5088 33.8737 20.7064C34.3122 20.7568 34.7292 20.8927 34.9272 21.3571C34.9881 21.9225 34.7375 22.498 34.9919 23.2157C35.1613 22.5077 35.2452 21.9469 35.1944 21.3692Z" fill="#0D1117"/>
<path d="M37.4834 32.1537C37.4834 26.7959 42.3478 22.4524 48.3485 22.4524C54.3492 22.4524 59.214 26.7959 59.214 32.1537C59.214 37.5112 54.3492 41.8547 48.3485 41.8547C42.3478 41.8547 37.4834 37.5112 37.4834 32.1537Z" fill="white"/>
<path d="M4.11157 32.1537C4.11157 26.7959 8.97604 22.4524 14.9766 22.4524C20.9773 22.4524 25.8417 26.7959 25.8417 32.1537C25.8417 37.5112 20.9773 41.8547 14.9766 41.8547C8.97604 41.8547 4.11157 37.5112 4.11157 32.1537Z" fill="white"/>
<path d="M13.5343 5.48726C12.9701 4.98178 12.572 4.44731 12.1493 3.91774C11.8722 4.34418 11.6253 4.73223 11.3701 5.11426C11.2685 5.26632 11.1215 5.4116 11.3139 5.58474C11.7359 5.96414 11.9948 6.48995 12.4276 6.97473C12.7399 6.36913 13.1038 5.95774 13.5343 5.48726ZM14.9304 5.40333C14.909 5.68185 14.7656 5.8294 14.5853 5.96678C13.9063 6.48581 13.3943 7.12754 13.1413 7.95935C13.0469 8.26987 12.8709 8.54162 12.5198 8.57135C12.2052 8.59845 12.0354 8.35494 11.8778 8.1148C11.3561 7.3195 10.934 6.45306 10.0492 5.94494C9.70632 5.74772 9.7169 5.39279 10.0251 5.08114C10.8254 4.27305 11.4217 3.35655 11.5134 2.18035C11.5347 1.90634 11.6956 1.71099 11.9729 1.6726C12.2602 1.63308 12.4344 1.81488 12.5364 2.06141C12.6423 2.31773 12.7193 2.58684 12.8319 2.83977C13.203 3.67422 13.714 4.40328 14.5089 4.8858C14.737 5.02469 14.9022 5.17298 14.9304 5.40333Z" fill="#0D1117"/>
<path d="M59.2182 18.9133C59.5686 18.4842 59.8043 18.1485 60.0884 17.8601C60.4411 17.5026 60.335 17.288 59.9936 16.9779C59.0707 16.1401 59.085 16.1175 58.243 17.0848C58.0947 17.2549 57.8459 17.3565 57.8267 17.6783C58.3842 17.92 58.776 18.389 59.2182 18.9133ZM62.6369 16.8296C62.6177 17.0931 62.4623 17.279 62.2854 17.454C61.4103 18.3186 60.6489 19.2735 59.9371 20.2773C59.2965 21.1806 58.66 21.1426 58.2178 20.1606C57.9148 19.488 57.57 19.013 56.7932 18.8049C56.0792 18.6137 55.9742 17.4311 56.6441 16.7754C57.3589 16.0761 57.9193 15.3094 58.3484 14.4098C58.7135 13.6443 59.2803 13.6439 59.6759 14.3797C59.9074 14.8107 60.0636 15.2804 60.4565 15.6071C60.8849 15.9628 61.2289 16.4325 61.9372 16.2063C62.3546 16.0731 62.6207 16.3753 62.6369 16.8296Z" fill="#0D1117"/>
<path d="M3.51078 16.964C4.28045 15.6914 4.28045 15.6914 2.82418 14.5416C2.53071 14.9123 2.23739 15.2827 1.92112 15.682C2.46631 16.1216 2.96163 16.5213 3.51078 16.964ZM5.81613 15.8627C5.08997 16.6666 4.80708 17.8872 4.17163 18.92C3.9242 19.322 3.28231 19.2746 3.0325 18.8011C2.4435 17.6836 1.47567 17.0626 0.431613 16.475C-0.0705965 16.1928 -0.14324 15.7769 0.259454 15.3707C1.04132 14.5818 1.75163 13.7688 2.22222 12.7406C2.41836 12.3122 3.0278 12.3164 3.36478 12.7406C4.05036 13.6032 4.66786 14.5175 5.61955 15.1298C5.79671 15.2439 5.84022 15.4648 5.81613 15.8627Z" fill="#0D1117"/>
<path d="M57.9625 7.74859C57.6554 8.08207 57.3554 8.40764 57.0573 8.73133C57.2749 8.98426 57.3735 9.25639 57.6384 9.37758C58.5301 8.50701 58.5301 8.50701 57.9625 7.74859ZM57.6482 11.0024C57.3539 10.9855 57.1269 10.8756 57.0253 10.6291C56.7724 10.0174 56.3779 9.51685 55.9285 9.03884C55.5623 8.6489 55.6135 8.22698 56.1111 7.97744C56.7739 7.64471 57.1307 7.13885 57.3686 6.46475C57.5443 5.96529 57.9595 5.90356 58.287 6.3108C58.7668 6.9085 59.0736 7.6353 59.6687 8.15358C59.8177 8.28343 59.8015 8.51378 59.6672 8.66434C59.051 9.35613 58.4733 10.0758 57.949 10.8406C57.888 10.929 57.7374 10.9565 57.6482 11.0024Z" fill="#0D1117"/>
<path d="M35.1945 21.3692C35.2453 21.9469 35.1614 22.5077 34.992 23.2157C34.7376 22.4979 34.9883 21.9224 34.9273 21.3571C35.0161 21.3612 35.1053 21.3654 35.1945 21.3692Z" fill="#EBE0D4"/>
<path d="M58.6754 32.0032C58.6208 24.9253 52.4138 20.7639 46.7357 21.6978C41.6052 22.5424 37.5297 26.9013 37.287 32.0803C36.9524 39.2072 42.9741 43.886 49.0738 43.0083C54.4761 42.2307 58.6814 37.4653 58.6754 32.0032ZM48.9383 44.3346C41.8292 44.3727 37.0039 40.9438 35.5627 35.7896C34.3527 31.4619 35.4611 27.6251 38.4029 24.3136C41.9737 20.2946 48.0937 18.8538 53.0631 20.8772C61.2514 24.2113 62.7674 33.616 57.7092 39.5775C55.026 42.7399 51.5625 44.2925 48.9383 44.3346Z" fill="#4476E0"/>
<path d="M4.27333 32.2358C4.27747 34.4666 4.91277 36.6011 6.25834 38.3178C9.18827 42.0557 13.0506 43.4027 17.6513 42.3842C23.8922 41.0025 27.5427 34.531 25.5099 28.6334C23.6678 23.2903 17.724 20.3341 12.1448 21.9868C7.45908 23.3749 4.26497 27.534 4.27333 32.2358ZM16.1116 44.3365C9.04697 44.3659 4.20968 40.9337 2.79591 35.7723C1.53825 31.1812 2.74694 27.1162 6.121 23.8541C10.0777 20.0281 14.8646 18.9276 20.0403 20.8182C28.3339 23.8477 30.1146 33.3973 24.9912 39.5192C22.3061 42.7271 18.8159 44.2955 16.1116 44.3365Z" fill="#4476E0"/>
<path d="M54.3818 20.1535C50.9431 18.7981 47.5274 18.5361 44.0357 19.6235C40.5496 20.7086 37.8532 22.8258 35.9506 25.8636C35.8113 25.9212 35.7805 25.8911 35.7899 25.7989C36.091 22.8382 36.4373 19.884 36.9134 16.9444C37.1923 15.2247 38.09 13.9601 39.5831 13.1335C42.121 11.7281 44.7166 11.3513 47.3599 12.8806C47.6001 13.0195 47.8651 13.1535 48.0435 13.356C49.951 15.5217 52.195 17.369 53.9828 19.6469C54.1157 19.8159 54.2489 19.9845 54.3818 20.1535Z" fill="#EBE0D4"/>
<path d="M7.69238 21.0782C8.80814 19.4029 9.93658 17.7355 11.0359 16.0497C12.009 14.5577 13.3659 13.7447 15.1197 13.4368C17.4389 13.03 19.625 13.1497 21.595 14.5946C21.8694 14.796 22.1614 14.9751 22.3188 15.2984C23.4298 17.5846 24.2786 19.9679 25.0731 22.5931C19.5824 18.2798 13.9209 17.8029 7.96922 21.0966C7.87821 21.0891 7.78512 21.0838 7.69238 21.0782Z" fill="#EBE0D4"/>
<path d="M34.5635 26.9957C32.3161 25.8553 30.2185 25.9098 28.1902 27.45C27.8484 26.7593 27.5161 26.0743 27.1705 25.3965C27.0136 25.0878 27.2251 24.9346 27.4099 24.7792C28.2192 24.0976 29.2057 23.798 30.2125 23.6444C31.6074 23.4314 32.983 23.6184 34.3166 24.1077C34.7261 24.2575 34.932 24.46 34.8525 24.9237C34.7393 25.5828 34.6655 26.2486 34.5635 26.9957Z" fill="#4476E0"/>
<path d="M28.8008 29.7147C28.5139 28.7734 28.6156 28.3379 29.3597 27.8844C30.6932 27.0721 32.1122 27.0108 33.518 27.6604C34.5248 28.126 34.7149 28.9462 34.1921 30.1905C32.53 28.5167 30.7 28.6488 28.8008 29.7147Z" fill="#4476E0"/>
<path d="M33.8863 22.1697C33.8979 22.8035 33.8614 22.8419 33.2859 22.7395C32.0028 22.5115 30.7201 22.3786 29.4415 22.7557C29.1577 22.8393 28.9526 22.8344 28.9251 22.4746C28.9018 22.1689 28.8152 21.799 29.2835 21.7832C30.6362 21.7365 31.9836 21.4907 33.3424 21.6503C33.6586 21.6876 33.9853 21.7418 33.8863 22.1697Z" fill="#4476E0"/>
<path d="M44.7727 10.9027C42.7116 10.8135 40.94 11.2181 39.2643 12.0744C39.1138 11.1331 39.197 10.9524 39.9192 10.7958C40.9746 10.567 42.0364 10.3581 43.1181 10.3065C43.6571 10.2802 44.2025 10.2967 44.7727 10.9027Z" fill="#4476E0"/>
<path d="M19.7528 12.4346C17.9165 12.1007 16.1761 12.1489 14.4417 12.5185C14.4304 11.7473 14.4703 11.6201 15.0206 11.5787C16.2841 11.4834 17.5544 11.4089 18.8134 11.6347C19.1954 11.7036 19.6181 11.7736 19.7528 12.4346Z" fill="#4476E0"/>
<path d="M7.6923 21.0782C7.78504 21.0839 7.87813 21.0891 7.96914 21.0966C7.87402 21.1998 7.77168 21.2777 7.62158 21.2336C7.64511 21.1817 7.66878 21.1301 7.6923 21.0782Z" fill="#4476E0"/>
<path d="M13.5344 5.48726C13.1039 5.95774 12.7401 6.36913 12.4278 6.97473C11.9949 6.48995 11.736 5.96413 11.314 5.58474C11.1216 5.4116 11.2686 5.26632 11.3702 5.11426C11.6255 4.73223 11.8723 4.34418 12.1494 3.91774C12.5721 4.44731 12.9703 4.98178 13.5344 5.48726Z" fill="#F6F6AE"/>
<path d="M50.4201 6.99282C49.8559 6.48733 49.4577 5.95287 49.035 5.4233C48.758 5.84974 48.5111 6.23778 48.2559 6.61981C48.1543 6.77187 48.0071 6.91716 48.1995 7.09029C48.6214 7.46969 48.8803 7.99551 49.3132 8.48029C49.6256 7.87469 49.9896 7.4633 50.4201 6.99282ZM51.8161 6.90888C51.7947 7.18741 51.6513 7.33495 51.471 7.47233C50.792 7.99136 50.2801 8.6331 50.0268 9.46453C49.9327 9.77542 49.7566 10.0468 49.4054 10.0769C49.0907 10.104 48.921 9.86049 48.7633 9.62036C48.242 8.82506 47.8197 7.95862 46.9348 7.4505C46.5919 7.25327 46.6028 6.89834 46.9107 6.5867C47.7109 5.7786 48.3075 4.8621 48.3993 3.6859C48.4204 3.41189 48.5811 3.21655 48.8585 3.17816C49.1457 3.13864 49.32 3.32043 49.422 3.56697C49.5281 3.82328 49.6049 4.0924 49.7178 4.34533C50.0885 5.17977 50.5997 5.90883 51.3946 6.39136C51.6227 6.53024 51.7879 6.67854 51.8161 6.90888Z" fill="#0D1117"/>
<path d="M50.4201 6.99281C49.9895 7.46329 49.6255 7.87468 49.3131 8.48029C48.8803 7.9955 48.6213 7.46969 48.1994 7.09029C48.0071 6.91715 48.1543 6.77187 48.2559 6.61981C48.5111 6.23778 48.758 5.84974 49.035 5.42329C49.4577 5.95287 49.8559 6.48733 50.4201 6.99281Z" fill="#F6F6AE"/>
<path d="M59.2755 19.3958C58.6662 18.6735 58.1268 18.028 57.3594 17.6952C57.3857 17.2522 57.7282 17.1118 57.9326 16.8777C59.0919 15.5461 59.0723 15.5766 60.343 16.7309C60.8131 17.1578 60.9595 17.4529 60.474 17.9455C60.0825 18.3423 59.7581 18.8052 59.2755 19.3958Z" fill="#F6F6AE"/>
<path d="M3.659 17.2974C2.95889 16.7328 2.32728 16.2232 1.63184 15.6624C2.03498 15.1535 2.40914 14.6808 2.78365 14.2081C4.64084 15.6745 4.64084 15.6745 3.659 17.2974Z" fill="#F6F6AE"/>
<path d="M57.9623 7.74857C58.5299 8.50699 58.5299 8.50699 57.6383 9.37756C57.3733 9.25637 57.2747 8.98424 57.0571 8.73131C57.3552 8.40762 57.6552 8.08205 57.9623 7.74857Z" fill="#F6F6AE"/>
<path d="M48.715 27.5498C48.0959 27.4545 47.4929 27.4978 46.8903 27.6168C43.7596 28.2359 41.2585 29.9353 39.0453 32.1481C38.7171 32.4759 38.7736 32.6848 39.0461 32.9942C41.6646 35.9672 44.9486 37.4159 48.9074 37.3346C49.047 37.332 49.2239 37.3772 49.3022 37.1867C44.5417 35.1531 45.0114 29.5119 48.715 27.5498ZM38.413 33.9246C38.8707 38.7419 43.1163 42.2879 48.0515 42.0748C52.6287 41.8776 57.2887 37.8104 57.3282 33.9773C52.9106 39.8771 43.886 39.7586 38.413 33.9246ZM38.5651 31.0498C38.9174 31.0302 39.0623 30.717 39.2817 30.5225C40.7285 29.2348 42.3041 28.1456 44.0949 27.3939C46.2614 26.4846 48.505 26.1364 50.8269 26.6359C53.2847 27.1644 55.2634 28.4847 56.8698 30.3971C57.0663 30.6312 57.2063 30.9406 57.5962 31.1205C57.568 30.807 57.568 30.5895 57.5269 30.3806C56.8431 26.9212 54.9322 24.4213 51.5966 23.2071C45.8421 21.1128 39.908 24.7995 38.5711 30.4464C38.5252 30.6406 38.3878 30.8571 38.573 31.0596C38.5052 30.9944 38.4593 31.0069 38.448 31.0991C38.4446 31.1243 38.4717 31.1774 38.4834 31.177C38.5636 31.1747 38.5907 31.1273 38.5651 31.0498ZM55.7726 30.9576C56.0139 31.9636 55.9382 32.955 55.6383 33.9363C55.4911 34.0243 55.4568 34.1911 55.5374 34.2923C55.6322 34.4116 55.7131 34.2791 55.7643 34.1839C55.8671 34.071 55.983 33.9683 56.07 33.8448C57.312 32.0818 57.268 32.5971 56.0312 30.9722C56.0097 30.8431 55.901 30.7705 55.8031 30.7728C55.7128 30.775 55.7158 30.8819 55.7726 30.9576ZM58.6757 32.0032C58.6817 37.4652 54.4764 42.2306 49.0741 43.0083C42.9744 43.886 36.9526 39.2071 37.2873 32.0803C37.53 26.9013 41.6055 22.5424 46.736 21.6977C52.4141 20.7639 58.6211 24.9252 58.6757 32.0032Z" fill="#090D11"/>
<path d="M22.4331 30.175C22.881 31.9768 22.6228 33.4951 21.663 34.9314C22.549 34.6359 24.2156 33.2956 24.6534 32.6155C24.8284 32.3438 24.662 32.2192 24.522 32.0705C23.9311 31.4446 23.3243 30.8345 22.4331 30.175ZM15.1553 27.4978C14.459 27.4681 13.9132 27.5324 13.3639 27.6499C10.3377 28.2939 8.07964 30.0998 6.12071 32.3788C5.77741 32.7781 6.04717 32.9761 6.29257 33.2166C8.0204 34.9103 10.0899 35.9571 12.4453 36.458C13.4583 36.6737 14.4801 36.7738 15.6676 36.7456C12.0354 34.4229 11.9929 30.1577 15.1553 27.4978ZM5.48967 33.8971C5.91517 37.5251 9.64164 41.896 15.4523 41.6943C19.8842 41.5407 24.3474 37.9557 24.7121 34.094C21.975 36.6037 18.7644 37.798 15.1135 37.7637C11.4439 37.7294 8.23464 36.4663 5.48967 33.8971ZM5.34792 31.5406C5.45541 31.524 5.49524 31.53 5.51172 31.5135C5.72713 31.291 5.93956 31.0656 6.15229 30.8405C7.73002 29.175 9.53211 27.8377 11.711 27.0548C14.0077 26.229 16.3334 26.182 18.6448 26.9272C20.8658 27.6435 22.7605 28.9236 24.4369 30.5367C24.5751 30.6692 24.6631 30.9169 24.936 30.8499C24.7004 27.2599 21.34 22.6225 15.3676 22.5762C9.2616 22.5284 5.48217 27.4045 5.34792 31.5406ZM4.27345 32.2357C4.2651 27.5339 7.45921 23.3749 12.1449 21.9868C17.7241 20.3341 23.668 23.2902 25.51 28.6334C27.5429 34.5309 23.8923 41.0025 17.6515 42.3842C13.0507 43.4027 9.1884 42.0556 6.25847 38.3177C4.91289 36.6011 4.27759 34.4666 4.27345 32.2357Z" fill="#090D11"/>
<path d="M38.5731 31.0599C38.3879 30.8571 38.5253 30.6407 38.5712 30.4464C39.9081 24.7995 45.8422 21.1129 51.5968 23.2071C54.9323 24.4213 56.8432 26.9212 57.5271 30.3806C57.5681 30.5895 57.5681 30.807 57.5963 31.1205C57.2064 30.9406 57.0664 30.6312 56.8699 30.3971C55.2635 28.4847 53.2848 27.1644 50.827 26.6359C48.5051 26.1365 46.2615 26.4846 44.095 27.394C42.3042 28.1456 40.7286 29.2349 39.2818 30.5225C39.0624 30.7171 38.9175 31.0302 38.5652 31.0498L38.5731 31.0599Z" fill="#F6F6AE"/>
<path d="M38.4128 33.9246C43.8858 39.7586 52.9104 39.8772 57.328 33.9773C57.2885 37.8104 52.6285 41.8776 48.0513 42.0749C43.1161 42.2879 38.8705 38.742 38.4128 33.9246Z" fill="#F6F6AE"/>
<path d="M55.6379 33.9363C55.9379 32.955 56.0136 31.9636 55.7727 30.9591C55.8593 30.9643 55.9451 30.9681 56.0309 30.9722C57.2677 32.5971 57.3117 32.0818 56.0697 33.8448C55.9827 33.9683 55.8668 34.071 55.7655 34.1832C55.7241 34.1004 55.6808 34.0183 55.6379 33.9363Z" fill="#EBE0D4"/>
<path d="M55.6382 33.9363C55.6811 34.0183 55.7244 34.1004 55.7658 34.1832C55.7131 34.2792 55.6322 34.4116 55.5373 34.2923C55.4568 34.1911 55.491 34.0243 55.6382 33.9363Z" fill="#4476E0"/>
<path d="M56.0311 30.9722C55.9453 30.9681 55.8595 30.9643 55.7729 30.9591C55.7157 30.8819 55.7127 30.775 55.803 30.7727C55.9009 30.7705 56.0097 30.8431 56.0311 30.9722Z" fill="#4476E0"/>
<path d="M38.5649 31.0498C38.5905 31.1273 38.5634 31.1747 38.4832 31.177C38.4715 31.1774 38.4444 31.1243 38.4478 31.0991C38.4591 31.0069 38.505 30.9945 38.5728 31.0596C38.5728 31.0599 38.5649 31.0498 38.5649 31.0498Z" fill="#F6F6AE"/>
<path d="M5.3479 31.5406C5.48216 27.4045 9.26158 22.5284 15.3676 22.5762C21.34 22.6225 24.7004 27.26 24.936 30.8499C24.6631 30.9169 24.575 30.6693 24.4369 30.5368C22.7605 28.9236 20.8658 27.6435 18.6447 26.9272C16.3334 26.182 14.0077 26.229 11.711 27.0548C9.53209 27.8377 7.73 29.175 6.15227 30.8405C5.93954 31.0656 5.72711 31.291 5.5117 31.5135C5.49522 31.5301 5.4554 31.524 5.3479 31.5406Z" fill="#F6F6AE"/>
<path d="M5.48975 33.8971C8.23472 36.4663 11.444 37.7295 15.1136 37.7637C18.7645 37.798 21.9751 36.6037 24.7121 34.094C24.3474 37.9557 19.8843 41.5408 15.4523 41.6943C9.64172 41.8961 5.91525 37.5251 5.48975 33.8971Z" fill="#F6F6AE"/>
</svg>
