<svg width="63" height="79" viewBox="0 0 63 79" fill="none" xmlns="http://www.w3.org/2000/svg">
<path d="M15.8488 16.3288C9.9968 20.4274 7.68177 25.4261 4.1915 31.2802C2.39712 34.2908 0.759575 37.4791 0.210846 40.9404C-0.591509 46.0043 1.01017 51.1424 3.08756 55.83C5.28853 60.7971 8.15834 65.6436 12.4782 68.9386C16.378 71.9134 21.2613 73.4368 26.1536 73.7821C31.0468 74.1269 35.9638 73.3448 40.698 72.0616C44.7677 70.9576 48.8084 69.4428 52.125 66.8391C55.5439 64.1551 58.0335 60.4281 59.7925 56.4535C64.8412 45.0485 63.8729 31.1752 57.2895 20.5821C55.4869 17.6812 53.8277 14.2644 50.6853 12.6999C45.2196 9.97824 38.8042 8.83326 32.7462 8.78011C26.8147 8.72784 20.5048 13.068 15.8488 16.3288Z" fill="#1C2545"/>
<path d="M42.1949 51.9582C42.0727 52.1146 41.978 52.1894 41.9448 52.2857C41.298 54.1337 42.3289 57.7043 43.8519 58.9137C44.1328 59.1367 44.6189 58.9427 44.6962 58.5421C44.7372 58.3313 44.6971 58.0932 44.6487 57.8776C44.2693 56.1912 43.6411 54.5874 42.974 53C42.8184 52.631 42.6296 52.2494 42.1949 51.9582ZM16.7521 52.02C15.7821 52.8025 15.4515 53.7276 15.3483 54.7572C15.2428 55.805 15.3776 56.8722 15.2497 57.9048C15.0933 59.1699 15.6148 59.9533 16.603 60.5646C16.6574 60.5983 16.7391 60.588 16.8082 60.5979C17.9934 59.0066 18.2116 56.2254 18.1528 54.6639C18.1368 54.2387 17.9869 53.89 17.6356 53.5958C17.1997 53.2307 16.9283 52.7286 16.7521 52.02ZM40.369 51.4907C40.7246 51.6031 40.8542 51.4423 40.9955 51.3348C41.9184 50.6287 42.0878 49.5913 42.217 48.5358C42.5605 45.7312 42.4192 42.918 42.3738 40.1065C42.3712 39.9514 42.3431 39.8123 42.1288 39.7484C41.6747 40.0236 41.2098 40.3407 40.7121 40.5948C40.2869 40.8117 40.1586 41.0878 40.1768 41.5734C40.2675 44.009 40.315 46.4463 40.3664 48.8832C40.3846 49.7668 40.369 50.6512 40.369 51.4907ZM20.8883 54.0888C20.6753 52.7481 20.4558 51.5015 20.2825 50.2481C19.9788 48.0562 19.7299 45.8574 19.6409 43.6448C19.6279 43.3276 19.6046 43.0494 19.265 42.9068C18.5127 42.5909 17.7635 42.2686 16.9875 41.9385C16.9331 42.0949 16.8674 42.1934 16.8696 42.2902C16.9266 45.0983 16.8454 47.905 17.5531 50.6767C18.0154 52.4867 19.1155 53.4847 20.8883 54.0888ZM25.7871 44.1429C26.0623 47.1839 26.3483 50.0204 26.7666 52.8405C27.0543 54.7779 27.0734 54.7472 29.0146 54.4677C29.6282 54.3791 29.839 54.1596 29.7837 53.5448C29.6424 51.9742 29.5629 50.4002 29.5755 48.8205C29.5858 47.5062 29.5478 46.1914 29.5055 44.8775C29.4821 44.1529 29.4316 44.1365 28.7157 44.1412C27.7811 44.1477 26.8465 44.1429 25.7871 44.1429ZM35.8262 53.4109C36.826 53.2445 37.5493 53.0738 38.2713 52.8664C38.9354 52.6755 39.1376 52.3225 39.1221 51.6506C39.0598 49.021 39.0495 46.3897 39.0188 43.7597C39.0123 43.1958 39.0037 42.632 38.995 42.0686C38.989 41.7022 38.7989 41.611 38.4813 41.7419C37.6137 42.0997 36.7539 42.476 35.8802 42.8169C35.5186 42.9582 35.4616 43.211 35.5056 43.5329C35.8414 45.9974 35.7817 48.4788 35.8241 50.9563C35.8375 51.7405 35.8262 52.5255 35.8262 53.4109ZM34.1736 43.3782C33.2774 43.516 32.4263 43.6452 31.5755 43.7783C30.7144 43.9131 30.7032 43.9148 30.7252 44.8615C30.7792 47.1903 30.8427 49.5188 30.9084 51.8472C30.9231 52.373 30.9771 52.898 30.9879 53.4238C31.0009 54.0179 31.2917 54.2041 31.8525 54.1035C32.5913 53.9699 33.3319 53.8364 34.0776 53.7543C34.6454 53.6921 34.7314 53.3689 34.6761 52.8997C34.4354 50.8768 34.5819 48.8434 34.514 46.8157C34.476 45.6923 34.5378 44.5629 34.1736 43.3782ZM20.9224 43.5398C20.9742 44.9786 21.0075 46.2782 21.1877 47.5818C21.4698 49.6263 21.723 51.6739 22.1093 53.7029C22.2152 54.2573 22.439 54.5787 23.0672 54.5602C23.7041 54.5416 24.3427 54.6176 24.9813 54.628C25.74 54.6405 25.7918 54.599 25.6756 53.884C25.1869 50.8811 24.907 47.8536 24.6015 44.8295C24.5496 44.3149 24.3453 44.0863 23.8557 44.0496C22.9199 43.9801 22.0056 43.7718 20.9224 43.5398ZM22.1858 15.1169C27.0807 12.7172 32.0737 12.4553 37.132 14.086C37.2974 13.9373 37.265 13.8189 37.2318 13.7204C36.5309 11.6534 35.761 9.61707 34.578 7.76435C34.1291 7.06223 33.6209 6.40505 32.9551 5.90256C31.5695 4.85695 30.9084 4.68887 29.2691 5.65758C28.691 5.99934 28.1419 6.41759 27.6541 6.87904C25.2154 9.18716 23.5153 11.9995 22.1858 15.1169ZM15.6438 44.7682C15.6218 44.2795 15.6161 43.7895 15.5738 43.303C15.509 42.5616 15.8987 41.6408 15.4152 41.1232C14.9469 40.6224 14.0093 40.7158 13.2843 40.5239C11.6191 40.0841 9.953 40.0266 8.25799 40.3494C7.37786 40.517 6.87407 40.9344 6.70945 41.8538C6.50119 43.0144 6.46403 44.1719 6.54785 45.3368C6.71723 47.7015 7.04387 50.0446 7.52001 52.3687C7.96677 54.5502 8.72808 56.6328 9.47859 58.7188C9.60389 59.0671 9.71277 59.4944 10.249 59.2615C11.2825 58.8139 12.3596 58.7461 13.458 58.8839C13.8572 58.934 14.0058 58.7733 14.0015 58.3931C13.9933 57.6408 13.9816 56.8882 13.998 56.1364C14.0417 54.1739 14.3251 52.2952 15.9795 50.9493C16.263 50.7186 16.2815 50.4352 16.1938 50.1371C15.6745 48.3803 15.7242 46.5682 15.6438 44.7682ZM43.696 45.3791C43.5378 46.7189 43.6791 48.0951 43.3265 49.409C43.0777 50.3354 43.0595 51.139 43.769 51.89C44.0412 52.1786 44.2028 52.5951 44.3449 52.9788C44.8245 54.2815 45.3465 55.5703 45.7068 56.9149C45.947 57.8102 45.9544 57.8137 46.7727 57.4874C47.6498 57.1375 48.549 56.8653 49.4952 56.8281C50.6259 56.7832 50.4643 56.7953 50.7223 55.7635C51.9234 50.9658 52.4195 46.0829 52.4104 41.1427C52.4078 39.7769 52.1447 38.4552 51.7666 37.1533C51.4084 35.9198 50.9292 35.6173 49.7004 35.8705C49.2628 35.9604 48.8346 36.1185 48.4194 36.2879C46.8324 36.9334 45.4886 37.947 44.2131 39.0704C43.756 39.4731 43.562 39.9061 43.584 40.5365C43.6411 42.1489 43.8066 43.761 43.696 45.3791ZM25.495 42.9496C27.7668 43.0939 29.5928 42.804 31.4217 42.5819C35.0036 42.1472 38.2082 40.7188 41.2427 38.8324C42.007 38.3575 42.2861 37.7876 42.1578 36.8755C41.8177 34.4551 41.5788 32.0212 41.269 29.596C40.7 25.1405 39.5325 20.8258 38.1672 16.5574C38.0164 16.0865 37.7654 15.8212 37.3177 15.6064C35.6214 14.7907 33.8132 14.5133 31.967 14.3711C28.6007 14.1123 25.4902 14.9782 22.4973 16.4455C21.6431 16.8646 20.973 17.3537 20.7405 18.3367C20.6113 18.8811 20.3439 19.3918 20.1732 19.9284C18.1321 26.3563 17.1655 32.9592 16.9668 39.687C16.953 40.1571 17.1249 40.4924 17.5108 40.7201C17.8655 40.9305 18.2319 41.1236 18.6035 41.3025C20.9133 42.4112 23.355 42.9496 25.495 42.9496ZM19.44 54.965C19.4123 55.4532 19.3937 55.8266 19.37 56.2003C19.2442 58.1861 18.7456 60.05 17.6123 61.7196C17.0688 62.5202 16.6229 62.5552 15.9795 61.7909C14.5874 60.1391 12.5385 59.6331 10.5959 60.4618C8.23379 61.469 7.37916 63.7697 8.5505 65.9953C8.70043 66.2809 8.82011 66.541 8.55785 66.8145C8.30984 67.0734 8.01473 67.0595 7.73345 66.9014C6.99245 66.4836 6.25059 66.3712 5.49489 66.8474C5.00363 67.1567 4.65971 67.5966 4.40867 68.1155C3.61237 69.7634 3.91957 71.9 5.15616 73.287C6.41089 74.6942 8.59371 75.2905 10.2948 74.6899C11.1019 74.4052 11.1935 74.4112 11.4657 75.1613C11.7275 75.8837 12.2378 76.356 12.8461 76.7418C13.9 77.4093 15.0631 77.6267 16.3014 77.5165C18.2038 77.348 19.6953 76.4052 21.0166 75.0999C21.7611 74.3641 22.1491 74.3883 22.712 75.2516C23.2858 76.1321 24.0817 76.6377 25.0724 76.8494C26.1453 77.0784 27.2324 77.1415 28.3233 76.9384C28.7723 76.8546 29.1832 76.6761 29.5915 76.4825C29.8974 76.3378 30.1164 76.181 29.8602 75.8046C29.7803 75.6871 29.7543 75.5225 29.7358 75.3756C29.6891 75.007 29.7811 74.6825 30.1761 74.5719C30.5247 74.4739 30.7416 74.6834 30.8799 74.985C31.5021 76.3421 32.6803 76.826 34.0513 76.9751C35.6672 77.1501 37.1008 76.658 38.3707 75.6798C39.4617 74.8389 40.2912 73.7799 40.8728 72.5291C40.9994 72.2565 41.1061 71.9687 41.2729 71.7224C41.657 71.1547 42.1288 71.1521 42.5298 71.7185C42.7463 72.0236 42.8858 72.3818 43.095 72.692C44.2395 74.3879 45.8239 74.7642 47.595 73.7691C48.2958 73.3751 48.8968 72.8799 49.2386 72.1212C49.4161 71.7272 49.6443 71.3582 50.1714 71.5414C50.5568 71.6762 50.5987 72.0802 50.3373 72.7158C50.2366 72.9612 50.0051 73.1699 50.0936 73.8201C51.3363 72.428 53.0222 72.3459 54.3214 71.4619C54.82 71.1227 55.2849 70.736 55.682 70.2802C56.5652 69.2674 56.3699 68.3493 55.1497 67.7456C55.0162 67.6795 54.8706 67.6329 54.7263 67.5927C53.602 67.2756 53.5165 66.4365 54.0531 65.5719C54.3499 65.0936 54.6528 64.6114 54.8823 64.0994C55.9728 61.6686 54.4938 58.7504 51.8975 58.2055C50.3918 57.8897 48.9115 58.0215 47.4718 58.5685C46.3394 58.9988 45.2812 59.5186 44.472 60.4869C43.9314 61.1337 43.6355 61.0581 43.2829 60.2847C43.1364 59.9636 42.901 59.7307 42.6949 59.4672C41.3904 57.7972 40.455 55.9894 40.5436 53.7919C40.5496 53.6381 40.519 53.496 40.2861 53.3828C39.1514 53.9345 37.8924 54.2819 36.61 54.5874C34.4103 55.1115 32.1679 55.3388 29.9367 55.6144C26.4615 56.043 22.9726 56.2729 19.44 54.965ZM55.0914 66.3107C55.4669 66.513 55.803 66.6646 56.1093 66.8629C57.6816 67.8809 57.9383 69.4588 56.7713 70.9084C56.3202 71.4679 55.7862 71.9462 55.1994 72.3584C53.8133 73.3332 52.1503 73.7592 50.6933 74.603C50.3598 74.7962 49.8607 74.8796 49.4905 74.7923C48.8099 74.632 48.275 74.8083 47.6801 75.1034C45.9285 75.971 44.3298 75.6448 42.8984 74.3481C42.5683 74.0491 42.214 73.7774 41.8389 73.4671C41.695 73.6905 41.5075 73.9986 41.304 74.295C39.981 76.2229 38.2925 77.6336 35.9364 78.1188C34.3157 78.4528 32.7901 78.2355 31.3854 77.3571C31.0303 77.135 30.8034 77.0391 30.44 77.3778C30.0283 77.7623 29.464 77.9339 28.914 78.07C27.3002 78.4692 25.7058 78.3504 24.1297 77.86C23.1631 77.5597 22.4398 76.909 21.7706 76.1684C21.2119 76.5983 20.6973 77.0403 20.1378 77.4154C18.3356 78.6239 16.3597 79.0434 14.2244 78.6075C12.8103 78.3184 11.6165 77.6344 10.7584 76.4609C10.4905 76.0945 10.2446 76.0181 9.81992 76.1002C5.97061 76.8464 1.27271 73.0234 3.12543 67.9811C3.6491 66.5562 4.61563 65.5399 6.20004 65.3178C6.67575 65.2513 6.80364 65.0854 6.78074 64.6075C6.70426 63.0404 7.09874 61.6098 8.28651 60.5119C8.69611 60.1334 8.5518 59.8219 8.40446 59.4162C7.64661 57.3332 6.86975 55.2549 6.3975 53.0803C5.78136 50.2438 5.38084 47.3779 5.26591 44.4774C5.22227 43.3868 5.34627 42.3032 5.58563 41.2299C5.83796 40.0996 6.53835 39.474 7.62976 39.2385C9.26428 38.8851 10.9083 38.7961 12.5588 39.1232C13.585 39.3262 14.6077 39.5453 15.6619 39.763C15.8322 39.2126 15.7829 38.7252 15.8006 38.2478C16.0422 31.7084 17.0783 25.3038 19.1643 19.0941C20.5487 14.9734 22.3854 11.0727 25.1835 7.68658C26.0277 6.66516 26.961 5.74226 28.0524 4.98959C28.4534 4.71264 28.8669 4.44086 29.3067 4.23563C30.6587 3.60653 31.9497 3.55943 33.2208 4.53764C34.3166 5.38061 35.1872 6.38216 35.8958 7.55479C36.9535 9.30468 37.6971 11.1946 38.3409 13.119C39.832 17.5749 41.2496 22.0533 42.064 26.6968C42.643 29.997 43.0055 33.3235 43.3499 36.653C43.3883 37.022 43.3283 37.4109 43.5447 37.753C43.8753 37.8896 44.0079 37.5837 44.195 37.4428C45.3387 36.5826 46.4962 35.7478 47.827 35.1896C48.4522 34.9265 49.0912 34.7208 49.7674 34.6184C51.3548 34.3782 52.3663 34.9684 52.874 36.5221C53.4149 38.1769 53.7247 39.8823 53.6889 41.6248C53.5921 46.3729 53.1829 51.088 52.0185 55.7116C51.9818 55.8577 51.971 56.0132 51.9139 56.1497C51.6901 56.6885 51.8392 56.94 52.4354 57.0688C55.8453 57.8054 57.5684 62.2363 55.7222 65.2137C55.5088 65.5576 55.3178 65.915 55.0914 66.3107Z" fill="black"/>
<path d="M59.0511 10.0357C57.4836 8.95425 56.5624 7.6291 56.3278 5.90773C56.0854 4.13106 56.7612 2.6296 58.0185 1.26469C55.4503 1.22019 53.3383 2.54103 52.4392 4.62707C51.3098 7.24844 52.6457 9.90697 55.4252 10.5477C56.5996 10.8186 57.7269 10.6454 59.0511 10.0357ZM57.7368 0.000455856C58.2021 0.0341578 58.7284 0.0289783 59.2365 0.20051C60.0635 0.479628 60.2048 0.938054 59.637 1.60517C59.4932 1.77454 59.3091 1.91281 59.132 2.04977C56.6441 3.97335 57.1626 7.5699 59.9248 9.07048C60.2208 9.23121 60.5548 9.32799 60.833 9.51162C61.2582 9.7929 61.2776 10.2734 60.8568 10.514C58.9185 11.6227 56.9038 12.3343 54.6341 11.6154C51.6917 10.6834 50.157 7.77946 51.0578 4.82582C51.9311 1.9612 54.6708 -0.0358381 57.7368 0.000455856Z" fill="black"/>
<path d="M53.6711 28.7677C54.0427 27.875 54.3589 27.2861 55.217 27.3177C54.2116 26.3196 55.4097 25.3397 55.0628 24.3934C54.0453 25.3997 53.2381 24.2707 52.3113 24.0517C52.3714 24.6561 52.6272 25.0765 52.7862 25.5298C53.045 26.2708 52.9608 26.4406 52.2211 26.6666C52.0366 26.7227 51.7998 26.6475 51.582 26.9781C52.5499 27.1518 53.5475 27.2576 53.6711 28.7677ZM51.353 25.4693C51.1508 24.7011 50.9171 23.9519 50.7624 23.1867C50.5986 22.3752 51.1167 21.9717 51.8901 22.3005C52.336 22.4897 52.7361 22.7818 53.1681 23.0065C54.0876 23.4844 53.9614 23.6991 54.7417 22.825C54.8165 22.7416 54.8964 22.6617 54.9798 22.5857C55.2965 22.2962 55.6413 22.052 56.0864 22.2819C56.5068 22.4992 56.6113 22.9019 56.5819 23.337C56.5534 23.7475 56.5011 24.1571 56.4411 24.5645C56.391 24.8977 56.3348 25.2334 56.2428 25.5566C56.1481 25.888 56.171 26.1386 56.5197 26.2976C56.655 26.3585 56.7777 26.4522 56.8939 26.546C57.2482 26.8299 57.6375 27.1176 57.491 27.6512C57.3609 28.1244 56.9276 28.263 56.5184 28.2842C55.4577 28.3395 54.8044 28.8718 54.432 29.8405C54.3274 30.1132 54.1217 30.353 53.9355 30.5859C53.7164 30.8594 53.4416 31.0706 53.0614 30.9402C52.7114 30.8192 52.5153 30.5418 52.4699 30.1832C52.4181 29.774 52.3883 29.3614 52.3736 28.9492C52.3593 28.5525 52.2033 28.3508 51.7829 28.2872C51.2299 28.2039 50.6699 28.0911 50.148 27.8962C49.3452 27.5959 49.2367 26.8731 49.9151 26.3442C50.3523 26.0042 50.8652 25.7609 51.353 25.4693Z" fill="black"/>
<path d="M7.72624 29.2011C7.0211 28.9894 6.76834 28.5046 6.58169 27.8453C5.65835 28.8196 4.83483 28.2657 3.95989 27.7787C3.9197 28.6973 4.96099 29.3765 4.10981 30.2273C5.19906 30.315 5.19085 30.2951 5.91932 31.3451C5.8934 30.0955 6.80982 29.7321 7.72624 29.2011ZM3.12858 25.9023C3.69805 25.9061 4.09642 26.2695 4.52849 26.5646C5.39868 27.1587 5.39911 27.157 6.21659 26.5171C6.36479 26.4017 6.50867 26.2786 6.6681 26.1814C7.38663 25.7441 7.8874 26.0159 7.94141 26.8705C7.95092 27.0192 7.94142 27.1717 7.925 27.3207C7.88309 27.6923 8.02826 27.8794 8.41755 27.8889C8.75457 27.8971 9.09806 27.9092 9.42686 27.9775C10.1307 28.1231 10.3372 28.7258 9.80536 29.2072C9.30848 29.657 8.73988 30.0475 8.15054 30.3677C7.53829 30.7008 7.19263 31.1411 7.07511 31.8281C7.00079 32.2654 6.81759 32.6879 6.65297 33.1049C6.5078 33.473 6.26281 33.7638 5.82081 33.7461C5.38701 33.7288 5.16968 33.419 5.0016 33.0664C4.96963 32.9986 4.93074 32.9273 4.92513 32.8551C4.83353 31.6752 4.11413 31.4289 3.09099 31.5939C2.91514 31.6229 2.71466 31.5697 2.53923 31.5127C1.81379 31.2772 1.63189 30.725 2.08383 30.1236C2.21777 29.9456 2.37764 29.7701 2.56257 29.6509C2.9497 29.4029 2.98038 29.1078 2.85292 28.69C2.66799 28.0812 2.51547 27.4551 2.42905 26.826C2.34523 26.2172 2.61485 25.9182 3.12858 25.9023Z" fill="black"/>
<path d="M12.7312 4.25591C11.9898 5.32615 11.1939 4.52034 10.4456 4.36523C10.3039 4.91828 10.5955 5.33091 10.5929 5.77594C10.5899 6.30739 10.0541 6.36269 9.69938 6.61675C11.0885 7.17758 11.0885 7.17757 11.4527 8.15492C11.8589 7.04406 12.8971 6.87254 13.8602 6.35837C12.9239 5.93797 12.5899 5.26177 12.7312 4.25591ZM14.2262 3.19519C14.2145 3.36283 14.2275 3.48207 14.1951 3.58664C13.9108 4.49269 14.0175 5.15116 14.9754 5.69384C15.7786 6.14881 15.6421 7.18881 14.7365 7.41262C13.2571 7.77772 12.4473 8.67642 11.944 10.0133C11.8066 10.3775 11.5115 10.6389 11.0755 10.6073C10.6154 10.5741 10.4676 10.2047 10.3509 9.84561C10.2473 9.52545 10.1142 9.18368 10.1358 8.86092C10.1833 8.14671 9.77716 7.96179 9.19819 7.89309C9.01326 7.87148 8.82401 7.83692 8.65075 7.77124C8.1772 7.59236 7.73649 7.33701 7.69674 6.77445C7.65915 6.24992 8.02641 5.92025 8.47144 5.78502C9.18609 5.56812 9.24701 5.08247 9.15585 4.47541C9.10573 4.14228 9.03918 3.80267 9.0569 3.46998C9.08801 2.8923 9.57451 2.48788 10.0532 2.76786C11.168 3.41986 12.0079 3.31055 12.7684 2.24334C12.9814 1.94478 13.4087 1.84453 13.7963 2.05668C14.2871 2.32499 14.2184 2.80287 14.2262 3.19519Z" fill="black"/>
<path d="M37.9529 62.9082C36.372 62.8987 35.2512 63.2405 34.362 63.8756C34.0556 64.0943 33.7696 64.3375 33.5687 64.6616C33.3518 65.0107 33.2667 65.3749 33.6495 65.6571C33.9947 65.912 34.2963 65.74 34.5171 65.4428C34.8424 65.0064 35.2775 64.7294 35.7614 64.5116C37.4379 63.7572 39.4963 64.1707 40.8292 65.5322C41.2245 65.9362 41.5404 66.3972 41.8269 66.8841C42.0191 67.2103 42.3268 67.359 42.6854 67.1494C42.9947 66.9688 42.9939 66.6543 42.9001 66.3518C42.8457 66.1755 42.7545 66.0066 42.6547 65.8502C41.4639 63.9715 39.7624 62.9765 37.9529 62.9082ZM21.5023 64.5056C18.8459 64.3863 16.0988 66.0822 15.0566 68.4124C14.902 68.7585 14.7568 69.1032 14.797 69.4912C14.8272 69.7829 14.9849 69.9851 15.2774 70.0417C15.5211 70.0884 15.7216 69.9756 15.8504 69.7734C15.9281 69.6498 15.9687 69.5008 16.0158 69.3599C16.4695 67.9989 17.4192 67.0721 18.6454 66.4071C20.7906 65.2423 22.2813 65.5015 23.9465 67.314C24.1932 67.5824 24.449 67.8144 24.8106 67.5875C25.2185 67.3309 25.1386 66.9403 24.951 66.5916C24.7359 66.1915 24.3932 65.8917 24.0545 65.5905C23.5192 65.1139 23.5243 64.9022 24.0195 64.4408C24.4304 64.058 24.9381 63.9296 25.4704 63.9275C25.8415 63.9262 26.2131 64.0143 26.5847 64.0623C26.9528 64.1089 27.2847 64.0498 27.3737 63.6294C27.4597 63.2223 27.1939 63.0275 26.8517 62.8814C25.5577 62.3288 23.6942 62.7341 22.8672 63.8951C22.4554 64.4732 22.0756 64.7376 21.5023 64.5056ZM19.4396 54.965C22.9722 56.2729 26.4611 56.0431 29.9363 55.6144C32.1675 55.3388 34.4099 55.1115 36.6096 54.5874C37.892 54.2819 39.151 53.9346 40.2857 53.3828C40.5185 53.496 40.5492 53.6382 40.5432 53.792C40.4546 55.9895 41.39 57.7973 42.6945 59.4672C42.9006 59.7308 43.136 59.9637 43.2825 60.2847C43.6351 61.0581 43.931 61.1337 44.4716 60.4869C45.2808 59.5186 46.339 58.9989 47.4714 58.5685C48.9111 58.0215 50.3914 57.8897 51.8971 58.2056C54.4934 58.7504 55.9724 61.6686 54.8819 64.0994C54.6524 64.6114 54.3495 65.0936 54.0527 65.5719C53.5161 66.4365 53.6016 67.2756 54.7259 67.5927C54.8702 67.6329 55.0158 67.6796 55.1493 67.7457C56.3695 68.3493 56.5648 69.2674 55.6816 70.2802C55.2845 70.736 54.8196 71.1227 54.321 71.4619C53.0218 72.3459 51.3359 72.428 50.0932 73.8202C50.0047 73.1699 50.2362 72.9612 50.3369 72.7158C50.5983 72.0802 50.5564 71.6762 50.171 71.5414C49.6439 71.3582 49.4157 71.7272 49.2382 72.1213C48.8964 72.88 48.2954 73.3751 47.5946 73.7692C45.8235 74.7642 44.2391 74.3879 43.0946 72.692C42.8854 72.3818 42.7459 72.0236 42.5294 71.7186C42.1284 71.1521 41.6566 71.1547 41.2725 71.7225C41.1057 71.9687 40.999 72.2565 40.8724 72.5291C40.2908 73.78 39.4613 74.839 38.3703 75.6798C37.1004 76.658 35.6668 77.1501 34.0509 76.9751C32.6799 76.8261 31.5017 76.3422 30.8795 74.985C30.7412 74.6834 30.5243 74.4739 30.1756 74.572C29.7807 74.6826 29.6887 75.0071 29.7354 75.3756C29.7539 75.5225 29.7799 75.6871 29.8598 75.8047C30.116 76.181 29.897 76.3378 29.5911 76.4826C29.1828 76.6761 28.7718 76.8546 28.3229 76.9384C27.2319 77.1415 26.1449 77.0784 25.072 76.8494C24.0813 76.6377 23.2854 76.1322 22.7116 75.2516C22.1486 74.3883 21.7606 74.3641 21.0162 75.1C19.6949 76.4052 18.2034 77.348 16.301 77.5165C15.0627 77.6267 13.8996 77.4094 12.8457 76.7418C12.2374 76.356 11.7271 75.8837 11.4653 75.1613C11.1931 74.4112 11.1015 74.4052 10.2944 74.6899C8.5933 75.2905 6.41048 74.6942 5.15575 73.287C3.91917 71.9 3.61196 69.7635 4.40827 68.1155C4.6593 67.5966 5.00322 67.1568 5.49449 66.8474C6.25018 66.3713 6.99205 66.4836 7.73305 66.9014C8.01432 67.0596 8.30943 67.0734 8.55744 66.8146C8.81971 66.5411 8.70003 66.281 8.5501 65.9954C7.37875 63.7698 8.23338 61.469 10.5955 60.4618C12.5381 59.6331 14.587 60.1391 15.9791 61.7909C16.6225 62.5552 17.0684 62.5202 17.6119 61.7196C18.7452 60.0501 19.2438 58.1861 19.3696 56.2003C19.3933 55.8266 19.4119 55.4533 19.4396 54.965Z" fill="#BDBDBD"/>
<path d="M29.1255 34.9882C31.7374 35.0089 34.1764 33.9677 35.8654 32.1119C38.7995 28.8874 38.3934 24.113 34.9602 21.4622C31.1536 18.5233 25.2014 19.3948 22.4029 23.3016C20.0818 26.5412 20.7088 30.8187 23.875 33.2461C25.4192 34.4295 27.1838 34.9847 29.1255 34.9882ZM25.4948 42.9495C23.3548 42.9495 20.9131 42.4112 18.6033 41.3025C18.2317 41.1236 17.8653 40.9305 17.5106 40.72C17.1247 40.4923 16.9528 40.1571 16.9666 39.687C17.1653 32.9592 18.1319 26.3563 20.173 19.9284C20.3437 19.3918 20.6111 18.8811 20.7403 18.3366C20.9728 17.3537 21.6429 16.8646 22.4971 16.4455C25.49 14.9782 28.6005 14.1123 31.9668 14.3711C33.813 14.5133 35.6212 14.7906 37.3175 15.6064C37.7652 15.8211 38.0162 16.0864 38.167 16.5574C39.5323 20.8258 40.6998 25.1405 41.2688 29.596C41.5786 32.0212 41.8175 34.455 42.1576 36.8755C42.2859 37.7876 42.0068 38.3575 41.2425 38.8323C38.208 40.7187 35.0034 42.1472 31.4215 42.5818C29.5926 42.8039 27.7666 43.0938 25.4948 42.9495Z" fill="#DDD7C9"/>
<path d="M43.6961 45.3791C43.8067 43.761 43.6412 42.1489 43.5842 40.5364C43.5621 39.906 43.7562 39.4731 44.2133 39.0704C45.4888 37.947 46.8325 36.9334 48.4195 36.2879C48.8347 36.1185 49.2629 35.9604 49.7006 35.8705C50.9294 35.6173 51.4086 35.9198 51.7667 37.1533C52.1448 38.4551 52.4079 39.7768 52.4105 41.1426C52.4196 46.0829 51.9236 50.9657 50.7224 55.7634C50.4645 56.7952 50.6261 56.7831 49.4953 56.8281C48.5491 56.8652 47.65 57.1374 46.7729 57.4874C45.9545 57.8136 45.9472 57.8102 45.707 56.9149C45.3466 55.5703 44.8247 54.2814 44.3451 52.9787C44.2029 52.5951 44.0413 52.1786 43.7691 51.8899C43.0597 51.139 43.0778 50.3353 43.3267 49.409C43.6792 48.0951 43.538 46.7189 43.6961 45.3791Z" fill="#4476E0"/>
<path d="M15.6437 44.7682C15.7241 46.5682 15.6744 48.3803 16.1937 50.1371C16.2815 50.4352 16.2629 50.7186 15.9794 50.9493C14.325 52.2952 14.0416 54.1739 13.998 56.1364C13.9815 56.8882 13.9932 57.6408 14.0014 58.3931C14.0057 58.7733 13.8571 58.934 13.4579 58.8839C12.3595 58.7461 11.2824 58.8139 10.2489 59.2615C9.71269 59.4944 9.60381 59.0671 9.47851 58.7188C8.728 56.6328 7.96669 54.5502 7.51993 52.3687C7.04379 50.0446 6.71715 47.7015 6.54777 45.3368C6.46395 44.1719 6.50111 43.0144 6.70937 41.8538C6.87399 40.9344 7.37778 40.517 8.25791 40.3494C9.95292 40.0266 11.619 40.0841 13.2842 40.5239C14.0092 40.7158 14.9468 40.6224 15.4152 41.1232C15.8986 41.6408 15.5089 42.5616 15.5737 43.303C15.6161 43.7895 15.6217 44.2795 15.6437 44.7682Z" fill="#4476E0"/>
<path d="M22.1855 15.1169C23.515 11.9995 25.2152 9.18715 27.6538 6.87903C28.1416 6.41758 28.6908 5.99934 29.2689 5.65757C30.9082 4.68887 31.5693 4.85694 32.9549 5.90255C33.6207 6.40505 34.1288 7.06223 34.5778 7.76435C35.7608 9.61706 36.5307 11.6534 37.2315 13.7204C37.2648 13.8189 37.2972 13.9373 37.1317 14.086C32.0735 12.4553 27.0805 12.7172 22.1855 15.1169Z" fill="#4476E0"/>
<path d="M20.9229 43.5398C22.0061 43.7718 22.9203 43.98 23.8562 44.0496C24.3457 44.0863 24.5501 44.3149 24.6019 44.8295C24.9074 47.8536 25.1874 50.8811 25.6761 53.884C25.7923 54.599 25.7404 54.6405 24.9817 54.628C24.3431 54.6176 23.7045 54.5416 23.0677 54.5602C22.4394 54.5787 22.2156 54.2573 22.1097 53.7029C21.7235 51.6739 21.4703 49.6263 21.1881 47.5818C21.008 46.2782 20.9747 44.9786 20.9229 43.5398Z" fill="#4476E0"/>
<path d="M34.1742 43.3782C34.5384 44.5629 34.4766 45.6923 34.5146 46.8157C34.5825 48.8434 34.436 50.8768 34.6767 52.8997C34.732 53.3689 34.646 53.6921 34.0782 53.7543C33.3325 53.8364 32.5919 53.9699 31.8531 54.1035C31.2923 54.2041 31.0015 54.0179 30.9885 53.4238C30.9777 52.898 30.9237 52.373 30.909 51.8472C30.8433 49.5188 30.7798 47.1903 30.7258 44.8615C30.7038 43.9148 30.715 43.9131 31.5761 43.7783C32.4269 43.6452 33.278 43.516 34.1742 43.3782Z" fill="#4476E0"/>
<path d="M35.8263 53.4109C35.8263 52.5256 35.8375 51.7405 35.8242 50.9563C35.7818 48.4788 35.8414 45.9974 35.5057 43.5329C35.4616 43.211 35.5187 42.9582 35.8803 42.817C36.754 42.4761 37.6138 42.0997 38.4814 41.742C38.799 41.611 38.9891 41.7022 38.9951 42.0686C39.0038 42.632 39.0124 43.1959 39.0189 43.7597C39.0496 46.3897 39.0599 49.0211 39.1221 51.6506C39.1377 52.3225 38.9355 52.6755 38.2714 52.8665C37.5494 53.0739 36.8261 53.2445 35.8263 53.4109Z" fill="#4476E0"/>
<path d="M25.7869 44.1429C26.8463 44.1429 27.7809 44.1477 28.7154 44.1412C29.4314 44.1365 29.4819 44.1529 29.5053 44.8775C29.5476 46.1914 29.5856 47.5062 29.5753 48.8205C29.5627 50.4002 29.6422 51.9742 29.7835 53.5448C29.8388 54.1596 29.628 54.3791 29.0144 54.4677C27.0731 54.7472 27.0541 54.7779 26.7664 52.8405C26.3481 50.0204 26.0621 47.1838 25.7869 44.1429Z" fill="#4476E0"/>
<path d="M20.8886 54.0888C19.1158 53.4848 18.0158 52.4867 17.5535 50.6767C16.8457 47.905 16.927 45.0983 16.8699 42.2903C16.8678 42.1935 16.9334 42.095 16.9879 41.9386C17.7639 42.2687 18.5131 42.591 19.2653 42.9068C19.6049 43.0494 19.6283 43.3277 19.6412 43.6448C19.7302 45.8574 19.9791 48.0562 20.2828 50.2481C20.4561 51.5016 20.6756 52.7481 20.8886 54.0888Z" fill="#4476E0"/>
<path d="M40.369 51.4907C40.369 50.6512 40.3845 49.7668 40.3664 48.8832C40.315 46.4463 40.2674 44.009 40.1767 41.5734C40.1586 41.0878 40.2869 40.8117 40.712 40.5948C41.2098 40.3407 41.6747 40.0236 42.1288 39.7484C42.3431 39.8123 42.3712 39.9514 42.3738 40.1065C42.4191 42.918 42.5604 45.7312 42.2169 48.5358C42.0877 49.5913 41.9184 50.6287 40.9955 51.3347C40.8542 51.4423 40.7246 51.6031 40.369 51.4907Z" fill="#4476E0"/>
<path d="M59.0509 10.0357C57.7266 10.6454 56.5993 10.8186 55.4249 10.5477C52.6454 9.90697 51.3095 7.24844 52.4389 4.62707C53.338 2.54103 55.45 1.22019 58.0182 1.26469C56.7609 2.6296 56.0851 4.13106 56.3275 5.90773C56.5622 7.6291 57.4833 8.95425 59.0509 10.0357Z" fill="#FFFF8A"/>
<path d="M53.6713 28.7677C53.5478 27.2576 52.5501 27.1518 51.5823 26.9781C51.8 26.6475 52.0368 26.7227 52.2213 26.6665C52.961 26.4406 53.0453 26.2708 52.7864 25.5298C52.6274 25.0765 52.3717 24.6561 52.3116 24.0517C53.2384 24.2707 54.0455 25.3997 55.063 24.3934C55.41 25.3397 54.2119 26.3196 55.2173 27.3177C54.3592 27.2861 54.0429 27.875 53.6713 28.7677Z" fill="#FFFF8A"/>
<path d="M7.72648 29.2011C6.81006 29.7321 5.89363 30.0955 5.91956 31.345C5.19109 30.2951 5.1993 30.315 4.11005 30.2273C4.96123 29.3765 3.91994 28.6973 3.96012 27.7787C4.83507 28.2657 5.65859 28.8196 6.58192 27.8453C6.76858 28.5046 7.02134 28.9894 7.72648 29.2011Z" fill="#FFFF8A"/>
<path d="M12.7313 4.25591C12.59 5.26177 12.924 5.93796 13.8603 6.35837C12.8972 6.87253 11.859 7.04405 11.4528 8.15491C11.0886 7.17756 11.0886 7.17757 9.69946 6.61674C10.0542 6.36269 10.59 6.30738 10.593 5.77594C10.5956 5.3309 10.3039 4.91827 10.4456 4.36522C11.194 4.52033 11.9899 5.32614 12.7313 4.25591Z" fill="#FFFF8A"/>
<path d="M21.5031 64.5055C22.0765 64.7376 22.4562 64.4731 22.868 63.895C23.695 62.734 25.5585 62.3288 26.8526 62.8814C27.1948 63.0274 27.4605 63.2223 27.3745 63.6293C27.2855 64.0497 26.9537 64.1089 26.5855 64.0622C26.214 64.0143 25.8424 63.9261 25.4712 63.9274C24.9389 63.9296 24.4312 64.0579 24.0203 64.4407C23.5252 64.9022 23.52 65.1139 24.0553 65.5905C24.3941 65.8916 24.7367 66.1915 24.9519 66.5916C25.1394 66.9403 25.2193 67.3308 24.8115 67.5875C24.4498 67.8143 24.194 67.5823 23.9473 67.314C22.2821 65.5015 20.7915 65.2422 18.6462 66.4071C17.42 67.072 16.4703 67.9988 16.0167 69.3598C15.9696 69.5007 15.929 69.6498 15.8512 69.7733C15.7224 69.9755 15.5219 70.0883 15.2783 70.0417C14.9857 69.985 14.828 69.7828 14.7978 69.4912C14.7576 69.1032 14.9028 68.7584 15.0575 68.4123C16.0996 66.0822 18.8467 64.3863 21.5031 64.5055Z" fill="black"/>
<path d="M37.9532 62.9081C39.7628 62.9764 41.4642 63.9715 42.655 65.8501C42.7548 66.0065 42.846 66.1755 42.9004 66.3517C42.9942 66.6542 42.9951 66.9687 42.6857 67.1493C42.3271 67.3589 42.0195 67.2103 41.8272 66.884C41.5407 66.3971 41.2249 65.9361 40.8295 65.5321C39.4966 64.1706 37.4382 63.7572 35.7618 64.5115C35.2779 64.7293 34.8428 65.0063 34.5174 65.4427C34.2966 65.7399 33.995 65.9119 33.6498 65.657C33.267 65.3748 33.3521 65.0106 33.569 64.6615C33.7699 64.3374 34.056 64.0942 34.3623 63.8755C35.2515 63.2404 36.3723 62.8986 37.9532 62.9081Z" fill="black"/>
<path d="M29.1355 20.9287C27.6029 20.9507 25.8051 21.6096 24.3041 22.9931C21.134 25.9135 21.7117 30.7021 25.4724 32.7959C28.5734 34.5216 32.5838 33.861 34.9585 31.234C37.4732 28.451 37.0368 24.4375 33.9751 22.2771C32.6789 21.3625 31.2289 20.9161 29.1355 20.9287ZM29.1256 34.9882C27.1838 34.9848 25.4193 34.4296 23.875 33.2461C20.7088 30.8188 20.0819 26.5412 22.403 23.3016C25.2015 19.3948 31.1537 18.5233 34.9602 21.4623C38.3935 24.113 38.7996 28.8874 35.8654 32.1119C34.1765 33.9677 31.7374 35.009 29.1256 34.9882Z" fill="black"/>
<path d="M29.3098 32.4637C30.9495 32.4196 32.4212 31.946 33.656 30.8477C35.8375 28.9073 35.8795 25.7903 33.7589 23.7851C31.3846 21.5409 27.121 21.6355 24.8517 23.9834C22.8741 26.0297 22.9705 28.9825 25.0837 30.8931C26.284 31.978 27.7233 32.4282 29.3098 32.4637ZM29.1357 20.9287C31.2291 20.9162 32.6791 21.3625 33.9753 22.2772C37.037 24.4375 37.4734 28.451 34.9587 31.234C32.5841 33.861 28.5736 34.5216 25.4726 32.7959C21.7119 30.7021 21.1342 25.9135 24.3043 22.9931C25.8053 21.6096 27.6032 20.9507 29.1357 20.9287Z" fill="#4476E0"/>
<path d="M29.5742 23.4053C27.9738 23.4092 26.6301 23.8944 25.5875 25.0519C24.3595 26.4151 24.3695 28.3002 25.5758 29.6569C27.5055 31.8268 31.4701 31.7265 33.2818 29.4616C34.4017 28.0621 34.3533 26.26 33.1384 24.9439C32.1653 23.8901 30.9205 23.4502 29.5742 23.4053ZM29.3098 32.4636C27.7232 32.4282 26.284 31.978 25.0837 30.893C22.9704 28.9824 22.8741 26.0297 24.8517 23.9834C27.1209 21.6355 31.3846 21.5409 33.7588 23.7851C35.8794 25.7903 35.8375 28.9073 33.656 30.8477C32.4211 31.946 30.9495 32.4196 29.3098 32.4636Z" fill="black"/>
<path d="M29.5741 23.4053C30.9204 23.4502 32.1652 23.89 33.1383 24.9439C34.3532 26.2599 34.4016 28.0621 33.2817 29.4616C31.47 31.7265 27.5054 31.8267 25.5757 29.6569C24.3694 28.3002 24.3594 26.4151 25.5874 25.0519C26.63 23.8944 27.9737 23.4092 29.5741 23.4053Z" fill="#D8ECFF"/>
</svg>
