<svg width="671" height="395" viewBox="0 0 671 395" fill="none" xmlns="http://www.w3.org/2000/svg">
<g filter="url(#filter0_d_528_11473)">
<path d="M661 -39.4706H10C4.47715 -39.4706 0 -34.9934 0 -29.4706V396.547C0 402.07 4.47715 406.547 10 406.547H661C666.523 406.547 671 402.07 671 396.547V-29.4706C671 -34.9934 666.523 -39.4706 661 -39.4706Z" fill="#D7DBFD"/>
<path opacity="0.8" d="M671.411 397.236C671.411 402.761 666.93 407.24 661.404 407.236L11.1825 406.786C5.73637 406.782 1.29465 402.421 1.19118 396.976L0.969563 385.313C0.896285 381.457 3.05675 377.92 6.4566 376.099C22.1496 367.693 36.8256 357.402 50.2352 345.148C65.9366 330.795 79.5624 314.159 90.3252 295.81C108.049 265.597 118.123 231.592 133.278 200.014C148.434 168.445 170.461 137.866 202.821 124.289C230.949 112.488 262.826 115.101 292.887 109.865C326.49 104.013 358.233 87.921 382.783 64.291C402.662 45.1568 417.729 21.4287 438.109 2.8208C465.173 -21.8886 501.272 -36.5358 537.954 -37.6865L661.278 -39.3351C666.852 -39.4096 671.411 -34.9111 671.411 -29.336V397.236Z" fill="#D7DBFD"/>
<path d="M156.316 -2.62077V55.0133C156.316 60.5362 160.793 65.0133 166.316 65.0133H212.584C218.107 65.0133 222.584 69.4905 222.584 75.0133V276.354" stroke="white" stroke-width="2" stroke-miterlimit="10" stroke-linecap="round"/>
<path d="M65.489 -2.62077V161.21C65.489 166.733 69.9662 171.21 75.489 171.21H146.316C151.838 171.21 156.316 175.687 156.316 181.21V285.712" stroke="white" stroke-width="2" stroke-miterlimit="10" stroke-linecap="round"/>
<path d="M138.682 223.421V105.476C138.682 99.9535 143.159 95.4764 148.682 95.4764H294.437C299.959 95.4764 304.437 90.9992 304.437 85.4764V7.37923C304.437 1.85638 308.914 -2.62077 314.437 -2.62077H473.2C478.723 -2.62077 483.2 1.85639 483.2 7.37923V24.8001C483.2 30.323 487.677 34.8001 493.2 34.8001H557.421" stroke="white" stroke-width="2" stroke-miterlimit="10" stroke-linecap="round"/>
<path d="M70.0698 169.801C70.0698 172.325 68.021 174.368 65.4891 174.368C62.9572 174.368 60.9084 172.325 60.9084 169.801C60.9084 167.276 62.9572 165.234 65.4891 165.234C68.021 165.234 70.0698 167.276 70.0698 169.801Z" fill="white"/>
<path d="M163.572 169.801C163.572 172.325 161.523 174.368 158.991 174.368C156.459 174.368 154.411 172.325 154.411 169.801C154.411 167.276 156.459 165.234 158.991 165.234C161.523 165.234 163.572 167.276 163.572 169.801Z" fill="white"/>
<path d="M160.556 -2.33531C160.556 0.189152 158.508 2.23191 155.976 2.23191C153.444 2.23191 151.395 0.189152 151.395 -2.33531C151.395 -4.85977 153.444 -6.90253 155.976 -6.90253C158.508 -6.89361 160.556 -4.85085 160.556 -2.33531Z" fill="white"/>
<path d="M70.0698 -2.33531C70.0698 0.189152 68.021 2.23191 65.4891 2.23191C62.9572 2.23191 60.9084 0.189152 60.9084 -2.33531C60.9084 -4.85977 62.9572 -6.90253 65.4891 -6.90253C68.021 -6.89361 70.0698 -4.85085 70.0698 -2.33531Z" fill="white"/>
<path d="M309.143 -1.66628C309.143 0.858178 307.094 2.90094 304.562 2.90094C302.03 2.90094 299.981 0.858178 299.981 -1.66628C299.981 -4.19074 302.03 -6.23351 304.562 -6.23351C307.094 -6.22458 309.143 -4.18182 309.143 -1.66628Z" fill="white"/>
<path d="M487.781 -1.66628C487.781 0.858178 485.732 2.90094 483.2 2.90094C480.668 2.90094 478.619 0.858178 478.619 -1.66628C478.619 -4.19074 480.668 -6.23351 483.2 -6.23351C485.732 -6.22458 487.781 -4.18182 487.781 -1.66628Z" fill="white"/>
<path d="M487.781 34.8893C487.781 37.4138 485.732 39.4565 483.2 39.4565C480.668 39.4565 478.619 37.4138 478.619 34.8893C478.619 32.3649 480.668 30.3221 483.2 30.3221C485.732 30.3221 487.781 32.3649 487.781 34.8893Z" fill="white"/>
<path d="M584.772 103.291C584.772 105.815 582.723 107.858 580.191 107.858C577.659 107.858 575.61 105.815 575.61 103.291C575.61 100.766 577.659 98.7234 580.191 98.7234C582.723 98.7234 584.772 100.775 584.772 103.291Z" fill="white"/>
<path d="M483.2 144.467C483.2 146.991 481.152 149.034 478.62 149.034C476.088 149.034 474.039 146.991 474.039 144.467C474.039 141.942 476.088 139.9 478.62 139.9C481.152 139.9 483.2 141.942 483.2 144.467Z" fill="white"/>
<path d="M615.119 144.467C615.119 146.991 613.07 149.034 610.538 149.034C608.006 149.034 605.957 146.991 605.957 144.467C605.957 141.942 608.006 139.9 610.538 139.9C613.07 139.9 615.119 141.942 615.119 144.467Z" fill="white"/>
<path d="M568.498 213.332C568.498 215.857 566.449 217.899 563.917 217.899C561.385 217.899 559.336 215.857 559.336 213.332C559.336 210.808 561.385 208.765 563.917 208.765C566.449 208.774 568.498 210.817 568.498 213.332Z" fill="white"/>
<path d="M568.498 360.099C568.498 362.623 566.449 364.666 563.917 364.666C561.385 364.666 559.336 362.623 559.336 360.099C559.336 357.574 561.385 355.531 563.917 355.531C566.449 355.531 568.498 357.574 568.498 360.099Z" fill="white"/>
<path d="M615.119 360.099C615.119 362.623 613.07 364.666 610.538 364.666C608.006 364.666 605.957 362.623 605.957 360.099C605.957 357.574 608.006 355.531 610.538 355.531C613.07 355.531 615.119 357.574 615.119 360.099Z" fill="white"/>
<path d="M510.989 103.291C510.989 105.815 508.94 107.858 506.408 107.858C503.876 107.858 501.827 105.815 501.827 103.291C501.827 100.766 503.876 98.7234 506.408 98.7234C508.94 98.7234 510.989 100.775 510.989 103.291Z" fill="white"/>
<path d="M160.556 65.8519C160.556 68.3763 158.508 70.4191 155.976 70.4191C153.444 70.4191 151.395 68.3763 151.395 65.8519C151.395 63.3274 153.444 61.2847 155.976 61.2847C158.508 61.2936 160.556 63.3363 160.556 65.8519Z" fill="white"/>
<path d="M227.156 65.8519C227.156 68.3763 225.107 70.4191 222.575 70.4191C220.043 70.4191 217.994 68.3763 217.994 65.8519C217.994 63.3274 220.043 61.2847 222.575 61.2847C225.107 61.2847 227.156 63.3363 227.156 65.8519Z" fill="white"/>
<path d="M309.143 95.6548C309.143 98.1792 307.094 100.222 304.562 100.222C302.03 100.222 299.981 98.1792 299.981 95.6548C299.981 93.1303 302.03 91.0876 304.562 91.0876C307.094 91.0876 309.143 93.1303 309.143 95.6548Z" fill="white"/>
<path d="M143.263 95.4764C143.263 98.0008 141.214 100.044 138.682 100.044C136.15 100.044 134.101 98.0008 134.101 95.4764C134.101 92.9519 136.15 90.9092 138.682 90.9092C141.214 90.9092 143.263 92.9519 143.263 95.4764Z" fill="white"/>
<path d="M478.44 224.607V154.467C478.44 148.944 482.918 144.467 488.44 144.467H600.538C606.061 144.467 610.538 148.944 610.538 154.467V276.354" stroke="white" stroke-width="2" stroke-miterlimit="10" stroke-linecap="round"/>
<path d="M506.408 205.107V113.291C506.408 107.768 510.885 103.291 516.408 103.291H570.191C575.714 103.291 580.191 98.8134 580.191 93.2906V31.1963" stroke="white" stroke-width="2" stroke-miterlimit="10" stroke-linecap="round"/>
<path d="M521.286 213.332H553.917C559.44 213.332 563.917 217.809 563.917 223.332V350.099C563.917 355.622 568.394 360.099 573.917 360.099H600.538C606.061 360.099 610.538 364.576 610.538 370.099V405.798" stroke="white" stroke-width="2" stroke-miterlimit="10" stroke-linecap="round"/>
<path opacity="0.5" d="M595.91 58.0287H551.696C547.938 58.0287 544.896 54.9958 544.896 51.2492V23.3018C544.896 19.5552 547.938 16.5223 551.696 16.5223H595.91C599.668 16.5223 602.71 19.5552 602.71 23.3018V51.2403C602.71 54.9869 599.668 58.0287 595.91 58.0287Z" fill="#A5A9E8"/>
<path d="M601.922 53.069H558.987C554.881 53.069 551.553 49.7506 551.553 45.6562V18.9843C551.553 14.8899 554.881 11.5715 558.987 11.5715H601.922C606.029 11.5715 609.357 14.8899 609.357 18.9843V45.6473C609.366 49.7506 606.029 53.069 601.922 53.069Z" fill="white"/>
<path d="M609.366 19.2965C609.366 15.0237 605.895 11.5626 601.609 11.5626H559.309C555.024 11.5626 551.553 15.0237 551.553 19.2965C551.553 19.5133 551.728 19.689 551.945 19.689H608.974C609.19 19.689 609.366 19.5133 609.366 19.2965Z" fill="#A5A9E8"/>
<path opacity="0.5" d="M83.7944 94.6379H39.58C35.8224 94.6379 32.7805 91.605 32.7805 87.8584V59.9198C32.7805 56.1733 35.8224 53.1404 39.58 53.1404H83.7944C87.552 53.1404 90.5939 56.1733 90.5939 59.9198V87.8584C90.5939 91.605 87.5431 94.6379 83.7944 94.6379Z" fill="#A5A9E8"/>
<path d="M89.8063 89.6871H46.8712C42.7647 89.6871 39.4365 86.3687 39.4365 82.2742V55.6113C39.4365 51.5169 42.7647 48.1985 46.8712 48.1985H89.8063C93.9128 48.1985 97.2409 51.5169 97.2409 55.6113V82.2742C97.2409 86.3598 93.9128 89.6871 89.8063 89.6871Z" fill="white"/>
<path d="M97.2409 55.9146C97.2409 51.6418 93.7695 48.1807 89.4841 48.1807H47.1843C42.8988 48.1807 39.4275 51.6418 39.4275 55.9146C39.4275 56.1314 39.6032 56.3071 39.82 56.3071H96.8484C97.0651 56.3071 97.2409 56.1314 97.2409 55.9146Z" fill="#A5A9E8"/>
<path opacity="0.5" d="M628.145 321.893H583.931C580.173 321.893 577.132 318.86 577.132 315.113V287.175C577.132 283.428 580.173 280.395 583.931 280.395H628.145C631.903 280.395 634.945 283.428 634.945 287.175V315.113C634.945 318.86 631.894 321.893 628.145 321.893Z" fill="#A5A9E8"/>
<path d="M634.158 316.933H591.223C587.116 316.933 583.788 313.615 583.788 309.52V282.857C583.788 278.763 587.116 275.444 591.223 275.444H634.158C638.264 275.444 641.592 278.763 641.592 282.857V309.52C641.592 313.615 638.264 316.933 634.158 316.933Z" fill="white"/>
<path d="M641.592 283.161C641.592 278.888 638.121 275.427 633.835 275.427H591.535C587.25 275.427 583.779 278.888 583.779 283.161C583.779 283.377 583.954 283.553 584.171 283.553H641.199C641.416 283.553 641.592 283.377 641.592 283.161Z" fill="#A5A9E8"/>
<path d="M343.812 193.475C338.542 195.554 333.219 197.704 328.656 201.067C325.417 203.448 322.635 206.392 320.04 209.452C304.634 227.578 295.24 249.941 286.875 272.189C285.041 277.068 283.243 281.983 282.223 287.094C281.158 292.447 280.979 297.933 280.577 303.374C279.771 314.114 278.089 325.015 280.299 335.55C282.509 346.085 289.774 356.468 300.376 358.52C302.782 358.984 305.332 358.993 307.631 358.145C314.547 355.594 316.515 347.004 317.893 339.778C320.792 324.533 325.525 309.699 330.249 294.918C336.225 276.194 342.21 257.452 349.341 239.139C353.805 227.676 358.708 216.401 363.825 205.215C366.357 199.675 372.611 188.846 375.223 183.342C379.249 174.859 368.683 183.904 363.396 185.911C356.847 188.4 350.316 190.906 343.812 193.475Z" fill="#E286B8"/>
<path opacity="0.5" d="M343.812 193.475C338.542 195.554 333.219 197.704 328.656 201.067C325.417 203.448 322.635 206.392 320.04 209.452C304.634 227.578 295.24 249.941 286.875 272.189C285.041 277.068 283.243 281.983 282.223 287.094C281.158 292.447 280.979 297.933 280.577 303.374C279.771 314.114 278.089 325.015 280.299 335.55C282.509 346.085 289.774 356.468 300.376 358.52C302.782 358.984 305.332 358.993 307.631 358.145C314.547 355.594 316.515 347.004 317.893 339.778C320.792 324.533 325.525 309.699 330.249 294.918C336.225 276.194 342.21 257.452 349.341 239.139C353.805 227.676 358.708 216.401 363.825 205.215C366.357 199.675 372.611 188.846 375.223 183.342C379.249 174.859 368.683 183.904 363.396 185.911C356.847 188.4 350.316 190.906 343.812 193.475Z" fill="#E286B8"/>
<path d="M439.46 164.002C443.442 162.95 447.146 160.755 451.252 160.39C457.568 159.81 463.348 163.565 468.752 166.866C473.574 169.81 478.539 172.521 483.63 174.974C493.14 179.56 503.071 183.27 512.51 187.989C521.958 192.717 531.038 198.578 537.784 206.686C544.53 214.795 548.753 225.401 547.491 235.865C546.4 244.928 545.487 254.41 543.116 263.224C539.224 277.672 511.393 385.866 503.417 404.028C502.629 405.823 500.992 406.542 499.032 406.532C477.06 406.418 337.037 405.741 308.884 406.743C299.517 407.073 312.149 327.031 312.561 322.312C315.155 292.259 324.836 263.277 335.679 235.124C343.892 213.805 354.109 191.263 374.024 179.997C387.981 172.102 404.658 171.014 420.672 170.104C421.334 170.068 421.218 168.837 421.737 168.427C423.052 167.392 424.85 167.303 426.506 167.107C429.807 166.705 436.266 164.85 439.46 164.002Z" fill="#E286B8"/>
<g opacity="0.5">
<path d="M450.134 364.479C406.366 360.477 361.776 363.916 318.315 358.971C312.694 358.332 307.517 362.299 306.977 367.931C306.162 376.443 305.563 384.818 305.469 391.729C305.409 396.176 308.602 399.956 313.02 400.472C324.262 401.785 335.894 400.714 347.131 398.867C363.584 396.164 379.867 391.909 396.534 391.4C420.654 390.669 444.318 397.814 468.412 399.143C479.261 399.741 490.168 399.111 500.887 397.329C504.419 396.741 507.275 394.176 508.342 390.758C509.147 388.18 510.002 385.365 510.898 382.356C512.87 375.729 507.588 369.153 500.676 368.986C483.907 368.581 466.841 366.007 450.134 364.479Z" fill="#E286B8"/>
</g>
<g opacity="0.5">
<path d="M535.922 204.574C533.302 201.738 529.108 201.138 525.651 202.858C496.814 217.202 473.334 242.435 462.158 272.644C456.847 287.013 454.202 302.157 452.133 317.363C451.293 323.541 445.116 327.535 439.038 326.142C425.108 322.951 410.803 321.228 396.99 317.504C379.553 312.803 362.948 304.944 345.126 302.036C338.047 300.88 330.882 300.523 323.698 300.507C318.993 300.497 314.98 303.901 314.254 308.549C313.541 313.116 312.971 317.706 312.569 322.321C312.158 327.04 312.006 332.089 314.421 336.165C316.184 339.136 319.136 341.232 322.223 342.802C330.57 347.057 340.17 348.029 349.51 348.814C375.876 351.053 402.313 352.463 428.733 353.872C441.473 354.55 454.258 355.228 466.989 354.399C473.958 353.944 481.178 352.936 487.02 349.127C491.995 345.88 495.529 340.893 498.928 336.032C506.032 325.889 513.136 315.747 520.23 305.604C529.49 292.384 538.92 278.807 543.107 263.233C545.478 254.419 546.399 244.937 547.482 235.874C548.735 225.41 544.521 214.804 537.775 206.695C537.177 205.97 536.558 205.263 535.922 204.574Z" fill="#E286B8"/>
</g>
<g opacity="0.5">
<path d="M386.246 192.191C386.863 199.104 387.883 206.08 390.612 212.467C393.34 218.854 397.957 224.661 404.237 227.64C410.473 230.593 417.765 230.531 424.537 229.157C427.749 228.506 430.925 227.56 433.851 226.088C436.58 224.714 439.067 222.895 441.438 220.977C447.602 215.981 453.158 210.183 457.524 203.564C459.394 200.728 461.049 197.748 462.695 194.778C464.484 191.557 466.274 188.328 468.063 185.108C469.595 182.345 471.145 179.512 472.409 176.594C473.99 172.943 472.144 168.937 468.752 166.857C463.348 163.556 457.568 159.81 451.252 160.381C447.146 160.756 443.442 162.941 439.46 163.994C436.266 164.841 429.816 166.696 426.532 167.098C424.868 167.303 423.079 167.392 421.764 168.418C421.245 168.828 421.352 170.051 420.699 170.095C411.289 170.629 401.657 171.235 392.477 173.239C388.778 174.047 386.015 177.135 385.854 180.918C385.695 184.673 385.91 188.45 386.246 192.191Z" fill="#E286B8"/>
</g>
<path d="M464.842 338.404C464.099 318.69 474.227 300.172 476.311 280.556C476.857 275.391 476.839 270.164 477.779 265.052C479.004 258.389 481.805 252.118 484.694 245.99C487.226 240.628 489.848 235.285 493.042 230.29C500.298 218.916 510.479 209.416 522.351 202.958C526.019 200.96 530.403 199.22 534.277 200.79C536.487 201.691 538.16 203.538 539.6 205.429C545.505 213.198 548.949 222.806 549.316 232.547C549.495 237.346 548.949 242.127 548.404 246.899C546.015 267.657 542.884 288.879 540.253 309.609C539.636 314.471 539.019 319.342 537.927 324.114C536.013 332.517 532.667 340.51 529.222 348.413C527.209 353.043 525.151 357.654 523.103 362.266C521.17 366.602 519.184 371.026 515.954 374.505C509.772 381.16 499.537 383.3 490.814 380.731C484.972 379.01 479.854 375.468 474.862 371.989C472.026 370.009 469.118 367.966 467.195 365.094C465.504 362.57 464.681 359.563 463.965 356.611C462.417 350.295 465.092 344.907 464.842 338.404Z" fill="#E286B8"/>
<path opacity="0.5" d="M489.553 344.363C496.003 346.174 502.615 349.198 506.05 354.934C508.555 359.126 509.021 364.184 509.307 369.064C509.486 372.025 509.173 375.745 506.417 376.869C504.682 377.574 502.731 376.878 500.995 376.164C492.782 372.766 484.668 368.894 477.654 363.444C474.343 360.875 471.302 357.958 468.689 354.684C466.909 352.445 462.06 346.745 462.391 343.694C462.981 338.226 485.491 343.221 489.553 344.363Z" fill="#E286B8"/>
<path d="M463.187 172.521C462.042 167.687 457.559 164.449 453.229 162.004C448.899 159.56 444.139 157.241 441.545 153.004C440.57 151.407 439.961 149.605 439.523 147.785C438.136 141.995 438.455 136.044 439.422 130.132C440.376 124.303 436.454 118.594 430.781 120.238C429.405 120.636 428.062 121.137 426.774 121.729C422.175 123.843 418.06 126.876 414.159 130.096C402.296 139.89 392.047 151.619 383.929 164.669C382.254 167.362 382.125 170.701 383.228 173.674C385.815 180.651 387.623 187.961 389.52 195.135C391.229 201.602 392.768 208.524 397.474 213.287C400.811 216.677 405.481 218.586 410.223 219.077C414.964 219.567 419.769 218.711 424.269 217.159C430.147 215.125 435.604 211.896 440.203 207.712C442.663 205.482 444.864 202.993 447.074 200.505C449.051 198.274 451.019 196.044 452.997 193.823C454.875 191.709 456.754 189.577 458.293 187.213C461.192 182.726 464.422 177.695 463.187 172.521Z" fill="#F0C49B"/>
<path d="M463.187 172.521C462.042 167.687 457.559 164.449 453.229 162.004C448.899 159.56 444.139 157.241 441.545 153.004C440.57 151.407 439.961 149.605 439.523 147.785C438.136 141.995 438.455 136.044 439.422 130.132C440.376 124.303 436.454 118.594 430.781 120.238C429.405 120.636 428.062 121.137 426.774 121.729C422.175 123.843 418.06 126.876 414.159 130.096C402.092 140.058 391.695 152.023 383.513 165.343C382.113 167.621 381.999 170.434 382.946 172.935C383.068 173.258 383.189 173.582 383.308 173.906C384.529 177.239 387.89 179.475 391.291 178.462C394.942 177.374 398.386 175.688 401.777 173.949C405.883 171.843 409.954 169.649 413.748 167.035C417.242 164.633 420.485 161.914 423.593 159.036C427.232 155.667 433.62 157.633 434.593 162.495C435.957 169.293 438.031 175.992 440.837 182.262C442.288 185.504 442.257 189.293 440.356 192.293C438.066 195.905 435.584 199.387 432.401 202.208C427.302 206.731 420.815 209.496 414.15 210.986C410.151 211.878 406.027 212.342 401.956 211.923C400.864 211.81 399.786 211.635 398.722 211.406C397.533 211.149 396.621 212.438 397.474 213.305C400.811 216.695 405.481 218.604 410.223 219.095C414.964 219.585 419.769 218.729 424.269 217.177C430.147 215.143 435.604 211.914 440.203 207.73C442.663 205.5 444.864 203.011 447.074 200.522C449.051 198.292 451.019 196.062 452.997 193.841C454.875 191.727 456.754 189.595 458.293 187.231C461.192 182.726 464.422 177.695 463.187 172.521Z" fill="#E0A988"/>
<path d="M400.498 190.023C401.814 189.824 400.325 187.552 399.009 187.35C397.835 187.169 396.703 186.73 395.738 186.036C395.037 185.531 393.521 186.256 393.956 187.002C394.265 187.531 394.657 188.023 395.174 188.471C396.615 189.72 398.61 190.3 400.498 190.023Z" fill="#E0A988"/>
<path d="M440.999 171.512C443.587 177.493 451.517 178.476 453.501 172.268C453.641 171.829 453.768 171.387 453.882 170.943C454.044 170.3 454.187 169.622 453.999 168.989C453.784 168.249 453.149 167.669 452.514 167.169C450.34 165.465 447.772 164.234 445.446 162.718C445.224 162.574 445.005 162.427 444.788 162.278C441.551 160.048 437.247 161.928 438.628 165.608C439.366 167.594 440.156 169.563 440.999 171.512Z" fill="#F0C49B"/>
<path d="M384.089 173.173C379.625 174.288 374.901 175.394 370.499 174.074C366.759 172.95 363.7 170.149 361.561 166.884C359.423 163.619 358.117 159.89 356.945 156.179C350.861 137.001 345.753 117.929 339.732 98.3844C338.175 93.3266 343.883 88.4382 347.658 84.7184C360.864 71.6769 377.755 60.7405 396.337 60.6156C401.052 60.5799 405.919 61.3114 409.954 63.7556C416.422 67.6984 419.598 75.2985 421.567 82.6043C423.213 88.7326 424.295 94.9858 425.369 101.239C426.845 109.776 428.321 118.321 429.323 126.921C429.744 130.542 430.084 134.235 429.323 137.803C428.339 142.433 425.584 146.501 422.417 150.033C412.253 161.371 398.887 169.48 384.089 173.173Z" fill="#F0C49B"/>
<path d="M349.564 113.842C348.995 113.083 350.643 111.892 351.438 112.41C352.231 112.927 353.058 113.407 353.899 113.861C354.867 114.385 356.128 113.076 355.858 112.009C355.292 109.778 355.377 107.379 356.167 105.217C357.464 101.649 360.47 98.9285 363.772 97.0463C367.073 95.1642 370.732 93.9867 374.248 92.5416C376.05 91.8008 378.925 94.5858 377.675 96.08C377.43 96.3724 377.181 96.6618 376.929 96.9479C375.857 98.1635 376.6 100.068 378.204 99.8342C380.221 99.5407 382.195 98.9351 384.043 98.0627C387.45 96.4552 396.639 98.2298 399.254 100.942C399.857 101.568 400.502 102.155 401.184 102.698C402.562 103.797 404.402 102.59 404.44 100.827C404.481 98.9394 407.02 97.97 408.65 98.9232C408.952 99.0998 409.254 99.2757 409.552 99.4549C413.184 101.649 416.494 104.629 418.23 108.491C419.321 110.909 419.751 113.567 420.064 116.207C420.431 119.294 420.663 122.398 420.896 125.493C420.942 126.099 420.987 126.705 421.031 127.311C421.123 128.559 422.658 128.921 423.178 127.782C423.709 126.618 425.303 126.666 425.41 127.941C425.526 129.332 425.522 130.743 425.513 132.139C425.508 132.807 426.423 132.939 426.599 132.295C427.388 129.405 428.107 126.497 428.761 123.573C428.808 123.362 428.817 123.145 428.789 122.93C427.829 115.671 426.594 108.455 425.352 101.239C424.269 94.9858 423.195 88.7326 421.549 82.6043C419.59 75.2985 416.414 67.6984 409.936 63.7556C405.91 61.3025 401.043 60.5799 396.32 60.6156C377.737 60.7405 360.846 71.6769 347.641 84.7184C343.865 88.4471 338.157 93.3266 339.714 98.3844C341.186 103.153 342.602 107.898 343.986 112.619C344.171 113.249 344.619 113.772 345.229 114.014C346.4 114.478 347.608 114.843 348.839 115.101C349.543 115.249 349.995 114.418 349.564 113.842Z" fill="#E0A988"/>
<path d="M364.107 144.105C365.662 142.546 363.861 139.694 361.66 139.737C359.813 139.772 357.96 139.587 356.155 139.183C356.143 139.18 356.131 139.189 356.131 139.202C356.131 139.203 356.131 139.205 356.132 139.206C356.195 139.49 356.418 139.704 356.632 139.9C358.139 141.309 359.652 142.718 361.162 144.123C362.002 144.905 363.297 144.917 364.107 144.105Z" fill="#E0A988"/>
<path d="M354.601 135.832C354.86 134.964 354.59 134.004 353.911 133.061C352.453 131.037 349.951 133.056 350.656 135.449C351.094 136.935 352.762 137.993 353.894 136.936C354.233 136.619 354.474 136.25 354.601 135.832Z" fill="#E89F87"/>
<path d="M353.599 114.628C358.162 121.533 359.191 130.631 356.283 138.365C356.184 138.633 356.077 138.918 356.14 139.195C356.202 139.48 356.426 139.695 356.641 139.891C359.029 142.121 361.418 144.342 363.807 146.572" stroke="#331810" stroke-width="1.5" stroke-miterlimit="10" stroke-linecap="round" stroke-linejoin="round"/>
<path d="M361.58 153.209C364.38 154.181 367.44 154.047 370.374 153.655C374.239 153.138 378.041 152.183 381.692 150.818" stroke="#331810" stroke-width="1.5" stroke-miterlimit="10" stroke-linecap="round" stroke-linejoin="round"/>
<path d="M363.226 150.622C364.845 150.221 366.572 150.238 368.191 150.676" stroke="#BA7A5D" stroke-miterlimit="10" stroke-linecap="round" stroke-linejoin="round"/>
<path d="M363.78 158.927C366.992 159.632 370.463 159.096 373.308 157.446" stroke="#BA7A5D" stroke-miterlimit="10" stroke-linecap="round" stroke-linejoin="round"/>
<path d="M374.99 102.559C377.477 100.481 381.539 100.606 383.892 102.836" stroke="#331810" stroke-width="1.5" stroke-miterlimit="10" stroke-linecap="round" stroke-linejoin="round"/>
<path d="M408.594 126.475C409.721 128.749 406.885 132.442 402.251 134.726C397.616 137.01 392.955 137.01 391.828 134.735C390.7 132.46 393.536 128.767 398.171 126.484C402.805 124.2 407.466 124.2 408.594 126.475Z" fill="#E89F87"/>
<path d="M382.282 115.422C382.533 118.295 381.754 120.712 380.529 120.819C379.303 120.926 378.104 118.687 377.853 115.815C377.603 112.942 378.381 110.525 379.607 110.418C380.824 110.311 382.023 112.55 382.282 115.422Z" fill="#331810"/>
<path d="M353.25 120.623C353.5 123.495 352.722 125.913 351.496 126.02C350.271 126.127 349.072 123.888 348.821 121.015C348.571 118.143 349.349 115.726 350.575 115.619C351.792 115.511 352.99 117.759 353.25 120.623Z" fill="#331810"/>
<path d="M346.254 111.31C346.996 110.81 347.9 110.623 348.777 110.454" stroke="#331810" stroke-width="1.5" stroke-miterlimit="10" stroke-linecap="round" stroke-linejoin="round"/>
<path d="M445.473 119.963C444.634 121.735 440.487 120.339 442.431 120.079C445.553 119.659 442.717 113.701 441.411 110.846C440.015 107.813 436.687 105.244 433.493 106.208C431.757 106.734 430.442 108.188 429.664 109.82C428.885 111.453 428.59 113.255 428.295 115.039C427.588 119.303 426.881 123.558 426.175 127.822C426.246 125.059 426.005 122.288 425.46 119.575C425.288 118.72 424.017 118.672 423.583 119.429C423.172 120.147 422.199 119.746 422.231 118.92C422.324 116.465 422.145 113.999 421.701 111.587C421.021 107.929 419.679 104.299 417.192 101.524C415.125 99.214 412.397 97.6262 409.945 95.7351C409.064 95.0577 408.208 94.3655 407.442 93.617C406.118 92.3229 403.158 92.3957 402.855 94.222C402.534 96.1528 399.97 97.0886 399.168 95.3032C398.215 93.1818 389.728 90.122 387.928 91.5941C385.518 93.5645 382.947 95.3098 380.314 96.7698C381.173 96.3684 381.781 95.5834 382.345 94.8252C386.883 88.7986 380.828 84.0417 374.165 87.5802C369.614 89.9969 365.064 92.4286 360.757 95.3336C357.867 97.2872 355.022 99.4905 353.277 102.506C352.204 104.35 347.074 106.637 346.025 104.778C345.274 103.448 344.677 102.041 344.277 100.579C344.22 100.366 343.658 100.343 343.625 100.561C343.157 103.605 343.633 106.746 344.961 109.485C345.474 110.543 344.289 112.098 343.286 111.487C339.34 109.082 336.024 105.695 333.872 101.596C332.849 99.655 330.139 98.6295 328.927 100.459C328.681 100.831 328.449 101.229 328.227 101.658C327.521 103.026 323.476 102.806 323.558 101.27C323.684 98.9217 324.084 96.5779 324.755 94.2721C325.743 90.8829 327.493 87.555 329.909 84.9967C330.825 84.0268 330.029 79.2716 328.796 78.7611C327.636 78.2806 328.303 76.5848 329.558 76.5468C330.894 76.5065 332.23 76.3355 333.533 76.0415C335.241 75.6561 335.126 73.4307 333.512 72.7523C332.931 72.5081 332.354 72.2492 331.784 71.9765C329.655 70.9576 330.264 67.9483 332.515 67.2373C337.326 65.717 342.245 63.3038 345.547 60.3748C350.325 56.1376 352.678 50.7497 357.402 46.4501C363.539 40.8749 370.661 36.3879 378.355 33.2658C383.257 31.2766 388.438 29.8315 393.725 29.6263C406.134 29.1357 418.203 34.5504 428.537 41.4279C439.971 49.0359 445.208 58.4011 454.785 64.4376C456.183 65.3187 455.715 67.4266 454.097 67.0924C452.797 66.8238 451.517 68.0905 451.857 69.3739C452.894 73.2959 453.288 77.2599 453.632 81.4C453.954 85.3161 453.9 89.3302 455.108 93.0679C455.647 94.7404 456.509 96.372 457.644 97.7263C458.492 98.7394 457.94 100.838 456.665 100.49C454.774 99.9722 451.144 101.703 450.797 103.632C449.809 109.138 447.935 114.759 445.473 119.963Z" fill="#512E21"/>
<path opacity="0.2" d="M442.957 68.3648C443.602 69.4839 442.074 70.4035 441.2 69.452C440.366 68.5447 438.92 69.6093 439.38 70.7521C443.484 80.9435 444.267 92.4649 441.446 103.094C441.616 101.854 441.437 100.588 441.258 99.3478C440.176 92.1045 438.789 84.8701 436.338 77.9657C436.133 77.3859 435.92 76.8083 435.699 76.2334C434.96 74.3107 431.805 75.8935 432.294 77.8943C433.04 80.9702 433.79 84.0917 434.274 87.2288C434.548 89.0017 432.648 89.1898 432.097 87.4826C431.522 85.7011 428.93 86.6132 429.154 88.4719C429.531 91.598 429.743 94.7492 429.842 97.8938C429.959 101.524 429.95 105.28 431.426 108.598C430.292 106.503 429.23 104.359 428.267 102.173C427.331 100.049 424.367 100.473 425.101 102.675C422.98 93.2463 415.125 86.2259 411.117 77.4216C410.623 76.3379 410.187 75.2266 409.813 74.0947C409.148 72.082 411.466 71.1178 412.656 72.8719C413.43 74.0124 414.183 75.1654 414.902 76.3354C415.866 77.9023 419.132 77.0288 418.824 75.2152C418.546 73.5742 420.531 72.6741 421.388 74.1007C423.92 78.3141 425.805 82.9166 426.935 87.6978C426.258 84.5085 425.569 81.2859 424.696 78.132C423.883 75.1934 427.953 72.085 429.458 74.7365C428.42 72.2567 427.382 69.7768 426.344 67.288C426.143 66.8069 425.941 66.3249 425.737 65.8432C424.625 63.2145 428.439 59.3948 430.496 61.3739C434.182 64.9063 436.669 69.5271 438.404 74.3262C437.597 72.6006 436.788 70.8715 435.955 69.1544C434.608 66.3812 437.928 63.3853 440.176 65.4951C439.377 64.7431 440.241 64.0957 440.855 65.0049C441.595 66.1003 442.296 67.2207 442.957 68.3648Z" fill="white"/>
<g opacity="0.5">
<path d="M339.804 104.905C338.524 102.934 337.316 100.891 336.511 98.6787C335.502 95.8944 330.831 94.0717 329.305 96.6104C328.573 97.8297 327.904 99.0863 327.314 100.383C325.798 103.708 324.833 107.318 324.65 110.954C324.649 110.977 324.651 111 324.657 111.022C324.726 111.266 325.128 111.196 325.14 110.943C325.288 107.715 326.716 104.58 328.227 101.658C328.448 101.228 328.68 100.829 328.926 100.457C330.136 98.622 332.842 99.6539 333.872 101.596C334.948 103.642 336.315 105.51 337.904 107.167C338.978 108.287 340.649 106.206 339.804 104.905Z" fill="#512E21"/>
<path d="M450.375 63.9518C448.44 62.9244 445.557 65.7563 446.633 67.6655C449.138 72.108 451.303 76.7418 453.104 81.5112C453.216 81.806 453.65 81.714 453.623 81.4C453.291 77.3976 452.912 73.5642 451.954 69.7795C451.588 68.3329 453.018 66.895 454.485 67.1705C456.523 67.5535 458.596 67.6503 460.723 67.4887C460.739 67.4875 460.744 67.4659 460.729 67.4587C460.728 67.4579 460.726 67.4574 460.724 67.4572C457.111 66.9752 453.613 65.6641 450.375 63.9518Z" fill="#512E21"/>
<path d="M333.12 78.1174C330.183 78.055 327.174 77.3798 324.583 76.0473C324.573 76.0417 324.561 76.0374 324.549 76.0345C324.379 75.9926 324.258 76.2489 324.401 76.3508C327.756 78.7377 332.04 80.1968 336.165 80.538C336.37 80.5549 336.577 80.5325 336.774 80.474C338.727 79.8943 337.958 77.8637 335.928 78.0298C334.996 78.1061 334.06 78.1385 333.12 78.1174Z" fill="#512E21"/>
<path d="M345.852 71.6055C346.687 71.1585 345.893 69.5526 344.966 69.7478C338.838 71.0387 332.355 70.6912 326.421 68.6832C326.414 68.6809 326.408 68.6803 326.401 68.682C326.365 68.6905 326.349 68.7442 326.378 68.766C329.737 71.2328 333.913 73.1676 337.933 74.3009C338.021 74.3258 338.034 74.4437 337.951 74.4816C337.845 74.5295 337.885 74.6722 337.999 74.6502C340.753 74.1181 343.371 72.9451 345.852 71.6055Z" fill="#512E21"/>
<path d="M419.009 100.775C417.398 98.9285 415.967 96.9304 414.285 95.1463C412.334 93.0857 410.062 91.3373 408.156 89.2232C406.68 87.5778 402.435 87.5449 402.124 89.7334C401.592 93.4843 401.869 97.3533 402.958 100.98C402.72 99.8152 402.6 98.6366 402.592 97.4594C402.572 94.5364 407.628 93.9358 409.946 95.7172C412.406 97.6083 415.126 99.1961 417.193 101.507C419.68 104.281 421.022 107.911 421.702 111.569C422.152 113.983 422.328 116.442 422.233 118.891C422.201 119.721 423.175 120.123 423.586 119.401C424.019 118.642 425.285 118.688 425.458 119.546C426.004 122.262 426.247 125.037 426.175 127.804C426.882 123.54 427.589 119.285 428.295 115.021C428.591 113.246 428.895 111.435 429.664 109.802C429.78 109.557 429.698 109.261 429.46 109.132C425.518 106.99 421.951 104.156 419.009 100.775Z" fill="#512E21"/>
<path d="M455.305 96.5557C452.825 93.7628 446.381 95.2427 445.63 98.9011C444.916 102.382 443.925 105.807 442.671 109.132C442.096 110.656 442.137 112.338 442.743 113.85C443.865 116.652 444.671 119.775 442.44 120.07C440.499 120.327 444.644 121.717 445.481 119.947C447.942 114.747 449.815 109.132 450.805 103.633C451.152 101.703 454.782 99.9744 456.674 100.49C458.471 100.98 459.99 101.312 461.693 101.205C461.968 101.188 461.989 100.775 461.729 100.684C461.717 100.679 461.704 100.676 461.691 100.673C461.501 100.64 461.31 100.622 461.12 100.57C458.794 100.008 456.888 98.3487 455.305 96.5557Z" fill="#512E21"/>
<path d="M374.364 82.5062C371.331 83.9334 368.334 85.441 365.373 87.0199C361.597 89.0448 357.84 91.2303 354.744 94.1918C352.691 96.1566 351.188 98.7732 350.253 101.552C349.8 102.896 347.929 103.164 347.499 101.813C346.731 99.3993 346.395 96.8474 346.517 94.3179C346.546 93.7277 345.559 93.4075 345.32 93.948C344.562 95.6636 343.973 97.4339 343.795 99.2294C343.788 99.2931 343.874 99.3046 343.889 99.2424C343.904 99.1811 344.02 99.1976 344.024 99.2606C344.056 99.7047 344.162 100.146 344.277 100.579C344.677 102.04 345.275 103.446 346.026 104.777C347.076 106.635 352.204 104.35 353.277 102.506C355.031 99.4905 357.867 97.2872 360.756 95.3336C370.318 88.8786 381.087 84.7558 390.391 77.9565C390.654 77.7646 390.864 77.5076 390.997 77.2107C391.817 75.375 389.37 74.1018 387.754 75.2991C383.744 78.2715 378.93 80.361 374.364 82.5062Z" fill="#512E21"/>
<path d="M389.815 87.564C387.741 90.0287 385.475 92.3455 383.001 94.4081C382.381 94.9243 381.842 95.5281 381.258 96.0838C380.971 96.3565 380.655 96.5927 380.296 96.7609C386.976 93.0538 393.249 87.5128 397.507 81.1283C397.556 81.0543 397.591 80.9721 397.612 80.8857C397.829 79.9838 396.058 79.1343 395.538 79.9021C393.748 82.5428 391.87 85.1205 389.815 87.564Z" fill="#512E21"/>
</g>
<path opacity="0.5" d="M394.092 75.2004C394.602 71.9712 396.418 69.1078 398.404 66.503C405.427 57.2705 415 49.9915 425.79 45.6919" stroke="#512E21" stroke-miterlimit="10" stroke-linecap="round" stroke-linejoin="round"/>
<path opacity="0.2" d="M355.451 85.1733C355.511 85.1196 355.572 85.066 355.632 85.0127C357.655 83.2312 356.461 81.4896 354.091 82.7738C351.148 84.3705 348.159 85.9583 345.681 88.1973C345.341 88.5048 345.01 88.8268 344.693 89.162C343.141 90.7993 340.789 90.4394 341.986 88.5274C343.525 86.0921 345.851 84.2545 348.231 82.6221C353.93 78.715 360.175 75.6732 366.142 72.1675C372.101 68.6618 377.889 64.603 382.085 59.1259C378.014 65.9232 373.076 72.1942 367.422 77.7516C363.789 81.3198 359.862 84.5935 356.176 88.1081C354.145 90.0439 352.168 92.0777 350.736 94.4773C350.307 95.1999 348.946 95.0107 349.191 94.2067C349.319 93.788 349.459 93.3909 349.609 93.0233C350.852 89.9903 353.017 87.341 355.451 85.1733Z" fill="white"/>
<path opacity="0.2" d="M372.038 50.1699C369.734 55.2223 366.427 59.8009 362.408 63.6394C359.98 65.9585 361.048 68.6792 363.36 66.2444C367.422 61.9537 370.311 55.8165 372.038 50.1699Z" fill="white"/>
<path opacity="0.2" d="M366.42 49.8157C368.807 47.3634 367.399 44.8342 364.827 47.0924C360.479 50.9103 356.677 55.3169 352.338 59.1438C347.999 62.9706 342.935 66.2711 337.227 67.2524C343.668 66.0214 350.182 65.0312 355.451 61.1419C358.922 58.5729 361.553 55.0582 364.469 51.8826C365.105 51.1879 365.756 50.4978 366.42 49.8157Z" fill="white"/>
<path opacity="0.2" d="M381.11 48.3323C384.751 43.8543 389.225 39.8312 394.655 37.8687C398.633 36.4337 403.19 36.2579 407.115 37.6796C408.303 38.11 407.791 39.615 406.529 39.6755C406.277 39.6875 406.026 39.7036 405.775 39.7236C404.384 39.8348 404.913 42.1672 406.279 42.4557C407.509 42.7156 407.181 44.3534 405.936 44.5342C402.218 45.0742 398.617 46.4507 395.555 48.5555C394.768 49.0962 393.812 48.3722 394.529 47.7422C395.238 47.1193 394.585 45.348 393.698 45.672C392.556 46.0895 391.439 46.5742 390.354 47.123C389.248 47.6825 388.162 46.5673 389.035 45.6877C389.099 45.6232 389.163 45.559 389.228 45.4952C390.27 44.4691 389.58 43.1988 388.395 44.056C386.194 45.6483 384.155 47.4643 382.327 49.4741C376.771 55.5756 372.843 63.6307 365.445 67.288C368.486 65.7716 371.68 61.7931 373.55 59.0278C376.002 55.415 378.346 51.7309 381.11 48.3323Z" fill="white"/>
<path opacity="0.2" d="M384.376 70.4815C387.775 66.9134 390.576 62.8279 393.886 59.1884C395.893 56.9873 397.801 59.4886 395.973 61.8409C395.482 62.4731 394.987 63.1013 394.485 63.7199C386.004 74.1567 374.686 82.2831 362.063 86.9753C363.807 86.3241 365.257 84.6381 366.813 83.639C368.907 82.3099 371.036 81.0432 373.094 79.6606C377.129 76.9666 381.021 74.0051 384.376 70.4815Z" fill="white"/>
<path d="M385.681 117.492C386.075 118.787 387.729 118.871 389.005 118.421C396.847 115.657 425.422 105.532 432.366 102.3C436.634 100.309 439.213 101.201 440.695 102.482C442.258 103.833 443.668 106.996 445.377 105.836C445.953 105.446 446.249 104.37 445.768 101.961C445.106 98.6253 442.771 97.2248 440.606 96.6628C438.62 96.1454 436.517 96.3416 434.594 97.0731L387.607 114.935C386.458 115.371 385.323 116.316 385.681 117.492Z" fill="#666EB2"/>
<g opacity="0.5">
<path d="M444.283 102.416C443.334 100.525 441.312 99.3389 439.228 98.9642C437.143 98.5896 434.996 98.9285 432.947 99.4548C430.039 100.204 427.248 101.337 424.466 102.47C411.95 107.548 399.442 112.627 386.927 117.706C386.421 117.911 386.211 118.516 386.636 118.86C386.843 119.027 387.137 119.066 387.388 118.978C391.384 117.575 424.773 105.821 432.357 102.291C438.732 99.3173 441.339 102.775 442.152 104.357C442.382 104.805 442.343 105.006 442.766 105.28C443.733 105.907 445.04 105.149 444.818 104.018C444.71 103.466 444.539 102.929 444.283 102.416Z" fill="#666EB2"/>
</g>
<path d="M388.464 127.17C388.285 124.057 387.632 120.989 387.426 117.893C387.381 117.206 386.872 116.751 386.397 116.261C386.156 116.011 386.961 113.576 378.533 113.576C376.064 113.576 373.604 113.638 371.134 113.665C368.772 113.692 366.384 113.727 364.075 114.182C362.921 114.414 361.848 115.065 361.239 116.065C360.846 116.707 360.282 117.251 359.647 117.652C359.128 117.974 358.528 118.17 357.92 118.197C354.475 118.342 351.443 115.349 348.005 115.609C344.112 115.904 340.167 116.188 336.385 116.573C335.026 116.716 333.361 117.099 333.03 118.42C332.905 118.91 333.013 119.419 333.138 119.909C333.701 122.157 334.444 124.36 335.437 126.448C336.573 128.838 337.871 131.202 339.311 133.468C341.798 137.375 349.653 136.421 352.275 135.422C353.93 134.788 355.692 134.066 356.659 132.585C357.58 131.176 357.589 129.383 357.571 127.706C357.564 127.094 357.532 126.461 357.483 125.822C357.256 122.882 359.209 120.238 361.463 122.139C362.975 123.415 364.004 125.145 365.042 126.831C366.079 128.508 367.198 130.212 368.817 131.336C370.794 132.71 373.29 133.085 375.706 133.263C377.71 133.406 379.714 133.441 381.718 133.343C382.908 133.29 384.098 133.156 385.198 132.746C386.451 132.282 387.614 131.399 388.133 130.159C388.518 129.24 388.518 128.187 388.464 127.17ZM355.281 131.113C355.218 131.461 355.129 131.827 354.905 132.103C354.628 132.451 354.189 132.612 353.76 132.746C350.7 133.709 347.426 133.95 344.259 133.45C343.087 133.263 341.879 132.951 340.984 132.175C340.304 131.577 339.857 130.756 339.454 129.954C338.398 127.857 337.468 125.707 336.663 123.504C336.224 122.318 334.793 119.766 336.108 118.75C337.54 117.643 340.975 117.742 342.72 117.563C345.019 117.331 347.336 117.233 349.653 117.26C350.459 117.269 351.3 117.304 352.015 117.67C353.268 118.304 353.831 119.758 354.234 121.096C355.227 124.334 355.907 127.777 355.281 131.113ZM385.046 130.382C384.581 130.658 384.035 130.747 383.499 130.837C381.325 131.185 379.133 131.497 376.941 131.39C374.749 131.274 372.521 130.712 370.732 129.436C368.754 128.036 362.232 118.473 364.576 117.322C367.806 115.734 371.608 116.011 375.205 116.323C376.923 116.475 378.632 116.618 380.34 116.769C381.503 116.867 382.756 117.01 383.606 117.804C384.187 118.348 384.492 119.133 384.742 119.882C385.404 121.854 385.905 123.879 386.227 125.93C386.487 127.536 386.46 129.543 385.046 130.382Z" fill="#666EB2"/>
<path opacity="0.5" d="M384.751 119.882C384.492 119.124 384.197 118.348 383.615 117.804C382.765 117.01 381.513 116.867 380.35 116.769C378.641 116.618 376.923 116.475 375.214 116.323C371.627 116.011 367.824 115.734 364.586 117.322C362.233 118.473 368.764 128.036 370.741 129.436C372.53 130.712 374.749 131.274 376.95 131.39C379.142 131.506 381.343 131.193 383.508 130.837C384.045 130.747 384.59 130.658 385.056 130.382C386.469 129.543 386.496 127.545 386.236 125.93C385.914 123.87 385.413 121.854 384.751 119.882Z" fill="white"/>
<path opacity="0.5" d="M352.015 117.661C351.3 117.296 350.459 117.26 349.653 117.251C347.336 117.215 345.019 117.313 342.72 117.554C340.975 117.733 337.54 117.635 336.108 118.741C334.793 119.758 336.233 122.309 336.663 123.495C337.468 125.699 338.408 127.848 339.454 129.945C339.866 130.756 340.304 131.577 340.984 132.166C341.879 132.942 343.087 133.254 344.259 133.441C347.426 133.941 350.7 133.7 353.76 132.737C354.181 132.603 354.628 132.442 354.905 132.094C355.129 131.818 355.218 131.452 355.281 131.104C355.907 127.768 355.227 124.325 354.234 121.087C353.832 119.749 353.259 118.304 352.015 117.661Z" fill="white"/>
<path opacity="0.5" d="M343.498 123.067C342.239 121.583 341.019 120.061 339.766 118.577C339.361 118.097 338.64 117.858 338.026 117.986C336.954 118.208 336.812 119.389 337.497 120.244C340.972 124.585 344.514 128.872 348.257 132.973C348.647 133.4 349.213 133.63 349.788 133.566C351.305 133.4 351.736 131.548 350.617 130.51C348.098 128.172 345.719 125.686 343.498 123.067Z" fill="white"/>
<path opacity="0.5" d="M350.884 122.905C352.514 124.506 354.898 123.273 354.234 121.087C353.822 119.749 353.259 118.304 352.015 117.661C351.299 117.296 350.458 117.26 349.653 117.251C347.978 117.23 347.193 119.223 348.375 120.411C349.206 121.246 350.043 122.078 350.884 122.905Z" fill="white"/>
<path opacity="0.5" d="M368.625 116.198C367.325 116.352 366.755 117.798 367.441 118.913C370.006 123.083 372.852 127.082 375.959 130.872C376.203 131.17 376.557 131.363 376.941 131.381C378.56 131.46 379.328 129.546 378.323 128.274C375.503 124.704 372.924 120.927 370.439 117.089C370.043 116.478 369.348 116.113 368.625 116.198Z" fill="white"/>
<path opacity="0.5" d="M386.237 125.922C386.226 125.857 386.216 125.793 386.205 125.729C385.936 124.118 385.148 122.654 384.104 121.397C382.885 119.929 381.708 118.424 380.578 116.886C380.525 116.813 380.439 116.769 380.35 116.751C378.451 116.588 377.211 118.668 378.315 120.221C379.906 122.46 381.584 124.638 383.345 126.748C384.563 128.208 386.522 127.802 386.237 125.922Z" fill="white"/>
<g opacity="0.5">
<path d="M352.713 116.814C351.917 116.404 350.986 116.368 350.101 116.359C347.533 116.323 344.965 116.43 342.415 116.689C340.483 116.885 336.672 116.769 335.088 118C333.63 119.133 335.222 121.952 335.705 123.272C336.6 125.716 337.638 128.098 338.801 130.426C339.248 131.327 339.74 132.228 340.501 132.897C341.494 133.763 342.827 134.11 344.124 134.316C347.631 134.869 351.273 134.601 354.654 133.54C355.12 133.388 355.612 133.209 355.925 132.826C356.175 132.514 356.274 132.112 356.345 131.729C357.043 128.036 356.283 124.218 355.182 120.614C354.726 119.124 354.1 117.519 352.713 116.814ZM355.281 131.113C355.218 131.461 355.129 131.827 354.905 132.103C354.628 132.451 354.189 132.612 353.76 132.746C350.7 133.709 347.426 133.95 344.258 133.45C343.086 133.263 341.879 132.951 340.984 132.175C340.304 131.577 339.857 130.756 339.454 129.954C338.398 127.857 337.468 125.707 336.663 123.504C336.224 122.318 334.793 119.766 336.108 118.75C337.54 117.643 340.975 117.742 342.72 117.563C345.019 117.331 347.336 117.233 349.653 117.26C350.459 117.269 351.299 117.304 352.015 117.67C353.268 118.304 353.831 119.758 354.234 121.096C355.227 124.334 355.907 127.777 355.281 131.113Z" fill="#666EB2"/>
<path opacity="0.25" d="M352.713 116.814C351.917 116.404 350.986 116.368 350.101 116.359C347.533 116.323 344.965 116.43 342.415 116.689C340.483 116.885 336.672 116.769 335.088 118C333.63 119.133 335.222 121.952 335.705 123.272C336.6 125.716 337.638 128.098 338.801 130.426C339.248 131.327 339.74 132.228 340.501 132.897C341.494 133.763 342.827 134.11 344.124 134.316C347.631 134.869 351.273 134.601 354.654 133.54C355.12 133.388 355.612 133.209 355.925 132.826C356.175 132.514 356.274 132.112 356.345 131.729C357.043 128.036 356.283 124.218 355.182 120.614C354.726 119.124 354.1 117.519 352.713 116.814ZM355.281 131.113C355.218 131.461 355.129 131.827 354.905 132.103C354.628 132.451 354.189 132.612 353.76 132.746C350.7 133.709 347.426 133.95 344.258 133.45C343.086 133.263 341.879 132.951 340.984 132.175C340.304 131.577 339.857 130.756 339.454 129.954C338.398 127.857 337.468 125.707 336.663 123.504C336.224 122.318 334.793 119.766 336.108 118.75C337.54 117.643 340.975 117.742 342.72 117.563C345.019 117.331 347.336 117.233 349.653 117.26C350.459 117.269 351.299 117.304 352.015 117.67C353.268 118.304 353.831 119.758 354.234 121.096C355.227 124.334 355.907 127.777 355.281 131.113Z" fill="#666EB2"/>
</g>
<path opacity="0.5" d="M386.174 119.303C385.879 118.437 385.539 117.536 384.868 116.912C383.893 115.993 382.452 115.833 381.11 115.717C379.142 115.547 377.174 115.378 375.205 115.208C371.081 114.851 366.715 114.53 363.002 116.359C360.3 117.688 367.806 128.66 370.07 130.275C372.128 131.738 374.677 132.389 377.2 132.523C379.723 132.656 382.246 132.291 384.734 131.889C385.351 131.791 385.977 131.684 386.514 131.363C388.133 130.4 388.169 128.107 387.874 126.252C387.507 123.897 386.934 121.568 386.174 119.303ZM385.047 130.382C384.581 130.658 384.036 130.747 383.499 130.837C381.325 131.185 379.133 131.497 376.941 131.39C374.749 131.274 372.521 130.712 370.732 129.436C368.755 128.036 362.233 118.473 364.577 117.322C367.806 115.734 371.609 116.011 375.205 116.323C376.923 116.475 378.632 116.618 380.341 116.769C381.504 116.867 382.756 117.01 383.606 117.804C384.188 118.348 384.492 119.133 384.742 119.882C385.405 121.854 385.906 123.879 386.228 125.93C386.487 127.536 386.46 129.543 385.047 130.382Z" fill="#666EB2"/>
<path opacity="0.5" d="M386.174 119.303C385.879 118.437 385.539 117.536 384.868 116.912C383.893 115.993 382.452 115.833 381.11 115.717C379.142 115.547 377.174 115.378 375.205 115.208C371.081 114.851 366.715 114.53 363.002 116.359C360.3 117.688 367.806 128.66 370.07 130.275C372.128 131.738 374.677 132.389 377.2 132.523C379.723 132.656 382.246 132.291 384.734 131.889C385.351 131.791 385.977 131.684 386.514 131.363C388.133 130.4 388.169 128.107 387.874 126.252C387.507 123.897 386.934 121.568 386.174 119.303ZM385.047 130.382C384.581 130.658 384.036 130.747 383.499 130.837C381.325 131.185 379.133 131.497 376.941 131.39C374.749 131.274 372.521 130.712 370.732 129.436C368.755 128.036 362.233 118.473 364.577 117.322C367.806 115.734 371.609 116.011 375.205 116.323C376.923 116.475 378.632 116.618 380.341 116.769C381.504 116.867 382.756 117.01 383.606 117.804C384.188 118.348 384.492 119.133 384.742 119.882C385.405 121.854 385.906 123.879 386.228 125.93C386.487 127.536 386.46 129.543 385.047 130.382Z" fill="white"/>
<path d="M427.669 109.713C427.866 107.885 428.223 105.976 429.378 104.531C430.165 103.549 431.256 102.862 432.366 102.292C434.45 101.212 436.83 100.436 439.121 100.909C442.35 101.578 444.659 104.646 445.401 107.849C446.144 111.06 445.625 114.405 445.052 117.643C444.712 119.579 444.327 121.551 443.299 123.228C441.939 125.44 439.523 126.912 436.973 127.429C435.3 127.768 432.053 128.053 430.487 127.099C429.073 126.234 429.002 124.851 428.599 123.21C427.517 118.812 427.195 114.227 427.669 109.713Z" fill="#F0C49B"/>
<path d="M430.782 115.288C430.397 112.942 430.156 110.48 430.943 108.241C431.739 106.002 433.842 104.067 436.221 104.183C438.539 104.299 440.373 106.261 441.357 108.357C441.822 109.348 442.162 110.4 442.332 111.48C442.699 113.79 442.287 116.154 441.607 118.393C440.99 120.4 440.06 122.46 438.306 123.62C432.526 127.465 431.363 118.821 430.782 115.288Z" fill="#E0A988"/>
<path opacity="0.5" d="M186.382 152.287C184.959 146.029 189.715 140.069 196.133 140.069H330.962C335.864 140.069 340.043 143.622 340.832 148.46L359.854 265.104C360.905 271.551 355.596 277.258 349.09 276.674L219.111 265.007C214.792 264.619 211.215 261.492 210.253 257.264L186.382 152.287Z" fill="#FAFDF8"/>
<path d="M272.543 220.759C270.69 223.566 270.839 227.359 273.277 229.677C277.668 233.852 282.426 237.638 287.707 240.602C294.686 244.518 302.63 246.944 310.629 246.623C313.008 246.525 315.397 246.186 317.616 245.329C322.429 243.474 326.071 239.335 328.352 234.723C330.633 230.111 331.537 225.259 332.333 220.183C333.622 211.994 329.497 203.814 323.986 197.614C317.258 190.05 308.088 184.403 298.05 183.021C288.172 181.656 278.036 183.993 270.1 190.014C264.24 194.457 262.504 202.387 255.821 212.253C249.138 222.119 237.221 226.436 225.698 219.942C214.184 213.448 216.724 188.801 234.144 191.941C241.544 193.274 246.914 196.882 250.643 200.592C253.837 203.771 261.957 202.065 263.965 198.03C264.844 196.264 263.847 195.664 262.549 194.179C255.949 186.63 248.345 180.01 238.679 177.321C227.97 174.341 215.561 176.188 207.393 183.699C205.577 185.367 203.984 187.302 202.875 189.497C200.262 194.697 200.611 200.924 202.114 206.544C203.662 212.333 205.827 217.525 209.451 222.297C218.889 234.75 235.736 241.146 251.097 238.104C254.506 237.426 257.87 236.311 260.76 234.393C264.365 231.993 267.067 228.479 269.563 224.937C272.847 220.29 275.907 215.5 278.743 210.567C280.684 207.186 282.626 203.636 285.775 201.334C288.181 199.577 291.134 198.694 294.086 198.266C302.505 197.044 312.185 200.059 316.095 207.596C318.421 212.083 319.316 217.623 317.777 222.44C316.247 227.257 312.114 231.378 307.104 232.092C301.941 232.832 296.94 230.04 292.798 226.882C290.017 224.763 287.404 222.427 284.985 219.903C281.505 216.273 275.313 216.562 272.543 220.759Z" fill="white"/>
<path d="M255.821 212.244C256.358 211.45 256.85 210.674 257.333 209.907C260.51 204.813 262.487 200.299 264.643 196.615C266.2 193.948 267.846 191.709 270.1 189.996C275.566 185.849 282.071 183.448 288.818 182.805C291.186 182.579 293.453 183.717 294.824 185.661C296.087 187.454 297.28 189.295 298.398 191.181C300.155 194.142 297.492 197.771 294.086 198.274C291.134 198.703 288.182 199.586 285.775 201.343C282.626 203.645 280.693 207.195 278.743 210.576C278.555 210.906 278.358 211.227 278.161 211.557C277.535 212.627 276.909 213.689 276.256 214.75C274.135 218.22 271.899 221.628 269.555 224.946C267.058 228.479 264.366 232.002 260.751 234.402C257.861 236.32 254.497 237.444 251.089 238.113C250.568 238.216 250.045 238.307 249.52 238.388C245.996 238.933 242.95 236.316 241.983 232.882C240.589 227.927 243.972 222.378 248.32 219.622C251.209 217.791 253.764 215.28 255.821 212.244Z" fill="#666EB2"/>
<path d="M194.617 145.359C194.617 146.51 193.687 147.437 192.533 147.437C191.378 147.437 190.448 146.51 190.448 145.359C190.448 144.208 191.378 143.281 192.533 143.281C193.687 143.281 194.617 144.208 194.617 145.359Z" fill="white"/>
<path d="M202.947 147.437C204.098 147.437 205.031 146.507 205.031 145.359C205.031 144.211 204.098 143.281 202.947 143.281C201.795 143.281 200.862 144.211 200.862 145.359C200.862 146.507 201.795 147.437 202.947 147.437Z" fill="white"/>
<path d="M214.121 147.437C215.272 147.437 216.205 146.507 216.205 145.359C216.205 144.211 215.272 143.281 214.121 143.281C212.969 143.281 212.036 144.211 212.036 145.359C212.036 146.507 212.969 147.437 214.121 147.437Z" fill="white"/>
<path d="M317.177 392.994C314.289 393.943 312.337 396.639 312.337 399.679C312.337 403.566 315.488 406.716 319.374 406.716H425.309C430.832 406.716 435.309 402.239 435.309 396.716V367.972C435.309 361.164 428.654 356.346 422.186 358.472L317.177 392.994Z" fill="#666EB2"/>
<path opacity="0.25" d="M317.177 392.994C314.289 393.943 312.337 396.639 312.337 399.679C312.337 403.566 315.488 406.716 319.374 406.716H425.309C430.832 406.716 435.309 402.239 435.309 396.716V367.972C435.309 361.164 428.654 356.346 422.186 358.472L317.177 392.994Z" fill="#666EB2"/>
<path opacity="0.25" d="M435.309 367.971C435.309 361.163 428.654 356.345 422.186 358.471L313.75 394.117C313.536 394.187 313.398 394.399 313.416 394.624C313.436 394.893 313.676 395.086 313.945 395.056C332.025 393.043 350.185 391.652 368.361 390.865C374.365 390.606 380.547 390.437 386.21 392.462C388.831 393.398 391.292 394.79 394.011 395.405C399.612 396.681 405.803 394.558 411.055 396.877C417.058 399.527 419.339 395.263 419.715 401.792C419.877 404.495 422.014 406.716 424.722 406.716H427.616C431.865 406.716 435.309 403.272 435.309 399.023V367.971Z" fill="#666EB2"/>
<path d="M49.3777 361.931C43.5364 361.425 38.5154 366.028 38.5154 371.891C38.5154 379.433 38.5154 389.392 38.5154 396.728C38.5154 402.251 42.9925 406.716 48.5154 406.716H302.328C307.851 406.716 312.328 402.239 312.328 396.716V393.864C312.328 388.675 308.36 384.349 303.191 383.901L49.3777 361.931Z" fill="#666EB2"/>
<path opacity="0.5" d="M49.3777 361.931C43.5364 361.425 38.5154 366.028 38.5154 371.891C38.5154 379.433 38.5154 389.392 38.5154 396.728C38.5154 402.251 42.9925 406.716 48.5154 406.716H302.328C307.851 406.716 312.328 402.239 312.328 396.716V393.864C312.328 388.675 308.36 384.349 303.191 383.901L49.3777 361.931Z" fill="#666EB2"/>
<path d="M85.203 357.487C73.6163 356.187 73.249 339.479 84.7674 337.671L225.189 315.625C226.22 315.463 227.269 315.464 228.299 315.626L413.993 344.927C425.126 346.684 425.298 362.651 414.206 364.647L313.773 382.721C312.821 382.892 311.848 382.925 310.887 382.817L85.203 357.487Z" fill="#666EB2"/>
<g opacity="0.5">
<path d="M258.521 320.392C251.677 319.312 246.69 326.749 247.206 333.659C247.376 335.916 247.277 338.333 248.512 340.242C249.732 342.134 256.046 344.985 257.998 346.107C259.018 346.694 260.156 347.098 261.306 347.28C264.678 347.815 268.096 346.825 271.272 345.594C272.325 345.188 273.368 344.753 274.398 344.292C280.438 341.586 290.013 344.374 296.576 343.519C297.391 343.412 298.191 343.211 298.953 342.909C301.771 341.794 304.133 339.609 307.095 338.922C311.076 337.994 315.075 339.983 318.842 341.571C327.198 345.086 336.288 346.843 345.35 346.691C348.061 346.647 350.853 346.442 353.429 347.289C355.657 348.021 357.563 349.492 359.415 350.929C366.151 356.165 372.996 361.517 377.827 368.537C378.798 369.941 380.463 370.72 382.143 370.418L414.219 364.646C425.312 362.65 425.14 346.683 414.007 344.926L258.521 320.392Z" fill="#666EB2"/>
</g>
<path d="M305.929 393.869C309.347 394.251 312.337 391.576 312.337 388.137C312.337 385.2 310.13 382.732 307.212 382.404L17.8555 349.929C14.3833 349.539 11.3442 352.256 11.3442 355.75C11.3442 358.734 13.587 361.241 16.5524 361.572L305.929 393.869Z" fill="#666EB2"/>
<path d="M312.337 387.748C312.337 384.988 314.314 382.624 317.03 382.135L465.975 355.33C469.37 354.719 472.491 357.329 472.491 360.779C472.491 363.454 470.579 365.746 467.948 366.225L319.063 393.359C315.561 393.997 312.337 391.307 312.337 387.748Z" fill="#666EB2"/>
<path opacity="0.5" d="M305.929 393.869C309.347 394.251 312.337 391.576 312.337 388.137C312.337 385.2 310.13 382.732 307.212 382.404L17.8555 349.929C14.3833 349.539 11.3442 352.256 11.3442 355.75C11.3442 358.734 13.587 361.241 16.5524 361.572L305.929 393.869Z" fill="white"/>
<path opacity="0.2" d="M312.337 387.748C312.337 384.988 314.314 382.624 317.03 382.135L465.975 355.33C469.37 354.719 472.491 357.329 472.491 360.779C472.491 363.454 470.579 365.746 467.948 366.225L319.063 393.359C315.561 393.997 312.337 391.307 312.337 387.748Z" fill="white"/>
<path opacity="0.5" d="M123.452 334.396C112.593 336.955 113.444 352.681 124.515 354.054L271.454 372.267C272.495 372.396 273.55 372.361 274.581 372.162L329.511 361.553C340.361 359.458 340.298 343.909 329.432 341.901L198.195 317.654C196.833 317.402 195.433 317.436 194.085 317.754L123.452 334.396Z" fill="#666EB2"/>
<path d="M266.79 352.721L357.527 340.436C359.775 340.131 360.98 342.995 359.191 344.39C353.886 348.529 347.587 351.232 340.922 352.213L267.023 363.14" fill="#717171"/>
<path d="M285.984 350.123C297.656 348.543 297.471 331.603 285.768 330.277L208.177 321.485C207.271 321.383 206.356 321.404 205.456 321.55L180.808 325.533C169.174 327.412 169.802 344.355 181.544 345.367L265.687 352.626C266.42 352.69 267.158 352.672 267.888 352.573L285.984 350.123Z" fill="#434343"/>
<path opacity="0.5" d="M285.984 350.123C297.656 348.543 297.471 331.603 285.768 330.277L208.177 321.485C207.271 321.383 206.356 321.404 205.456 321.55L180.808 325.533C169.174 327.412 169.802 344.355 181.544 345.367L265.687 352.626C266.42 352.69 267.158 352.672 267.888 352.573L285.984 350.123Z" fill="#434343"/>
<path d="M265.649 349.077C266.389 349.157 267.136 349.142 267.872 349.032C278.045 347.513 277.636 332.708 267.394 331.753L208.084 326.221C207.435 326.161 206.781 326.177 206.136 326.27C196.52 327.658 196.768 341.62 206.427 342.666L265.649 349.077Z" fill="#434343"/>
<path opacity="0.5" d="M265.649 349.077C266.389 349.157 267.136 349.142 267.872 349.032C278.045 347.513 277.636 332.708 267.394 331.753L208.084 326.221C207.435 326.161 206.781 326.177 206.136 326.27C196.52 327.658 196.768 341.62 206.427 342.666L265.649 349.077Z" fill="white"/>
<path d="M253.772 302.705C258.156 301.278 262.889 300.975 267.094 299.101C268.516 298.468 269.885 297.665 271.424 297.442C273.938 297.076 276.371 298.334 278.527 299.672C282.079 301.876 285.658 304.739 286.633 308.798C287.51 312.437 286.061 316.264 284.048 319.431C282.992 321.09 281.766 322.66 280.308 323.98C278.009 326.059 275.19 327.468 272.39 328.797C269.348 330.242 266.056 331.652 262.737 331.134C258.057 330.403 254.828 326.139 252.511 322.018C250.578 318.574 247.903 314.266 247.241 310.323C246.588 306.416 250.569 303.749 253.772 302.705Z" fill="#F0C49B"/>
<path d="M284.23 304.293C283.627 303.588 282.65 303.327 281.784 303.66C279.27 304.65 277.141 306.38 275.047 308.093C268.176 313.704 261.314 319.315 254.443 324.926C254.394 324.958 254.387 325.023 254.421 325.072C256.524 328.042 259.218 330.577 262.728 331.125C266.056 331.643 269.348 330.233 272.381 328.788C275.181 327.459 278 326.05 280.299 323.971C281.757 322.651 282.983 321.081 284.039 319.422C286.052 316.255 287.501 312.437 286.624 308.789C286.227 307.095 285.359 305.612 284.23 304.293Z" fill="#E0A988"/>
<path d="M273.505 306.338C273.17 306.348 272.572 306.754 272.661 307.077C274.072 312.216 275.363 317.386 276.552 322.578C276.951 324.324 278.974 325.176 280.299 323.971C280.426 323.845 280.453 323.649 280.366 323.493C277.515 318.362 275.545 312.746 274.618 306.956C274.565 306.628 273.838 306.327 273.505 306.338Z" fill="#E0A988"/>
<path d="M260.727 310.958C260.056 311.121 259.464 311.906 259.763 312.528C262.352 317.91 264.409 323.551 265.913 329.33C266.157 330.267 267.072 330.873 267.997 330.586C269.019 330.269 269.454 329.084 269.001 328.116C266.657 323.098 265.198 317.636 263.927 312.179C263.729 311.33 261.575 310.754 260.727 310.958Z" fill="#E0A988"/>
<path d="M254.9 308.468C253.461 305.219 248.879 304.339 247.538 307.63C247.206 308.443 247.08 309.339 247.241 310.314C247.904 314.257 250.579 318.565 252.511 322.009C255.532 327.399 260.471 323.96 258.561 318.083C257.5 314.82 256.278 311.609 254.9 308.468Z" fill="#E0A988"/>
<path d="M257.002 322.767C257.414 323.855 257.834 325.077 257.405 326.157C256.823 327.62 254.864 328.128 253.361 327.629C251.858 327.129 250.74 325.898 249.72 324.694C246.051 320.35 242.831 315.55 240.853 310.216C240.442 309.119 240.084 307.968 240.129 306.8C240.174 305.631 240.684 304.418 241.686 303.802C244.736 301.92 249.541 306.389 251.312 308.664C252.627 310.35 253.173 312.723 253.925 314.685C254.944 317.388 255.973 320.073 257.002 322.767Z" fill="#F0C49B"/>
<path d="M255.713 321.946C255.069 321.152 254.362 320.341 253.387 320.019C252.412 319.698 251.142 320.082 250.837 321.054C250.712 321.456 250.766 321.884 250.837 322.294C251.038 323.519 251.353 324.724 251.767 325.894C252.042 326.671 252.578 327.369 253.36 327.628C254.863 328.128 256.814 327.628 257.404 326.157C257.874 324.993 257.116 323.749 256.351 322.754C256.142 322.482 255.93 322.212 255.713 321.946Z" fill="#FAFDF8"/>
<g opacity="0.5">
<path opacity="0.5" d="M359.218 344.399C361.588 342.542 360.514 338.746 357.522 338.407L253.566 326.631C249.815 326.206 246.923 329.904 247.206 333.668C247.376 335.924 247.278 338.342 248.512 340.251C249.733 342.143 256.047 344.994 257.999 346.116C259.019 346.703 260.157 347.107 261.306 347.289C264.679 347.824 268.097 346.834 271.273 345.603C272.326 345.197 273.368 344.762 274.398 344.301C280.438 341.595 290.013 344.383 296.576 343.528C297.391 343.421 298.192 343.22 298.954 342.918C301.772 341.803 304.134 339.617 307.095 338.931C311.076 338.003 315.076 339.992 318.842 341.58C327.198 345.095 336.288 346.852 345.351 346.7C348.062 346.656 350.853 346.45 353.43 347.298C354.004 347.483 354.634 347.466 355.154 347.159C356.56 346.329 357.924 345.414 359.218 344.399Z" fill="#434343"/>
</g>
<path d="M390.62 372.462C389.573 370.643 389.171 368.564 388.876 366.521C387.077 354.274 388.536 341.616 393.099 330.019C393.635 328.645 394.405 327.129 395.899 326.737C397.787 326.246 399.513 327.843 400.623 329.35C408.907 340.652 409.095 356.102 403.378 368.734C401.043 373.89 394.825 379.786 390.62 372.462Z" fill="#E286B8"/>
<path d="M390.62 372.462C389.573 370.643 389.171 368.564 388.876 366.521C387.077 354.274 388.536 341.616 393.099 330.019C393.635 328.645 394.405 327.129 395.899 326.737C397.787 326.246 399.513 327.843 400.623 329.35C408.907 340.652 409.095 356.102 403.378 368.734C401.043 373.89 394.825 379.786 390.62 372.462Z" fill="#E286B8"/>
<path d="M443.844 337.735C447.861 338.155 451.896 338.333 455.904 338.824C474.737 341.134 492.603 350.616 505.03 364.907C507.518 367.77 509.835 370.874 511.105 374.443C511.49 375.531 511.767 376.771 511.239 377.797C510.846 378.555 510.076 379.045 509.334 379.474C496.075 387.118 480.06 388.18 464.752 387.77C449.069 387.341 433.081 385.459 418.901 378.76C417.255 377.975 415.564 377.083 414.517 375.593C413.443 374.068 413.184 372.141 413.023 370.286C412.128 360.018 412.728 347.111 417.344 337.655C419.33 333.587 422.005 333.801 426.067 334.622C431.981 335.809 437.832 337.102 443.844 337.735Z" fill="#E286B8"/>
<path d="M410.643 365.041C412.746 364.55 414.401 362.837 415.26 360.866C416.119 358.894 416.262 356.691 416.163 354.541C415.949 349.76 414.589 345.068 412.558 340.724C411.037 337.477 409.113 334.381 406.546 331.875C403.37 328.788 399.326 326.745 395.219 325.077C387.069 321.777 378.435 319.814 370.151 316.871C366.599 315.613 363.11 314.168 359.459 313.249C356.042 312.393 352.517 312 349.019 311.617C332.747 309.824 316.484 308.032 300.213 306.232C297.867 305.972 294.47 306.059 294.032 308.378C293.8 309.627 294.515 310.832 295.204 311.893C298.184 316.496 301.19 321.143 305.09 325.006C310.324 330.189 316.936 333.739 323.583 336.915C326.035 338.083 328.522 339.216 331.134 339.939C335.67 341.188 340.439 341.179 345.145 341.152C348.925 341.131 352.7 341.111 356.478 341.091C358.777 341.078 361.003 341.87 362.83 343.265C373.581 351.466 384.136 356.993 395.828 362.534C400.122 364.586 406.018 366.12 410.643 365.041Z" fill="#F0C49B"/>
<path d="M416.172 354.55C415.957 349.769 414.597 345.077 412.566 340.733C411.045 337.486 409.122 334.39 406.554 331.884C403.378 328.797 399.334 326.754 395.228 325.086C394.213 324.675 393.216 325.826 393.644 326.834C394.239 328.233 394.715 329.686 395.084 331.161C396.972 338.69 396.158 346.763 393.358 353.997C393.275 354.212 393.19 354.426 393.103 354.639C391.892 357.62 392.937 361.165 395.845 362.543C400.139 364.577 406.026 366.111 410.661 365.041C412.763 364.55 414.418 362.837 415.277 360.866C416.118 358.903 416.261 356.691 416.172 354.55Z" fill="#E0A988"/>
<path d="M354.226 337.923C348.142 336.139 341.459 336.647 335.625 334.158C332.736 332.918 330.195 331 327.529 329.332C323.959 327.102 320.13 325.309 316.444 323.284C308.696 319.02 301.592 313.728 294.653 308.231C294.43 308.054 294.086 308.126 294.032 308.405C293.8 309.654 294.515 310.858 295.204 311.92C298.184 316.523 301.19 321.17 305.09 325.033C310.324 330.215 316.936 333.766 323.583 336.941C326.035 338.11 328.522 339.243 331.134 339.965C335.67 341.214 340.439 341.205 345.145 341.179C350.109 341.152 355.065 341.125 360.029 341.098C360.031 341.098 360.033 341.099 360.034 341.1C360.044 341.107 360.051 341.099 360.042 341.091C359.842 340.89 359.639 340.684 359.415 340.501C357.92 339.243 356.095 338.467 354.226 337.923Z" fill="#E0A988"/>
<path d="M286.749 306.3C284.817 302.687 283.967 298.414 284.933 294.436C285.193 293.365 285.73 292.179 286.803 291.903C287.886 291.626 288.932 292.42 289.756 293.178C295.32 298.325 300.08 304.409 306.37 308.637C309.617 310.823 313.357 312.598 315.486 315.872C315.656 316.13 315.817 316.407 315.826 316.719C315.835 317.085 315.629 317.424 315.388 317.7C314.341 318.922 312.65 319.386 311.049 319.547C301.52 320.519 291.178 314.596 286.749 306.3Z" fill="#F0C49B"/>
<path d="M315.486 315.88C313.348 312.607 309.617 310.832 306.369 308.646C305.695 308.194 305.04 307.72 304.399 307.227C300.888 304.529 295.777 304.49 291.428 303.651C291.114 303.589 290.804 303.514 290.499 303.425C288.389 302.81 285.72 304.363 286.758 306.3C291.196 314.587 301.538 320.519 311.057 319.556C312.659 319.395 314.35 318.922 315.396 317.709C315.638 317.433 315.844 317.094 315.835 316.728C315.817 316.416 315.656 316.139 315.486 315.88Z" fill="#E0A988"/>
<path d="M254.128 330.681C251.727 333.056 251.199 337.372 254.576 337.441C254.639 337.442 254.702 337.442 254.765 337.441C256.644 337.396 258.388 336.486 259.963 335.47C264.374 332.633 268.087 328.86 272.068 325.452C276.103 321.991 280.442 318.895 284.71 315.729C285.381 315.229 286.061 314.712 286.472 313.998C288.145 311.081 284.844 308.289 282.124 308.155C279.547 308.022 277.901 310.528 276.085 312.036C270.449 316.683 264.651 321.126 259.185 325.969C257.458 327.495 255.766 329.061 254.128 330.681Z" fill="#F0C49B"/>
<path d="M282.124 308.147C279.548 308.013 277.902 310.519 276.085 312.027C273.548 314.12 270.981 316.17 268.425 318.229C267.897 318.654 267.413 319.132 266.985 319.658C265.13 321.941 263.35 324.286 261.923 326.853C260.524 329.358 259.481 332.101 259.109 334.932C259.046 335.414 259.557 335.736 259.964 335.47C264.374 332.633 268.087 328.86 272.068 325.452C276.103 321.991 280.442 318.896 284.71 315.729C285.381 315.229 286.061 314.712 286.473 313.998C288.155 311.081 284.844 308.289 282.124 308.147Z" fill="#E0A988"/>
<path d="M257.073 330.893C257.038 330.056 256.743 329.255 256.458 328.471C256.457 328.469 256.457 328.468 256.456 328.465C256.455 328.459 256.445 328.461 256.44 328.465C254.732 330.059 253.066 331.706 251.47 333.416C250.784 334.151 250.472 335.245 251.156 335.982C251.787 336.662 252.847 336.662 253.644 336.186C254.035 335.952 254.412 335.695 254.765 335.407C256.125 334.292 257.154 332.642 257.073 330.893Z" fill="#FAFDF8"/>
<path d="M297.098 317.008C294.523 317.004 291.863 317.187 289.652 318.507C285.228 321.148 280.96 324.058 276.89 327.209C275.244 328.485 273.598 329.823 272.39 331.518C269.787 335.184 269.455 340.135 265.349 343.025C264.338 343.739 263.077 343.971 261.833 343.873C261.529 343.846 261.18 343.792 260.974 343.56C260.706 343.266 260.759 342.802 260.831 342.41L263.193 329.546C263.434 328.226 263.98 326.977 264.794 325.907C268.552 320.956 273.249 314.81 277.803 309.636C278.751 308.557 279.753 307.46 281.077 306.907C282.258 306.416 283.582 306.416 284.862 306.425C291.563 306.461 313.079 308.485 319.432 310.644C320.568 311.028 319.029 317.227 319.414 318.36C319.933 319.886 306.7 313.829 305.341 314.712C302.969 316.247 300.013 317.013 297.098 317.008Z" fill="#F0C49B"/>
<path d="M314.332 311.59C310.78 310.216 307.005 309.547 303.247 308.94C300.572 308.512 297.888 308.102 295.204 307.718C293.155 307.424 290.623 307.04 288.861 308.138C284.271 311.01 280.317 314.792 276.613 318.735C274.841 320.617 273.106 322.544 271.656 324.685C268.032 329.999 266.286 336.311 264.809 342.603C264.729 342.945 265.074 343.223 265.358 343.016C269.464 340.135 269.795 335.175 272.399 331.509C273.607 329.814 275.244 328.476 276.899 327.2C280.978 324.048 285.243 321.142 289.667 318.498C291.874 317.179 294.53 316.991 297.102 316.995C300.02 316.999 302.98 316.234 305.358 314.685C306.718 313.802 319.95 319.868 319.431 318.334C318.64 315.965 318.355 313.385 316.087 312.339C315.51 312.072 314.926 311.822 314.332 311.59Z" fill="#E0A988"/>
<path d="M264.624 336.219C264.562 335.684 264.419 335.104 263.998 334.756C263.162 334.051 262.153 335.211 261.955 336.286L260.831 342.41C260.759 342.802 260.706 343.266 260.974 343.56C261.18 343.792 261.529 343.846 261.833 343.873C261.979 343.886 262.127 343.892 262.275 343.891C262.718 343.89 263.087 343.581 263.247 343.168C264.07 340.929 264.902 338.592 264.624 336.219Z" fill="#FAFDF8"/>
<path d="M272.104 332C271.647 329.859 270.198 327.95 268.266 326.933" stroke="#BA7A5D" stroke-miterlimit="10" stroke-linecap="round" stroke-linejoin="round"/>
<path d="M333.639 327.691C334.811 326.817 335.205 325.211 334.579 323.891C333.254 321.099 330.794 318.851 328.056 317.334C324.666 315.461 320.845 314.56 317.07 313.677C310.378 312.107 303.534 310.582 296.797 309.03C293.916 308.361 290.865 309.11 288.673 311.09C287.975 311.724 287.295 312.384 286.633 313.044C284.191 315.443 281.74 317.843 279.297 320.251C277.776 321.75 276.246 323.249 274.949 324.952C273.589 326.736 272.507 328.717 271.433 330.688C270.06 333.206 268.687 335.73 267.308 338.249C266.949 338.906 266.902 339.624 267.559 339.983C268.642 340.572 269.787 341.179 271.021 341.161C272.73 341.134 274.162 339.921 275.405 338.761C277.561 336.763 279.7 334.702 281.355 332.267C281.963 331.375 282.751 330.608 283.672 330.028C288.002 327.298 292.297 324.89 296.725 322.339C297.244 322.035 297.844 321.875 298.443 321.911C307.631 322.374 315.889 326.754 324.916 328.806C326.652 329.199 328.45 329.502 330.222 329.252C331.286 329.091 332.575 328.485 333.639 327.691Z" fill="#F0C49B"/>
<path d="M312.444 315.765C309.411 316.585 306.486 317.789 303.39 318.334C300.375 318.869 297.217 318.673 294.318 319.645C291.858 320.466 289.755 322.071 287.707 323.65C283.6 326.808 279.44 330.001 276.192 334.033C274.449 336.202 272.885 338.648 270.822 340.442C270.533 340.694 270.647 341.171 271.03 341.161C272.739 341.134 274.161 339.921 275.414 338.761C277.57 336.763 279.708 334.702 281.363 332.267C281.972 331.375 282.759 330.608 283.681 330.028C288.011 327.299 292.305 324.89 296.734 322.339C297.253 322.036 297.852 321.875 298.452 321.911C307.64 322.374 315.897 326.754 324.925 328.806C326.66 329.199 328.459 329.502 330.23 329.252C331.295 329.1 332.583 328.494 333.639 327.7C333.95 327.468 334.205 327.185 334.4 326.87C335.332 325.369 334.032 323.638 332.662 322.522C327.554 318.362 319.948 313.73 312.444 315.765Z" fill="#E0A988"/>
<path d="M295.294 322.785C296.627 322.071 297.226 320.43 297.19 318.913C297.155 317.406 296.627 315.952 296.251 314.489" stroke="#BA7A5D" stroke-miterlimit="10" stroke-linecap="round" stroke-linejoin="round"/>
<path d="M282.088 331.25C282.545 328.806 281.775 326.166 280.075 324.346" stroke="#BA7A5D" stroke-miterlimit="10" stroke-linecap="round" stroke-linejoin="round"/>
<path d="M272.954 335.63C273.168 334.551 272.891 333.293 271.988 332.66C271.234 332.148 270.308 332.746 269.873 333.545C269.021 335.11 268.166 336.674 267.314 338.239C266.956 338.897 266.911 339.615 267.568 339.974C268.908 340.699 270.454 340.142 271.307 338.879C271.375 338.777 271.444 338.675 271.513 338.574C272.113 337.655 272.739 336.71 272.954 335.63Z" fill="#FAFDF8"/>
<path d="M332.324 333.302C329.073 332.337 325.899 331.122 322.832 329.675C319.815 328.252 316.319 328.134 313.243 329.429C311.856 330.012 310.461 330.558 309.125 331.036C306.772 331.875 305.43 334.586 303.417 336.049C302.003 337.075 300.482 338.048 298.765 338.333C295.711 338.856 295.466 335.002 297.074 332.354C299.215 328.826 301.113 325.121 304.231 322.464C306.271 320.733 308.704 319.556 311.12 318.396C312.945 317.513 314.869 316.621 316.891 316.665C324.119 316.844 330.427 321.598 336.296 325.809C337.468 326.647 338.694 327.673 338.881 329.1C339.06 330.474 338.148 331.812 336.958 332.535C335.786 333.266 333.657 333.694 332.324 333.302Z" fill="#F0C49B"/>
<path d="M307.515 331.803C307.712 330.215 307.435 328.565 306.71 327.129" stroke="#BA7A5D" stroke-miterlimit="10" stroke-linecap="round" stroke-linejoin="round"/>
<path d="M318.072 327.191C318.35 326.603 318.511 325.943 318.555 325.291C318.654 324.051 318.403 322.812 318.135 321.598" stroke="#BA7A5D" stroke-miterlimit="10" stroke-linecap="round" stroke-linejoin="round"/>
<path d="M298.917 333.168C299.246 331.742 297.529 331.624 296.759 332.869C296.115 333.912 295.443 334.934 294.706 335.904C294.362 336.358 294.315 337.001 294.748 337.37C295.162 337.722 295.768 337.628 296.16 337.251C296.294 337.123 296.426 336.993 296.555 336.861C297.602 335.809 298.586 334.604 298.917 333.168Z" fill="#FAFDF8"/>
<path d="M401.464 380.389C395.969 378.088 395.945 370.992 398.95 365.848C401.623 361.274 403.361 356.157 403.96 350.902C404.374 347.27 404.244 343.582 403.607 339.983C402.958 336.321 408.925 330.186 412.594 330.795C416.763 331.491 421.182 330.92 425.128 332.446C429.234 334.033 432.258 337.753 433.779 341.874C435.3 345.996 435.479 350.491 435.184 354.871C434.656 362.882 432.616 370.785 429.199 378.046C428.814 378.867 428.393 379.706 427.713 380.303C427.034 380.91 426.157 381.24 425.289 381.516C417.424 384.061 408.951 383.525 401.464 380.389Z" fill="#E286B8"/>
<path opacity="0.5" d="M401.464 380.389C395.969 378.088 395.945 370.992 398.95 365.848C401.623 361.274 403.361 356.157 403.96 350.902C404.374 347.27 404.244 343.582 403.607 339.983C402.958 336.321 408.925 330.186 412.594 330.795C416.763 331.491 421.182 330.92 425.128 332.446C429.234 334.033 432.258 337.753 433.779 341.874C435.3 345.996 435.479 350.491 435.184 354.871C434.656 362.882 432.616 370.785 429.199 378.046C428.814 378.867 428.393 379.706 427.713 380.303C427.034 380.91 426.157 381.24 425.289 381.516C417.424 384.061 408.951 383.525 401.464 380.389Z" fill="white"/>
<path opacity="0.5" d="M433.788 341.883C432.267 337.762 429.243 334.042 425.136 332.454C422.471 331.42 420.174 334.228 420.601 337.056C420.66 337.447 420.716 337.838 420.767 338.231C421.52 344.005 414.25 343.219 412.324 337.724C411.526 335.45 410.607 333.219 409.566 331.046C409.261 330.408 408.684 329.948 408.004 329.752C405.47 329.021 401.737 332.883 402.508 335.405C404.038 340.405 404.56 345.715 403.969 350.911C403.37 356.165 401.636 361.278 398.969 365.847C395.963 370.996 395.987 378.1 401.488 380.401C408.972 383.531 417.444 384.071 425.315 381.534C426.183 381.258 427.06 380.927 427.74 380.321C428.42 379.714 428.831 378.885 429.225 378.064C432.643 370.803 434.683 362.891 435.21 354.889C435.479 350.5 435.309 345.995 433.788 341.883Z" fill="white"/>
<path d="M61.4102 202.53L73.7566 198.239C73.8014 198.221 73.8461 198.212 73.8998 198.212H216.107C221.072 198.212 225.34 201.718 226.288 206.579C231.791 234.875 252.413 327.45 253.728 332.651C255.293 338.824 254.506 355.398 241.265 355.317C229.948 355.246 103.093 334.132 96.4006 333.07C96.2307 333.043 96.0965 332.918 96.0517 332.758L61.1329 203.047C61.0792 202.824 61.1955 202.601 61.4102 202.53Z" fill="#434343"/>
<path d="M63.7387 214.789C62.3441 208.544 67.1057 202.663 73.5044 202.663H208.144C214.344 202.663 219.73 206.918 221.144 212.931C228.597 244.643 250.561 339.207 248.941 344.417C246.991 350.679 245.488 352.525 238.653 351.606C231.817 350.688 103.29 340.349 99.4246 340.322C95.5596 340.295 91.6857 334.649 88.4202 322.794C85.81 313.388 70.1265 243.394 63.7387 214.789Z" fill="#717171"/>
<path d="M105.955 338.847C102.854 338.579 99.5191 340.189 100.539 343.131C100.829 343.966 101.317 344.902 102.091 345.933C103.521 347.839 104.808 348.79 105.837 349.246C107.379 349.929 109.216 349.577 110.897 349.722L261.274 362.654C264.347 362.919 266.969 360.456 266.897 357.373C266.836 354.731 264.796 352.558 262.164 352.331L105.955 338.847Z" fill="#434343"/>
<path d="M116.445 351.775C116.16 351.676 115.913 351.516 115.693 351.31C113.431 349.189 111.857 346.356 111.252 343.319C110.867 341.384 110.989 339.149 112.104 337.613C112.604 336.925 113.536 336.76 114.369 336.933C116.409 337.358 117.506 339.716 117.457 341.798C117.417 343.463 117.78 345.147 118.484 346.668C119.514 348.892 118.76 352.578 116.445 351.775Z" fill="#717171"/>
<path d="M233.757 347.747C236.523 348.226 238.94 353.27 239.27 356.058C239.596 358.81 237.455 364.024 234.928 362.888C234.682 362.777 234.445 362.646 234.215 362.489C231.549 360.67 230.234 357.405 229.697 354.22C229.332 352.09 229.471 349.516 230.909 348.068C231.417 347.557 232.183 347.476 232.893 347.598C233.181 347.647 233.469 347.697 233.757 347.747Z" fill="#717171"/>
<path opacity="0.2" d="M79.6347 209.71H206.525C210.14 209.71 213.28 212.19 214.112 215.696C219.927 240.379 241.587 333.15 240.057 338.065C238.286 343.739 236.935 345.407 230.744 344.568C224.553 343.739 108.183 334.372 104.676 334.355C101.178 334.337 97.6711 329.225 94.7098 318.485C92.3121 309.797 77.5769 244 72.03 219.166C70.9385 214.313 74.6424 209.71 79.6347 209.71Z" fill="#FAFDF8"/>
<g opacity="0.5">
<path d="M149.511 291.5C155.18 290.398 158.568 283.323 157.077 275.698C155.586 268.072 149.782 262.784 144.113 263.886C138.444 264.987 135.056 272.062 136.547 279.688C138.037 287.313 143.842 292.602 149.511 291.5Z" stroke="#FAFDF8" stroke-width="3" stroke-miterlimit="10" stroke-linecap="round" stroke-linejoin="round"/>
</g>
<path d="M564.024 35.8745C564.024 35.4231 564.277 35.0096 564.678 34.8034L575.286 29.3558C575.83 29.076 576.478 29.4716 576.478 30.0839C576.478 30.394 576.303 30.6775 576.026 30.8161L566.008 35.8231C565.993 35.8304 565.984 35.8454 565.984 35.8618C565.984 35.8782 565.993 35.8932 566.008 35.9005L576.025 40.9072C576.303 41.0461 576.478 41.3299 576.478 41.6404C576.478 42.253 575.831 42.6491 575.285 42.3702L564.68 36.9465C564.278 36.7407 564.024 36.3266 564.024 35.8745Z" fill="#A5A9E8"/>
<path d="M598.192 35.8745C598.192 36.3429 597.929 36.7718 597.512 36.9843L586.93 42.3731C586.385 42.651 585.738 42.2546 585.738 41.6424C585.738 41.3308 585.915 41.0462 586.194 40.9077L596.289 35.9005C596.304 35.8932 596.313 35.8782 596.313 35.8618C596.313 35.8454 596.304 35.8304 596.289 35.8232L586.193 30.8156C585.915 30.6773 585.738 30.3931 585.738 30.082C585.738 29.4699 586.385 29.0742 586.93 29.3529L597.514 34.7656C597.93 34.9785 598.192 35.4068 598.192 35.8745Z" fill="#A5A9E8"/>
<path d="M58.5286 73.1355C58.5286 72.7586 58.8371 72.4635 59.2089 72.4018C60.54 72.1807 60.7831 71.283 60.7831 70.446C60.7831 69.7235 60.6758 68.8404 60.5684 68.0911C60.4342 67.3418 60.3537 66.1107 60.3537 65.3882C60.3537 62.9262 61.9641 61.8825 64.2455 61.8825C64.5568 61.8825 64.8091 62.1349 64.8091 62.4461V62.8712C64.8091 63.1381 64.5928 63.3544 64.326 63.3544C62.7424 63.3811 62.2056 64.1839 62.2056 65.6558C62.2056 66.2713 62.2862 67.3953 62.3935 68.0375C62.474 68.6798 62.5814 69.4826 62.5814 70.1784C62.6081 71.9055 61.8674 72.762 60.6746 73.0884C60.6596 73.0926 60.6489 73.1062 60.6489 73.1219C60.6489 73.1377 60.6599 73.1516 60.6753 73.1555C61.8677 73.4566 62.608 74.3657 62.5814 76.0659C62.5814 76.7884 62.474 77.5912 62.3935 78.2335C62.2862 78.9025 62.2056 79.973 62.2056 80.6152C62.2056 82.1406 62.823 82.9167 64.326 82.9702C64.5928 82.9702 64.8091 83.1865 64.8091 83.4533V83.8784C64.8091 84.1897 64.5568 84.4421 64.2455 84.4421C62.0446 84.4421 60.3537 83.4519 60.3537 80.749C60.3537 80.0533 60.4342 78.849 60.5684 78.1265C60.6758 77.3772 60.7831 76.5208 60.7831 75.7982C60.7831 75.0542 60.54 74.1081 59.2085 73.8728C58.8374 73.8072 58.5286 73.5124 58.5286 73.1355Z" fill="#A5A9E8"/>
<path d="M78.1221 73.1355C78.1221 73.5124 77.813 73.8068 77.4422 73.8744C76.1364 74.1124 75.8944 75.0559 75.8944 75.7982C75.8944 76.5208 76.0018 77.3771 76.1091 78.1264C76.2165 78.849 76.3238 80.0532 76.3238 80.749C76.3238 83.4519 74.6329 84.0139 72.432 84.0139H72.3902C72.102 84.0139 71.8684 83.7802 71.8684 83.492V83.4533C71.8684 83.1865 72.0847 82.9702 72.3515 82.9702C73.8277 82.9167 74.4719 82.1406 74.4719 80.6152C74.4719 79.973 74.3645 78.9025 74.284 78.2335C74.1766 77.5912 74.0693 76.7884 74.0693 76.0658C74.0426 74.3656 74.8095 73.4566 76.0022 73.1554C76.0176 73.1515 76.0286 73.1377 76.0286 73.1218C76.0286 73.1062 76.018 73.0926 76.0029 73.0884C74.8098 72.762 74.0426 71.9055 74.0693 70.1784C74.0693 69.4826 74.1766 68.6798 74.284 68.0375C74.3645 67.3953 74.4719 66.2713 74.4719 65.6558C74.4719 64.1839 73.9082 63.3811 72.3515 63.3543C72.0847 63.3543 71.8684 63.138 71.8684 62.8712V62.4193C71.8684 62.1228 72.1087 61.8825 72.4052 61.8825C74.7134 61.8825 76.3238 62.9262 76.3238 65.3882C76.3238 66.1107 76.2165 67.3417 76.1091 68.091C76.0018 68.8404 75.8944 69.7235 75.8944 70.446C75.8944 71.2811 76.1364 72.1764 77.4418 72.4002C77.8133 72.4639 78.1221 72.7586 78.1221 73.1355Z" fill="#A5A9E8"/>
<path d="M606.156 306.755C606.269 307.195 606.054 307.655 605.622 307.794C604.67 308.101 603.259 308.37 601.547 308.37C596.474 308.37 592.636 305.132 592.636 299.217C592.636 293.571 596.474 289.771 602.084 289.771C603.658 289.771 604.843 289.998 605.621 290.244C606.073 290.388 606.281 290.875 606.146 291.33C605.972 291.915 605.313 292.205 604.725 292.038C603.995 291.83 603.13 291.698 602.164 291.698C597.924 291.698 595.106 294.4 595.106 299.137C595.106 303.553 597.655 306.389 602.057 306.389C603.009 306.389 603.973 306.258 604.788 306.034C605.362 305.876 606.007 306.179 606.156 306.755Z" fill="#A5A9E8"/>
<path d="M608.566 306.469C608.764 305.844 609.5 305.57 610.108 305.814C611 306.171 612.052 306.416 613.142 306.416C615.531 306.416 616.927 305.158 616.927 303.339C616.927 301.653 615.96 300.689 613.491 299.753C610.566 298.736 608.74 297.157 608.74 294.641C608.74 291.858 611.076 289.771 614.592 289.771C615.928 289.771 617.02 290 617.825 290.292C618.279 290.456 618.477 290.963 618.322 291.42C618.126 291.998 617.455 292.257 616.876 292.06C616.254 291.848 615.454 291.671 614.511 291.671C612.042 291.671 611.102 293.143 611.102 294.374C611.102 296.06 612.203 296.889 614.699 297.853C617.759 299.057 619.315 300.502 619.315 303.151C619.315 305.934 617.249 308.37 612.981 308.37C611.556 308.37 610.044 308.023 609.004 307.553C608.594 307.368 608.431 306.897 608.566 306.469Z" fill="#A5A9E8"/>
<path d="M621.798 306.469C621.996 305.844 622.732 305.57 623.34 305.814C624.231 306.171 625.284 306.416 626.374 306.416C628.763 306.416 630.158 305.158 630.158 303.339C630.158 301.653 629.192 300.689 626.723 299.753C623.797 298.736 621.972 297.157 621.972 294.641C621.972 291.858 624.307 289.771 627.823 289.771C629.16 289.771 630.252 290 631.057 290.292C631.511 290.456 631.709 290.963 631.554 291.42C631.358 291.998 630.686 292.257 630.108 292.06C629.486 291.848 628.686 291.671 627.743 291.671C625.274 291.671 624.334 293.143 624.334 294.374C624.334 296.06 625.435 296.889 627.931 297.853C630.99 299.057 632.547 300.502 632.547 303.151C632.547 305.934 630.48 308.37 626.213 308.37C624.788 308.37 623.275 308.023 622.236 307.553C621.826 307.368 621.663 306.897 621.798 306.469Z" fill="#A5A9E8"/>
</g>
<defs>
<filter id="filter0_d_528_11473" x="-4" y="-39.4706" width="679.411" height="454.706" filterUnits="userSpaceOnUse" color-interpolation-filters="sRGB">
<feFlood flood-opacity="0" result="BackgroundImageFix"/>
<feColorMatrix in="SourceAlpha" type="matrix" values="0 0 0 0 0 0 0 0 0 0 0 0 0 0 0 0 0 0 127 0" result="hardAlpha"/>
<feOffset dy="4"/>
<feGaussianBlur stdDeviation="2"/>
<feComposite in2="hardAlpha" operator="out"/>
<feColorMatrix type="matrix" values="0 0 0 0 0 0 0 0 0 0 0 0 0 0 0 0 0 0 0.25 0"/>
<feBlend mode="normal" in2="BackgroundImageFix" result="effect1_dropShadow_528_11473"/>
<feBlend mode="normal" in="SourceGraphic" in2="effect1_dropShadow_528_11473" result="shape"/>
</filter>
</defs>
</svg>
